<svg width="16" height="17" viewBox="0 0 16 17" fill="none" xmlns="http://www.w3.org/2000/svg">
<path d="M5.33331 11.7291L7.99998 14.3958L10.6666 11.7291" stroke="#fff" stroke-linecap="round" stroke-linejoin="round"/>
<path d="M8 8.39575V14.3958" stroke="#fff" stroke-linecap="round" stroke-linejoin="round"/>
<path d="M13.92 12.4557C14.4996 12.0481 14.9343 11.4665 15.1609 10.7951C15.3875 10.1238 15.3943 9.39772 15.1803 8.72226C14.9663 8.0468 14.5426 7.4571 13.9707 7.03875C13.3989 6.6204 12.7086 6.39515 12 6.39571H11.16C10.9595 5.61429 10.5843 4.88854 10.0628 4.27309C9.54118 3.65765 8.88678 3.16855 8.14882 2.84261C7.41086 2.51667 6.60858 2.36239 5.80237 2.39139C4.99616 2.42038 4.20703 2.63189 3.49439 3.00999C2.78175 3.3881 2.16417 3.92294 1.68814 4.57426C1.21212 5.22558 0.890051 5.9764 0.74619 6.77021C0.60233 7.56401 0.640423 8.3801 0.857603 9.15705C1.07478 9.934 1.46539 10.6516 2.00002 11.2557" stroke="#fff" stroke-linecap="round" stroke-linejoin="round"/>
</svg>
