<?xml version="1.0" encoding="utf-8"?>
<!-- Generator: Adobe Illustrator 26.4.1, SVG Export Plug-In . SVG Version: 6.00 Build 0)  -->
<svg version="1.1" id="Layer_1" xmlns="http://www.w3.org/2000/svg" xmlns:xlink="http://www.w3.org/1999/xlink" x="0px" y="0px"
	 viewBox="0 0 500 353.4" style="enable-background:new 0 0 500 353.4;" xml:space="preserve">
<style type="text/css">
	.st0{fill:#F5F5F5;}
	.st1{fill:#FFFFFF;}
	.st2{fill:#2D292A;}
	.st3{opacity:0.5;fill:#2D292A;enable-background:new    ;}
	.st4{opacity:0.2;fill:#2D292A;enable-background:new    ;}
	.st5{opacity:0.7;fill:#2D292A;enable-background:new    ;}
	.st6{fill:#EBEBEB;}
	.st7{opacity:0.2;}
	.st8{opacity:0.1;enable-background:new    ;}
	.st9{fill:#FF8B7B;}
	.st10{opacity:0.7;fill:#FFFFFF;enable-background:new    ;}
	.st11{fill:#263238;}
	.st12{fill:#FF5652;}
	.st13{opacity:0.5;fill:#FFFFFF;enable-background:new    ;}
	.st14{opacity:0.8;fill:#FFFFFF;enable-background:new    ;}
</style>
<g id="freepik--Shadow--inject-11">
	<ellipse id="freepik--path--inject-11" class="st0" cx="250" cy="338.3" rx="193.9" ry="11.3"/>
</g>
<g id="freepik--Website--inject-11">
	<path class="st1" d="M83.6,4.5h332.8c8.2,0,14.8,6.6,14.8,14.8v212.8c0,8.2-6.6,14.8-14.8,14.8H83.6c-8.2,0-14.8-6.6-14.8-14.8
		V19.3C68.8,11.1,75.4,4.5,83.6,4.5z"/>
	<path class="st2" d="M435.3,169.7h-1v-9h1V169.7z M435.3,153.6h-1v-18.7h1V153.6z"/>
	<path class="st2" d="M416.4,247.5H83.6c-8.5,0-15.3-6.9-15.3-15.4V19.3C68.2,10.8,75.1,4,83.6,4h332.8c8.5,0,15.3,6.9,15.4,15.3
		v212.8C431.7,240.6,424.9,247.5,416.4,247.5z M83.6,5.1c-7.9,0-14.3,6.4-14.3,14.3v212.8c0,7.9,6.4,14.3,14.3,14.3h332.8
		c7.9,0,14.3-6.4,14.3-14.3V19.3c0-7.9-6.4-14.3-14.3-14.3H83.6z"/>
	<path class="st3" d="M189.8,196.8h-5v-1.1h5V196.8L189.8,196.8z M179.7,196.8h-5.1v-1.1h5.1V196.8z M169.6,196.8h-5v-1.1h5V196.8z
		 M159.6,196.8h-5.1v-1.1h5.1V196.8z M149.5,196.8h-5v-1.1h5V196.8z M139.4,196.8h-5v-1.1h5V196.8z M129.3,196.8h-5v-1.1h5V196.8z
		 M119.2,196.8h-5v-1.1h5V196.8z M109.1,196.8h-5v-1.1h5V196.8z M99,196.8h-1.9c-1.1,0-2.3-0.3-3.3-0.8l0.5-1
		c0.9,0.4,1.8,0.7,2.8,0.7H99L99,196.8z M194.8,194.8l-0.7-0.8c1.2-1.1,1.9-2.5,2-4.1l1.1,0.1C197,191.9,196.2,193.6,194.8,194.8
		L194.8,194.8z M90.3,192.1c-0.3-0.8-0.5-1.7-0.5-2.6v-2.5h1.1v2.5c0,0.8,0.1,1.5,0.4,2.3L90.3,192.1z M197.2,184.9h-1.1v-5h1.1
		V184.9z M90.9,181.9h-1.1v-5h1.1V181.9z M197.2,174.9h-1.1v-5h1.1V174.9z M90.9,171.8h-1.1v-5h1.1V171.8z M197.2,164.8h-1.1v-5h1.1
		V164.8z M90.9,161.7h-1.1v-5h1.1V161.7z M197.2,154.7h-1.1v-5h1.1V154.7z M90.9,151.6h-1.1v-5.1h1.1V151.6z M197.2,144.6h-1.1v-5
		h1.1V144.6z M90.9,141.5h-1.1v-5h1.1V141.5z M197.2,134.5h-1.1v-5.1h1.1V134.5z M90.9,131.4h-1.1v-5h1.1V131.4z M197.2,124.4h-1.1
		v-5h1.1V124.4z M90.9,121.4h-1.1v-5h1.1V121.4z M197.2,114.4h-1.1v-5.1h1.1V114.4z M90.9,111.3h-1.1v-5h1.1V111.3z M197.2,104.3
		h-1.1v-5h1.1V104.3z M90.9,101.2h-1.1v-5h1.1V101.2z M197.2,94.2h-1.1v-5h1.1V94.2z M90.9,91.1h-1.1v-5h1.1V91.1z M197.2,84.1h-1.1
		v-5h1.1V84.1z M90.9,81.1h-1.1V76h1.1V81.1z M197.2,74.1h-1.1v-2.5c0-0.8-0.1-1.6-0.4-2.3l1-0.4c0.3,0.9,0.5,1.8,0.5,2.7V74.1z
		 M90.9,71.1L89.8,71c0.2-1.8,1-3.5,2.3-4.8l0.7,0.8C91.8,68,91,69.4,90.9,71.1L90.9,71.1z M192.6,66c-0.9-0.4-1.8-0.7-2.8-0.6h-1.9
		v-1.2h1.9c1.1,0,2.2,0.3,3.3,0.8L192.6,66z M182.8,65.3h-5v-1.2h5V65.3z M172.8,65.3h-5v-1.2h5V65.3z M162.7,65.3h-5v-1.2h5V65.3z
		 M152.6,65.3h-5v-1.2h5V65.3z M142.5,65.3h-5.1v-1.2h5.1V65.3z M132.4,65.3h-5v-1.2h5V65.3z M122.3,65.3h-5v-1.2h5V65.3z
		 M112.2,65.3h-5v-1.2h5V65.3z M102.2,65.3h-5v-1.1h5V65.3z"/>
	<path class="st2" d="M97.4,20.1c0,2.6-2.1,4.8-4.8,4.8c-2.6,0-4.8-2.1-4.8-4.8c0-2.6,2.1-4.8,4.8-4.8c0,0,0,0,0,0
		C95.3,15.3,97.4,17.5,97.4,20.1z"/>
	<path class="st4" d="M128.8,22.9h-23.4c-1.5,0-2.8-1.2-2.8-2.8l0,0c0-1.5,1.3-2.8,2.8-2.8h23.4c1.5,0,2.8,1.3,2.8,2.8l0,0
		C131.5,21.7,130.3,22.9,128.8,22.9z"/>
	<path class="st4" d="M241.7,21.6h-16.4c-0.8,0-1.5-0.7-1.5-1.5l0,0c0-0.8,0.7-1.5,1.5-1.5c0,0,0,0,0,0h16.4c0.8,0,1.5,0.7,1.5,1.5
		c0,0,0,0,0,0l0,0C243.2,21,242.5,21.6,241.7,21.6z"/>
	<path class="st4" d="M278.5,21.6h-16.4c-0.8,0-1.5-0.7-1.5-1.5l0,0c0-0.8,0.7-1.5,1.5-1.5h16.4c0.8,0,1.5,0.7,1.5,1.5c0,0,0,0,0,0
		l0,0C280.1,21,279.4,21.6,278.5,21.6z"/>
	<path class="st4" d="M315.4,21.6H299c-0.8,0-1.5-0.7-1.5-1.5l0,0c0-0.8,0.7-1.5,1.5-1.5h16.4c0.8,0,1.5,0.7,1.5,1.5c0,0,0,0,0,0
		l0,0C316.9,21,316.2,21.6,315.4,21.6z"/>
	<path class="st4" d="M352.3,21.6h-16.4c-0.8,0-1.5-0.7-1.5-1.5l0,0c0-0.8,0.7-1.5,1.5-1.5h16.4c0.8,0,1.5,0.7,1.5,1.5l0,0
		C353.8,21,353.1,21.6,352.3,21.6z"/>
	<path class="st5" d="M399.5,22.8h-24.9c-1.5,0-2.7-1.2-2.7-2.7v0l0,0c0-1.5,1.2-2.7,2.7-2.7c0,0,0,0,0,0h24.9
		c1.5,0,2.7,1.2,2.7,2.7c0,0,0,0,0,0l0,0C402.2,21.6,401,22.8,399.5,22.8L399.5,22.8z"/>
	<path class="st5" d="M229.5,192.8H276c3.2,0,5.8,2.6,5.8,5.8v1.2c0,3.2-2.6,5.8-5.8,5.8h-46.6c-3.2,0-5.8-2.6-5.8-5.8v-1.2
		C223.7,195.4,226.3,192.8,229.5,192.8z"/>
	<path class="st4" d="M399.1,135.7V87.1c0-0.8,0.7-1.5,1.5-1.5c0,0,0,0,0,0l0,0c0.8,0,1.5,0.7,1.5,1.5v48.6c0,0.8-0.7,1.5-1.5,1.5
		l0,0C399.8,137.3,399.1,136.6,399.1,135.7C399.1,135.8,399.1,135.8,399.1,135.7z"/>
	<circle class="st4" cx="400.6" cy="149.6" r="1.5"/>
	<circle class="st4" cx="400.6" cy="171.2" r="1.5"/>
	<circle class="st4" cx="400.6" cy="192.9" r="1.5"/>
	<path class="st4" d="M236,64.7h118.5c6.8,0,12.3,5.5,12.3,12.3v0c0,6.8-5.5,12.3-12.3,12.3H236c-6.8,0-12.3-5.5-12.3-12.3v0
		C223.7,70.2,229.2,64.7,236,64.7z"/>
	<path class="st4" d="M311,124.9h-75c-6.8,0-12.3-5.5-12.3-12.3l0,0c0-6.8,5.5-12.3,12.3-12.3h75c6.8,0,12.3,5.5,12.3,12.3l0,0
		C323.3,119.4,317.8,124.9,311,124.9z"/>
	<path class="st6" d="M333,153.6H226.6c-1.6,0-2.9-1.3-2.9-2.9l0,0c0-1.6,1.3-2.9,2.9-2.9H333c1.6,0,2.9,1.3,2.9,2.9l0,0
		C335.9,152.3,334.6,153.6,333,153.6z"/>
	<path class="st6" d="M358,153.6h-10.9c-1.6,0-2.9-1.3-2.9-2.9l0,0c0-1.6,1.3-2.9,2.9-2.9h10.9c1.6,0,2.9,1.3,2.9,2.9l0,0
		C360.9,152.3,359.6,153.6,358,153.6z"/>
	<path class="st6" d="M273.5,159.7h45.8c1.6,0,2.9,1.3,2.9,2.9l0,0c0,1.6-1.3,2.9-2.9,2.9h-45.8c-1.6,0-2.9-1.3-2.9-2.9l0,0
		C270.6,161,271.9,159.8,273.5,159.7z"/>
	<path class="st6" d="M226.6,159.7h32.8c1.6,0,2.9,1.3,2.9,2.9l0,0c0,1.6-1.3,2.9-2.9,2.9h-32.8c-1.6,0-2.9-1.3-2.9-2.9l0,0
		C223.7,161,225,159.8,226.6,159.7z"/>
	<path class="st6" d="M291.1,177.4h-64.5c-1.6,0-2.9-1.3-2.9-2.9l0,0c0-1.6,1.3-2.9,2.9-2.9h64.5c1.6,0,2.9,1.3,2.9,2.9l0,0
		C293.9,176.1,292.6,177.4,291.1,177.4z"/>
	<path class="st6" d="M338,177.4h-32.8c-1.6,0-2.9-1.3-2.9-2.9l0,0c0-1.6,1.3-2.9,2.9-2.9H338c1.6,0,2.9,1.3,2.9,2.9l0,0
		C340.9,176.1,339.6,177.4,338,177.4z"/>
</g>
<g id="freepik--Character--inject-11">
	<path class="st2" d="M104,66.3l91.3-17.4c3.6-0.7,7.1,1.7,7.8,5.3l22.1,116.1c0.7,3.6-1.7,7.1-5.3,7.8l-91.3,17.4
		c-3.6,0.7-7.1-1.7-7.8-5.3L98.7,74.1C98,70.5,100.4,67,104,66.3z"/>
	<g class="st7">
		<path class="st1" d="M125.1,191.5c-0.1,0-0.2,0-0.2-0.1c-0.2-0.1-0.3-0.4-0.2-0.7l73.6-137.6c0.1-0.2,0.4-0.3,0.7-0.2
			c0.2,0.1,0.3,0.4,0.2,0.7l-73.6,137.6C125.5,191.4,125.3,191.5,125.1,191.5z"/>
		<path class="st1" d="M221.4,173.2c-0.1,0-0.2,0-0.3-0.1l-119-100.9c-0.2-0.2-0.2-0.5-0.1-0.7c0,0,0,0,0,0c0.2-0.2,0.5-0.2,0.7-0.1
			l119,100.9c0.2,0.2,0.2,0.5,0.1,0.7C221.7,173.1,221.6,173.2,221.4,173.2z"/>
	</g>
	<path class="st2" d="M209.8,186.1c0,0,13,45.3,18.3,67.6c5.6,23.4,22.1,58.7,23.5,74.2c1.4,0.6,6.1-0.1,8.5-1.3
		c0,0-2.3-49.4-15.7-71.9c3-55.4-12-68.6-12-68.6H209.8z"/>
	<path class="st8" d="M226.7,208.9l-7.3,11.3c2.3,8.5,4.7,17.4,6.6,25C228,232,226.7,208.9,226.7,208.9z"/>
	<path class="st9" d="M236.7,147.1c0.2,0.6,0.4,1.1,0.5,1.6s0.3,1,0.4,1.5c0.3,1,0.5,2,0.7,3c0.4,2,0.7,4,0.9,6
		c0.2,2,0.3,4.1,0.3,6.1c0,2.1-0.2,4.2-0.5,6.2v0.3c0,0.2-0.1,0.5-0.2,0.7c-0.5,1.2-1.1,2.3-2,3.3c-0.7,0.8-1.5,1.5-2.4,2.1
		c-1.5,1-3.1,1.7-4.8,2.3c-1.5,0.5-3.1,0.8-4.7,1c-1.6,0.2-3.1,0.3-4.7,0.3c-1.5,0-2.7-1.3-2.6-2.8c0-1,0.6-1.9,1.6-2.4l0.2-0.1
		c1.1-0.5,2.4-1.1,3.6-1.6c1.1-0.5,2.3-1.2,3.3-1.8c0.9-0.6,1.8-1.2,2.5-2c0.6-0.6,0.8-1.2,0.7-1.3l-0.2,1c0-1.7,0-3.3-0.1-5
		s-0.3-3.4-0.6-5s-0.6-3.4-0.9-5.1c-0.2-0.8-0.4-1.7-0.6-2.5l-0.3-1.2l-0.3-1.1l-0.1-0.3c-0.6-2.9,1.2-5.8,4.2-6.4
		C233.1,143.2,235.7,144.6,236.7,147.1z"/>
	<path class="st9" d="M223.6,176.3l-6.5-1.9c-0.9-0.3-1.9-0.2-2.8,0.2l-2.4,1.1c-1.2,0.5-1.7,1.9-1.2,3.1c0,0,0,0,0,0l1.1,2.4
		c0.5,1,1.5,1.5,2.6,1.3l4.4-1c0,0,4.9,0.3,6.7-2.6L223.6,176.3z"/>
	<path class="st2" d="M229.5,137.9c-3.5,3.6-5.4,9.1-2.5,19.6c3.7,1.9,12.8-0.6,12.8-0.6S239.9,141.2,229.5,137.9z"/>
	<path class="st10" d="M229.5,137.9c-3.5,3.6-5.4,9.1-2.5,19.6c3.7,1.9,12.8-0.6,12.8-0.6S239.9,141.2,229.5,137.9z"/>
	<path class="st11" d="M235.8,145.2c-0.2,0-0.3,0.1-0.3,0.3c0,0,0,0,0,0c0,0.2,0.2,0.3,0.3,0.3l0,0l1.6-0.1
		c-0.1-0.2-0.2-0.4-0.3-0.6L235.8,145.2z"/>
	<path class="st11" d="M235.5,151.6c-0.1-0.1-0.3-0.1-0.5,0c-0.1,0.1-0.1,0.3,0,0.5c0,0,0,0,0,0l4.7,4c0-0.2,0-0.6-0.1-0.9
		L235.5,151.6z"/>
	<path class="st2" d="M226,152.8l5.3-3.3c0.2-0.1,0.2-0.3,0.1-0.5s-0.3-0.2-0.5-0.1l-5.1,3.2C225.9,152.3,225.9,152.6,226,152.8z"/>
	<path class="st9" d="M220.5,122.2c-0.7,4.6-1.1,12.9,2.1,15.5c0,0-4.3-0.1-12.6,6.5c-3-3.4-1.3-4.8-1.3-4.8
		c4.9-1.8,4.6-5.5,3.6-8.9L220.5,122.2z"/>
	<path class="st11" d="M207.6,116.6c-0.1,0.6-0.6,1-1,1s-0.6-0.6-0.4-1.2s0.6-1,1-1S207.7,116.1,207.6,116.6z"/>
	<path class="st11" d="M207.3,115.5l-1.3-0.7C206,114.8,206.4,116.1,207.3,115.5z"/>
	<path class="st12" d="M207.3,117.8c-0.9,1.3-1.9,2.4-3.1,3.4c0.5,0.6,1.2,0.8,2,0.8L207.3,117.8z"/>
	<path class="st11" d="M207.1,111.7c0-0.1,0-0.2,0-0.3c0.1-0.2,0.3-0.3,0.5-0.2c1.1,0.4,2,1.3,2.4,2.4c0,0.2-0.1,0.4-0.2,0.4
		c0,0,0,0,0,0c-0.2,0-0.4-0.1-0.4-0.3c-0.3-0.9-1-1.6-1.9-1.9C207.2,111.9,207.1,111.8,207.1,111.7z"/>
	<path class="st9" d="M227.6,118c-2.1,7-2.8,10.1-7.3,13.1c-6.7,4.6-14.9,0.9-15-6.5c0-6.7,3.4-17.1,11.1-18.7
		c5.1-1.3,10.2,1.8,11.4,6.9C228.3,114.4,228.2,116.3,227.6,118z"/>
	<path class="st11" d="M211.3,118.4c-4.2-3-2.1-8.4,1.7-8.6c-5-3.5-2.4-9.8,3.7-9.6s7,4,7,4s9.9,0.5,11.2,7.7
		c1.6,8.4-3.5,13.8-9.9,16.3c4.3,3.5-5.9,6-10.9,3.2S207.2,122.2,211.3,118.4z"/>
	<path class="st1" d="M234.5,108.9c-5.4-1-8.1,6.4-4.6,10.8c0.5,0.7,1.1,1.2,1.8,1.7c1.6,1,3.8,0.6,4.8-1c0.3-0.5,0.5-1.1,0.6-1.6
		C237.4,115.2,237.4,109.5,234.5,108.9z"/>
	<path class="st11" d="M249.1,112.7c0.4-0.3,0.6-0.7,0.7-1.1c0.2-2.1-1.4-3.5-3.3-3.8c-1.1-3.6-6-3.7-8.7-1.1
		c-2.2-1.1-4.7,1.4-4.4,4c-2.4,1-3,5-0.8,7.2c0.4,0.4,0.8,0.7,1.3,1c0.1,0.1,0.2,0.1,0.3,0.1c0.2,1.7,1.5,3,3.2,3.4
		c0.4,0.1,0.9,0.1,1.4,0.1c0.7-0.1,1.2-0.5,1.5-1.1c1.6,1.3,3.2,2.1,4.4,1.3c1.1-0.8,1.8-2.1,1.7-3.4c0.7,0.4,1.6,0.3,2.2-0.1
		C250.9,117.7,250.6,114.8,249.1,112.7z"/>
	<path class="st9" d="M213.6,119.5c-0.7,1.2-1.9,2.1-3.3,2.4c-1.7,0.3-2.3-1.7-1.5-3.6c0.7-1.7,2.4-3.9,4-3.3
		S214.6,117.8,213.6,119.5z"/>
	<path class="st2" d="M211.3,114.2c1.5-2.8,9.5-10.5,14.9-10.2c1.1,0.3,2.2,0.7,3.2,1.3c0.1,0,0.1,0.2,0.1,0.3
		c0,0.1-0.1,0.1-0.2,0.1c-2.1,0.2-8.9,1.8-15.3,11.9C212.9,116.6,212,115.5,211.3,114.2z"/>
	<path class="st1" d="M214.5,119.9c-1.3,2.9-3.9,4.5-5.8,3.6s-2.4-3.9-1.1-6.8s3.9-4.5,5.8-3.6S215.8,117.1,214.5,119.9z"/>
	<path class="st2" d="M212.9,119.2c-1.2,2.6-3.4,4.1-5,3.4s-1.9-3.4-0.8-6s3.4-4.1,5-3.4S214.1,116.6,212.9,119.2z"/>
	<path class="st11" d="M247.3,338.3c5.6-0.8,5.7-1.8,8.7-2.8c2.6-0.9,3.3-0.8,5.4-1.5c1.7-0.6,1.1-2.2,0-4c-0.5-1.1-1-2.2-1.3-3.3
		l-8.5,1.3c-0.8,2.4-1.1,5.4-6,7.2C242.7,336.1,245,338.6,247.3,338.3z"/>
	<path class="st11" d="M195.2,338.3c5.6,0,6.6-0.4,9.8-0.5c2.7-0.1,3.1,0.5,5.9,0.5c1.8,0,2.1-2,1.4-3.6c-0.4-1.4-0.8-2.7-1-4.1
		h-7.7c-1.4,2.4-5.2,4.2-9.4,4.5C191.2,335.3,193,338.3,195.2,338.3z"/>
	<path class="st2" d="M201.8,186.1c0,0-1.1,40.2,1.3,65.7c-0.1,23.9,0.6,78.8,0.6,78.8c0.2,1.2,6.6,0.7,7.7,0c0,0,12-39.9,6.7-78.8
		c13.4-40.5,10.5-65.7,10.5-65.7H201.8z"/>
	<path class="st2" d="M250.5,324.8c0.1,1.1,0.2,2.1,0.2,3.2c0,0.4,0.3,0.7,0.6,0.7c0,0,0,0,0,0c3.2,0,7.6-1.4,9-1.8
		c0.3-0.1,0.4-0.3,0.4-0.6v-3c0-0.4-0.3-0.7-0.7-0.7c0,0-0.1,0-0.1,0l-9,1.5C250.6,324.2,250.4,324.5,250.5,324.8z"/>
	<path class="st13" d="M250.5,324.8c0.1,1.1,0.2,2.1,0.2,3.2c0,0.4,0.3,0.7,0.6,0.7c0,0,0,0,0,0c3.2,0,7.6-1.4,9-1.8
		c0.3-0.1,0.4-0.3,0.4-0.6v-3c0-0.4-0.3-0.7-0.7-0.7c0,0-0.1,0-0.1,0l-9,1.5C250.6,324.2,250.4,324.5,250.5,324.8z"/>
	<path class="st2" d="M202.7,327.2c0,0.8-0.1,2.3-0.1,3.4c0,0.4,0.2,0.7,0.6,0.7c2.8,0.2,5.7,0.2,8.5-0.1c0.3,0,0.5-0.2,0.6-0.5
		l0.6-3c0.1-0.4-0.2-0.7-0.6-0.8c0,0-0.1,0-0.1,0l-8.8-0.3C203,326.6,202.8,326.8,202.7,327.2C202.7,327.2,202.7,327.2,202.7,327.2z
		"/>
	<path class="st13" d="M202.7,327.2c0,0.8-0.1,2.3-0.1,3.4c0,0.4,0.2,0.7,0.6,0.7c2.8,0.2,5.7,0.2,8.5-0.1c0.3,0,0.5-0.2,0.6-0.5
		l0.6-3c0.1-0.4-0.2-0.7-0.6-0.8c0,0-0.1,0-0.1,0l-8.8-0.3C203,326.6,202.8,326.8,202.7,327.2C202.7,327.2,202.7,327.2,202.7,327.2z
		"/>
	<path class="st2" d="M196.7,152.5c0.4,4.7,1,9.3,1.9,13.9c1,6,1.7,11.9,3.1,21.8c13.8,1.5,30,0.3,30.7-2c-1.1-8.6-1-20.2,2-40.1
		c0.7-3.9-1.8-7.6-5.7-8.4c-0.5-0.1-1-0.1-1.5-0.1c-1.2,0-2.5,0.1-3.8,0.2c-4.6,0.2-9.3,0.8-13.8,1.7c-1.5,0.3-3,0.7-4.5,1.1
		C199.8,142,196.3,147,196.7,152.5z"/>
	<path class="st14" d="M196.7,152.5c0.4,4.7,1,9.3,1.9,13.9c1,6,1.7,11.9,3.1,21.8c13.8,1.5,30,0.3,30.7-2c-1.1-8.6-1-20.2,2-40.1
		c0.7-3.9-1.8-7.6-5.7-8.4c-0.5-0.1-1-0.1-1.5-0.1c-1.2,0-2.5,0.1-3.8,0.2c-4.6,0.2-9.3,0.8-13.8,1.7c-1.5,0.3-3,0.7-4.5,1.1
		C199.8,142,196.3,147,196.7,152.5z"/>
	<path class="st11" d="M199.1,144.4l1.6,2c0.1,0.1,0.2,0.1,0.2,0.1c0.1,0,0.2,0,0.2-0.1c0.1-0.1,0.2-0.3,0.1-0.5l-1.7-2.1
		C199.4,144.1,199.3,144.3,199.1,144.4z"/>
	<path class="st2" d="M206.5,143.3L206.5,143.3c0.2,0,0.3-0.1,0.3-0.3l0.2-3l-0.7,0.2l-0.2,2.8C206.1,143.1,206.2,143.2,206.5,143.3
		C206.4,143.3,206.4,143.3,206.5,143.3z"/>
	<path class="st2" d="M220.8,145.9c0.1,0,0.1,0,0.2,0c0.2,0,0.3-0.2,0.3-0.3c0-0.1-0.1-0.2-0.1-0.3l-8.4-5.6
		c-0.2-0.1-0.4-0.1-0.5,0.1c-0.1,0.1-0.1,0.3,0.1,0.4c0,0,0,0,0,0L220.8,145.9z"/>
	<path class="st11" d="M206.5,147.8c-0.1,0.2,0,0.4,0.2,0.4c0,0,0,0,0,0l9.4,3.7h0.1c0.1,0,0.3-0.1,0.3-0.2c0.1-0.2,0-0.4-0.2-0.4
		l-9.4-3.7C206.7,147.5,206.6,147.6,206.5,147.8C206.5,147.8,206.5,147.8,206.5,147.8z"/>
	<path class="st2" d="M201.1,164.5c0.2,0.1,0.4,0,0.4-0.1l5.5-8.5c0.1-0.2,0-0.4-0.1-0.4c-0.1-0.1-0.3-0.1-0.4,0.1c0,0,0,0,0,0
		l-5.4,8.5C200.9,164.2,201,164.4,201.1,164.5z"/>
	<path class="st2" d="M198.4,157.1c0.1,0.1,0.1,0.1,0.2,0.1c0.2,0,0.3-0.2,0.3-0.3c0-0.1,0-0.2-0.1-0.2l-2-1.8c0,0.3,0.1,0.7,0.1,1
		L198.4,157.1z"/>
	<path class="st2" d="M228.1,162.7c-0.2,0.1-0.3,0.3-0.2,0.4c0,0.1,0.2,0.2,0.3,0.2c0,0,0.1,0,0.1,0l4.2-1.5c0-0.2,0.1-0.5,0.1-0.7
		L228.1,162.7z"/>
	<path class="st2" d="M226.3,155.9c0.1,0,0.1,0,0.2-0.1l7.2-4.5l0.1-0.9l-7.7,4.8c-0.1,0.1-0.2,0.3-0.1,0.4
		C226.1,155.9,226.2,155.9,226.3,155.9z"/>
	<path class="st2" d="M221.4,157.2c-0.1-0.2-0.3-0.2-0.5-0.1l-8.5,5.4c-0.2,0.1-0.2,0.3-0.1,0.5c0.1,0.1,0.2,0.1,0.3,0.1
		c0.1,0,0.1,0,0.2-0.1l8.5-5.4C221.4,157.5,221.5,157.3,221.4,157.2z"/>
	<path class="st11" d="M228.6,145.8h0.1c0.2-0.1,0.3-0.3,0.2-0.4l-3-7.8h-0.7l3,8C228.2,145.7,228.4,145.9,228.6,145.8z"/>
	<path class="st2" d="M220.1,186.8c-0.1-0.1-0.3-0.1-0.4,0.1c0,0,0,0,0,0c-0.1,0.2-0.1,0.4,0.1,0.5l1.9,1.2l1.1-0.1L220.1,186.8z"/>
	<path class="st2" d="M232.1,183.7l-7.3-2.9c-0.2-0.1-0.4,0-0.4,0.1c-0.1,0.2,0,0.4,0.1,0.4c0,0,0,0,0.1,0l7.6,3
		C232.2,184.2,232.2,183.9,232.1,183.7z"/>
	<path class="st11" d="M201.4,185.9c0,0.2,0.1,0.4,0.1,0.6c0.1,0,0.2-0.2,0.2-0.3C201.7,186,201.5,185.9,201.4,185.9z"/>
	<path class="st2" d="M201.3,175.8c0.2,0,0.3-0.2,0.3-0.3c0-0.1,0-0.2-0.1-0.2l-1.8-1.5c0,0.3,0.1,0.6,0.1,1l1.2,1.1
		C201.1,175.8,201.2,175.8,201.3,175.8z"/>
	<path class="st11" d="M216.6,172.5c0.1,0,0.3-0.1,0.3-0.2c0.1-0.2,0-0.4-0.2-0.4l-9.4-3.7c-0.2-0.1-0.4,0-0.4,0.2c0,0,0,0,0,0
		c-0.1,0.2,0,0.4,0.2,0.4c0,0,0,0,0,0l9.4,3.7L216.6,172.5z"/>
	<path class="st2" d="M214.5,176.8l-8.5,5.4c-0.2,0.1-0.2,0.3-0.1,0.5c0.1,0.1,0.2,0.2,0.3,0.1c0.1,0,0.1,0,0.2,0l8.5-5.4
		c0.2-0.1,0.2-0.3,0.1-0.5C214.8,176.8,214.6,176.8,214.5,176.8z"/>
	<path class="st11" d="M222.4,174.3c0.1,0.1,0.2,0.2,0.3,0.2c0.1,0,0.1,0,0.2-0.1l8.5-5.4c0.1-0.1,0.1-0.3,0-0.5
		c-0.1-0.1-0.2-0.1-0.4-0.1l-8.5,5.4C222.3,173.9,222.3,174.1,222.4,174.3z"/>
	<path class="st11" d="M212.7,187.1c-0.1-0.2-0.3-0.3-0.4-0.2s-0.3,0.3-0.2,0.4l0.6,1.5h0.7L212.7,187.1z"/>
	<path class="st9" d="M205.7,152.7c-0.1,0.7-0.1,1.1-0.2,1.6s-0.2,1-0.3,1.5c-0.2,1-0.4,2-0.6,3c-0.5,2-1.1,3.9-1.8,5.8
		c-0.7,1.9-1.5,3.8-2.4,5.6c-0.9,1.9-2,3.7-3.1,5.4l-0.2,0.3c-0.1,0.2-0.3,0.3-0.4,0.5c-1.6,1.5-3.4,2.9-5.2,4.1
		c-1.7,1.2-3.4,2.3-5.1,3.3s-3.5,2.1-5.2,3s-3.5,1.9-5.4,2.8c-1.4,0.6-3,0-3.6-1.4c-0.5-1-0.2-2.2,0.6-3l0,0c1.4-1.4,2.9-2.7,4.4-4
		l4.4-3.9c1.5-1.3,2.9-2.6,4.3-3.9c0.7-0.6,1.4-1.3,2-1.9l0.9-0.9c0.3-0.3,0.5-0.6,0.8-0.9l-0.6,0.8c0.7-1.5,1.4-3,2-4.5
		s1.2-3.2,1.7-4.8s1-3.3,1.3-5c0.2-0.8,0.4-1.7,0.6-2.5l0.4-2.4l0.1-0.3c0.6-2.9,3.4-4.9,6.3-4.3C204.1,147.3,206,149.9,205.7,152.7
		L205.7,152.7z"/>
	<path class="st9" d="M175.3,185.1l-5.6-1.7c-0.9-0.3-1.9-0.2-2.8,0.2l-2.4,1.1c-1.2,0.5-1.7,1.9-1.2,3.1c0,0,0,0,0,0.1l1.1,2.4
		c0.5,1,1.5,1.5,2.6,1.3l4.4-0.9c1.4,0.1,2.8-0.1,4.2-0.6c1.3-0.5,2-2,1.5-3.4c-0.1-0.2-0.2-0.4-0.3-0.5l0,0
		C176.4,185.6,175.9,185.2,175.3,185.1z"/>
	<path class="st2" d="M203.2,141.3c-4.7,1.8-8.8,5.9-10.7,16.6c2.6,3.3,11.8,5,11.8,5S211.1,148.7,203.2,141.3z"/>
	<path class="st14" d="M203.2,141.3c-4.7,1.8-8.8,5.9-10.7,16.6c2.6,3.3,11.8,5,11.8,5S211.1,148.7,203.2,141.3z"/>
	<path class="st11" d="M200.7,146.5c0.1,0.1,0.2,0.1,0.2,0.1c0.1,0,0.2,0,0.2-0.1c0.1-0.1,0.2-0.3,0.1-0.5l-2-2.5
		c-0.2,0.1-0.3,0.3-0.5,0.4L200.7,146.5z"/>
	<path class="st11" d="M206.5,147.8c-0.1,0.2,0,0.4,0.2,0.4c0,0,0,0,0,0h0.1c0-0.2-0.1-0.4-0.1-0.6
		C206.6,147.6,206.5,147.7,206.5,147.8z"/>
	<path class="st2" d="M202.7,162.5l3.5-5.5c0.1-0.5,0.2-1.1,0.3-1.6c-0.1,0-0.1,0.1-0.2,0.1l-4.4,6.8L202.7,162.5z"/>
	<path class="st2" d="M198.4,157.1c0.1,0.1,0.1,0.1,0.2,0.1c0.2,0,0.3-0.2,0.3-0.3c0-0.1,0-0.2-0.1-0.2l-4.8-4.5
		c-0.1,0.2-0.2,0.4-0.2,0.7L198.4,157.1z"/>
</g>
<g id="freepik--Plant--inject-11">
	<path class="st11" d="M334,249.9c-1.4-5.4,0.3-7.5,2.3-9.6s1.8-5.8,1.8-5.8c1.9,4.2,2.6,8.8,2.2,13.3
		C339.3,255,335,253.8,334,249.9z"/>
	<path class="st11" d="M342.6,293.6c-2.1-3.5-10.9-10.8-17.6-7.9c5.4,2.2,11.2,15.8,19.2,15.2L342.6,293.6z"/>
	<path class="st2" d="M348.8,323.6c-0.4,0-0.8-0.3-0.9-0.7c-1.3-5.3-12.7-52.7-17.2-86.3c0-0.5,0.3-1,0.8-1.1c0.5-0.1,1,0.3,1.1,0.8
		c0,0,0,0,0,0c4.5,33.5,15.9,80.9,17.2,86.1c0.1,0.5-0.2,1-0.7,1.1L348.8,323.6z"/>
	<path class="st2" d="M333,238.6c0.1-4-1.7-6.4-6.4-6.8s-6.1-2.4-7-4.2c1.6,9.1,12.5,11.4,13.6,15.9C333,240.1,333,238.6,333,238.6z
		"/>
	<path class="st2" d="M335.1,253.7c-0.4-4.2-3.7-4.7-7.6-5.2s-5.1-3-5.1-3c-0.9,3.5,0.1,7.2,2.8,9.6
		C329.7,259.4,335.4,256.7,335.1,253.7z"/>
	<path class="st2" d="M341.5,290.4c-0.7-4.6,2.5-6.6,2-13.4C352.6,292.6,342.5,297.7,341.5,290.4z"/>
	<path class="st2" d="M337.2,271.4c-2.6-3.9-6.2-3.3-10.4-8.7C330.3,280.5,341.2,277.6,337.2,271.4z"/>
	<path class="st11" d="M356.5,272.4c0.2-6.3-5.6-9.6-10-15.9C349.1,269,356.1,282.2,356.5,272.4z"/>
	<path class="st2" d="M353.6,318L353.6,318c-0.7-0.1-1.1-0.6-1.1-1.2c1-13.2,4.7-70,3.7-107.2c0-0.6,0.5-1.1,1.1-1.1c0,0,0,0,0,0
		c0.6,0,1.1,0.4,1.1,1c0,0,0,0,0,0.1c1,37.3-2.6,94.2-3.7,107.4C354.7,317.5,354.2,318,353.6,318z"/>
	<path class="st2" d="M356.4,212.6c-1.4-7.6,1.5-12.9,10.3-15s11.1-6.3,12.2-10.1c-0.3,18-20.8,25.6-21.5,34.6
		C356.9,215.5,356.4,212.6,356.4,212.6z"/>
	<path class="st2" d="M357.1,228c1.4-9.1-5.5-12.1-13.4-15.3s-9.3-9.1-9.3-9.1c-3.9,7-3.6,15.5,0.8,22.1
		C342.5,237.3,356.1,234.6,357.1,228z"/>
	<path class="st2" d="M357.1,251.2c1.5-7.2,7.5-7.5,14.4-7.6s9.5-4.2,9.5-4.2c0.9,6.3-1.7,12.6-6.8,16.4
		C365.4,262.4,356,256.5,357.1,251.2z"/>
	<path class="st2" d="M355.8,286.4c1.7-4.5,10.3-14.8,18.6-12.9c-5.7,3.7-9.7,20.6-18.9,21.6C355.8,287.6,355.8,286.4,355.8,286.4z"
		/>
	<path class="st2" d="M363.8,308.2H336c-1.3,0-2.3,1-2.3,2.3c0,0.2,0,0.5,0.1,0.7l7.5,25.5c0.3,1,1.2,1.7,2.2,1.7h12.8
		c1,0,1.9-0.7,2.2-1.7l7.5-25.5c0.4-1.2-0.3-2.5-1.6-2.9C364.2,308.2,364,308.2,363.8,308.2z"/>
	<path class="st4" d="M363.8,308.2H336c-1.3,0-2.3,1-2.3,2.3c0,0.2,0,0.5,0.1,0.7l7.5,25.5c0.3,1,1.2,1.7,2.2,1.7h12.8
		c1,0,1.9-0.7,2.2-1.7l7.5-25.5c0.4-1.2-0.3-2.5-1.6-2.9C364.2,308.2,364,308.2,363.8,308.2z"/>
	<path class="st10" d="M363.8,308.2H336c-1.3,0-2.3,1-2.3,2.3c0,0.2,0,0.5,0.1,0.7l7.5,25.5c0.3,1,1.2,1.7,2.2,1.7h12.8
		c1,0,1.9-0.7,2.2-1.7l7.5-25.5c0.4-1.2-0.3-2.5-1.6-2.9C364.2,308.2,364,308.2,363.8,308.2z"/>
</g>
</svg>
