<?xml version="1.0" encoding="utf-8"?>
<!-- Generator: Adobe Illustrator 26.4.1, SVG Export Plug-In . SVG Version: 6.00 Build 0)  -->
<svg version="1.1" id="Layer_1" xmlns="http://www.w3.org/2000/svg" xmlns:xlink="http://www.w3.org/1999/xlink" x="0px" y="0px"
	 viewBox="0 0 500 450" style="enable-background:new 0 0 500 450;" xml:space="preserve">
<style type="text/css">
	.st0{fill:#F5F5F5;}
	.st1{fill:#FFFFFF;}
	.st2{fill:#7167E8;}
	.st3{opacity:0.5;fill:#7167E8;enable-background:new    ;}
	.st4{opacity:0.2;fill:#7167E8;enable-background:new    ;}
	.st5{opacity:0.7;fill:#7167E8;enable-background:new    ;}
	.st6{fill:#EBEBEB;}
	.st7{opacity:0.2;}
	.st8{opacity:0.1;enable-background:new    ;}
	.st9{fill:#FF8B7B;}
	.st10{opacity:0.7;fill:#FFFFFF;enable-background:new    ;}
	.st11{fill:#263238;}
	.st12{fill:#FF5652;}
	.st13{opacity:0.5;fill:#FFFFFF;enable-background:new    ;}
	.st14{opacity:0.8;fill:#FFFFFF;enable-background:new    ;}
</style>
<g id="freepik--Shadow--inject-58">
	<ellipse id="freepik--path--inject-58" class="st0" cx="250" cy="419.6" rx="234" ry="13.7"/>
</g>
<g id="freepik--Website--inject-58">
	<path class="st1" d="M49.2,16.8h401.7c9.9,0,17.9,8,17.9,17.9v256.8c0,9.9-8,17.9-17.9,17.9H49.2c-9.9,0-17.9-8-17.9-17.9V34.7
		C31.3,24.8,39.3,16.8,49.2,16.8z"/>
	<path class="st2" d="M473.6,216.2h-1.2v-10.9h1.2V216.2z M473.6,196.8h-1.2v-22.5h1.2V196.8z"/>
	<path class="st2" d="M450.8,310H49.2c-10.2,0-18.5-8.3-18.5-18.5V34.7c0-10.2,8.3-18.5,18.5-18.5h401.7c10.2,0,18.5,8.3,18.5,18.5
		v256.8C469.3,301.7,461.1,310,450.8,310z M49.2,17.5c-9.5,0-17.2,7.7-17.2,17.2v256.8c0,9.5,7.7,17.2,17.2,17.2h401.7
		c9.5,0,17.2-7.7,17.2-17.2V34.7c0-9.5-7.7-17.2-17.2-17.2H49.2z"/>
	<path class="st3" d="M177.3,248.9h-6v-1.3h6l0.1,1.3H177.3z M165.2,248.9h-6.1v-1.3h6.1V248.9z M153,248.9h-6v-1.3h6V248.9z
		 M140.8,248.9h-6.1v-1.3h6.1V248.9z M128.7,248.9h-6v-1.3h6V248.9z M116.5,248.9h-6v-1.3h6V248.9z M104.3,248.9h-6v-1.3h6V248.9z
		 M92.1,248.9h-6v-1.3h6V248.9z M80,248.9h-6v-1.3h6V248.9z M67.8,248.9h-2.3c-1.4,0-2.7-0.3-4-0.9l0.6-1.2c1.1,0.5,2.2,0.8,3.4,0.8
		h2.2L67.8,248.9z M183.4,246.5l-0.9-1c1.4-1.3,2.3-3,2.4-4.9l1.3,0.1C186.1,242.9,185,245,183.4,246.5L183.4,246.5z M57.2,243.2
		c-0.4-1-0.6-2.1-0.6-3.2v-3.1H58v3.1c0,0.9,0.2,1.9,0.5,2.7L57.2,243.2z M186.2,234.5h-1.3v-6h1.3V234.5z M58,230.9h-1.3v-6H58
		V230.9z M186.2,222.4h-1.3v-6h1.3V222.4z M58,218.7h-1.3v-6H58V218.7z M186.2,210.2h-1.3v-6h1.3V210.2z M58,206.5h-1.3v-6H58V206.5
		z M186.2,198.1h-1.3v-6h1.3V198.1z M58,194.4h-1.3v-6.1H58V194.4z M186.2,185.9h-1.3v-6h1.3V185.9z M58,182.2h-1.3v-6H58V182.2z
		 M186.2,173.7h-1.3v-6.1h1.3V173.7z M58,170h-1.3v-6H58V170z M186.2,161.5h-1.3v-6h1.3V161.5z M58,157.8h-1.3v-6H58V157.8z
		 M186.2,149.4h-1.3v-6.1h1.3V149.4z M58,145.7h-1.3v-6H58V145.7z M186.2,137.2h-1.3v-6h1.3V137.2z M58,133.5h-1.3v-6H58V133.5z
		 M186.2,125h-1.3v-6h1.3V125z M58,121.3h-1.3v-6H58V121.3z M186.2,112.8h-1.3v-6h1.3V112.8z M58,109.2h-1.3v-6.1H58V109.2z
		 M186.2,100.7h-1.3v-3c0-0.9-0.2-1.9-0.5-2.8l1.2-0.5c0.4,1,0.6,2.1,0.6,3.2V100.7z M58,97.1L56.7,97c0.2-2.2,1.2-4.3,2.8-5.8
		l0.9,1C59,93.5,58.2,95.2,58,97.1L58,97.1z M180.7,91c-1-0.5-2.2-0.8-3.4-0.8H175v-1.4h2.3c1.4,0,2.7,0.3,3.9,0.9L180.7,91z
		 M168.9,90.2h-6v-1.4h6V90.2z M156.8,90.2h-6v-1.4h6V90.2z M144.6,90.2h-6v-1.4h6V90.2z M132.4,90.2h-6v-1.4h6V90.2z M120.3,90.2
		h-6.1v-1.4h6.1V90.2z M108.1,90.2h-6v-1.4h6V90.2z M95.9,90.2h-6v-1.4h6V90.2z M83.7,90.2h-6v-1.4h6V90.2z M71.6,90.2h-6v-1.3h6
		V90.2z"/>
	<path class="st2" d="M65.9,35.6c0,3.2-2.6,5.8-5.8,5.8c-3.2,0-5.8-2.6-5.8-5.8c0-3.2,2.6-5.8,5.8-5.8c0,0,0,0,0,0
		C63.3,29.9,65.9,32.5,65.9,35.6z"/>
	<path class="st4" d="M103.7,39H75.4c-1.9,0-3.4-1.5-3.4-3.4l0,0c0-1.9,1.5-3.4,3.4-3.4h28.3c1.9,0,3.4,1.5,3.4,3.4l0,0
		C107,37.5,105.5,39,103.7,39z"/>
	<path class="st4" d="M239.9,37.5h-19.8c-1,0-1.8-0.8-1.8-1.8l0,0c0-1,0.8-1.8,1.8-1.8c0,0,0,0,0,0h19.8c1,0,1.8,0.8,1.8,1.8
		c0,0,0,0,0,0l0,0C241.8,36.7,241,37.5,239.9,37.5z"/>
	<path class="st4" d="M284.4,37.5h-19.8c-1,0-1.8-0.8-1.8-1.8l0,0c0-1,0.8-1.8,1.8-1.8h19.8c1,0,1.8,0.8,1.8,1.8c0,0,0,0,0,0l0,0
		C286.3,36.7,285.5,37.5,284.4,37.5z"/>
	<path class="st4" d="M328.9,37.5h-19.8c-1,0-1.8-0.8-1.8-1.8l0,0c0-1,0.8-1.8,1.8-1.8h19.8c1,0,1.9,0.8,1.9,1.8c0,0,0,0,0,0l0,0
		C330.8,36.7,330,37.5,328.9,37.5z"/>
	<path class="st4" d="M373.4,37.5h-19.8c-1,0-1.8-0.8-1.8-1.8l0,0c0-1,0.8-1.8,1.8-1.8h19.8c1,0,1.8,0.8,1.8,1.8l0,0
		C375.3,36.7,374.5,37.5,373.4,37.5z"/>
	<path class="st5" d="M430.4,38.9h-30c-1.8,0-3.3-1.5-3.3-3.3v0l0,0c0-1.8,1.4-3.3,3.2-3.3c0,0,0,0,0,0h30c1.8,0,3.3,1.5,3.3,3.3
		c0,0,0,0,0,0l0,0C433.6,37.4,432.2,38.9,430.4,38.9L430.4,38.9z"/>
	<path class="st5" d="M225.2,244h56.2c3.8,0,7,3.1,7,7v1.5c0,3.8-3.1,7-7,7h-56.2c-3.8,0-7-3.1-7-7V251
		C218.3,247.2,221.4,244,225.2,244z"/>
	<path class="st4" d="M429.9,175.2v-58.7c0-1,0.8-1.8,1.8-1.8c0,0,0,0,0,0l0,0c1,0,1.8,0.8,1.8,1.8v58.7c0,1-0.8,1.8-1.8,1.8l0,0
		C430.8,177.1,430,176.2,429.9,175.2C429.9,175.2,429.9,175.2,429.9,175.2z"/>
	<circle class="st4" cx="431.8" cy="191.9" r="1.8"/>
	<circle class="st4" cx="431.8" cy="218" r="1.8"/>
	<circle class="st4" cx="431.8" cy="244.1" r="1.8"/>
	<path class="st4" d="M233.1,89.4h143c8.2,0,14.8,6.6,14.8,14.8v0c0,8.2-6.6,14.8-14.8,14.8h-143c-8.2,0-14.8-6.6-14.8-14.8v0
		C218.3,96.1,224.9,89.4,233.1,89.4z"/>
	<path class="st4" d="M323.6,162.1h-90.5c-8.2,0-14.8-6.6-14.8-14.8l0,0c0-8.2,6.6-14.8,14.8-14.8h90.5c8.2,0,14.8,6.6,14.8,14.8
		l0,0C338.4,155.5,331.8,162.1,323.6,162.1z"/>
	<path class="st6" d="M350.2,196.8H221.7c-1.9,0-3.5-1.6-3.5-3.5l0,0c0-1.9,1.6-3.5,3.5-3.5h128.4c1.9,0,3.5,1.6,3.5,3.5l0,0
		C353.6,195.2,352.1,196.7,350.2,196.8z"/>
	<path class="st6" d="M380.4,196.8h-13.1c-1.9,0-3.5-1.6-3.5-3.5l0,0c0-1.9,1.6-3.5,3.5-3.5h13.1c1.9,0,3.5,1.6,3.5,3.5l0,0
		C383.9,195.2,382.3,196.7,380.4,196.8z"/>
	<path class="st6" d="M278.3,204.2h55.2c1.9,0,3.5,1.6,3.5,3.5l0,0c0,1.9-1.6,3.5-3.5,3.5h-55.2c-1.9,0-3.5-1.6-3.5-3.5l0,0
		C274.9,205.7,276.4,204.2,278.3,204.2z"/>
	<path class="st6" d="M221.7,204.2h39.5c1.9,0,3.5,1.6,3.5,3.5l0,0c0,1.9-1.6,3.5-3.5,3.5h-39.5c-1.9,0-3.5-1.6-3.5-3.5l0,0
		C218.3,205.7,219.8,204.2,221.7,204.2z"/>
	<path class="st6" d="M299.6,225.4h-77.8c-1.9,0-3.5-1.6-3.5-3.5l0,0c0-1.9,1.6-3.5,3.5-3.5h77.8c1.9,0,3.5,1.6,3.5,3.5l0,0
		C303,223.9,301.5,225.4,299.6,225.4z"/>
	<path class="st6" d="M356.2,225.4h-39.6c-1.9,0-3.5-1.6-3.5-3.5l0,0c0-1.9,1.6-3.5,3.5-3.5h39.6c1.9,0,3.5,1.6,3.5,3.5l0,0
		C359.7,223.9,358.1,225.4,356.2,225.4z"/>
</g>
<g id="freepik--Character--inject-58">
	<path class="st2" d="M73.8,91.4l110.1-21c4.4-0.8,8.6,2,9.5,6.4L220.1,217c0.8,4.4-2,8.6-6.4,9.5l-110.1,21c-4.4,0.8-8.6-2-9.5-6.4
		L67.4,100.9C66.5,96.5,69.4,92.2,73.8,91.4z"/>
	<g class="st7">
		<path class="st1" d="M99.3,242.5c-0.1,0-0.2,0-0.3-0.1c-0.3-0.2-0.4-0.5-0.2-0.8l88.8-166c0.2-0.3,0.5-0.4,0.8-0.2
			c0.3,0.2,0.4,0.5,0.2,0.8l-88.8,166C99.7,242.4,99.5,242.5,99.3,242.5z"/>
		<path class="st1" d="M215.5,220.4c-0.1,0-0.3-0.1-0.4-0.1L71.5,98.5c-0.3-0.2-0.3-0.6-0.1-0.8c0,0,0,0,0,0
			c0.2-0.3,0.6-0.3,0.9-0.1l143.6,121.8c0.2,0.2,0.3,0.6,0.1,0.9C215.9,220.3,215.7,220.4,215.5,220.4z"/>
	</g>
	<path class="st2" d="M201.4,236c0,0,15.7,54.7,22.1,81.6c6.7,28.2,26.7,70.9,28.3,89.6c1.7,0.7,7.3-0.1,10.3-1.5
		c0,0-2.7-59.6-18.9-86.8c3.6-66.8-14.5-82.8-14.5-82.8H201.4z"/>
	<path class="st8" d="M221.8,263.5l-8.9,13.6c2.8,10.3,5.7,21,8,30.2C223.4,291.3,221.8,263.5,221.8,263.5z"/>
	<path class="st9" d="M233.9,188.8c0.3,0.7,0.4,1.3,0.6,1.9c0.2,0.6,0.3,1.2,0.5,1.8c0.3,1.2,0.6,2.4,0.8,3.6
		c0.5,2.4,0.9,4.8,1.1,7.2c0.3,2.5,0.4,4.9,0.3,7.4c0,2.5-0.2,5-0.6,7.5v0.4c0,0.3-0.1,0.6-0.2,0.8c-0.6,1.5-1.4,2.8-2.4,4
		c-0.9,1-1.8,1.8-2.9,2.5c-1.8,1.2-3.8,2.1-5.8,2.7c-1.8,0.6-3.7,1-5.6,1.2c-1.9,0.3-3.8,0.4-5.6,0.3c-1.8-0.1-3.2-1.6-3.2-3.4
		c0-1.2,0.8-2.3,1.9-2.9l0.3-0.1c1.4-0.6,2.9-1.3,4.3-2c1.4-0.7,2.7-1.4,4-2.2c1.1-0.7,2.1-1.5,3-2.4c0.7-0.8,1-1.5,0.8-1.5L225,217
		c0-2,0-4-0.1-6s-0.4-4.1-0.7-6c-0.3-2-0.7-4.1-1.1-6.1c-0.2-1-0.5-2-0.7-3l-0.4-1.5l-0.4-1.3l-0.1-0.3c-0.8-3.5,1.5-7,5-7.8
		C229.6,184.2,232.8,185.9,233.9,188.8z"/>
	<path class="st9" d="M218.1,224.1l-7.9-2.2c-1.1-0.3-2.3-0.2-3.4,0.3l-2.9,1.3c-1.4,0.7-2.1,2.3-1.4,3.8c0,0,0,0,0,0.1l1.4,2.8
		c0.6,1.2,1.9,1.8,3.1,1.5l5.3-1.1c0,0,5.9,0.4,8-3.1L218.1,224.1z"/>
	<path class="st2" d="M225.2,177.8c-4.2,4.4-6.5,11-3.1,23.6c4.5,2.2,15.4-0.7,15.4-0.7S237.8,181.8,225.2,177.8z"/>
	<path class="st10" d="M225.2,177.8c-4.2,4.4-6.5,11-3.1,23.6c4.5,2.2,15.4-0.7,15.4-0.7S237.8,181.8,225.2,177.8z"/>
	<path class="st11" d="M232.9,186.6c-0.2,0-0.4,0.2-0.4,0.4c0,0,0,0,0,0c0,0.2,0.2,0.4,0.4,0.4l0,0l2-0.1c-0.1-0.3-0.2-0.5-0.3-0.8
		L232.9,186.6z"/>
	<path class="st11" d="M232.5,194.4c-0.2-0.2-0.4-0.2-0.6,0c-0.2,0.2-0.2,0.4,0,0.6c0,0,0,0,0,0l5.7,4.8c0-0.3,0-0.7-0.1-1.1
		L232.5,194.4z"/>
	<path class="st2" d="M221,195.8l6.4-4c0.2-0.1,0.2-0.4,0.1-0.5c-0.1-0.2-0.4-0.2-0.5-0.1l-6.1,3.8
		C220.9,195.2,220.9,195.5,221,195.8z"/>
	<path class="st9" d="M214.4,158.9c-0.8,5.5-1.4,15.6,2.6,18.7c0,0-5.2-0.1-15.1,7.9c-3.6-4.1-1.5-5.8-1.5-5.8
		c5.9-2.2,5.6-6.6,4.3-10.7L214.4,158.9z"/>
	<path class="st11" d="M198.8,152.1c-0.2,0.7-0.7,1.2-1.2,1.2c-0.5,0-0.7-0.7-0.5-1.5c0.2-0.7,0.7-1.2,1.2-1.2
		C198.8,150.7,199,151.4,198.8,152.1z"/>
	<path class="st11" d="M198.5,150.8l-1.6-0.8C196.9,150,197.4,151.4,198.5,150.8z"/>
	<path class="st12" d="M198.5,153.5c-1.1,1.5-2.3,2.9-3.7,4.2c0.6,0.7,1.5,1,2.4,0.9L198.5,153.5z"/>
	<path class="st11" d="M198.2,146.2c0-0.1,0-0.2,0-0.3c0.1-0.2,0.3-0.3,0.6-0.2c1.3,0.5,2.4,1.5,2.9,2.9c0.1,0.2-0.1,0.4-0.3,0.5
		c0,0,0,0,0,0c-0.2,0-0.5-0.1-0.5-0.3c-0.4-1.1-1.2-1.9-2.3-2.2C198.3,146.4,198.2,146.3,198.2,146.2z"/>
	<path class="st9" d="M223,153.7c-2.5,8.4-3.4,12.2-8.8,15.8c-8.1,5.5-18,1.1-18.1-7.8c0-8.1,4.1-20.6,13.3-22.6
		c6.1-1.5,12.3,2.2,13.8,8.3C223.8,149.5,223.7,151.7,223,153.7z"/>
	<path class="st11" d="M203.3,154.3c-5-3.6-2.6-10.2,2-10.4c-6-4.2-2.9-11.9,4.5-11.6c7.4,0.3,8.4,4.8,8.4,4.8s11.9,0.6,13.6,9.2
		c2,10.2-4.2,16.7-11.9,19.7c5.2,4.3-7.1,7.2-13.2,3.8C200.7,166.5,198.3,158.8,203.3,154.3z"/>
	<path class="st1" d="M231.3,142.8c-6.5-1.2-9.7,7.8-5.5,13c0.6,0.8,1.4,1.5,2.2,2.1c2,1.3,4.6,0.7,5.8-1.3c0.4-0.6,0.6-1.3,0.7-2
		C234.8,150.4,234.8,143.5,231.3,142.8z"/>
	<path class="st11" d="M248.9,147.4c0.5-0.3,0.8-0.8,0.9-1.4c0.3-2.5-1.6-4.2-3.9-4.5c-1.4-4.4-7.2-4.5-10.5-1.3
		c-2.7-1.4-5.7,1.7-5.3,4.8c-2.8,1.2-3.6,6-1,8.7c0.5,0.5,1,0.9,1.6,1.2c0.1,0.1,0.3,0.1,0.4,0.2c0.3,2,1.8,3.7,3.8,4.1
		c0.5,0.1,1.1,0.1,1.6,0.1c0.8-0.1,1.5-0.6,1.8-1.3c1.9,1.5,3.9,2.6,5.3,1.6c1.4-0.9,2.1-2.5,2.1-4.1c0.9,0.4,1.9,0.4,2.7-0.1
		C251,153.4,250.8,149.9,248.9,147.4z"/>
	<path class="st9" d="M206.1,155.5c-0.9,1.5-2.3,2.5-4,2.9c-2.1,0.3-2.7-2-1.9-4.3c0.8-2,2.8-4.7,4.8-4
		C207,150.8,207.3,153.6,206.1,155.5z"/>
	<path class="st2" d="M203.3,149.2c1.8-3.4,11.5-12.6,18-12.3c1.3,0.4,2.6,0.9,3.8,1.5c0.1,0.1,0.2,0.2,0.1,0.3
		c0,0.1-0.1,0.1-0.2,0.1c-2.5,0.3-10.8,2.2-18.5,14.3C205.2,152.1,204.1,150.8,203.3,149.2z"/>
	<path class="st1" d="M207.2,156.1c-1.6,3.5-4.7,5.4-7,4.4c-2.3-1-2.9-4.7-1.4-8.2c1.6-3.5,4.7-5.4,7-4.4
		C208.1,149,208.7,152.6,207.2,156.1z"/>
	<path class="st2" d="M205.3,155.3c-1.4,3.1-4.1,5-6,4.1c-1.9-0.9-2.3-4.1-0.9-7.2c1.4-3.1,4.1-5,6-4.1
		C206.3,148.9,206.7,152.1,205.3,155.3z"/>
	<path class="st11" d="M246.7,419.6c6.8-1,6.9-2.1,10.5-3.4c3.1-1.1,4-0.9,6.5-1.8c2.1-0.7,1.4-2.7,0-4.8c-0.6-1.3-1.2-2.6-1.6-4
		l-10.3,1.5c-1,2.9-1.4,6.6-7.2,8.7C241.2,417.1,244,420,246.7,419.6z"/>
	<path class="st11" d="M183.9,419.6c6.7,0,8-0.4,11.8-0.6c3.2-0.1,3.8,0.6,7.1,0.6c2.2,0,2.5-2.4,1.7-4.3c-0.5-1.6-0.9-3.3-1.2-5
		H194c-1.7,2.9-6.3,5.1-11.4,5.5C179,416.1,181.2,419.6,183.9,419.6z"/>
	<path class="st2" d="M191.8,236c0,0-1.3,48.5,1.5,79.3c-0.2,28.9,0.7,95.1,0.7,95.1c0.2,1.5,8,0.9,9.3,0c0,0,14.5-48.2,8.1-95.1
		C227.5,266.4,224,236,224,236H191.8z"/>
	<path class="st2" d="M250.6,403.4c0.2,1.3,0.2,2.6,0.2,3.9c0,0.4,0.3,0.8,0.8,0.8c0,0,0,0,0,0c3.9,0,9.2-1.6,10.9-2.2
		c0.3-0.1,0.5-0.4,0.5-0.7v-3.6c0-0.4-0.3-0.8-0.8-0.8c0,0-0.1,0-0.1,0l-10.9,1.8C250.8,402.6,250.5,403,250.6,403.4z"/>
	<path class="st13" d="M250.6,403.4c0.2,1.3,0.2,2.6,0.2,3.9c0,0.4,0.3,0.8,0.8,0.8c0,0,0,0,0,0c3.9,0,9.2-1.6,10.9-2.2
		c0.3-0.1,0.5-0.4,0.5-0.7v-3.6c0-0.4-0.3-0.8-0.8-0.8c0,0-0.1,0-0.1,0l-10.9,1.8C250.8,402.6,250.5,403,250.6,403.4z"/>
	<path class="st2" d="M193,406.3c0,1-0.1,2.8-0.2,4.1c0,0.4,0.3,0.8,0.7,0.9c3.4,0.3,6.8,0.2,10.2-0.1c0.3,0,0.6-0.3,0.7-0.6
		l0.7-3.6c0.1-0.5-0.2-0.9-0.7-1c0,0-0.1,0-0.1,0l-10.6-0.4C193.3,405.5,193,405.8,193,406.3C193,406.2,193,406.2,193,406.3z"/>
	<path class="st13" d="M193,406.3c0,1-0.1,2.8-0.2,4.1c0,0.4,0.3,0.8,0.7,0.9c3.4,0.3,6.8,0.2,10.2-0.1c0.3,0,0.6-0.3,0.7-0.6
		l0.7-3.6c0.1-0.5-0.2-0.9-0.7-1c0,0-0.1,0-0.1,0l-10.6-0.4C193.3,405.5,193,405.8,193,406.3C193,406.2,193,406.2,193,406.3z"/>
	<path class="st2" d="M185.6,195.4c0.5,5.6,1.3,11.2,2.3,16.8c1.2,7.2,2.1,14.3,3.8,26.3c16.6,1.7,36.2,0.3,37.1-2.4
		c-1.3-10.4-1.2-24.4,2.4-48.4c0.9-4.7-2.2-9.2-6.9-10.1c-0.6-0.1-1.2-0.2-1.8-0.1c-1.5,0-3,0.1-4.6,0.2c-5.6,0.3-11.2,1-16.7,2.1
		c-1.8,0.4-3.6,0.8-5.4,1.3C189.4,182.7,185.2,188.8,185.6,195.4z"/>
	<path class="st14" d="M185.6,195.4c0.5,5.6,1.3,11.2,2.3,16.8c1.2,7.2,2.1,14.3,3.8,26.3c16.6,1.7,36.2,0.3,37.1-2.4
		c-1.3-10.4-1.2-24.4,2.4-48.4c0.9-4.7-2.2-9.2-6.9-10.1c-0.6-0.1-1.2-0.2-1.8-0.1c-1.5,0-3,0.1-4.6,0.2c-5.6,0.3-11.2,1-16.7,2.1
		c-1.8,0.4-3.6,0.8-5.4,1.3C189.4,182.7,185.2,188.8,185.6,195.4z"/>
	<path class="st11" d="M188.6,185.7l1.9,2.4c0.1,0.1,0.2,0.1,0.3,0.1c0.1,0,0.2,0,0.3-0.1c0.2-0.1,0.2-0.4,0.1-0.6l-2-2.5
		C189,185.2,188.8,185.5,188.6,185.7z"/>
	<path class="st2" d="M197.5,184.3L197.5,184.3c0.2,0,0.4-0.2,0.4-0.4l0.2-3.6l-0.8,0.2l-0.2,3.3C197,184,197.2,184.2,197.5,184.3
		C197.4,184.3,197.4,184.3,197.5,184.3z"/>
	<path class="st2" d="M214.8,187.5c0.1,0,0.2,0,0.2,0c0.2,0,0.4-0.2,0.4-0.4c0-0.1-0.1-0.2-0.2-0.3l-10.1-6.7
		c-0.2-0.1-0.4-0.1-0.6,0.1c-0.1,0.2-0.1,0.4,0.1,0.5c0,0,0,0,0,0L214.8,187.5z"/>
	<path class="st11" d="M197.5,189.7c-0.1,0.2,0,0.4,0.2,0.5c0,0,0,0,0,0l11.3,4.4h0.1c0.2,0,0.3-0.1,0.4-0.3c0.1-0.2,0-0.4-0.2-0.5
		l-11.3-4.4C197.8,189.4,197.6,189.5,197.5,189.7C197.5,189.7,197.5,189.7,197.5,189.7z"/>
	<path class="st2" d="M191,209.9c0.2,0.1,0.4,0.1,0.5-0.1l6.6-10.2c0.1-0.2,0.1-0.4-0.1-0.5c-0.2-0.1-0.4-0.1-0.5,0.1c0,0,0,0,0,0
		l-6.6,10.2C190.8,209.5,190.8,209.8,191,209.9z"/>
	<path class="st2" d="M187.7,200.9c0.1,0.1,0.2,0.1,0.3,0.1c0.2,0,0.4-0.2,0.4-0.4c0-0.1,0-0.2-0.1-0.3l-2.4-2.2
		c0,0.4,0.1,0.8,0.1,1.2L187.7,200.9z"/>
	<path class="st2" d="M223.5,207.7c-0.2,0.1-0.3,0.3-0.2,0.5c0.1,0.2,0.2,0.3,0.4,0.3c0,0,0.1,0,0.1,0l5-1.8c0-0.3,0.1-0.6,0.1-0.9
		L223.5,207.7z"/>
	<path class="st2" d="M221.4,199.5c0.1,0,0.1,0,0.2-0.1l8.7-5.5l0.1-1l-9.3,5.8c-0.2,0.1-0.2,0.4-0.1,0.5
		C221.1,199.5,221.2,199.5,221.4,199.5z"/>
	<path class="st2" d="M215.4,201.1c-0.1-0.2-0.4-0.2-0.6-0.1l-10.3,6.5c-0.2,0.1-0.2,0.4-0.1,0.6c0.1,0.1,0.2,0.2,0.3,0.2
		c0.1,0,0.1,0,0.2-0.1l10.3-6.5C215.5,201.5,215.6,201.3,215.4,201.1z"/>
	<path class="st11" d="M224.1,187.4h0.1c0.2-0.1,0.3-0.3,0.2-0.5l-3.6-9.4H220l3.6,9.7C223.7,187.3,223.9,187.4,224.1,187.4z"/>
	<path class="st2" d="M213.9,236.8c-0.2-0.1-0.4-0.1-0.5,0.1c0,0,0,0,0,0c-0.1,0.2-0.1,0.4,0.1,0.6l2.3,1.5l1.3-0.1L213.9,236.8z"/>
	<path class="st2" d="M228.5,233.1l-8.8-3.4c-0.2-0.1-0.4,0-0.5,0.2c-0.1,0.2,0,0.4,0.2,0.5c0,0,0.1,0,0.1,0l9.2,3.6
		C228.5,233.6,228.5,233.3,228.5,233.1z"/>
	<path class="st11" d="M191.3,235.7c0,0.2,0.1,0.5,0.1,0.7c0.1-0.1,0.2-0.2,0.3-0.4C191.7,235.9,191.5,235.7,191.3,235.7z"/>
	<path class="st2" d="M191.2,223.5c0.2,0,0.4-0.2,0.4-0.4c0-0.1-0.1-0.2-0.1-0.3l-2.2-1.8c0,0.4,0.1,0.8,0.2,1.2l1.5,1.3
		C191,223.5,191.1,223.5,191.2,223.5z"/>
	<path class="st11" d="M209.8,219.6c0.2,0,0.3-0.1,0.4-0.3c0.1-0.2,0-0.4-0.2-0.5l-11.3-4.4c-0.2-0.1-0.4,0-0.5,0.2c0,0,0,0,0,0
		c-0.1,0.2,0,0.4,0.2,0.5c0,0,0,0,0,0l11.3,4.4L209.8,219.6z"/>
	<path class="st2" d="M207.1,224.8l-10.3,6.5c-0.2,0.1-0.2,0.4-0.1,0.6c0.1,0.1,0.2,0.2,0.3,0.2c0.1,0,0.1,0,0.2-0.1l10.3-6.5
		c0.2-0.1,0.2-0.4,0.1-0.6C207.6,224.7,207.3,224.7,207.1,224.8z"/>
	<path class="st11" d="M216.6,221.7c0.1,0.1,0.2,0.2,0.3,0.2c0.1,0,0.2,0,0.2-0.1l10.3-6.5c0.2-0.1,0.2-0.4,0-0.6
		c-0.1-0.1-0.3-0.2-0.5-0.1l-10.3,6.5C216.6,221.3,216.5,221.5,216.6,221.7z"/>
	<path class="st11" d="M205,237.1c-0.1-0.2-0.3-0.3-0.5-0.2c-0.2,0.1-0.3,0.3-0.2,0.5l0.7,1.7h0.8L205,237.1z"/>
	<path class="st9" d="M196.6,195.6c-0.1,0.8-0.2,1.4-0.3,2c-0.1,0.6-0.2,1.2-0.3,1.8c-0.2,1.2-0.5,2.4-0.8,3.6
		c-0.6,2.4-1.3,4.7-2.1,7c-0.8,2.3-1.8,4.6-2.9,6.8c-1.1,2.3-2.4,4.4-3.8,6.5l-0.3,0.4c-0.1,0.2-0.3,0.4-0.5,0.6
		c-2,1.8-4.1,3.5-6.3,4.9c-2,1.4-4.1,2.7-6.2,4c-2.1,1.3-4.2,2.5-6.3,3.6c-2.1,1.1-4.3,2.3-6.5,3.3c-1.7,0.7-3.6,0-4.3-1.7
		c-0.5-1.2-0.3-2.7,0.7-3.7l0,0c1.7-1.6,3.5-3.2,5.3-4.8l5.3-4.7c1.8-1.5,3.5-3.1,5.2-4.7c0.8-0.8,1.7-1.6,2.4-2.3l1.1-1.1
		c0.4-0.4,0.6-0.7,1-1l-0.8,1c0.9-1.8,1.7-3.6,2.4-5.5c0.7-1.9,1.4-3.8,2-5.8c0.6-2,1.2-4,1.6-6c0.2-1,0.5-2,0.7-3l0.5-2.9l0.1-0.3
		c0.7-3.5,4.1-5.9,7.7-5.2C194.6,189.1,196.9,192.2,196.6,195.6L196.6,195.6z"/>
	<path class="st9" d="M159.8,234.7l-6.8-2c-1.1-0.3-2.3-0.2-3.4,0.2l-3,1.3c-1.4,0.6-2.1,2.3-1.4,3.7c0,0,0,0.1,0,0.1l1.4,2.9
		c0.6,1.2,1.9,1.8,3.1,1.6l5.3-1.1c1.7,0.1,3.4-0.1,5-0.7c1.6-0.6,2.4-2.5,1.8-4.1c-0.1-0.2-0.2-0.4-0.3-0.6l0,0
		C161.1,235.4,160.5,234.9,159.8,234.7z"/>
	<path class="st2" d="M193.5,181.9c-5.7,2.1-10.6,7.1-12.9,20c3.1,4,14.2,6,14.2,6S203.1,190.9,193.5,181.9z"/>
	<path class="st14" d="M193.5,181.9c-5.7,2.1-10.6,7.1-12.9,20c3.1,4,14.2,6,14.2,6S203.1,190.9,193.5,181.9z"/>
	<path class="st11" d="M190.5,188.1c0.1,0.1,0.2,0.1,0.3,0.1c0.1,0,0.2,0,0.3-0.1c0.2-0.1,0.2-0.4,0.1-0.6l-2.4-3
		c-0.2,0.2-0.4,0.3-0.6,0.5L190.5,188.1z"/>
	<path class="st11" d="M197.5,189.7c-0.1,0.2,0,0.4,0.2,0.5c0,0,0,0,0,0h0.1c0-0.3-0.1-0.5-0.2-0.8
		C197.6,189.5,197.5,189.6,197.5,189.7z"/>
	<path class="st2" d="M193,207.5l4.3-6.6c0.2-0.6,0.3-1.3,0.4-1.9c-0.1,0-0.1,0.1-0.2,0.1l-5.3,8.2L193,207.5z"/>
	<path class="st2" d="M187.7,200.9c0.1,0.1,0.2,0.1,0.3,0.1c0.2,0,0.4-0.2,0.4-0.4c0-0.1,0-0.2-0.1-0.3l-5.9-5.5
		c-0.1,0.3-0.2,0.5-0.3,0.8L187.7,200.9z"/>
</g>
<g id="freepik--Plant--inject-58">
	<path class="st11" d="M351.4,312.9c-1.7-6.5,0.3-9,2.7-11.6c2.4-2.6,2.1-7,2.1-7c2.3,5,3.2,10.6,2.6,16.1
		C357.7,319.1,352.6,317.7,351.4,312.9z"/>
	<path class="st11" d="M361.7,365.7c-2.5-4.2-13.1-13-21.2-9.5c6.5,2.7,13.6,19,23.1,18.3L361.7,365.7z"/>
	<path class="st2" d="M369.3,401.9c-0.5,0-1-0.4-1.1-0.9c-1.6-6.4-15.4-63.6-20.8-104.2c0-0.6,0.4-1.2,1-1.3
		c0.6-0.1,1.2,0.3,1.3,0.9c0,0,0,0,0,0c5.4,40.5,19.2,97.6,20.7,104c0.1,0.6-0.2,1.2-0.8,1.4L369.3,401.9z"/>
	<path class="st2" d="M350.2,299.3c0.1-4.8-2.1-7.7-7.7-8.3s-7.4-2.9-8.4-5c1.9,11,15.1,13.8,16.4,19.2
		C350.2,301.2,350.2,299.3,350.2,299.3z"/>
	<path class="st2" d="M352.7,317.5c-0.5-5-4.5-5.7-9.1-6.3c-4.6-0.6-6.1-3.6-6.1-3.6c-1.1,4.2,0.2,8.7,3.3,11.6
		C346.2,324.5,353.1,321.2,352.7,317.5z"/>
	<path class="st2" d="M360.4,361.9c-0.8-5.6,3.1-7.9,2.4-16.2C373.9,364.5,361.6,370.7,360.4,361.9z"/>
	<path class="st2" d="M355.2,339c-3.1-4.7-7.5-3.9-12.5-10.5C346.9,349.9,360.1,346.4,355.2,339z"/>
	<path class="st11" d="M378.5,340.1c0.3-7.6-6.7-11.6-12.1-19.1C369.6,336,378,352,378.5,340.1z"/>
	<path class="st2" d="M375,395.1h-0.1c-0.7-0.1-1.3-0.7-1.2-1.4c1.2-15.9,5.7-84.5,4.5-129.4c0-0.7,0.6-1.3,1.3-1.4c0,0,0,0,0,0
		c0.7,0,1.3,0.5,1.4,1.2c0,0,0,0,0,0.1c1.2,45-3.2,113.7-4.5,129.6C376.3,394.6,375.7,395.1,375,395.1z"/>
	<path class="st2" d="M378.5,267.9c-1.7-9.2,1.7-15.5,12.4-18.1c10.7-2.6,13.4-7.7,14.8-12.2c-0.4,21.7-25.1,31-25.9,41.8
		C379,271.5,378.5,267.9,378.5,267.9z"/>
	<path class="st2" d="M379.3,286.5c1.7-11-6.6-14.7-16.2-18.4c-9.6-3.8-11.2-10.9-11.2-10.9c-4.7,8.4-4.3,18.7,0.9,26.7
		C361.7,297.8,378,294.5,379.3,286.5z"/>
	<path class="st2" d="M379.2,314.6c1.8-8.7,9.1-9.1,17.3-9.2c8.2-0.1,11.5-5,11.5-5c1.1,7.6-2.1,15.2-8.2,19.8
		C389.2,328.1,377.9,321,379.2,314.6z"/>
	<path class="st2" d="M377.7,357c2-5.4,12.4-17.8,22.5-15.5c-6.9,4.5-11.7,24.8-22.8,26.1C377.6,358.5,377.7,357,377.7,357z"/>
	<path class="st2" d="M387.3,383.3h-33.5c-1.5,0-2.8,1.2-2.8,2.8c0,0.3,0,0.6,0.1,0.8l9.1,30.7c0.3,1.2,1.4,2,2.7,2h15.4
		c1.2,0,2.3-0.8,2.7-2l9-30.8c0.4-1.5-0.4-3-1.9-3.5C387.9,383.4,387.6,383.3,387.3,383.3z"/>
	<path class="st4" d="M387.3,383.3h-33.5c-1.5,0-2.8,1.2-2.8,2.8c0,0.3,0,0.6,0.1,0.8l9.1,30.7c0.3,1.2,1.4,2,2.7,2h15.4
		c1.2,0,2.3-0.8,2.7-2l9-30.8c0.4-1.5-0.4-3-1.9-3.5C387.9,383.4,387.6,383.3,387.3,383.3z"/>
	<path class="st10" d="M387.3,383.3h-33.5c-1.5,0-2.8,1.2-2.8,2.8c0,0.3,0,0.6,0.1,0.8l9.1,30.7c0.3,1.2,1.4,2,2.7,2h15.4
		c1.2,0,2.3-0.8,2.7-2l9-30.8c0.4-1.5-0.4-3-1.9-3.5C387.9,383.4,387.6,383.3,387.3,383.3z"/>
</g>
</svg>
