<svg width="18" height="19" viewBox="0 0 18 19" fill="none" xmlns="http://www.w3.org/2000/svg">
<path d="M6 13.25L9 16.25L12 13.25" stroke="#595F69" stroke-width="1.2" stroke-linecap="round" stroke-linejoin="round"/>
<path d="M9 9.5V16.25" stroke="#595F69" stroke-width="1.2" stroke-linecap="round" stroke-linejoin="round"/>
<path d="M15.66 14.0675C16.312 13.609 16.801 12.9546 17.056 12.1994C17.3109 11.4441 17.3186 10.6273 17.0778 9.86738C16.837 9.10749 16.3604 8.44408 15.717 7.97343C15.0737 7.50279 14.2971 7.24939 13.5 7.25001H12.555C12.3294 6.37092 11.9074 5.55445 11.3206 4.86207C10.7338 4.1697 9.99761 3.61946 9.1674 3.25278C8.3372 2.8861 7.43463 2.71253 6.52764 2.74515C5.62065 2.77777 4.73288 3.01571 3.93116 3.44108C3.12944 3.86645 2.43466 4.46815 1.89914 5.20088C1.36361 5.93362 1.00128 6.7783 0.839441 7.67132C0.677598 8.56435 0.720453 9.48246 0.96478 10.3565C1.20911 11.2306 1.64854 12.0378 2.25 12.7175" stroke="#595F69" stroke-width="1.2" stroke-linecap="round" stroke-linejoin="round"/>
</svg>
