<svg width="51" height="50" viewBox="0 0 51 50" fill="none" xmlns="http://www.w3.org/2000/svg">
<path d="M29.6666 4.16666H13C11.8949 4.16666 10.8351 4.60564 10.0537 5.38704C9.2723 6.16845 8.83331 7.22825 8.83331 8.33332V41.6667C8.83331 42.7717 9.2723 43.8315 10.0537 44.6129C10.8351 45.3943 11.8949 45.8333 13 45.8333H38C39.105 45.8333 40.1649 45.3943 40.9463 44.6129C41.7277 43.8315 42.1666 42.7717 42.1666 41.6667V16.6667L29.6666 4.16666Z" stroke="#7167E8" stroke-width="1.2" stroke-linecap="round" stroke-linejoin="round"/>
<path d="M29.6667 4.16666V16.6667H42.1667" stroke="#7167E8" stroke-width="1.2" stroke-linecap="round" stroke-linejoin="round"/>
<path d="M33.8334 27.0833H17.1667" stroke="#7167E8" stroke-width="1.2" stroke-linecap="round" stroke-linejoin="round"/>
<path d="M33.8334 35.4167H17.1667" stroke="#7167E8" stroke-width="1.2" stroke-linecap="round" stroke-linejoin="round"/>
<path d="M21.3334 18.75H19.25H17.1667" stroke="#7167E8" stroke-width="1.2" stroke-linecap="round" stroke-linejoin="round"/>
</svg>
