<?xml version="1.0" encoding="utf-8"?>
<!-- Generator: Adobe Illustrator 26.4.1, SVG Export Plug-In . SVG Version: 6.00 Build 0)  -->
<svg version="1.1" id="Layer_1" xmlns="http://www.w3.org/2000/svg" xmlns:xlink="http://www.w3.org/1999/xlink" x="0px" y="0px"
	 viewBox="0 0 500 469" style="enable-background:new 0 0 500 469;" xml:space="preserve">
<style type="text/css">
	.st0{fill:#7167E8;}
	.st1{opacity:0.9;fill:#FFFFFF;enable-background:new    ;}
	.st2{fill:#F5F5F5;}
	.st3{opacity:0.2;enable-background:new    ;}
	.st4{fill:#263238;}
	.st5{opacity:0.5;enable-background:new    ;}
	.st6{fill:#FF8B7B;}
	.st7{fill:#FFFFFF;}
	.st8{fill:#FF5652;}
</style>
<g id="freepik--background-simple--inject-82">
	<path class="st0" d="M238.5,74c65.8-25.8,182.5-93.9,219.8,4.5c37.1,97.7-97.4,172.2-173.2,182.4C208.5,271.2,21,222.3,62.6,121.6
		C91.3,52.3,165.8,102.4,238.5,74z"/>
	<path class="st1" d="M238.5,74c65.8-25.8,182.5-93.9,219.8,4.5c37.1,97.7-97.4,172.2-173.2,182.4C208.5,271.2,21,222.3,62.6,121.6
		C91.3,52.3,165.8,102.4,238.5,74z"/>
</g>
<g id="freepik--Shadow--inject-82">
	<ellipse id="freepik--path--inject-82" class="st2" cx="250" cy="435" rx="227" ry="13.3"/>
</g>
<g id="freepik--Gift--inject-82">
	<rect x="46.7" y="287.1" class="st0" width="1.2" height="15.7"/>
	<rect x="46.7" y="307.5" class="st0" width="1.2" height="6.5"/>
	<path class="st0" d="M50.8,229.6h191.4l0,0V435l0,0h-186c-3,0-5.5-2.4-5.5-5.5l0,0L50.8,229.6L50.8,229.6z"/>
	<polygon class="st3" points="242.2,229.6 50.8,229.6 50.8,244.2 160.9,244.2 164.6,435 167.1,244.2 242.2,244.2 	"/>
	<path class="st0" d="M49.1,198.4h193.1l0,0V240l0,0H49.1c-1.5,0-2.7-1.2-2.7-2.7l0,0v-36.2C46.4,199.6,47.6,198.4,49.1,198.4
		C49.1,198.4,49.1,198.4,49.1,198.4z"/>
	<polygon class="st4" points="124.5,435 122.5,198.4 164.1,198.4 166.1,435 	"/>
	<path class="st0" d="M317.7,435h-75.4l0,0V229.6l0,0h80.8l0,0v200C323.1,432.6,320.7,435,317.7,435z"/>
	<path class="st3" d="M317.7,435h-75.4l0,0V229.6l0,0h80.8l0,0v200C323.1,432.6,320.7,435,317.7,435z"/>
	<polygon class="st3" points="242.2,229.6 323.1,229.6 323.1,244.2 278,244.2 271.8,435 272.5,244.2 242.2,244.2 	"/>
	<path class="st0" d="M324.8,240h-82.5l0,0v-41.6l0,0h82.5c1.5,0,2.7,1.2,2.7,2.7l0,0v36.2C327.5,238.8,326.3,240,324.8,240
		C324.8,240,324.8,240,324.8,240z"/>
	<path class="st3" d="M324.8,240h-82.5l0,0v-41.6l0,0h82.5c1.5,0,2.7,1.2,2.7,2.7l0,0v36.2C327.5,238.8,326.3,240,324.8,240
		C324.8,240,324.8,240,324.8,240z"/>
	<polygon class="st4" points="271.8,435 275.3,198.4 301.3,198.4 297.8,435 	"/>
	<polygon class="st3" points="271.8,435 275.3,198.4 301.3,198.4 297.8,435 	"/>
	<path class="st4" d="M285.4,119.8L285.4,119.8l-34.1-0.1c-2,0.2-3.9,0.7-5.6,1.5c-34.5,14.5-51.3,52.4-58.7,77h34.8
		C221.8,198.3,304.2,117.5,285.4,119.8z"/>
	<path class="st5" d="M221.8,198.4c0-32,24.2-62.6,58.7-77S221.8,198.4,221.8,198.4z"/>
	<path class="st4" d="M294.3,140.1L294.3,140.1H269c-1.6,0.1-3.2,0.5-4.7,1.2c-29.8,10.7-53.1,38.9-65.7,57.2h25.9
		C224.5,198.4,309,138.3,294.3,140.1z"/>
	<path class="st5" d="M224.5,198.4c12.2-31.6,35.9-46.4,65.7-57.2C320,130.4,224.5,198.4,224.5,198.4z"/>
	<path class="st4" d="M124.1,109.8L124.1,109.8L90,109.8c-1.3,0-2.5,0.6-3.1,1.7c-10.7,16.3,35.1,59.1,68.4,86.9h34.8
		C190.1,198.4,139.1,107.2,124.1,109.8z"/>
	<path class="st5" d="M190.1,198.4c-33.2-27.8-79.1-70.5-68.4-86.9S190.1,198.4,190.1,198.4z"/>
	<path class="st4" d="M159.7,132.7L159.7,132.7h-25.3c-1,0-2,0.5-2.7,1.3c-11.3,12.1,13.9,43.9,32.8,64.5h25.8
		C190.3,198.5,171.3,130.7,159.7,132.7z"/>
	<path class="st5" d="M190.3,198.4c-18.9-20.6-44.1-52.4-32.8-64.5C168.8,121.8,190.3,198.4,190.3,198.4z"/>
</g>
<g id="freepik--Character--inject-82">
	<polygon class="st6" points="407.5,417.9 416.4,415 412.1,393.5 403.2,396.4 	"/>
	<polygon class="st6" points="336.5,425.4 345.9,425.4 348.4,403.7 339,403.7 	"/>
	<path class="st4" d="M346.8,424.3h-11.5c-0.4,0-0.7,0.3-0.8,0.6l-1.5,8.4c-0.1,0.8,0.4,1.5,1.2,1.6c0.1,0,0.2,0,0.2,0
		c3.7-0.1,6.4-0.3,11-0.3c2.9,0,11.5,0.3,15.4,0.3c3.9,0,4.3-3.9,2.7-4.3c-7.3-1.6-12.9-3.8-15.2-5.9
		C348,424.5,347.4,424.3,346.8,424.3z"/>
	<path class="st4" d="M416,414l-9.8,3.2c-0.4,0.1-0.6,0.5-0.6,0.9l0.8,8.5c0.1,0.8,0.7,1.3,1.5,1.2c0.1,0,0.2,0,0.3-0.1
		c3.5-1.2,8.5-3,13-4.5c5.2-1.7,8.3-2.5,14.3-4.5c3.7-1.2,3.5-5.2,1.8-5.1c-7.5,0.7-11.7,2.1-19,0.3
		C417.6,413.8,416.8,413.8,416,414z"/>
	<path class="st6" d="M368.9,140.3c1.2,2.6,2.5,5.5,3.8,8.2s2.6,5.5,4.1,8.1c1.4,2.7,2.8,5.4,4.3,7.9c1.5,2.6,3,5.1,4.6,7.5
		c0.8,1.2,1.6,2.3,2.5,3.4l1.3,1.6c0.2,0.3,0.5,0.6,0.8,0.9c0.4,0.4,0.9,0.8,1.5,1c0.8,0.2,1.6,0.3,2.3,0.2c2.4-0.4,4.7-1.3,6.8-2.6
		c1.2-0.7,2.3-1.5,3.5-2.3c1.2-0.8,2.3-1.8,3.4-2.6l5.4,4.5c-0.9,1.5-2,2.9-3.1,4.2c-1.1,1.3-2.3,2.6-3.6,3.8
		c-1.3,1.3-2.8,2.4-4.3,3.4c-1.7,1.1-3.5,2-5.5,2.6c-2.3,0.7-4.7,1-7,0.6c-2.5-0.3-4.9-1.3-7-2.8c-1-0.7-1.8-1.4-2.7-2.3l-1.8-1.9
		c-1.2-1.3-2.2-2.6-3.3-3.9c-4-5.3-7.5-10.8-10.7-16.6c-1.6-2.8-3-5.7-4.4-8.6s-2.7-5.8-4-8.9L368.9,140.3z"/>
	<path class="st0" d="M351.7,141.1c-1.7,8.8,9.3,21.4,9.3,21.4l16.1-6.9c0,0-1.7-10.1-8.1-17.4C361.1,129.3,353.6,131.5,351.7,141.1
		z"/>
	<path class="st3" d="M360.4,144.2c-4.4-1.6-7.6-1.1-8.8,0c0.8,8.4,9.4,18.3,9.4,18.3l11.4-4.9C371.5,153.7,367.3,146.7,360.4,144.2
		z"/>
	<path class="st6" d="M406.3,173.7l5.1-10.8l7.2,7.5c0,0-2,8.6-8.8,7.5L406.3,173.7z"/>
	<polygon class="st6" points="415.6,157.8 421.2,164.7 418.7,170.4 411.5,162.9 	"/>
	<polygon class="st3" points="412.1,393.5 414.3,404.6 405.4,407.5 403.2,396.4 	"/>
	<polygon class="st3" points="339,403.7 348.4,403.7 347.2,414.9 337.7,414.9 	"/>
	<path class="st0" d="M309.6,141.3c13.5,34.5,15.2,72.5,16.9,80l49.5-8.6c1.2-46.7-10.5-72.5-13.7-78.5c-0.5-0.9-1.3-1.5-2.3-1.5
		c-1.4-0.1-3.5-0.2-6.1-0.2c-1.4,0-2.9,0-4.4,0.1c-0.9,0-1.7,0.1-2.6,0.2c-7.1,0.8-14.1,2-21.1,3.7c-1.3,0.3-2.6,0.6-3.9,1
		c-1.3,0.3-2.3,0.7-3.5,1C313.4,139.7,309.6,141.3,309.6,141.3z"/>
	<path class="st3" d="M314.4,155.2c1.6,5.4,3,10.8,4.2,16c1.6-9.4,2.2-19.2,2.2-19.2L314.4,155.2z"/>
	<path class="st6" d="M323.9,112.4c2.5,6.5,6,18.7,2,24.1c4.3,3,9.9,6.4,17.9,5.3c8.1-1.1,5.7-6.4,3.1-9c-7.9-0.5-8.6-6.1-8.2-11.6
		L323.9,112.4z"/>
	<path class="st7" d="M349.1,144c0,0,6.3-5.7-0.6-11.6c-0.9-0.1-1.8,0-2.7,0.3c0,0,7.7,6.6-1.1,8.9c-6.7-0.4-13.2-2.4-18.9-5.7
		c-0.7,0.2-1.4,0.4-2,0.8c2.4,4.8,18.8,8.6,18.8,8.6c0.2-0.8,0.4-1.5,0.8-2.2c1.6,4.5,2.9,9.2,3.7,13.9c1.1-0.2,2.2-0.4,3.3-0.7
		c-0.9-4.7-2.1-9.3-3.5-13.8C347.7,142.8,348.5,143.3,349.1,144z"/>
	<path class="st3" d="M329.9,116l8.8,5.2c-0.1,1.3-0.1,2.6,0,3.9c-3,0.1-7.5-2.4-8.3-5.4C330,118.4,329.8,117.2,329.9,116z"/>
	<path class="st4" d="M341.4,103.1c6.9-2.6,6.2-20.2-4.4-17.6c-7.2,1.8-6.4,3.9-5.1,8.5C333.2,98.6,337,104.8,341.4,103.1z"/>
	<path class="st6" d="M321.3,102.3c2.2,9.1,3,14.5,8.4,18.4c8.2,5.9,18.7-0.3,19.4-9.8c0.5-8.6-3.1-22-12.7-24.1
		c-6.9-1.5-13.6,2.8-15.2,9.6C320.8,98.4,320.8,100.4,321.3,102.3z"/>
	<path class="st4" d="M322.6,108.9c6.9-2.6,4.2-19.9-6.4-17.3c-7.2,1.8-5.9,5.9-3.9,9.9C314.5,105.8,318.3,110.6,322.6,108.9z"/>
	<path class="st4" d="M338.3,78.4c-1.8-4.6-11.1-7.9-12.8,1C317.7,78.9,299,94,321.2,94c11,2.8,27.2-3.3,27.5-9.6
		C348.9,78,341,75.7,338.3,78.4z"/>
	<path class="st6" d="M319,111.1c1.2,1.8,3,3.1,5.1,3.5c2.7,0.5,3.8-2,2.8-4.6c-0.9-2.3-3.5-5.3-6.1-4.7
		C318.2,106,317.5,108.9,319,111.1z"/>
	<path class="st4" d="M417,401.4l-15.1,4.9c0,0-15.1-54.6-20.8-83.3c-1.7-8.7-6.6-19.9-10.8-32.8c-5.4-16.2-11.9-33.6-17.1-47.3
		c-5.5-14.4-9.6-24.7-9.6-24.7l32.4-5.6c0,0,27.9,75.6,31.8,104.1C411.8,346.3,417,401.4,417,401.4z"/>
	<path class="st3" d="M370.3,290.2c-5.4-16.2-11.9-33.6-17.1-47.3l2.6-7.7C364.9,244.1,370.2,273.8,370.3,290.2z"/>
	<path class="st4" d="M360.5,215.3c0,0,2.6,80.9,1.5,108.4c-1.3,30.1-10.5,89-10.5,89h-17.2c0,0,3.8-53.3,3.5-82.7
		c-0.4-33.5-11.3-108.7-11.3-108.7L360.5,215.3z"/>
	<polygon class="st0" points="353.6,413.1 333.3,413.1 333.3,407 355.9,406.6 	"/>
	<polygon class="st0" points="419,401.2 401,407 399.1,401.2 419.2,394.4 	"/>
	<path class="st4" d="M335.6,102.5c0.1,0.7,0.6,1.3,1.2,1.2c0.5-0.1,0.8-0.8,0.6-1.5c-0.1-0.7-0.6-1.3-1.2-1.2
		S335.5,101.7,335.6,102.5z"/>
	<path class="st4" d="M344.1,101c0.1,0.7,0.6,1.3,1.2,1.2s0.8-0.8,0.6-1.5c-0.1-0.7-0.6-1.3-1.1-1.2
		C344.3,99.6,343.9,100.2,344.1,101z"/>
	<path class="st8" d="M341.5,101.8c1.3,2.1,2.9,4.1,4.7,5.8c-0.9,0.9-2.2,1.4-3.5,1.3L341.5,101.8z"/>
	<path class="st4" d="M339.9,111.4c-1.7,0.1-3.4-0.5-4.7-1.7c-0.1-0.1-0.1-0.2,0-0.3c0,0,0,0,0,0c0.1-0.1,0.2-0.1,0.3,0
		c1.4,1.3,3.3,1.8,5.2,1.5c0.1,0,0.2,0.1,0.3,0.2c0,0.1-0.1,0.2-0.2,0.3C340.5,111.4,340.2,111.4,339.9,111.4z"/>
	<path class="st4" d="M332.6,100.2c-0.1,0-0.1,0-0.2,0c-0.2-0.1-0.3-0.4-0.2-0.6c0.6-1.3,1.9-2.2,3.3-2.5c0.2,0,0.5,0.2,0.5,0.4
		c0,0.2-0.2,0.5-0.4,0.5l0,0c-1.1,0.2-2.1,0.9-2.6,1.9C332.9,100.1,332.7,100.2,332.6,100.2z"/>
	<path class="st4" d="M347.2,97.5c-0.1,0-0.3-0.1-0.4-0.2c-0.6-0.9-1.7-1.5-2.8-1.6c-0.2,0-0.5-0.2-0.5-0.4c0-0.2,0.2-0.4,0.4-0.5
		c1.4,0,2.8,0.7,3.6,1.9c0.1,0.2,0.1,0.5-0.1,0.6C347.3,97.4,347.3,97.5,347.2,97.5z"/>
	<path class="st0" d="M350,426c-0.8,0-1.7-0.1-2.5-0.3c-0.1,0-0.2-0.1-0.2-0.2c0-0.1,0-0.2,0.1-0.2c0.3-0.2,3.3-2.1,4.3-1.5
		c0.2,0.1,0.4,0.4,0.4,0.6c0.1,0.4-0.1,0.9-0.4,1.2C351.3,425.9,350.6,426,350,426z M348.2,425.3c1.6,0.3,2.8,0.3,3.3-0.2
		c0.2-0.2,0.3-0.5,0.3-0.8c0-0.1-0.1-0.2-0.2-0.3C351.1,423.8,349.4,424.6,348.2,425.3L348.2,425.3z"/>
	<path class="st0" d="M347.6,425.6c0,0-0.1,0-0.1,0c-0.1,0-0.1-0.1-0.1-0.2c0-0.1,0.1-2.8,1.2-3.7c0.3-0.2,0.6-0.3,0.9-0.3l0,0
		c0.3,0,0.6,0.2,0.7,0.6c0.2,1.1-1.5,3.1-2.5,3.6L347.6,425.6z M349.3,421.8c-0.2,0-0.4,0.1-0.5,0.2c-0.6,0.9-1,1.9-1,2.9
		c0.9-0.7,2.1-2.3,1.9-2.9c0-0.1,0-0.2-0.3-0.2H349.3L349.3,421.8z"/>
	<path class="st0" d="M417.3,414.9c-0.1,0-0.2,0-0.2-0.1c-0.1-0.1-0.1-0.2,0-0.2c0.3-0.4,3.3-3.3,4.7-3.1c0.2,0.1,0.4,0.2,0.5,0.5
		l0,0c0.2,0.4,0.1,0.8-0.1,1.2C421.6,414.3,418.9,414.8,417.3,414.9L417.3,414.9z M421.6,411.9c-0.7,0-2.5,1.4-3.7,2.5
		c2.1-0.3,3.5-0.9,3.9-1.5c0.1-0.2,0.1-0.5,0-0.8C421.8,412,421.8,411.9,421.6,411.9L421.6,411.9z"/>
	<path class="st0" d="M417.3,414.9L417.3,414.9c-0.1,0-0.2-0.1-0.2-0.2c0-0.1-0.6-2.6,0.3-3.9c0.2-0.4,0.6-0.7,1.1-0.7l0,0
		c0.6-0.1,0.9,0.1,1,0.3c0.5,1-1,3.6-1.9,4.4C417.4,414.9,417.4,414.9,417.3,414.9z M418.7,410.5h-0.2l0,0c-0.3,0.1-0.6,0.3-0.8,0.6
		c-0.4,1-0.5,2.1-0.3,3.1c0.9-1,1.8-3,1.6-3.6C419,410.5,418.8,410.5,418.7,410.5z"/>
	<path class="st6" d="M321,152.9c-1.2,2.7-2.3,5.6-3.5,8.4c-1.2,2.8-2.2,5.7-3.3,8.6s-2.1,5.7-3,8.6s-1.7,5.7-2.4,8.6
		c-0.3,1.4-0.7,2.8-0.9,4.2l-0.2,1v0.3v-0.1c0-0.1,0-0.2,0-0.2c-0.1-0.4-0.2-0.7-0.5-0.9c-0.4-0.2,0.2,0.4,1.1,0.9
		c1.1,0.6,2.2,1,3.4,1.4c5.8,1.5,11.6,2.6,17.6,3.1l0.4,7c-3.3,0.6-6.6,1-9.9,1.2c-3.5,0.2-6.9,0.1-10.3-0.4
		c-1.9-0.3-3.8-0.7-5.7-1.4c-1.1-0.4-2.2-0.9-3.2-1.5c-1.3-0.8-2.5-1.8-3.4-3c-1.2-1.5-1.9-3.4-2.1-5.3c0-0.5,0-0.9,0-1.4v-0.7V191
		l0.1-1.3c0.1-1.8,0.4-3.5,0.7-5.2c1.2-6.6,2.9-13,5-19.3c1.1-3.1,2.2-6.2,3.4-9.2c1.2-3,2.4-6,3.9-9.1L321,152.9z"/>
	<path class="st0" d="M309.6,141.3c-4.9,2.6-8.3,18.5-8.3,18.5l14.4,8.9c0,0,3.7-7.3,6.5-13.3C327.4,143.7,319.1,136.1,309.6,141.3z
		"/>
	<path class="st6" d="M328.1,196.7l9.5-0.4l-4.2,9c0,0-8.9-0.5-7.7-4.8L328.1,196.7z"/>
	<polygon class="st6" points="343.8,202.5 339,208.3 333.3,205.2 337.5,196.3 	"/>
</g>
</svg>
