<?xml version="1.0" encoding="utf-8"?>
<!-- Generator: Adobe Illustrator 26.4.1, SVG Export Plug-In . SVG Version: 6.00 Build 0)  -->
<svg version="1.1" id="Layer_1" xmlns="http://www.w3.org/2000/svg" xmlns:xlink="http://www.w3.org/1999/xlink" x="0px" y="0px"
	 viewBox="0 0 500 333" style="enable-background:new 0 0 500 333;" xml:space="preserve">
<style type="text/css">
	.st0{fill:#F5F5F5;}
	.st1{fill:#2D292A;}
	.st2{opacity:0.2;enable-background:new    ;}
	.st3{fill:#263238;}
	.st4{opacity:0.5;enable-background:new    ;}
	.st5{fill:#FF8B7B;}
	.st6{fill:#FFFFFF;}
	.st7{fill:#FF5652;}
</style>
<g id="freepik--Shadow--inject-2">
	<ellipse id="freepik--path--inject-2" class="st0" cx="250" cy="314.2" rx="193.9" ry="11.3"/>
</g>
<g id="freepik--Gift--inject-2">
	<rect x="76.3" y="187.9" class="st1" width="1" height="13.4"/>
	<rect x="76.3" y="205.3" class="st1" width="1" height="5.6"/>
	<path class="st1" d="M79.8,138.8h163.5l0,0v175.5l0,0H84.5c-2.6,0-4.7-2.1-4.7-4.7l0,0L79.8,138.8L79.8,138.8z"/>
	<polygon class="st2" points="243.4,138.8 79.8,138.8 79.8,151.2 173.9,151.2 177,314.2 179.2,151.2 243.4,151.2 	"/>
	<path class="st1" d="M78.4,112.1h164.9l0,0v35.6l0,0H78.4c-1.3,0-2.3-1-2.3-2.3l0,0v-30.9C76.1,113.2,77.1,112.1,78.4,112.1
		C78.4,112.1,78.4,112.1,78.4,112.1z"/>
	<polygon class="st3" points="142.8,314.2 141.1,112.1 176.6,112.1 178.4,314.2 	"/>
	<path class="st1" d="M307.8,314.2h-64.4l0,0V138.8l0,0h69.1l0,0v170.8C312.5,312.1,310.4,314.2,307.8,314.2z"/>
	<path class="st2" d="M307.8,314.2h-64.4l0,0V138.8l0,0h69.1l0,0v170.8C312.5,312.1,310.4,314.2,307.8,314.2z"/>
	<polygon class="st2" points="243.4,138.8 312.4,138.8 312.4,151.2 273.9,151.2 268.6,314.2 269.2,151.2 243.4,151.2 	"/>
	<path class="st1" d="M313.9,147.7h-70.5l0,0v-35.6l0,0h70.5c1.3,0,2.3,1,2.3,2.3l0,0v30.9C316.2,146.6,315.2,147.7,313.9,147.7
		C313.9,147.7,313.9,147.7,313.9,147.7z"/>
	<path class="st2" d="M313.9,147.7h-70.5l0,0v-35.6l0,0h70.5c1.3,0,2.3,1,2.3,2.3l0,0v30.9C316.2,146.6,315.2,147.7,313.9,147.7
		C313.9,147.7,313.9,147.7,313.9,147.7z"/>
	<polygon class="st3" points="268.6,314.2 271.6,112.1 293.8,112.1 290.8,314.2 	"/>
	<polygon class="st2" points="268.6,314.2 271.6,112.1 293.8,112.1 290.8,314.2 	"/>
	<path class="st3" d="M280.2,45L280.2,45l-29.1-0.1c-1.7,0.1-3.3,0.6-4.8,1.3c-29.5,12.4-43.8,44.8-50.2,65.8h29.8
		C225.9,112.1,296.3,43,280.2,45z"/>
	<path class="st4" d="M225.9,112.1c0-27.3,20.7-53.4,50.2-65.8S225.9,112.1,225.9,112.1z"/>
	<path class="st3" d="M287.8,62.3L287.8,62.3h-21.6c-1.4,0.1-2.7,0.5-4,1c-25.4,9.2-45.4,33.2-56.1,48.9h22.1
		C228.2,112.2,300.4,60.8,287.8,62.3z"/>
	<path class="st4" d="M228.3,112.1c10.4-27,30.7-39.7,56.1-48.9S228.3,112.1,228.3,112.1z"/>
	<path class="st3" d="M142.4,36.5L142.4,36.5l-29.2-0.1c-1.1,0-2.1,0.5-2.7,1.5c-9.1,13.9,30,50.5,58.4,74.2h29.8
		C198.8,112.1,155.2,34.2,142.4,36.5z"/>
	<path class="st4" d="M198.8,112.1c-28.4-23.7-67.5-60.3-58.4-74.2S198.8,112.1,198.8,112.1z"/>
	<path class="st3" d="M172.9,56L172.9,56h-21.6c-0.9,0-1.7,0.4-2.3,1.1c-9.6,10.4,11.8,37.5,28,55.1H199
		C199,112.2,182.8,54.3,172.9,56z"/>
	<path class="st4" d="M199,112.1c-16.2-17.6-37.6-44.7-28-55.1S199,112.1,199,112.1z"/>
</g>
<g id="freepik--Character--inject-2">
	<polygon class="st5" points="384.5,299.6 392.2,297.1 388.5,278.8 380.8,281.2 	"/>
	<polygon class="st5" points="323.9,306 332,306 334.1,287.5 326.1,287.5 	"/>
	<path class="st3" d="M332.7,305.1h-9.8c-0.3,0-0.6,0.2-0.7,0.5l-1.3,7.1c-0.1,0.7,0.4,1.3,1,1.4c0.1,0,0.1,0,0.2,0
		c3.1,0,5.4-0.2,9.4-0.2c2.4,0,9.8,0.3,13.2,0.3s3.7-3.3,2.3-3.6c-6.2-1.4-11-3.2-13-5C333.7,305.3,333.2,305.1,332.7,305.1z"/>
	<path class="st3" d="M391.8,296.3l-8.4,2.7c-0.3,0.1-0.5,0.4-0.5,0.7l0.7,7.3c0.1,0.6,0.6,1.1,1.3,1.1c0.1,0,0.2,0,0.3-0.1
		c3-1,7.3-2.6,11.1-3.8c4.4-1.4,7-2.1,12.2-3.8c3.1-1,3-4.5,1.6-4.3c-6.4,0.6-10,1.8-16.2,0.3C393.2,296.1,392.5,296.1,391.8,296.3z
		"/>
	<path class="st5" d="M351.6,62.5c1,2.2,2.1,4.7,3.2,7s2.3,4.7,3.5,6.9s2.4,4.6,3.7,6.8s2.6,4.4,4,6.4c0.7,1,1.4,2,2.1,2.9l1.1,1.4
		c0.2,0.3,0.4,0.5,0.7,0.8c0.3,0.4,0.8,0.7,1.2,0.8c0.6,0.2,1.3,0.3,2,0.2c2-0.4,4-1.1,5.8-2.2c1-0.6,2-1.2,3-1.9s2-1.5,2.9-2.2
		l4.6,3.8c-0.8,1.3-1.7,2.5-2.6,3.6c-0.9,1.1-2,2.2-3.1,3.2c-1.1,1.1-2.4,2-3.7,2.9c-1.4,1-3,1.7-4.7,2.2c-1.9,0.6-4,0.8-6,0.6
		c-2.2-0.3-4.2-1.1-6-2.4c-0.8-0.6-1.6-1.2-2.3-1.9l-1.5-1.7c-1-1.1-1.9-2.2-2.8-3.4c-3.4-4.5-6.4-9.2-9.1-14.2
		c-1.3-2.4-2.6-4.9-3.8-7.4s-2.3-4.9-3.4-7.6L351.6,62.5z"/>
	<path class="st1" d="M336.9,63.2c-1.4,7.5,7.9,18.3,7.9,18.3l13.8-5.9c0,0-1.4-8.6-6.9-14.9C344.9,53.1,338.5,55,336.9,63.2z"/>
	<path class="st2" d="M344.3,65.9c-3.8-1.3-6.5-0.9-7.5,0c0.7,7.2,8,15.6,8,15.6l9.7-4.2C353.8,73.9,350.2,68,344.3,65.9z"/>
	<path class="st5" d="M383.5,91.1l4.4-9.2l6.2,6.4c0,0-1.8,7.4-7.5,6.4L383.5,91.1z"/>
	<polygon class="st5" points="391.5,77.4 396.2,83.4 394.1,88.2 387.9,81.8 	"/>
	<polygon class="st2" points="388.5,278.8 390.4,288.2 382.7,290.7 380.8,281.2 	"/>
	<polygon class="st2" points="326.1,287.5 334.1,287.5 333,297 325,297 	"/>
	<path class="st1" d="M300.9,63.3c11.6,29.5,13,61.9,14.4,68.3l42.3-7.3c1-39.9-9-61.9-11.7-67.1c-0.4-0.8-1.2-1.2-2-1.3
		c-1.2-0.1-3-0.2-5.2-0.2c-1.2,0-2.5,0-3.8,0.1c-0.7,0-1.5,0.1-2.2,0.1c-6.1,0.7-12.1,1.7-18,3.1c-1.1,0.2-2.3,0.5-3.4,0.8
		s-2,0.6-3,0.9C304.1,62,300.9,63.3,300.9,63.3z"/>
	<path class="st2" d="M305,75.2c1.4,4.6,2.6,9.2,3.6,13.7c1.3-8.1,1.9-16.4,1.9-16.4L305,75.2z"/>
	<path class="st5" d="M313.1,38.6c2.1,5.6,5.1,16,1.7,20.6c3.7,2.6,8.4,5.5,15.3,4.5s4.9-5.5,2.6-7.6c-6.7-0.4-7.4-5.2-7-9.9
		L313.1,38.6z"/>
	<path class="st6" d="M334.6,65.6c0,0,5.4-4.8-0.5-9.9c-0.8,0-1.5,0-2.3,0.2c0,0,6.6,5.6-0.9,7.6c-5.7-0.4-11.2-2-16.2-4.9
		c-0.6,0.1-1.2,0.4-1.7,0.7c2.1,4.1,16.1,7.4,16.1,7.4c0.1-0.7,0.4-1.3,0.7-1.9c1.4,3.9,2.4,7.8,3.2,11.9c0.9-0.1,1.9-0.4,2.8-0.6
		c-0.8-4-1.8-7.9-3-11.8C333.5,64.6,334.1,65.1,334.6,65.6z"/>
	<path class="st2" d="M318.2,41.7l7.5,4.4c-0.1,1.1-0.1,2.2,0,3.3c-2.5,0.1-6.4-2.1-7.1-4.6C318.3,43.8,318.2,42.8,318.2,41.7z"/>
	<path class="st3" d="M328.1,30.8c5.9-2.2,5.3-17.3-3.8-15.1c-6.1,1.5-5.5,3.3-4.4,7.3C321,26.9,324.4,32.2,328.1,30.8z"/>
	<path class="st5" d="M310.9,30.1c1.8,7.8,2.5,12.4,7.2,15.7c7,5,16-0.2,16.6-8.4c0.5-7.3-2.6-18.8-10.8-20.6
		c-5.9-1.3-11.7,2.4-13,8.2C310.5,26.7,310.5,28.4,310.9,30.1z"/>
	<path class="st3" d="M312,35.7c5.9-2.2,3.6-17-5.4-14.8c-6.1,1.5-5.1,5-3.3,8.4C305.1,33,308.3,37.1,312,35.7z"/>
	<path class="st3" d="M325.4,9.6c-1.5-3.9-9.5-6.7-11,0.9c-6.7-0.4-22.7,12.5-3.7,12.5c9.4,2.4,23.2-2.8,23.5-8.2
		S327.7,7.3,325.4,9.6z"/>
	<path class="st5" d="M308.9,37.5c1,1.5,2.6,2.6,4.4,3c2.3,0.5,3.2-1.8,2.4-3.9c-0.8-2-3-4.6-5.2-4S307.6,35.6,308.9,37.5z"/>
	<path class="st3" d="M392.7,285.5l-12.9,4.2c0,0-12.9-46.6-17.7-71.2c-1.5-7.5-5.6-17-9.3-28c-4.6-13.8-10.1-28.7-14.6-40.4
		c-4.7-12.3-8.2-21.1-8.2-21.1l27.7-4.8c0,0,23.9,64.6,27.2,88.9C388.2,238.4,392.7,285.5,392.7,285.5z"/>
	<path class="st2" d="M352.7,190.6c-4.6-13.8-10.1-28.7-14.6-40.4l2.3-6.6C348.2,151.2,352.6,176.5,352.7,190.6z"/>
	<path class="st3" d="M344.4,126.6c0,0,2.2,69.1,1.2,92.6c-1.1,25.7-9,76-9,76H322c0,0,3.3-45.6,3-70.7c-0.4-28.6-9.7-92.9-9.7-92.9
		L344.4,126.6z"/>
	<polygon class="st1" points="338.5,295.5 321.1,295.5 321.1,290.3 340.5,290 	"/>
	<polygon class="st1" points="394.4,285.3 379,290.3 377.4,285.3 394.5,279.5 	"/>
	<path class="st3" d="M323.1,30.2c0.1,0.6,0.5,1.1,1,1s0.7-0.6,0.5-1.3s-0.5-1.1-1-1S323,29.5,323.1,30.2z"/>
	<path class="st3" d="M330.4,28.9c0.1,0.6,0.5,1.1,1,1s0.7-0.6,0.5-1.3s-0.5-1.1-1-1S330.2,28.3,330.4,28.9z"/>
	<path class="st7" d="M328.1,29.6c1.1,1.8,2.4,3.5,4,4.9c-0.8,0.8-1.9,1.2-3,1.1L328.1,29.6z"/>
	<path class="st3" d="M326.8,37.8c-1.5,0.1-2.9-0.4-4-1.5c-0.1-0.1-0.1-0.2,0-0.3c0,0,0,0,0,0c0.1-0.1,0.2-0.1,0.3,0
		c1.2,1.1,2.9,1.6,4.5,1.3c0.1,0,0.2,0.1,0.2,0.2c0,0.1,0,0.2-0.1,0.2C327.3,37.8,327,37.8,326.8,37.8z"/>
	<path class="st3" d="M320.5,28.2c-0.1,0-0.1,0-0.2,0c-0.2-0.1-0.3-0.3-0.2-0.5c0.5-1.1,1.6-1.9,2.8-2.1c0.2,0,0.4,0.1,0.4,0.3
		c0,0.2-0.1,0.4-0.3,0.4l0,0c-1,0.2-1.8,0.8-2.2,1.7C320.8,28.2,320.7,28.2,320.5,28.2z"/>
	<path class="st3" d="M333,25.9c-0.1,0-0.3,0-0.3-0.2c-0.5-0.8-1.4-1.3-2.4-1.3c-0.2,0-0.4-0.2-0.4-0.4c0-0.2,0.2-0.4,0.4-0.4
		c1.2,0,2.4,0.6,3.1,1.6c0.1,0.2,0.1,0.4-0.1,0.5C333.1,25.9,333.1,25.9,333,25.9z"/>
	<path class="st1" d="M335.4,306.5c-0.7,0-1.4-0.1-2.1-0.3c-0.1,0-0.1-0.1-0.1-0.2c0-0.1,0-0.1,0.1-0.2c0.3-0.2,2.8-1.8,3.7-1.3
		c0.2,0.1,0.3,0.3,0.4,0.5c0.1,0.4-0.1,0.7-0.4,1C336.5,306.4,336,306.6,335.4,306.5z M333.9,306c1.4,0.3,2.4,0.2,2.8-0.1
		c0.2-0.2,0.3-0.4,0.2-0.7c0-0.1,0-0.2-0.1-0.2C336.3,304.7,334.9,305.4,333.9,306L333.9,306z"/>
	<path class="st1" d="M333.4,306.2c0,0-0.1,0-0.1,0c-0.1,0-0.1-0.1-0.1-0.2c0-0.1,0.1-2.4,1-3.2c0.2-0.2,0.5-0.3,0.8-0.2l0,0
		c0.3,0,0.6,0.2,0.6,0.5C335.8,304,334.3,305.8,333.4,306.2L333.4,306.2z M334.8,303c-0.2,0-0.3,0.1-0.4,0.2
		c-0.5,0.7-0.8,1.6-0.8,2.5c0.8-0.6,1.8-2,1.6-2.5C335.2,303.1,335.2,303,334.8,303L334.8,303L334.8,303z"/>
	<path class="st1" d="M392.9,297.1c-0.1,0-0.1,0-0.2-0.1c0-0.1,0-0.1,0-0.2c0.3-0.3,2.9-2.8,4-2.6c0.2,0,0.4,0.2,0.5,0.4l0,0
		c0.1,0.3,0.1,0.7-0.1,1C396.5,296.5,394.2,296.9,392.9,297.1L392.9,297.1z M396.6,294.5c-0.6,0-2.1,1.2-3.1,2.1
		c1.8-0.3,3-0.8,3.3-1.3c0.1-0.2,0.1-0.5,0-0.7C396.8,294.6,396.7,294.5,396.6,294.5L396.6,294.5z"/>
	<path class="st1" d="M392.9,297.1L392.9,297.1c-0.1,0-0.2-0.1-0.2-0.1c0-0.1-0.5-2.2,0.2-3.3c0.2-0.3,0.5-0.6,0.9-0.6l0,0
		c0.5-0.1,0.7,0.1,0.8,0.3c0.4,0.8-0.9,3.1-1.7,3.8C393,297.1,393,297.1,392.9,297.1z M394.1,293.3H394l0,0
		c-0.3,0.1-0.5,0.2-0.7,0.5c-0.4,0.8-0.4,1.8-0.2,2.7c0.8-0.9,1.6-2.6,1.3-3.1C394.3,293.3,394.2,293.3,394.1,293.3z"/>
	<path class="st5" d="M310.6,73.3c-1,2.3-2,4.8-3,7.2s-1.9,4.9-2.8,7.3s-1.8,4.9-2.5,7.4s-1.5,4.9-2.1,7.3c-0.3,1.2-0.6,2.4-0.7,3.6
		l-0.2,0.9v0.2v-0.1c0-0.1,0-0.1,0-0.2c0-0.3-0.2-0.6-0.4-0.8c-0.3-0.2,0.1,0.4,0.9,0.8c0.9,0.5,1.9,0.9,2.9,1.2
		c4.9,1.3,9.9,2.2,15,2.7l0.3,6c-2.8,0.5-5.6,0.9-8.5,1c-3,0.2-5.9,0.1-8.8-0.3c-1.7-0.2-3.3-0.6-4.9-1.2c-0.9-0.3-1.9-0.8-2.7-1.3
		c-1.1-0.7-2.1-1.5-2.9-2.6c-1-1.3-1.6-2.9-1.8-4.6c0-0.4,0-0.8,0-1.2v-0.6v-0.3l0.1-1.1c0.1-1.5,0.4-2.9,0.6-4.4
		c1-5.6,2.4-11.1,4.3-16.5c0.9-2.6,1.8-5.3,2.9-7.9s2.1-5.1,3.3-7.7L310.6,73.3z"/>
	<path class="st1" d="M300.9,63.3c-4.2,2.2-7,15.8-7,15.8l12.3,7.6c0,0,3.2-6.2,5.5-11.4C316.1,65.4,309,58.9,300.9,63.3z"/>
	<path class="st5" d="M316.7,110.6l8.1-0.4l-3.6,7.7c0,0-7.6-0.5-6.6-4.1L316.7,110.6z"/>
	<polygon class="st5" points="330.1,115.6 326.1,120.6 321.2,118 324.8,110.3 	"/>
</g>
</svg>
