<svg width="737" height="305" viewBox="0 0 737 305" fill="none" xmlns="http://www.w3.org/2000/svg">
<path d="M286.958 108.634C301.852 108.634 313.633 112.628 322.299 120.617C331.1 128.606 335.501 139.506 335.501 153.318C335.501 157.922 335.162 161.984 334.485 165.504C333.673 169.837 332.86 172.952 332.048 174.847H256.694C256.559 175.66 256.491 176.878 256.491 178.503C256.491 183.649 257.71 187.44 260.147 189.878C262.72 192.315 266.105 193.533 270.302 193.533C276.937 193.533 282.218 190.555 286.145 184.597H328.392C325.278 192.45 320.606 199.491 314.377 205.72C308.284 211.813 301.04 216.62 292.645 220.141C284.385 223.661 275.583 225.422 266.24 225.422C251.346 225.422 239.497 221.36 230.696 213.235C221.895 205.111 217.494 193.94 217.494 179.722C217.494 175.66 217.9 171.395 218.713 166.926C220.879 155.01 225.144 144.719 231.508 136.053C238.008 127.252 245.997 120.482 255.475 115.742C265.089 111.003 275.583 108.634 286.958 108.634ZM295.285 156.974C295.556 155.078 295.691 153.859 295.691 153.318C295.691 148.985 294.337 145.735 291.629 143.568C288.921 141.267 285.4 140.116 281.067 140.116C276.057 140.116 271.724 141.537 268.068 144.381C264.412 147.224 261.704 151.422 259.944 156.974H295.285ZM343.871 166.926C346.038 155.146 350.032 144.855 355.855 136.053C361.677 127.252 368.651 120.482 376.775 115.742C385.035 111.003 393.701 108.634 402.773 108.634C410.627 108.634 417.126 110.191 422.272 113.305C427.417 116.419 431.005 120.617 433.036 125.898L435.88 110.055H475.69L455.582 224H415.772L418.616 208.157C414.689 213.438 409.543 217.636 403.179 220.75C396.815 223.865 389.774 225.422 382.056 225.422C370.14 225.422 360.594 221.495 353.417 213.641C346.241 205.652 342.652 194.82 342.652 181.144C342.652 176.675 343.059 171.936 343.871 166.926ZM425.928 166.926C426.334 164.895 426.537 162.999 426.537 161.239C426.537 155.552 424.912 151.151 421.662 148.037C418.548 144.923 414.486 143.365 409.476 143.365C403.518 143.365 398.169 145.464 393.43 149.662C388.691 153.724 385.712 159.479 384.493 166.926C384.087 168.957 383.884 170.921 383.884 172.816C383.884 178.503 385.441 182.904 388.555 186.018C391.805 189.133 395.935 190.69 400.945 190.69C406.903 190.69 412.252 188.591 416.991 184.394C421.73 180.196 424.709 174.373 425.928 166.926ZM528.028 225.422C518.55 225.422 510.087 224 502.64 221.156C495.192 218.313 489.37 214.318 485.172 209.173C480.975 203.892 478.876 197.867 478.876 191.096C478.876 189.878 479.011 188.05 479.282 185.612H517.67C517.534 189.404 518.685 192.315 521.123 194.346C523.56 196.377 526.945 197.393 531.278 197.393C534.663 197.393 537.439 196.716 539.606 195.361C541.908 194.007 543.059 192.247 543.059 190.081C543.059 187.508 541.637 185.545 538.793 184.19C535.95 182.701 531.211 180.873 524.576 178.706C516.857 176.269 510.493 173.9 505.483 171.598C500.473 169.296 496.072 165.911 492.281 161.442C488.625 156.974 486.797 151.219 486.797 144.178C486.797 137.407 488.761 131.314 492.687 125.898C496.75 120.482 502.437 116.284 509.749 113.305C517.061 110.191 525.523 108.634 535.137 108.634C545.428 108.634 554.297 110.394 561.745 113.914C569.327 117.3 574.947 122.039 578.603 128.132C582.394 134.225 584.087 140.996 583.681 148.443H547.933C548.069 144.787 546.985 141.944 544.683 139.912C542.382 137.746 539.064 136.663 534.731 136.663C531.617 136.663 529.044 137.34 527.013 138.694C524.982 140.048 523.966 141.808 523.966 143.975C523.966 146.547 525.388 148.578 528.232 150.068C531.211 151.557 536.153 153.453 543.059 155.755C550.641 158.192 556.938 160.63 561.948 163.067C567.093 165.369 571.494 168.686 575.15 173.019C578.806 177.217 580.634 182.633 580.634 189.268C580.634 200.507 575.759 209.376 566.01 215.876C556.261 222.24 543.6 225.422 528.028 225.422ZM645.905 110.055L658.295 174.644L692.824 110.055H736.492L634.734 278.23H591.472L629.047 219.125L601.627 110.055H645.905Z" fill="#2D292A"/>
<path d="M604.661 243.56H225.661C223.429 243.563 221.287 244.446 219.703 246.02C218.119 247.593 217.22 249.727 217.201 251.96L217.061 269.4C217.052 270.517 217.264 271.624 217.685 272.659C218.106 273.694 218.728 274.634 219.514 275.427C220.301 276.22 221.237 276.85 222.268 277.279C223.299 277.709 224.404 277.93 225.521 277.93H582.661L604.661 243.56Z" fill="#262223"/>
<path d="M311.552 270.756C310.248 270.756 309.075 270.532 308.033 270.085C306.99 269.62 306.171 268.968 305.575 268.13C304.979 267.292 304.681 266.315 304.681 265.197H308.088C308.163 266.035 308.489 266.724 309.066 267.264C309.662 267.804 310.49 268.074 311.552 268.074C312.65 268.074 313.507 267.814 314.121 267.292C314.736 266.752 315.043 266.063 315.043 265.225C315.043 264.574 314.847 264.043 314.456 263.633C314.084 263.224 313.609 262.907 313.032 262.684C312.473 262.46 311.691 262.218 310.686 261.958C309.42 261.622 308.386 261.287 307.586 260.952C306.804 260.598 306.133 260.058 305.575 259.332C305.016 258.606 304.737 257.638 304.737 256.427C304.737 255.31 305.016 254.333 305.575 253.495C306.133 252.657 306.915 252.014 307.921 251.568C308.926 251.121 310.09 250.897 311.412 250.897C313.293 250.897 314.829 251.372 316.021 252.322C317.231 253.253 317.901 254.537 318.032 256.176H314.512C314.456 255.468 314.121 254.863 313.507 254.361C312.892 253.858 312.082 253.606 311.077 253.606C310.165 253.606 309.42 253.839 308.843 254.305C308.265 254.77 307.977 255.441 307.977 256.316C307.977 256.912 308.154 257.405 308.507 257.796C308.88 258.168 309.345 258.466 309.904 258.69C310.462 258.913 311.226 259.155 312.194 259.416C313.479 259.77 314.522 260.123 315.322 260.477C316.142 260.831 316.831 261.38 317.389 262.125C317.966 262.851 318.255 263.829 318.255 265.058C318.255 266.045 317.985 266.976 317.445 267.851C316.924 268.726 316.151 269.433 315.127 269.973C314.121 270.495 312.93 270.756 311.552 270.756ZM325.168 251.149V263.522C325.168 264.993 325.55 266.101 326.313 266.845C327.095 267.59 328.175 267.963 329.553 267.963C330.95 267.963 332.03 267.59 332.793 266.845C333.575 266.101 333.966 264.993 333.966 263.522V251.149H337.15V263.466C337.15 265.048 336.806 266.389 336.117 267.488C335.428 268.586 334.506 269.406 333.352 269.946C332.197 270.486 330.922 270.756 329.525 270.756C328.129 270.756 326.853 270.486 325.699 269.946C324.563 269.406 323.66 268.586 322.99 267.488C322.319 266.389 321.984 265.048 321.984 263.466V251.149H325.168ZM351.686 260.589C352.728 260.775 353.613 261.324 354.339 262.237C355.065 263.149 355.428 264.183 355.428 265.337C355.428 266.324 355.168 267.218 354.646 268.018C354.143 268.8 353.408 269.424 352.44 269.89C351.472 270.337 350.345 270.56 349.06 270.56H341.296V251.149H348.697C350.019 251.149 351.155 251.372 352.105 251.819C353.054 252.266 353.771 252.871 354.255 253.634C354.739 254.379 354.981 255.217 354.981 256.148C354.981 257.265 354.683 258.196 354.088 258.941C353.492 259.686 352.691 260.235 351.686 260.589ZM344.48 259.304H348.418C349.461 259.304 350.271 259.071 350.848 258.606C351.444 258.122 351.741 257.433 351.741 256.539C351.741 255.664 351.444 254.984 350.848 254.5C350.271 253.998 349.461 253.746 348.418 253.746H344.48V259.304ZM348.781 267.963C349.861 267.963 350.708 267.702 351.323 267.18C351.937 266.659 352.244 265.933 352.244 265.002C352.244 264.052 351.918 263.298 351.267 262.74C350.615 262.181 349.749 261.902 348.669 261.902H344.48V267.963H348.781ZM365.284 270.756C363.981 270.756 362.808 270.532 361.765 270.085C360.722 269.62 359.903 268.968 359.307 268.13C358.711 267.292 358.413 266.315 358.413 265.197H361.821C361.895 266.035 362.221 266.724 362.799 267.264C363.394 267.804 364.223 268.074 365.284 268.074C366.383 268.074 367.239 267.814 367.854 267.292C368.468 266.752 368.776 266.063 368.776 265.225C368.776 264.574 368.58 264.043 368.189 263.633C367.817 263.224 367.342 262.907 366.765 262.684C366.206 262.46 365.424 262.218 364.418 261.958C363.152 261.622 362.119 261.287 361.318 260.952C360.536 260.598 359.866 260.058 359.307 259.332C358.749 258.606 358.469 257.638 358.469 256.427C358.469 255.31 358.749 254.333 359.307 253.495C359.866 252.657 360.648 252.014 361.653 251.568C362.659 251.121 363.823 250.897 365.145 250.897C367.025 250.897 368.561 251.372 369.753 252.322C370.963 253.253 371.634 254.537 371.764 256.176H368.245C368.189 255.468 367.854 254.863 367.239 254.361C366.625 253.858 365.815 253.606 364.809 253.606C363.897 253.606 363.152 253.839 362.575 254.305C361.998 254.77 361.709 255.441 361.709 256.316C361.709 256.912 361.886 257.405 362.24 257.796C362.612 258.168 363.078 258.466 363.636 258.69C364.195 258.913 364.958 259.155 365.927 259.416C367.211 259.77 368.254 260.123 369.055 260.477C369.874 260.831 370.563 261.38 371.122 262.125C371.699 262.851 371.987 263.829 371.987 265.058C371.987 266.045 371.717 266.976 371.178 267.851C370.656 268.726 369.883 269.433 368.859 269.973C367.854 270.495 366.662 270.756 365.284 270.756ZM374.683 260.812C374.683 258.913 375.121 257.209 375.996 255.701C376.89 254.193 378.091 253.02 379.599 252.182C381.126 251.326 382.792 250.897 384.598 250.897C386.665 250.897 388.499 251.409 390.101 252.433C391.72 253.439 392.894 254.873 393.62 256.735H389.793C389.291 255.711 388.592 254.947 387.699 254.444C386.805 253.942 385.771 253.69 384.598 253.69C383.314 253.69 382.168 253.979 381.163 254.556C380.157 255.133 379.366 255.962 378.789 257.042C378.23 258.122 377.951 259.379 377.951 260.812C377.951 262.246 378.23 263.503 378.789 264.583C379.366 265.663 380.157 266.501 381.163 267.097C382.168 267.674 383.314 267.963 384.598 267.963C385.771 267.963 386.805 267.711 387.699 267.208C388.592 266.706 389.291 265.942 389.793 264.918H393.62C392.894 266.78 391.72 268.214 390.101 269.219C388.499 270.225 386.665 270.728 384.598 270.728C382.774 270.728 381.107 270.309 379.599 269.471C378.091 268.614 376.89 267.432 375.996 265.924C375.121 264.415 374.683 262.712 374.683 260.812ZM407.429 270.56L402.961 262.795H400.531V270.56H397.347V251.149H404.05C405.539 251.149 406.796 251.409 407.82 251.931C408.863 252.452 409.636 253.15 410.139 254.025C410.66 254.901 410.921 255.878 410.921 256.958C410.921 258.224 410.548 259.379 409.803 260.421C409.077 261.446 407.951 262.144 406.424 262.516L411.228 270.56H407.429ZM400.531 260.254H404.05C405.241 260.254 406.135 259.956 406.731 259.36C407.346 258.764 407.653 257.964 407.653 256.958C407.653 255.953 407.355 255.171 406.759 254.612C406.163 254.035 405.26 253.746 404.05 253.746H400.531V260.254ZM418.178 251.149V270.56H414.994V251.149H418.178ZM435.932 256.93C435.932 257.917 435.699 258.848 435.234 259.723C434.768 260.598 434.024 261.315 432.999 261.874C431.975 262.414 430.663 262.684 429.061 262.684H425.542V270.56H422.358V251.149H429.061C430.551 251.149 431.808 251.409 432.832 251.931C433.875 252.433 434.647 253.122 435.15 253.998C435.671 254.873 435.932 255.85 435.932 256.93ZM429.061 260.086C430.272 260.086 431.175 259.816 431.771 259.276C432.366 258.718 432.664 257.936 432.664 256.93C432.664 254.807 431.463 253.746 429.061 253.746H425.542V260.086H429.061ZM451.509 251.149V253.746H446.342V270.56H443.158V253.746H437.963V251.149H451.509ZM457.918 251.149V270.56H454.734V251.149H457.918ZM470.952 270.756C469.146 270.756 467.48 270.337 465.953 269.499C464.445 268.642 463.244 267.46 462.35 265.952C461.475 264.425 461.037 262.712 461.037 260.812C461.037 258.913 461.475 257.209 462.35 255.701C463.244 254.193 464.445 253.02 465.953 252.182C467.48 251.326 469.146 250.897 470.952 250.897C472.777 250.897 474.443 251.326 475.952 252.182C477.479 253.02 478.679 254.193 479.555 255.701C480.43 257.209 480.867 258.913 480.867 260.812C480.867 262.712 480.43 264.425 479.555 265.952C478.679 267.46 477.479 268.642 475.952 269.499C474.443 270.337 472.777 270.756 470.952 270.756ZM470.952 267.99C472.237 267.99 473.382 267.702 474.388 267.125C475.393 266.529 476.175 265.691 476.734 264.611C477.311 263.512 477.6 262.246 477.6 260.812C477.6 259.379 477.311 258.122 476.734 257.042C476.175 255.962 475.393 255.133 474.388 254.556C473.382 253.979 472.237 253.69 470.952 253.69C469.667 253.69 468.522 253.979 467.517 254.556C466.511 255.133 465.72 255.962 465.143 257.042C464.584 258.122 464.305 259.379 464.305 260.812C464.305 262.246 464.584 263.512 465.143 264.611C465.72 265.691 466.511 266.529 467.517 267.125C468.522 267.702 469.667 267.99 470.952 267.99ZM499.949 270.56H496.765L487.185 256.064V270.56H484.001V251.121H487.185L496.765 265.588V251.121H499.949V270.56ZM510.526 270.756C509.222 270.756 508.049 270.532 507.007 270.085C505.964 269.62 505.145 268.968 504.549 268.13C503.953 267.292 503.655 266.315 503.655 265.197H507.062C507.137 266.035 507.463 266.724 508.04 267.264C508.636 267.804 509.464 268.074 510.526 268.074C511.624 268.074 512.481 267.814 513.095 267.292C513.71 266.752 514.017 266.063 514.017 265.225C514.017 264.574 513.821 264.043 513.43 263.633C513.058 263.224 512.583 262.907 512.006 262.684C511.447 262.46 510.665 262.218 509.66 261.958C508.394 261.622 507.36 261.287 506.56 260.952C505.778 260.598 505.107 260.058 504.549 259.332C503.99 258.606 503.711 257.638 503.711 256.427C503.711 255.31 503.99 254.333 504.549 253.495C505.107 252.657 505.889 252.014 506.895 251.568C507.9 251.121 509.064 250.897 510.386 250.897C512.267 250.897 513.803 251.372 514.995 252.322C516.205 253.253 516.875 254.537 517.005 256.176H513.486C513.43 255.468 513.095 254.863 512.481 254.361C511.866 253.858 511.056 253.606 510.051 253.606C509.139 253.606 508.394 253.839 507.817 254.305C507.239 254.77 506.951 255.441 506.951 256.316C506.951 256.912 507.128 257.405 507.481 257.796C507.854 258.168 508.319 258.466 508.878 258.69C509.436 258.913 510.2 259.155 511.168 259.416C512.453 259.77 513.496 260.123 514.296 260.477C515.116 260.831 515.805 261.38 516.363 262.125C516.94 262.851 517.229 263.829 517.229 265.058C517.229 266.045 516.959 266.976 516.419 267.851C515.898 268.726 515.125 269.433 514.101 269.973C513.095 270.495 511.904 270.756 510.526 270.756Z" fill="white"/>
<path d="M620 261.54H627.74L719.13 110H711.4L620 261.54Z" fill="white"/>
<g clip-path="url(#clip0_77_1908)">
<g filter="url(#filter0_d_77_1908)">
<path d="M153.681 82H56.3187C27.4239 82 4 105.308 4 134.06V230.94C4 259.692 27.4239 283 56.3187 283H153.681C182.576 283 206 259.692 206 230.94V134.06C206 105.308 182.576 82 153.681 82Z" fill="url(#paint0_linear_77_1908)"/>
</g>
<path d="M153.681 86.2918H56.3185C29.8058 86.2918 8.31299 107.678 8.31299 134.06V230.94C8.31299 257.322 29.8058 278.708 56.3185 278.708H153.681C180.194 278.708 201.687 257.322 201.687 230.94V134.06C201.687 107.678 180.194 86.2918 153.681 86.2918Z" fill="url(#paint1_linear_77_1908)"/>
</g>
<g clip-path="url(#clip1_77_1908)" filter="url(#filter1_d_77_1908)">
<path d="M165.813 111H43.2174C39.7102 111 37 113.724 37 117.249V126.223C37 129.588 39.7102 132.472 43.2174 132.472H101.885C105.233 132.472 108.102 135.197 108.102 138.722V153.144C108.102 156.509 105.392 159.393 101.885 159.393H63.6234C60.2756 159.393 57.406 162.117 57.406 165.643C57.406 169.008 60.1162 171.892 63.6234 171.892H95.8266C99.1745 171.892 102.044 174.616 102.044 178.142V191.442C102.044 194.807 99.3339 197.691 95.8266 197.691H63.6234C60.2756 197.691 57.406 200.415 57.406 203.941V205.383C57.406 208.748 60.1162 211.632 63.6234 211.632H103.798C107.146 211.632 110.015 214.356 110.015 217.882V232.303C110.015 235.669 107.305 238.553 103.798 238.553H43.2174C39.7102 237.912 37 240.796 37 244.161V253.135C37 256.5 39.7102 259.384 43.2174 259.384H165.813C169.161 259.384 172.03 256.66 172.03 253.135V117.249C171.871 113.724 169.161 111 165.813 111Z" fill="white"/>
<mask id="mask0_77_1908" style="mask-type:alpha" maskUnits="userSpaceOnUse" x="37" y="111" width="136" height="149">
<path d="M165.813 111H43.2174C39.7102 111 37 113.724 37 117.249V126.223C37 129.588 39.7102 132.472 43.2174 132.472H101.885C105.233 132.472 108.102 135.197 108.102 138.722V153.144C108.102 156.509 105.392 159.393 101.885 159.393H63.6234C60.2756 159.393 57.406 162.117 57.406 165.643C57.406 169.008 60.1162 171.892 63.6234 171.892H95.8266C99.1745 171.892 102.044 174.616 102.044 178.142V191.442C102.044 194.807 99.3339 197.691 95.8266 197.691H63.6234C60.2756 197.691 57.406 200.415 57.406 203.941V205.383C57.406 208.748 60.1162 211.632 63.6234 211.632H103.798C107.146 211.632 110.015 214.356 110.015 217.882V232.303C110.015 235.669 107.305 238.553 103.798 238.553H43.2174C39.7102 237.912 37 240.796 37 244.161V253.135C37 256.5 39.7102 259.384 43.2174 259.384H165.813C169.161 259.384 172.03 256.66 172.03 253.135V117.249C171.871 113.724 169.161 111 165.813 111Z" fill="white"/>
</mask>
<g mask="url(#mask0_77_1908)">
<rect x="36" y="250.919" width="136" height="1.00966" fill="#D9D9D9"/>
<rect x="36" y="252.938" width="136" height="1.00966" fill="#D9D9D9"/>
<rect x="36" y="254.958" width="136" height="1.00966" fill="#D9D9D9"/>
<rect x="36" y="256.977" width="136" height="1.00966" fill="#D9D9D9"/>
</g>
<mask id="mask1_77_1908" style="mask-type:alpha" maskUnits="userSpaceOnUse" x="37" y="111" width="136" height="149">
<path d="M165.813 111H43.2174C39.7102 111 37 113.724 37 117.249V126.223C37 129.588 39.7102 132.472 43.2174 132.472H101.885C105.233 132.472 108.102 135.197 108.102 138.722V153.144C108.102 156.509 105.392 159.393 101.885 159.393H63.6234C60.2756 159.393 57.406 162.117 57.406 165.643C57.406 169.008 60.1162 171.892 63.6234 171.892H95.8266C99.1745 171.892 102.044 174.616 102.044 178.142V191.442C102.044 194.807 99.3339 197.691 95.8266 197.691H63.6234C60.2756 197.691 57.406 200.415 57.406 203.941V205.383C57.406 208.748 60.1162 211.632 63.6234 211.632H103.798C107.146 211.632 110.015 214.356 110.015 217.882V232.303C110.015 235.669 107.305 238.553 103.798 238.553H43.2174C39.7102 237.912 37 240.796 37 244.161V253.135C37 256.5 39.7102 259.384 43.2174 259.384H165.813C169.161 259.384 172.03 256.66 172.03 253.135V117.249C171.871 113.724 169.161 111 165.813 111Z" fill="white"/>
</mask>
<g mask="url(#mask1_77_1908)">
<g filter="url(#filter2_i_77_1908)">
<rect x="33.4194" y="109.795" width="144.419" height="30.1269" fill="#ADADAD"/>
</g>
</g>
<g filter="url(#filter3_i_77_1908)">
<rect x="112" y="149" width="23.8709" height="25.0645" fill="#D9D9D9"/>
</g>
<g filter="url(#filter4_i_77_1908)">
<rect x="142.032" y="149.419" width="23.8709" height="25.0645" fill="#D9D9D9"/>
</g>
<g filter="url(#filter5_i_77_1908)">
<rect x="112.193" y="180.452" width="23.8709" height="25.0645" fill="#D9D9D9"/>
</g>
<g filter="url(#filter6_i_77_1908)">
<rect x="142" y="181" width="23.8709" height="25.0645" fill="#D9D9D9"/>
</g>
<g filter="url(#filter7_i_77_1908)">
<rect x="112.193" y="211.484" width="23.8709" height="25.0645" fill="#D9D9D9"/>
</g>
<g filter="url(#filter8_i_77_1908)">
<rect x="142.032" y="211.484" width="23.8709" height="14.3226" fill="#D9D9D9"/>
</g>
</g>
<path d="M128.5 240.5C123.3 242.1 94.3333 248.167 80.5 251H171.5V223.5C165.5 229.5 140.333 237.333 128.5 240.5Z" fill="#EEEEEE"/>
<g filter="url(#filter9_d_77_1908)">
<path d="M137.702 237.833C116.143 244.352 90.991 249.277 78.0884 250.871C100.464 246.96 120.879 237.398 137.375 219L137.702 237.833Z" fill="#FCFCFC"/>
<path d="M137.375 219C148.482 223.491 164.324 227.982 170.857 223.491C171.184 223.201 171.674 223.056 172 222.767L171.837 222.911C165.631 228.127 152.565 233.342 137.702 237.833L137.375 219Z" fill="url(#paint2_linear_77_1908)"/>
<g filter="url(#filter10_d_77_1908)">
<path d="M171.836 223.056C156.974 235.66 99.9738 248.263 78.0884 250.871C100.464 247.104 120.879 238.123 137.375 219.724C149.134 224.505 165.303 228.561 172 222.911C172 222.911 171.836 222.911 171.836 223.056Z" fill="url(#paint3_linear_77_1908)"/>
</g>
</g>
<path d="M50.8841 118.237C50.8841 119.945 49.4562 121.359 47.7309 121.359C46.0055 121.359 44.5776 119.945 44.5776 118.237C44.5776 116.528 46.0055 115.114 47.7309 115.114C49.4562 115.114 50.8841 116.528 50.8841 118.237Z" fill="#2D292A"/>
<path d="M56.7148 110.872C56.8338 110.224 56.8933 109.576 56.8933 108.869C56.8933 104.097 54.335 100.032 51.2412 100.032C48.1475 100.032 45.5892 104.097 45.5892 108.869C45.5892 113.464 47.969 117.353 50.8248 117.706C50.9438 118.178 50.9438 119.415 49.9919 120.416C45.8867 119.592 42.793 114.819 42.793 108.869C42.793 102.389 46.4817 97.263 51.2412 97.263C56.0008 97.263 59.6895 102.389 59.6895 108.869C59.6895 109.576 59.63 110.224 59.5705 110.872H56.7148Z" fill="#DDDDDD"/>
<path d="M43.626 113.936C44.8159 117.353 47.1362 119.827 50.0514 120.416C51.0033 119.474 51.0033 118.237 50.8844 117.706C49.3375 117.53 47.9096 116.292 46.9577 114.525C45.8273 114.643 44.6374 114.466 43.626 113.936Z" fill="#999999"/>
<path d="M56.6729 108.073C56.6729 108.073 56.6729 108.767 56.6729 108.927C56.6729 109.78 56.6729 110.634 56.6729 111.061H59.6901C59.7591 110.474 59.6901 109.46 59.6901 108.82C59.6901 108.553 59.6901 108.287 59.6211 108.073C58.7246 108.34 57.7763 108.18 56.6729 108.073Z" fill="#999999"/>
<path d="M45.8965 101.44C46.8892 99.8311 49.0313 97.7225 51.3301 97.8335C53.6812 97.889 56.1368 99.1652 57.9655 104.659C56.9728 102.384 55.1964 97.9999 50.3374 98.6103C48.8745 98.8323 46.9414 100.108 45.8965 101.44Z" fill="#ADADAD"/>
<path d="M76.8841 118.237C76.8841 119.945 75.4562 121.359 73.7309 121.359C72.0055 121.359 70.5776 119.945 70.5776 118.237C70.5776 116.528 72.0055 115.114 73.7309 115.114C75.4562 115.114 76.8841 116.528 76.8841 118.237Z" fill="#2D292A"/>
<path d="M82.7148 110.872C82.8338 110.224 82.8933 109.576 82.8933 108.869C82.8933 104.097 80.335 100.032 77.2412 100.032C74.1475 100.032 71.5892 104.097 71.5892 108.869C71.5892 113.464 73.969 117.353 76.8248 117.706C76.9438 118.178 76.9438 119.415 75.9919 120.416C71.8867 119.592 68.793 114.819 68.793 108.869C68.793 102.389 72.4817 97.263 77.2412 97.263C82.0008 97.263 85.6895 102.389 85.6895 108.869C85.6895 109.576 85.63 110.224 85.5705 110.872H82.7148Z" fill="#DDDDDD"/>
<path d="M69.626 113.936C70.8159 117.353 73.1362 119.827 76.0514 120.416C77.0033 119.474 77.0033 118.237 76.8844 117.706C75.3375 117.53 73.9096 116.292 72.9577 114.525C71.8273 114.643 70.6374 114.466 69.626 113.936Z" fill="#999999"/>
<path d="M82.6729 108.073C82.6729 108.073 82.6729 108.767 82.6729 108.927C82.6729 109.78 82.6729 110.634 82.6729 111.061H85.6901C85.7591 110.474 85.6901 109.46 85.6901 108.82C85.6901 108.553 85.6901 108.287 85.6211 108.073C84.7246 108.34 83.7763 108.18 82.6729 108.073Z" fill="#999999"/>
<path d="M71.8965 101.44C72.8892 99.8311 75.0313 97.7225 77.3301 97.8335C79.6812 97.889 82.1368 99.1652 83.9655 104.659C82.9728 102.384 81.1964 97.9999 76.3374 98.6103C74.8745 98.8323 72.9414 100.108 71.8965 101.44Z" fill="#ACACAC"/>
<path d="M102.884 118.237C102.884 119.945 101.456 121.359 99.7309 121.359C98.0055 121.359 96.5776 119.945 96.5776 118.237C96.5776 116.528 98.0055 115.114 99.7309 115.114C101.456 115.114 102.884 116.528 102.884 118.237Z" fill="#2D292A"/>
<path d="M108.715 110.872C108.834 110.224 108.893 109.576 108.893 108.869C108.893 104.097 106.335 100.032 103.241 100.032C100.148 100.032 97.5892 104.097 97.5892 108.869C97.5892 113.464 99.969 117.353 102.825 117.706C102.944 118.178 102.944 119.415 101.992 120.416C97.8867 119.592 94.793 114.819 94.793 108.869C94.793 102.389 98.4817 97.263 103.241 97.263C108.001 97.263 111.69 102.389 111.69 108.869C111.69 109.576 111.63 110.224 111.571 110.872H108.715Z" fill="#DDDDDD"/>
<path d="M95.626 113.936C96.8159 117.353 99.1362 119.827 102.051 120.416C103.003 119.474 103.003 118.237 102.884 117.706C101.337 117.53 99.9096 116.292 98.9577 114.525C97.8273 114.643 96.6374 114.466 95.626 113.936Z" fill="#999999"/>
<path d="M108.673 108.073C108.673 108.073 108.673 108.767 108.673 108.927C108.673 109.78 108.673 110.634 108.673 111.061H111.69C111.759 110.474 111.69 109.46 111.69 108.82C111.69 108.553 111.69 108.287 111.621 108.073C110.725 108.34 109.776 108.18 108.673 108.073Z" fill="#999999"/>
<path d="M97.8965 101.44C98.8892 99.8311 101.031 97.7225 103.33 97.8335C105.681 97.889 108.137 99.1652 109.965 104.659C108.973 102.384 107.196 97.9999 102.337 98.6103C100.875 98.8323 98.9414 100.108 97.8965 101.44Z" fill="#ADADAD"/>
<path d="M128.884 118.237C128.884 119.945 127.456 121.359 125.731 121.359C124.006 121.359 122.578 119.945 122.578 118.237C122.578 116.528 124.006 115.114 125.731 115.114C127.456 115.114 128.884 116.528 128.884 118.237Z" fill="#2D292A"/>
<path d="M134.715 110.872C134.834 110.224 134.893 109.576 134.893 108.869C134.893 104.097 132.335 100.032 129.241 100.032C126.148 100.032 123.589 104.097 123.589 108.869C123.589 113.464 125.969 117.353 128.825 117.706C128.944 118.178 128.944 119.415 127.992 120.416C123.887 119.592 120.793 114.819 120.793 108.869C120.793 102.389 124.482 97.263 129.241 97.263C134.001 97.263 137.69 102.389 137.69 108.869C137.69 109.576 137.63 110.224 137.571 110.872H134.715Z" fill="#DDDDDD"/>
<path d="M121.626 113.936C122.816 117.353 125.136 119.827 128.051 120.416C129.003 119.474 129.003 118.237 128.884 117.706C127.337 117.53 125.91 116.292 124.958 114.525C123.827 114.643 122.637 114.466 121.626 113.936Z" fill="#999999"/>
<path d="M134.673 108.073C134.673 108.073 134.673 108.767 134.673 108.927C134.673 109.78 134.673 110.634 134.673 111.061H137.69C137.759 110.474 137.69 109.46 137.69 108.82C137.69 108.553 137.69 108.287 137.621 108.073C136.725 108.34 135.776 108.18 134.673 108.073Z" fill="#999999"/>
<path d="M123.896 101.44C124.889 99.8311 127.031 97.7225 129.33 97.8335C131.681 97.889 134.137 99.1652 135.965 104.659C134.973 102.384 133.196 97.9999 128.337 98.6103C126.875 98.8323 124.941 100.108 123.896 101.44Z" fill="#ADADAD"/>
<path d="M154.884 118.237C154.884 119.945 153.456 121.359 151.731 121.359C150.006 121.359 148.578 119.945 148.578 118.237C148.578 116.528 150.006 115.114 151.731 115.114C153.456 115.114 154.884 116.528 154.884 118.237Z" fill="#2D292A"/>
<path d="M160.715 110.872C160.834 110.224 160.893 109.576 160.893 108.869C160.893 104.097 158.335 100.032 155.241 100.032C152.148 100.032 149.589 104.097 149.589 108.869C149.589 113.464 151.969 117.353 154.825 117.706C154.944 118.178 154.944 119.415 153.992 120.416C149.887 119.592 146.793 114.819 146.793 108.869C146.793 102.389 150.482 97.263 155.241 97.263C160.001 97.263 163.69 102.389 163.69 108.869C163.69 109.576 163.63 110.224 163.571 110.872H160.715Z" fill="#DDDDDD"/>
<path d="M147.626 113.936C148.816 117.353 151.136 119.827 154.051 120.416C155.003 119.474 155.003 118.237 154.884 117.706C153.337 117.53 151.91 116.292 150.958 114.525C149.827 114.643 148.637 114.466 147.626 113.936Z" fill="#999999"/>
<path d="M160.673 108.073C160.673 108.073 160.673 108.767 160.673 108.927C160.673 109.78 160.673 110.634 160.673 111.061H163.69C163.759 110.474 163.69 109.46 163.69 108.82C163.69 108.553 163.69 108.287 163.621 108.073C162.725 108.34 161.776 108.18 160.673 108.073Z" fill="#999999"/>
<path d="M149.896 101.44C150.889 99.8311 153.031 97.7225 155.33 97.8335C157.681 97.889 160.137 99.1652 161.965 104.659C160.973 102.384 159.196 97.9999 154.337 98.6103C152.875 98.8323 150.941 100.108 149.896 101.44Z" fill="#999999"/>
<defs>
<filter id="filter0_d_77_1908" x="0" y="82" width="210" height="209" filterUnits="userSpaceOnUse" color-interpolation-filters="sRGB">
<feFlood flood-opacity="0" result="BackgroundImageFix"/>
<feColorMatrix in="SourceAlpha" type="matrix" values="0 0 0 0 0 0 0 0 0 0 0 0 0 0 0 0 0 0 127 0" result="hardAlpha"/>
<feOffset dy="4"/>
<feGaussianBlur stdDeviation="2"/>
<feComposite in2="hardAlpha" operator="out"/>
<feColorMatrix type="matrix" values="0 0 0 0 0 0 0 0 0 0 0 0 0 0 0 0 0 0 0.25 0"/>
<feBlend mode="normal" in2="BackgroundImageFix" result="effect1_dropShadow_77_1908"/>
<feBlend mode="normal" in="SourceGraphic" in2="effect1_dropShadow_77_1908" result="shape"/>
</filter>
<filter id="filter1_d_77_1908" x="33" y="67" width="144" height="223" filterUnits="userSpaceOnUse" color-interpolation-filters="sRGB">
<feFlood flood-opacity="0" result="BackgroundImageFix"/>
<feColorMatrix in="SourceAlpha" type="matrix" values="0 0 0 0 0 0 0 0 0 0 0 0 0 0 0 0 0 0 127 0" result="hardAlpha"/>
<feOffset dy="4"/>
<feGaussianBlur stdDeviation="2"/>
<feComposite in2="hardAlpha" operator="out"/>
<feColorMatrix type="matrix" values="0 0 0 0 0 0 0 0 0 0 0 0 0 0 0 0 0 0 0.25 0"/>
<feBlend mode="normal" in2="BackgroundImageFix" result="effect1_dropShadow_77_1908"/>
<feBlend mode="normal" in="SourceGraphic" in2="effect1_dropShadow_77_1908" result="shape"/>
</filter>
<filter id="filter2_i_77_1908" x="33.4194" y="109.795" width="144.419" height="30.1269" filterUnits="userSpaceOnUse" color-interpolation-filters="sRGB">
<feFlood flood-opacity="0" result="BackgroundImageFix"/>
<feBlend mode="normal" in="SourceGraphic" in2="BackgroundImageFix" result="shape"/>
<feColorMatrix in="SourceAlpha" type="matrix" values="0 0 0 0 0 0 0 0 0 0 0 0 0 0 0 0 0 0 127 0" result="hardAlpha"/>
<feOffset/>
<feGaussianBlur stdDeviation="2"/>
<feComposite in2="hardAlpha" operator="arithmetic" k2="-1" k3="1"/>
<feColorMatrix type="matrix" values="0 0 0 0 0 0 0 0 0 0 0 0 0 0 0 0 0 0 0.25 0"/>
<feBlend mode="normal" in2="shape" result="effect1_innerShadow_77_1908"/>
</filter>
<filter id="filter3_i_77_1908" x="112" y="149" width="23.8711" height="25.0645" filterUnits="userSpaceOnUse" color-interpolation-filters="sRGB">
<feFlood flood-opacity="0" result="BackgroundImageFix"/>
<feBlend mode="normal" in="SourceGraphic" in2="BackgroundImageFix" result="shape"/>
<feColorMatrix in="SourceAlpha" type="matrix" values="0 0 0 0 0 0 0 0 0 0 0 0 0 0 0 0 0 0 127 0" result="hardAlpha"/>
<feOffset/>
<feGaussianBlur stdDeviation="2"/>
<feComposite in2="hardAlpha" operator="arithmetic" k2="-1" k3="1"/>
<feColorMatrix type="matrix" values="0 0 0 0 0 0 0 0 0 0 0 0 0 0 0 0 0 0 0.25 0"/>
<feBlend mode="normal" in2="shape" result="effect1_innerShadow_77_1908"/>
</filter>
<filter id="filter4_i_77_1908" x="142.032" y="149.419" width="23.8711" height="25.0645" filterUnits="userSpaceOnUse" color-interpolation-filters="sRGB">
<feFlood flood-opacity="0" result="BackgroundImageFix"/>
<feBlend mode="normal" in="SourceGraphic" in2="BackgroundImageFix" result="shape"/>
<feColorMatrix in="SourceAlpha" type="matrix" values="0 0 0 0 0 0 0 0 0 0 0 0 0 0 0 0 0 0 127 0" result="hardAlpha"/>
<feOffset/>
<feGaussianBlur stdDeviation="2"/>
<feComposite in2="hardAlpha" operator="arithmetic" k2="-1" k3="1"/>
<feColorMatrix type="matrix" values="0 0 0 0 0 0 0 0 0 0 0 0 0 0 0 0 0 0 0.25 0"/>
<feBlend mode="normal" in2="shape" result="effect1_innerShadow_77_1908"/>
</filter>
<filter id="filter5_i_77_1908" x="112.193" y="180.452" width="23.8711" height="25.0645" filterUnits="userSpaceOnUse" color-interpolation-filters="sRGB">
<feFlood flood-opacity="0" result="BackgroundImageFix"/>
<feBlend mode="normal" in="SourceGraphic" in2="BackgroundImageFix" result="shape"/>
<feColorMatrix in="SourceAlpha" type="matrix" values="0 0 0 0 0 0 0 0 0 0 0 0 0 0 0 0 0 0 127 0" result="hardAlpha"/>
<feOffset/>
<feGaussianBlur stdDeviation="2"/>
<feComposite in2="hardAlpha" operator="arithmetic" k2="-1" k3="1"/>
<feColorMatrix type="matrix" values="0 0 0 0 0 0 0 0 0 0 0 0 0 0 0 0 0 0 0.25 0"/>
<feBlend mode="normal" in2="shape" result="effect1_innerShadow_77_1908"/>
</filter>
<filter id="filter6_i_77_1908" x="142" y="181" width="23.8711" height="25.0645" filterUnits="userSpaceOnUse" color-interpolation-filters="sRGB">
<feFlood flood-opacity="0" result="BackgroundImageFix"/>
<feBlend mode="normal" in="SourceGraphic" in2="BackgroundImageFix" result="shape"/>
<feColorMatrix in="SourceAlpha" type="matrix" values="0 0 0 0 0 0 0 0 0 0 0 0 0 0 0 0 0 0 127 0" result="hardAlpha"/>
<feOffset/>
<feGaussianBlur stdDeviation="2"/>
<feComposite in2="hardAlpha" operator="arithmetic" k2="-1" k3="1"/>
<feColorMatrix type="matrix" values="0 0 0 0 0 0 0 0 0 0 0 0 0 0 0 0 0 0 0.25 0"/>
<feBlend mode="normal" in2="shape" result="effect1_innerShadow_77_1908"/>
</filter>
<filter id="filter7_i_77_1908" x="112.193" y="211.484" width="23.8711" height="25.0645" filterUnits="userSpaceOnUse" color-interpolation-filters="sRGB">
<feFlood flood-opacity="0" result="BackgroundImageFix"/>
<feBlend mode="normal" in="SourceGraphic" in2="BackgroundImageFix" result="shape"/>
<feColorMatrix in="SourceAlpha" type="matrix" values="0 0 0 0 0 0 0 0 0 0 0 0 0 0 0 0 0 0 127 0" result="hardAlpha"/>
<feOffset/>
<feGaussianBlur stdDeviation="2"/>
<feComposite in2="hardAlpha" operator="arithmetic" k2="-1" k3="1"/>
<feColorMatrix type="matrix" values="0 0 0 0 0 0 0 0 0 0 0 0 0 0 0 0 0 0 0.25 0"/>
<feBlend mode="normal" in2="shape" result="effect1_innerShadow_77_1908"/>
</filter>
<filter id="filter8_i_77_1908" x="142.032" y="211.484" width="23.8711" height="14.3226" filterUnits="userSpaceOnUse" color-interpolation-filters="sRGB">
<feFlood flood-opacity="0" result="BackgroundImageFix"/>
<feBlend mode="normal" in="SourceGraphic" in2="BackgroundImageFix" result="shape"/>
<feColorMatrix in="SourceAlpha" type="matrix" values="0 0 0 0 0 0 0 0 0 0 0 0 0 0 0 0 0 0 127 0" result="hardAlpha"/>
<feOffset/>
<feGaussianBlur stdDeviation="2"/>
<feComposite in2="hardAlpha" operator="arithmetic" k2="-1" k3="1"/>
<feColorMatrix type="matrix" values="0 0 0 0 0 0 0 0 0 0 0 0 0 0 0 0 0 0 0.25 0"/>
<feBlend mode="normal" in2="shape" result="effect1_innerShadow_77_1908"/>
</filter>
<filter id="filter9_d_77_1908" x="74.0884" y="216" width="101.912" height="39.8709" filterUnits="userSpaceOnUse" color-interpolation-filters="sRGB">
<feFlood flood-opacity="0" result="BackgroundImageFix"/>
<feColorMatrix in="SourceAlpha" type="matrix" values="0 0 0 0 0 0 0 0 0 0 0 0 0 0 0 0 0 0 127 0" result="hardAlpha"/>
<feOffset dy="1"/>
<feGaussianBlur stdDeviation="2"/>
<feComposite in2="hardAlpha" operator="out"/>
<feColorMatrix type="matrix" values="0 0 0 0 0 0 0 0 0 0 0 0 0 0 0 0 0 0 0.25 0"/>
<feBlend mode="normal" in2="BackgroundImageFix" result="effect1_dropShadow_77_1908"/>
<feBlend mode="normal" in="SourceGraphic" in2="effect1_dropShadow_77_1908" result="shape"/>
</filter>
<filter id="filter10_d_77_1908" x="75.0884" y="218.724" width="97.9111" height="35.1466" filterUnits="userSpaceOnUse" color-interpolation-filters="sRGB">
<feFlood flood-opacity="0" result="BackgroundImageFix"/>
<feColorMatrix in="SourceAlpha" type="matrix" values="0 0 0 0 0 0 0 0 0 0 0 0 0 0 0 0 0 0 127 0" result="hardAlpha"/>
<feOffset dx="-1" dy="1"/>
<feGaussianBlur stdDeviation="1"/>
<feComposite in2="hardAlpha" operator="out"/>
<feColorMatrix type="matrix" values="0 0 0 0 0 0 0 0 0 0 0 0 0 0 0 0 0 0 0.1 0"/>
<feBlend mode="normal" in2="BackgroundImageFix" result="effect1_dropShadow_77_1908"/>
<feBlend mode="normal" in="SourceGraphic" in2="effect1_dropShadow_77_1908" result="shape"/>
</filter>
<linearGradient id="paint0_linear_77_1908" x1="135.207" y1="86.7067" x2="81.7771" y2="257.815" gradientUnits="userSpaceOnUse">
<stop stop-color="#686566"/>
<stop offset="0.32" stop-color="#231F20"/>
<stop offset="0.68" stop-color="#686566"/>
<stop offset="1" stop-color="#231F20"/>
</linearGradient>
<linearGradient id="paint1_linear_77_1908" x1="24.0273" y1="99.3962" x2="183.971" y2="265.196" gradientUnits="userSpaceOnUse">
<stop stop-color="#444242"/>
<stop offset="1" stop-color="#231F20"/>
</linearGradient>
<linearGradient id="paint2_linear_77_1908" x1="155.772" y1="231.595" x2="148.471" y2="214.295" gradientUnits="userSpaceOnUse">
<stop offset="0.1061" stop-color="#828282"/>
<stop offset="0.4697" stop-color="#CBCBCB"/>
<stop offset="1" stop-color="#858585"/>
</linearGradient>
<linearGradient id="paint3_linear_77_1908" x1="127.486" y1="241.187" x2="122.069" y2="224.598" gradientUnits="userSpaceOnUse">
<stop stop-color="#F7F7F7"/>
<stop offset="0.244792" stop-color="#F7F7F7"/>
<stop offset="1" stop-color="#F7F7F7"/>
</linearGradient>
<clipPath id="clip0_77_1908">
<rect width="210" height="209" fill="white" transform="translate(0 82)"/>
</clipPath>
<clipPath id="clip1_77_1908">
<rect width="136" height="215" fill="white" transform="translate(37 67)"/>
</clipPath>
</defs>
</svg>
