<svg width="18" height="19" viewBox="0 0 18 19" fill="none" xmlns="http://www.w3.org/2000/svg">
<path d="M16.5 9.5H12L10.5 11.75H7.5L6 9.5H1.5" stroke="#595F69" stroke-width="1.2" stroke-linecap="round" stroke-linejoin="round"/>
<path d="M4.0875 4.3325L1.5 9.5V14C1.5 14.3978 1.65804 14.7794 1.93934 15.0607C2.22064 15.342 2.60218 15.5 3 15.5H15C15.3978 15.5 15.7794 15.342 16.0607 15.0607C16.342 14.7794 16.5 14.3978 16.5 14V9.5L13.9125 4.3325C13.7883 4.08259 13.5969 3.87228 13.3597 3.72521C13.1226 3.57814 12.8491 3.50015 12.57 3.5H5.43C5.15094 3.50015 4.87745 3.57814 4.64028 3.72521C4.40312 3.87228 4.21168 4.08259 4.0875 4.3325V4.3325Z" stroke="#595F69" stroke-width="1.2" stroke-linecap="round" stroke-linejoin="round"/>
</svg>
