<?xml version="1.0" encoding="utf-8"?>
<!-- Generator: Adobe Illustrator 26.4.1, SVG Export Plug-In . SVG Version: 6.00 Build 0)  -->
<svg version="1.1" id="Layer_1" xmlns="http://www.w3.org/2000/svg" xmlns:xlink="http://www.w3.org/1999/xlink" x="0px" y="0px"
	 viewBox="0 0 442 390" style="enable-background:new 0 0 442 390;" xml:space="preserve">
<style type="text/css">
	.st0{fill:#F5F5F5;}
	.st1{clip-path:url(#SVGID_00000163763958785487205700000014111714425340578232_);}
	.st2{fill:#2D292A;}
	.st3{opacity:0.2;enable-background:new    ;}
	.st4{opacity:0.3;fill:#FFFFFF;enable-background:new    ;}
	.st5{opacity:0.8;fill:#2D292A;enable-background:new    ;}
	.st6{opacity:0.4;enable-background:new    ;}
	.st7{fill-rule:evenodd;clip-rule:evenodd;fill:#2D292A;}
	.st8{opacity:0.7;}
	.st9{fill-rule:evenodd;clip-rule:evenodd;fill:#FFFFFF;}
	.st10{fill:none;stroke:#2D292A;stroke-miterlimit:10;}
	.st11{opacity:0.4;fill:#FFFFFF;enable-background:new    ;}
	.st12{opacity:0.1;enable-background:new    ;}
	.st13{opacity:0.5;enable-background:new    ;}
	.st14{fill:#FFB273;}
	.st15{fill:#263238;}
	.st16{fill:#630F0F;}
	.st17{opacity:0.1;fill:#FFFFFF;enable-background:new    ;}
	.st18{opacity:0.7;fill:#FFFFFF;enable-background:new    ;}
	.st19{opacity:0.8;fill:#FFFFFF;enable-background:new    ;}
	.st20{fill:#FF8B7B;}
	.st21{opacity:0.8;}
	.st22{fill:#FFFFFF;}
	.st23{opacity:0.5;fill:#FFFFFF;enable-background:new    ;}
	.st24{fill:#7F3E3B;}
	.st25{opacity:0.5;}
	.st26{opacity:0.9;enable-background:new    ;}
	.st27{opacity:0.9;fill:#FFFFFF;enable-background:new    ;}
	.st28{opacity:0.2;fill:#FFFFFF;enable-background:new    ;}
	.st29{opacity:0.3;}
	.st30{opacity:0.3;enable-background:new    ;}
	.st31{fill:#FF5652;}
	.st32{fill:#F0F0F0;}
</style>
<g id="freepik--Shadow--inject-6">
	<ellipse id="freepik--path--inject-6" class="st0" cx="225" cy="371.7" rx="193.9" ry="11.3"/>
</g>
<g id="freepik--device-1--inject-6">
	<g>
		<defs>
			<path id="SVGID_1_" d="M22.1,169.5h65.3c4.9,0,8.9,4,8.9,8.9v65.3c0,4.9-4,8.9-8.9,8.9H22.1c-4.9,0-8.9-4-8.9-8.9v-65.3
				C13.2,173.5,17.2,169.5,22.1,169.5z"/>
		</defs>
		<clipPath id="SVGID_00000000924978708835697770000013102723042557561997_">
			<use xlink:href="#SVGID_1_"  style="overflow:visible;"/>
		</clipPath>
		<g style="clip-path:url(#SVGID_00000000924978708835697770000013102723042557561997_);">
			<rect x="49.4" y="218.2" class="st2" width="9.7" height="19.7"/>
			<rect x="49.4" y="218.2" class="st2" width="9.7" height="19.7"/>
			<polygon class="st2" points="63.5,238.3 45.1,238.3 49.6,234.3 59.1,234.3 			"/>
			<polygon class="st2" points="63.5,238.3 45.1,238.3 49.6,234.3 59.1,234.3 			"/>
			<rect x="49.4" y="225.8" class="st3" width="9.8" height="4"/>
			<path class="st2" d="M21.5,184.7h66.1c0.7,0,1.2,0.6,1.2,1.2v40.5c0,0.7-0.6,1.2-1.2,1.2H21.5c-0.7,0-1.2-0.6-1.2-1.2v-40.5
				C20.3,185.3,20.8,184.7,21.5,184.7z"/>
			<path class="st4" d="M21.5,184.7h66.1c0.7,0,1.2,0.6,1.2,1.2v40.5c0,0.7-0.6,1.2-1.2,1.2H21.5c-0.7,0-1.2-0.6-1.2-1.2v-40.5
				C20.3,185.3,20.8,184.7,21.5,184.7z"/>
			<path class="st5" d="M24.6,187.4h59.9c1,0,1.8,0.8,1.8,1.8v33.9c0,1-0.8,1.8-1.8,1.8H24.6c-1,0-1.8-0.8-1.8-1.8v-33.9
				C22.8,188.2,23.6,187.4,24.6,187.4z"/>
			<path class="st6" d="M24.6,187.4h59.9c1,0,1.8,0.8,1.8,1.8v33.9c0,1-0.8,1.8-1.8,1.8H24.6c-1,0-1.8-0.8-1.8-1.8v-33.9
				C22.8,188.2,23.6,187.4,24.6,187.4z"/>
			<polygon class="st7" points="62.8,200.2 54.2,205.4 45.7,200.4 45.7,200.2 54.2,195.2 62.8,200.2 			"/>
			<polygon class="st7" points="63.7,201.8 63.7,211.8 55.2,216.7 55.2,206.8 			"/>
			<polygon class="st7" points="53.4,206.8 53.4,216.7 44.8,211.8 44.8,201.8 53.4,206.8 			"/>
			<g class="st8">
				<polygon class="st9" points="62.8,200.2 54.2,205.4 45.7,200.4 45.7,200.2 54.2,195.2 62.8,200.2 				"/>
				<polygon class="st9" points="63.7,201.8 63.7,211.8 55.2,216.7 55.2,206.8 				"/>
				<polygon class="st9" points="53.4,206.8 53.4,216.7 44.8,211.8 44.8,201.8 53.4,206.8 				"/>
			</g>
		</g>
	</g>
	<path class="st10" d="M22.1,169.5h65.3c4.9,0,8.9,4,8.9,8.9v65.3c0,4.9-4,8.9-8.9,8.9H22.1c-4.9,0-8.9-4-8.9-8.9v-65.3
		C13.2,173.5,17.2,169.5,22.1,169.5z"/>
	<path class="st10" d="M22.1,169.5h65.3c4.9,0,8.9,4,8.9,8.9v65.3c0,4.9-4,8.9-8.9,8.9H22.1c-4.9,0-8.9-4-8.9-8.9v-65.3
		C13.2,173.5,17.2,169.5,22.1,169.5z"/>
	<path class="st2" d="M138.6,234.1c-0.1,0.3-0.3,0.6-0.5,0.9l25.8,12.8l0.4-0.9L138.6,234.1z"/>
	<path class="st2" d="M103.4,216.6l-6.6-3.3l-0.4,0.9l6.7,3.3C103.1,217.2,103.2,216.9,103.4,216.6z"/>
	<path class="st2" d="M124.6,227.1l-17.2-8.5c-0.1,0.3-0.2,0.6-0.4,0.9l17.6,8.7C124.5,227.9,124.5,227.5,124.6,227.1z"/>
	<path class="st2" d="M128.6,229.1c-0.2,0.3-0.5,0.5-0.8,0.7l6.5,3.2c0-0.3,0.1-0.7,0.3-1L128.6,229.1z"/>
</g>
<g id="freepik--device-2--inject-6">
	<path class="st2" d="M51.3,151.8h112.5c0.7-1.3,1-2.7,1-4.1H50.3C50.3,149.2,50.7,150.6,51.3,151.8z"/>
	<path class="st2" d="M56.6,156.2h102c2.3-0.7,4.2-2.3,5.3-4.4H51.3C52.4,153.9,54.3,155.5,56.6,156.2z"/>
	<path class="st2" d="M130.9,134.3H57.2c-2,0-3.7-1.6-3.8-3.7L51,84.4c-0.1-1.9,1.3-3.5,3.2-3.7c0.1,0,0.2,0,0.3,0h73.7
		c2,0,3.7,1.6,3.9,3.7l2.4,46.2c0.1,1.9-1.3,3.5-3.2,3.7C131.1,134.3,131,134.3,130.9,134.3z"/>
	<path class="st11" d="M130.9,134.3H57.2c-2,0-3.7-1.6-3.8-3.7L51,84.4c-0.1-1.9,1.3-3.5,3.2-3.7c0.1,0,0.2,0,0.3,0h73.7
		c2,0,3.7,1.6,3.9,3.7l2.4,46.2c0.1,1.9-1.3,3.5-3.2,3.7C131.1,134.3,131,134.3,130.9,134.3z"/>
	<polygon class="st2" points="100,147.8 89.5,147.8 91.6,130.3 100,130.3 	"/>
	<polygon class="st11" points="100,147.8 89.5,147.8 91.6,130.3 100,130.3 	"/>
	<path class="st2" d="M109.1,146.4H89.6l-0.2,1.5h19.6c0.4,0,0.7-0.3,0.7-0.7C109.8,146.7,109.5,146.4,109.1,146.4z"/>
	<path class="st4" d="M109.1,146.4H89.6l-0.2,1.5h19.6c0.4,0,0.7-0.3,0.7-0.7C109.8,146.7,109.5,146.4,109.1,146.4z"/>
	<polygon class="st12" points="90.6,138.6 100,138.6 100,133.6 91.2,133.6 	"/>
	<path class="st2" d="M131.6,134.3H57.9c-2,0-3.7-1.6-3.9-3.7l-2.4-46.2c-0.1-1.9,1.3-3.5,3.2-3.7c0.1,0,0.2,0,0.3,0h73.7
		c2,0,3.7,1.6,3.9,3.7l2.4,46.2c0.1,1.9-1.3,3.5-3.2,3.7C131.7,134.3,131.6,134.3,131.6,134.3z"/>
	<path class="st2" d="M57.8,132.4h73.7c0.9,0,1.7-0.7,1.7-1.7c0,0,0-0.1,0-0.1l-2.4-46.2c-0.1-1-0.9-1.8-1.9-1.8H55.2
		c-0.9,0-1.7,0.7-1.7,1.7c0,0,0,0.1,0,0.1l2.4,46.2C55.9,131.6,56.8,132.4,57.8,132.4z"/>
	<path class="st6" d="M57.8,132.4h73.7c0.9,0,1.7-0.7,1.7-1.7c0,0,0-0.1,0-0.1l-2.4-46.2c-0.1-1-0.9-1.8-1.9-1.8H55.2
		c-0.9,0-1.7,0.7-1.7,1.7c0,0,0,0.1,0,0.1l2.4,46.2C55.9,131.6,56.8,132.4,57.8,132.4z"/>
	<polygon class="st2" points="127.1,141.6 82.8,141.6 90.8,147.8 135.1,147.8 	"/>
	<polygon class="st11" points="127.1,141.6 82.8,141.6 90.8,147.8 135.1,147.8 	"/>
	<polygon class="st2" points="83.8,147.8 82.8,141.6 90.8,147.8 	"/>
	<polygon class="st13" points="83.8,147.8 82.8,141.6 90.8,147.8 	"/>
	<path class="st14" d="M155.8,107.9c1.2,2.5,2.1,4.9,3.1,7.4s1.8,5,2.6,7.6s1.5,5.2,2,7.9c0.6,2.8,0.9,5.7,0.9,8.6
		c0,1.7-0.3,3.4-0.8,5c-0.3,1-0.8,2-1.3,2.8c-0.3,0.5-0.7,1-1.1,1.4l-0.3,0.3c-0.2,0.2-0.4,0.3-0.6,0.5c-0.3,0.2-0.7,0.4-1.1,0.6
		c-0.5,0.2-1.1,0.4-1.7,0.5c-0.5,0.1-0.9,0.2-1.4,0.2c-0.8,0.1-1.6,0.1-2.4,0c-1.4-0.1-2.9-0.2-4.3-0.5c-5.3-0.9-10.4-2.4-15.4-4.4
		l1.1-4.4c5,0.6,10.2,1.2,15,1.5c1.2,0,2.4,0.1,3.5,0c0.5,0,1-0.1,1.4-0.2c0.4-0.1,0.7-0.2,0.6-0.2l-0.2,0.1c-0.1,0-0.2,0.1-0.2,0.2
		l0,0c0,0,0.1-0.1,0.1-0.1c0.1-0.2,0.2-0.5,0.2-0.7c0.2-0.9,0.2-1.8,0.2-2.6c-0.1-2.3-0.4-4.5-1-6.7c-0.5-2.4-1.2-4.7-2-7.1
		s-1.6-4.7-2.5-7.1s-1.9-4.7-2.8-6.9L155.8,107.9z"/>
	<path class="st14" d="M137.3,142.8l-5.3-3l-2.6,5.7c0,0,6.1,2.6,7.4,1L137.3,142.8z"/>
	<polygon class="st14" points="127.8,140.9 125.4,144.7 129.4,145.5 132.1,139.8 	"/>
	<path class="st14" d="M143.6,112.5c-1,2.5-2.1,4.9-3.2,7.4s-2.2,4.9-3.4,7.3c-2.4,4.9-5,9.7-7.9,14.3c-0.8,1.2-1.6,2.3-2.5,3.5
		c-0.4,0.6-0.9,1.2-1.5,1.8c-0.3,0.3-0.5,0.6-0.9,0.9l-0.5,0.5l-0.3,0.3c-0.8,0.6-1.6,1.1-2.6,1.4c-0.5,0.1-1,0.2-1.5,0.3
		c-0.8,0.1-1.7,0.1-2.6,0.1c-1.5,0-2.9-0.2-4.4-0.4c-5.4-0.9-10.6-2.4-15.7-4.5l1.2-4.4c5.1,0.6,10.4,1.3,15.3,1.5
		c1.2,0,2.3,0,3.5-0.1c0.5,0,0.9-0.1,1.4-0.2c0.1,0,0.3-0.1,0.4-0.2c0,0,0-0.1-0.2,0.1c-0.1,0-0.2,0.1-0.2,0.2c0,0,0-0.1,0.1-0.1
		l0.2-0.2c0.1-0.1,0.3-0.4,0.5-0.6c0.3-0.4,0.7-0.9,1-1.3c0.7-0.9,1.3-2,1.9-3c1.3-2.1,2.4-4.4,3.6-6.7s2.3-4.6,3.4-7
		c2.2-4.7,4.3-9.5,6.4-14.2L143.6,112.5z"/>
	<path class="st14" d="M100.1,142l-5.3-3l-2.6,5.7c0,0,6.1,2.6,7.4,1L100.1,142z"/>
	<polygon class="st14" points="90.6,140.1 88.2,143.9 92.2,144.6 94.9,139 	"/>
	<path class="st14" d="M157.2,84.3l-3.4,3.9l-5.1,5.3l0.4,1c0.4,1,0.6,2,0.7,3.1c0.1,2.1-0.1,3.9-3.4,5.4c0,0-3.5,4.6,4.9,3.3
		s9.6-5.6,9.6-5.6C157.1,98,156.9,89.2,157.2,84.3z"/>
	<path class="st15" d="M140.1,79.9c0,0.5-0.3,1-0.6,1s-0.6-0.4-0.6-0.9s0.3-1,0.6-1S140.1,79.4,140.1,79.9z"/>
	<path class="st15" d="M141.8,78c-0.1,0-0.2-0.1-0.2-0.1c-0.4-0.7-1.1-1.1-1.9-1.2c-0.2,0-0.3-0.2-0.3-0.3c0-0.2,0.1-0.3,0.3-0.3
		c0,0,0,0,0,0l0,0c1,0.1,1.9,0.6,2.4,1.5c0.1,0.1,0,0.3-0.1,0.4C142,78,141.9,78,141.8,78z"/>
	<path class="st16" d="M139.9,80.2c-0.4,1.4-1,2.8-1.8,4.1c0.7,0.4,1.4,0.4,2.1,0.1L139.9,80.2z"/>
	<path class="st14" d="M157.6,77.3c-0.3,6.5-0.2,10.3-3.4,13.7c-3.1,3.4-8.5,3.7-11.9,0.6c-1.3-1.1-2.1-2.6-2.5-4.3
		c-1.5-5.7-0.7-15.3,5.6-18.2c4.2-2.1,9.3-0.4,11.4,3.8C157.5,74.2,157.8,75.8,157.6,77.3z"/>
	<path class="st15" d="M160.6,79.4c-0.9,2.7-2.4,5.3-4.2,7.5l-8.4,1.6c0,0-6.6-2.8-4.9-7.4c-1.1-1-0.7-3.9,0.1-5.5
		c1.3,1.1,3.2,1,4.5-0.1c0.9,1.4,2.8,1.8,4.3,0.9c0.2-0.1,0.4-0.3,0.6-0.5c1.3,1.2,3.3,1.2,4.6-0.1c0.2-0.2,0.4-0.5,0.5-0.7
		c1.1,0.7,2.4,0.6,3.4-0.2l0.1-0.1C161.3,76.4,161.1,78,160.6,79.4z"/>
	<path class="st17" d="M160.6,79.4c-0.9,2.7-2.4,5.3-4.2,7.5l-8.4,1.6c0,0-6.6-2.8-4.9-7.4c-1.1-1-0.7-3.9,0.1-5.5
		c1.3,1.1,3.2,1,4.5-0.1c0.9,1.4,2.8,1.8,4.3,0.9c0.2-0.1,0.4-0.3,0.6-0.5c1.3,1.2,3.3,1.2,4.6-0.1c0.2-0.2,0.4-0.5,0.5-0.7
		c1.1,0.7,2.4,0.6,3.4-0.2l0.1-0.1C161.3,76.4,161.1,78,160.6,79.4z"/>
	<path class="st15" d="M161.8,71.6c0.5,1.1,0.2,2.4-0.6,3.2l-0.1,0.1c-1,0.8-2.3,0.9-3.4,0.2c-0.8,1.6-2.8,2.2-4.4,1.4
		c-0.3-0.1-0.5-0.3-0.7-0.5c-1.1,1.3-3.1,1.4-4.3,0.2c-0.2-0.2-0.4-0.4-0.5-0.6c-1.3,1.2-3.2,1.2-4.5,0.1c-0.3-0.3-0.6-0.6-0.8-1
		c0-0.1-0.1-0.2-0.1-0.3c-0.1,0.1-0.1,0.2-0.2,0.2c-0.8,0.6-1.9,0.7-2.8,0.2c-0.7-0.5-1.1-1.3-1-2.1c0-0.2,0-0.3,0.1-0.5
		c-0.5,0.9-1.7,1.2-2.6,0.7c-0.2-0.1-0.4-0.3-0.5-0.4c-0.7-1.1-0.4-2.7,0.7-3.4c0,0,0,0,0,0c0.5-0.3,1-0.4,1.5-0.4
		c0.8,0,1.6,0.3,2.3,0.8c-0.8-1-0.6-2.5,0.5-3.3s2.5-0.6,3.3,0.5c-0.2-0.8,0.2-1.7,0.9-2.2c1.3-0.5,2.9-0.1,3.8,1
		c0,0,1.2-2.9,3.3-2.6c0.5,0.1,2.6,1,2.6,1.8c0,0,0,0.1,0,0.2l0.1-0.2c0.5-0.6,1.2-1,2-1c0.8,0.1,1.7,0.3,2.4,0.7
		c1.6,0.7,3.4,1.4,4.3,2.9S163.5,71.1,161.8,71.6z"/>
	<path class="st14" d="M146.8,81.8c-0.2,1.6-1,3.1-2.1,4.2c-1.4,1.4-2.7,0-2.7-2.1c0-1.9,0.7-4.9,2.4-5.4S147.1,79.7,146.8,81.8z"/>
	<path class="st2" d="M164.9,147.6V99.7c-1.8,0.1-3.8,0.2-5.7,0.4c-4.5,0.5-9,1.3-13.5,2.3c-2.1,0.5-4,1.2-5.6,1.8
		c-2,0.8-3.2,1.3-3.2,1.3s2.2,14.6,3.3,29.1c0.6,8.1,0.4,16.1,0.6,21.6h17.8C162.3,155,164.9,151.6,164.9,147.6z"/>
	<path class="st3" d="M139.5,126.5c0.3,3,0.5,6.2,0.8,9.4c4-5.8,6.2-21.6,6.2-21.6L139.5,126.5z"/>
	<path class="st2" d="M135,106.6c-4.9,2.7-9.6,16.7-9.6,16.7l11.1,8.4c4.2-4,10.4-13.9,11.1-17.9C148.7,107.6,142.8,102.3,135,106.6
		z"/>
	<path class="st2" d="M144.2,156.6v-46.9c0-3.1,1.3-6.1,3.7-8.1l5.9-5.1c2-1.7,4.5-2.7,7.1-2.7l0,0c-2.6,0-5.1,1-7.1,2.7l-5.9,5.1
		c-2.3,2.1-3.7,5-3.7,8.1L144.2,156.6L144.2,156.6z"/>
	<path class="st2" d="M153.8,96.5l-5.9,5.1c-2.3,2-3.7,5-3.7,8.1v46.9h7.1v-46.9c0-3.1,1.3-6.1,3.7-8.1l5.9-5.1
		c1.2-1,2.6-1.8,4.1-2.2v-0.4h-4C158.3,93.8,155.7,94.7,153.8,96.5z"/>
	<path class="st4" d="M153.8,96.5l-5.9,5.1c-2.3,2-3.7,5-3.7,8.1v46.9h7.1v-46.9c0-3.1,1.3-6.1,3.7-8.1l5.9-5.1
		c1.2-1,2.6-1.8,4.1-2.2v-0.4h-4C158.3,93.8,155.7,94.7,153.8,96.5z"/>
	<path class="st2" d="M154.9,101.6c-2.3,2-3.7,5-3.7,8.1v46.9h4.8c4.9,0,8.9-4,8.9-8.9c0,0,0,0,0,0V94.2c-1.5,0.4-2.9,1.2-4.1,2.2
		L154.9,101.6z"/>
	<path class="st18" d="M154.9,101.6c-2.3,2-3.7,5-3.7,8.1v46.9h4.8c4.9,0,8.9-4,8.9-8.9c0,0,0,0,0,0V94.2c-1.5,0.4-2.9,1.2-4.1,2.2
		L154.9,101.6z"/>
	<polygon class="st2" points="111.1,128.2 69.7,128.2 67.9,102.3 109.2,102.3 	"/>
	<polygon class="st13" points="111.1,128.2 69.7,128.2 67.9,102.3 109.2,102.3 	"/>
	<polygon class="st2" points="109.4,104 68,104 67.9,102.3 109.2,102.3 	"/>
	<polygon class="st2" points="126.9,114.1 85.5,114.1 83.7,88.1 125,88.1 	"/>
	<polygon class="st19" points="126.9,114.1 85.5,114.1 83.7,88.1 125,88.1 	"/>
	<polygon class="st2" points="125.2,89.8 83.8,89.8 83.7,88.1 125,88.1 	"/>
	<path class="st2" d="M113.6,162.7l-5.6-6.2l-0.7,0.7l6,6.6C113.3,163.3,113.4,163,113.6,162.7z"/>
	<path class="st2" d="M122.9,172.8c-0.1,0.3-0.3,0.6-0.6,0.9l12.2,13.4c0.2-0.3,0.5-0.4,0.9-0.5L122.9,172.8z"/>
	<path class="st2" d="M120.1,169.8l-3.4-3.7c-0.3,0.2-0.6,0.3-1,0.4l3.5,3.8C119.4,170,119.7,169.9,120.1,169.8z"/>
	<path class="st2" d="M155.4,208.6l-17.2-18.9c-0.1,0.3-0.3,0.6-0.6,0.9l17.3,19C155,209.2,155.2,208.8,155.4,208.6z"/>
	<path class="st2" d="M158.5,212c-0.3,0.2-0.6,0.4-1,0.4l16.6,18.3l0.8-0.7L158.5,212z"/>
	<path class="st10" d="M59.2,42H156c4.9,0,8.9,4,8.9,8.9v96.7c0,4.9-4,8.9-8.9,8.9H59.2c-4.9,0-8.9-4-8.9-8.9V50.9
		C50.3,46,54.3,42,59.2,42z"/>
</g>
<g id="freepik--device-3--inject-6">
	<path class="st20" d="M186.4,94.1c1.4,0.8,3,1.3,4.6,1.3h15.8l1.7-5.7L193,80.8L186.4,94.1z"/>
	<path class="st20" d="M212,47.3l-6.1,3.2c0,0-0.6,23,0,26.2c0.4,1.9,1.8,3.5,3.6,4.2l6.2-4.8L212,47.3z"/>
	<path class="st20" d="M205.9,50.5c-5.4,9.6-9.7,19.8-12.9,30.4c-3.1,10.2,15.1,10.9,18.4,7.3c0.8-0.9,7-10.2,7-10.2L205.9,50.5z"/>
	<g id="freepik--group--inject-6">
		<path class="st2" d="M231.4,81.2h-20.8c-1.8,0-3.2-1.4-3.3-3.2c0-0.1,0-0.3,0-0.4l3.9-45.1c0.2-2,1.9-3.5,3.9-3.5H236
			c1.8,0,3.2,1.4,3.3,3.2c0,0.1,0,0.3,0,0.4l-4,45.1C235.1,79.7,233.4,81.2,231.4,81.2z"/>
		<path class="st12" d="M231.4,81.2h-20.8c-1.8,0-3.2-1.4-3.3-3.2c0-0.1,0-0.3,0-0.4l3.9-45.1c0.2-2,1.9-3.5,3.9-3.5H236
			c1.8,0,3.2,1.4,3.3,3.2c0,0.1,0,0.3,0,0.4l-4,45.1C235.1,79.7,233.4,81.2,231.4,81.2z"/>
		<g class="st21">
			<path class="st22" d="M221.1,79.7c-0.5,0-0.9-0.2-1.2-0.5c-0.3-0.3-0.5-0.8-0.4-1.3c0.1-1,1-1.8,2-1.8c0.5,0,0.9,0.2,1.2,0.5
				c0.3,0.3,0.5,0.8,0.4,1.3l0,0C223,78.9,222.2,79.7,221.1,79.7z M221.4,76.3c-0.9,0-1.6,0.7-1.7,1.6c0,0.4,0.1,0.8,0.4,1.1
				c0.3,0.3,0.7,0.5,1.1,0.4c0.9,0,1.6-0.7,1.7-1.6l0,0c0-0.4-0.1-0.8-0.4-1.1C222.2,76.5,221.9,76.3,221.4,76.3z"/>
		</g>
		<g class="st21">
			<path class="st22" d="M228.7,33.1h-6.7c-0.2,0-0.4-0.1-0.5-0.2c-0.1-0.1-0.2-0.3-0.2-0.5v-0.2c0-0.4,0.4-0.7,0.8-0.7h6.7
				c0.2,0,0.4,0.1,0.5,0.2c0.1,0.1,0.2,0.3,0.2,0.5v0.2C229.4,32.8,229.1,33.1,228.7,33.1z M222.1,31.7c-0.3,0-0.5,0.2-0.6,0.5v0.2
				c0,0.1,0,0.3,0.1,0.4c0.1,0.1,0.2,0.1,0.3,0.1h6.7c0.3,0,0.5-0.2,0.6-0.5v-0.2c0-0.1,0-0.3-0.1-0.3c-0.1-0.1-0.2-0.2-0.3-0.2
				L222.1,31.7z"/>
		</g>
		<polygon class="st17" points="227.3,29.1 215.8,81.2 222.7,81.2 234.2,29.1 		"/>
		<polygon class="st17" points="221.9,29.1 210.3,81.2 213.9,81.2 225.3,29.1 		"/>
		<polygon class="st2" points="233.6,73.9 209.7,73.9 213.1,35.4 237,35.4 		"/>
		<polygon class="st18" points="233.6,73.9 209.7,73.9 213.1,35.4 237,35.4 		"/>
	</g>
	<path class="st2" d="M233.7,49.7c0,0.1,0,0.1,0,0.2c-0.1,0.4-0.3,0.7-0.6,1c-0.3,0.3-0.8,0.5-1.2,0.5H215c-0.8,0-1.5-0.7-1.5-1.5
		c0,0,0,0,0,0c0-0.1,0-0.1,0-0.2c0-0.5,0.3-0.9,0.6-1.2c0.3-0.3,0.8-0.5,1.2-0.5h17c0.8,0,1.5,0.7,1.5,1.5
		C233.7,49.7,233.7,49.7,233.7,49.7z"/>
	<path class="st19" d="M233.7,49.7c0,0.1,0,0.1,0,0.2c-0.1,0.4-0.3,0.7-0.6,1c-0.3,0.3-0.8,0.5-1.2,0.5H215c-0.8,0-1.5-0.7-1.5-1.5
		c0,0,0,0,0,0c0-0.1,0-0.1,0-0.2c0-0.5,0.3-0.9,0.6-1.2c0.3-0.3,0.8-0.5,1.2-0.5h17c0.8,0,1.5,0.7,1.5,1.5
		C233.7,49.7,233.7,49.7,233.7,49.7z"/>
	<path class="st2" d="M213.4,49.9c0,0,0,0.1,0,0.2c0.1-0.4,0.3-0.8,0.6-1.1c0.3-0.3,0.8-0.5,1.2-0.5h18c-0.3-0.3-0.7-0.4-1.1-0.4
		h-17c-0.5,0-0.9,0.2-1.2,0.5c-0.3,0.3-0.5,0.7-0.6,1.2C213.4,49.8,213.4,49.8,213.4,49.9z"/>
	<path class="st23" d="M213.4,49.9c0,0,0,0.1,0,0.2c0.1-0.4,0.3-0.8,0.6-1.1c0.3-0.3,0.8-0.5,1.2-0.5h18c-0.3-0.3-0.7-0.4-1.1-0.4
		h-17c-0.5,0-0.9,0.2-1.2,0.5c-0.3,0.3-0.5,0.7-0.6,1.2C213.4,49.8,213.4,49.8,213.4,49.9z"/>
	<path class="st15" d="M216.8,48.9l-0.1,0.8l0.8-0.3l0.1,0.4l-0.8,0.2l0.4,0.7l-0.4,0.2l-0.4-0.7l-0.5,0.7l-0.4-0.2l0.6-0.7
		l-0.8-0.2l0.2-0.4l0.8,0.3l0.1-0.8L216.8,48.9z"/>
	<path class="st15" d="M221.4,48.9l-0.1,0.8l0.8-0.3l0.1,0.4l-0.8,0.2l0.4,0.7l-0.4,0.2l-0.4-0.7l-0.5,0.7l-0.4-0.2l0.6-0.7
		l-0.8-0.3l0.2-0.4l0.8,0.3l0.1-0.8H221.4z"/>
	<path class="st15" d="M226.1,48.9l-0.1,0.8l0.8-0.3l0.1,0.4l-0.8,0.2l0.4,0.7l-0.4,0.2l-0.4-0.7l-0.5,0.7l-0.3-0.2l0.6-0.7
		l-0.8-0.2l0.2-0.4l0.8,0.3l0.1-0.8L226.1,48.9z"/>
	<path class="st15" d="M230.7,48.9l-0.1,0.8l0.8-0.3l0.1,0.4l-0.8,0.2l0.4,0.7l-0.4,0.2l-0.4-0.7l-0.5,0.7l-0.3-0.2l0.6-0.7
		l-0.8-0.2l0.2-0.4l0.8,0.3l0.1-0.8L230.7,48.9z"/>
	<rect x="219" y="47.3" class="st2" width="0.8" height="0.2"/>
	<rect x="215.6" y="47.3" class="st2" width="2.6" height="0.2"/>
	<path class="st2" d="M240.6,32.5l-3.9,45.2c-0.2,2-1.9,3.5-3.9,3.6h-1.3c2-0.1,3.6-1.6,3.9-3.6l4-45.2c0.2-1.8-1.1-3.3-2.9-3.5
		c-0.1,0-0.3,0-0.4,0h1.3c1.8,0,3.2,1.4,3.3,3.1C240.6,32.3,240.6,32.4,240.6,32.5z"/>
	<path class="st23" d="M240.6,32.5l-3.9,45.2c-0.2,2-1.9,3.5-3.9,3.6h-1.3c2-0.1,3.6-1.6,3.9-3.6l4-45.2c0.2-1.8-1.1-3.3-2.9-3.5
		c-0.1,0-0.3,0-0.4,0h1.3c1.8,0,3.2,1.4,3.3,3.1C240.6,32.3,240.6,32.4,240.6,32.5z"/>
	
		<rect x="238.8" y="41.1" transform="matrix(7.219376e-02 -0.9974 0.9974 7.219376e-02 181.2023 277.3669)" class="st2" width="1.7" height="0.4"/>
	
		<rect x="237.5" y="36.2" transform="matrix(7.219376e-02 -0.9974 0.9974 7.219376e-02 186.4481 273.1362)" class="st2" width="5.1" height="0.4"/>
	<path class="st2" d="M226.9,66.4h-10.2c-1.1,0-2-0.8-2.1-1.9c0-0.1,0-0.2,0-0.3l0,0c0.1-1.3,1.2-2.2,2.4-2.3h10.2
		c1.1,0,2,0.8,2.1,1.9c0,0.1,0,0.2,0,0.3l0,0C229.2,65.4,228.1,66.4,226.9,66.4z"/>
	<path class="st6" d="M226.9,66.4h-10.2c-1.1,0-2-0.8-2.1-1.9c0-0.1,0-0.2,0-0.3l0,0c0.1-1.3,1.2-2.2,2.4-2.3h10.2
		c1.1,0,2,0.8,2.1,1.9c0,0.1,0,0.2,0,0.3l0,0C229.2,65.4,228.1,66.4,226.9,66.4z"/>
	<path class="st20" d="M205.9,62.5l9.3-1.5l1.3,0.1c1.2,0.1,2,1.2,1.9,2.4c0,0.1,0,0.3-0.1,0.4c-0.2,0.9-0.5,1.7-1,2.4
		c-0.3,0-9.6,7.5-9.6,7.5s-2,1.8-1.9-0.5L205.9,62.5z"/>
	<path class="st10" d="M191,12.2h65.3c4.9,0,8.9,4,8.9,8.9v65.3c0,4.9-4,8.9-8.9,8.9H191c-4.9,0-8.9-4-8.9-8.9V21.1
		C182.1,16.2,186,12.2,191,12.2z"/>
	<path class="st2" d="M233.7,109c0.3,0,0.6,0,0.8,0.1l1.2-13.6l-1-0.1l-1.2,13.6H233.7z"/>
	<path class="st2" d="M233.8,117.7l0.4-4.1c-0.1,0-0.3,0-0.4,0c-0.2,0-0.4,0-0.6-0.1l-0.4,4C233.1,117.5,233.5,117.6,233.8,117.7z"
		/>
	<path class="st2" d="M231.4,144.7l2-22.6c-0.2,0.1-0.4,0.1-0.6,0.1c-0.1,0-0.2,0-0.4,0l-1.9,22
		C230.8,144.2,231.2,144.4,231.4,144.7z"/>
	<path class="st2" d="M229,162.2c0.3,0,0.6,0.1,0.9,0.2l1.2-13.9c-0.3,0.2-0.6,0.3-1,0.3L229,162.2L229,162.2z"/>
	<path class="st2" d="M229,166.8c-0.2,0-0.3,0-0.5-0.1l-4.7,53.9l1,0.1l4.7-54C229.4,166.8,229.2,166.8,229,166.8z"/>
</g>
<g id="freepik--device-4--inject-6">
	<path class="st15" d="M316.8,59.7c0.1-0.5-0.1-1-0.5-1.3c0,0.8-0.1,1.5-0.1,2.3C316.5,60.4,316.7,60.1,316.8,59.7z"/>
	<path class="st16" d="M316.9,65.2c-0.4-0.9-0.7-1.9-1-2.9c-0.2,1-0.4,2-0.6,3C315.8,65.4,316.4,65.3,316.9,65.2z"/>
	<path class="st24" d="M293.4,57.2c-0.2,1.8-0.3,3.3-0.3,4.8c-0.6,6.2-2.5,16.7-7.6,19.3c0,0,0.8,5.7,11,8.8s6.7-3.2,6.7-3.2
		c-4.8-3-4.6-6.4-3.1-9.8c0.3-0.8,0.7-1.5,1.2-2.3c5.2,1.6,10.7-0.9,12.9-5.9H314c-0.4,0-0.9-0.1-1.2-0.4c-0.4-0.4-0.6-0.9-0.5-1.4
		v-0.1l0.5,0.1V67c-0.1,0.4,0.1,0.7,0.4,1c0.3,0.3,0.6,0.4,1,0.3l0,0.2c0.4-1.1,0.8-2.2,1.1-3.3c0.3-1,0.5-2,0.6-3
		c0.1-0.6,0.2-1.1,0.2-1.7c0.1-0.8,0.1-1.5,0.1-2.3c0-0.4,0-0.8,0-1.2L293.4,57.2z"/>
	<path d="M313.1,68c-0.3-0.3-0.4-0.6-0.4-1v-0.1l-0.5-0.1v0.1c-0.1,0.5,0.1,1.1,0.5,1.4c0.3,0.3,0.8,0.5,1.2,0.4h0.1h0.2l0-0.2
		l0-0.2C313.8,68.4,313.4,68.3,313.1,68z"/>
	<path class="st15" d="M294,68.4c0.2,0.2,0.3,0.3,0.5,0.5c1,0.7,2.3,0.8,3.5,0.4c1-0.3,1.8-1,2.1-1.9c1.4,0.2,2.5-1.2,2.6-2.6
		c0-1.4-0.2-2.7-0.7-4c-0.4-1.2-0.5-2.5,0-3.7h-11c-3.4,0-6.5,1.9-8,4.9c-0.1,0.6-0.1,1.3,0.1,1.9c0.7,1.7,2.5,2.7,4.3,2.4
		c0.2,1.5,1.2,2.7,2.6,3.2c0.6,0.2,1.2,0.2,1.8,0.1C292.7,69.5,293.4,69.1,294,68.4z"/>
	<path class="st15" d="M309.5,57.2h-2.3c0.1,0.1,0.1,0.2,0.2,0.4c0.3,1,0.3,2.1-0.1,3.1C308.2,59.6,309,58.4,309.5,57.2z"/>
	<g id="freepik--group--inject-6_00000057149838488066645630000013897437877242970287_">
		<path class="st2" d="M376,166.7c0.1,0.4,0.1,0.8,0.2,1.1C376.1,167.4,376.1,167.1,376,166.7z"/>
		<path class="st2" d="M366,154.5l0.4,0.2L366,154.5z"/>
		<path class="st2" d="M373.2,160.4c-1.7-2.2-3.9-4-6.3-5.4C369.4,156.4,371.5,158.2,373.2,160.4z"/>
		<path class="st2" d="M375.8,165.6c0.1,0.2,0.1,0.5,0.2,0.7C375.9,166.1,375.8,165.8,375.8,165.6z"/>
		<path class="st2" d="M374.5,162.4c0.1,0.2,0.2,0.5,0.4,0.8C374.8,162.9,374.6,162.7,374.5,162.4z"/>
		<path class="st2" d="M373.9,161.4c0.2,0.3,0.3,0.5,0.5,0.8C374.2,162,374.1,161.7,373.9,161.4z"/>
		<path class="st2" d="M373.2,160.5c0.2,0.3,0.4,0.6,0.6,0.9C373.6,161,373.5,160.7,373.2,160.5z"/>
		<path class="st2" d="M375,163.4c0.1,0.2,0.2,0.5,0.3,0.7C375.2,163.9,375.1,163.7,375,163.4z"/>
		<path class="st2" d="M375.4,164.5c0.1,0.2,0.1,0.4,0.2,0.7C375.6,165,375.5,164.7,375.4,164.5z"/>
		<path class="st6" d="M375.3,164.2c0,0.1,0.1,0.2,0.1,0.3C375.4,164.4,375.3,164.3,375.3,164.2z"/>
		<path class="st6" d="M373.8,161.3c0,0,0.1,0.1,0.1,0.1C373.9,161.4,373.9,161.4,373.8,161.3z"/>
		<path class="st6" d="M374.9,163.2l0.1,0.3L374.9,163.2z"/>
		<path class="st6" d="M374.4,162.2c0,0.1,0.1,0.1,0.1,0.2C374.5,162.4,374.4,162.3,374.4,162.2z"/>
		<path class="st6" d="M375.6,165.2l0.1,0.4L375.6,165.2z"/>
		<path class="st6" d="M375.9,166.3c0,0.1,0.1,0.3,0.1,0.4C376,166.6,376,166.4,375.9,166.3z"/>
		<path class="st6" d="M366,154.5c-18.6-10.2-56.1-6.8-56.3-6.8l-17.7,2.4l26.1-2.2C318.3,147.9,349.3,145.5,366,154.5z"/>
		<path class="st6" d="M366.3,154.7l0.6,0.4L366.3,154.7z"/>
		<path class="st6" d="M373.2,160.4L373.2,160.4z"/>
		<path class="st2" d="M376.2,167.8c0-0.4-0.1-0.8-0.2-1.1c0-0.1-0.1-0.3-0.1-0.4s-0.1-0.5-0.2-0.7l-0.1-0.4
			c-0.1-0.2-0.1-0.5-0.2-0.7s-0.1-0.2-0.1-0.3s-0.2-0.5-0.3-0.7l-0.1-0.3c-0.1-0.3-0.2-0.5-0.4-0.8c0-0.1-0.1-0.1-0.1-0.2
			c-0.1-0.3-0.3-0.5-0.5-0.8c0,0-0.1-0.1-0.1-0.1c-0.2-0.3-0.4-0.6-0.6-0.9l0,0c-1.7-2.2-3.9-4-6.3-5.4l-0.6-0.4l-0.4-0.2
			c-16.7-9-47.6-6.6-47.9-6.6l-26.1,2.2c0,0.1,0,0.1,0,0.2l-9.9,1v11.6c0,4.9,4,8.9,8.9,8.9h86.3L376.2,167.8z"/>
		<path class="st6" d="M376.2,167.8c0-0.4-0.1-0.8-0.2-1.1c0-0.1-0.1-0.3-0.1-0.4s-0.1-0.5-0.2-0.7l-0.1-0.4
			c-0.1-0.2-0.1-0.5-0.2-0.7s-0.1-0.2-0.1-0.3s-0.2-0.5-0.3-0.7l-0.1-0.3c-0.1-0.3-0.2-0.5-0.4-0.8c0-0.1-0.1-0.1-0.1-0.2
			c-0.1-0.3-0.3-0.5-0.5-0.8c0,0-0.1-0.1-0.1-0.1c-0.2-0.3-0.4-0.6-0.6-0.9l0,0c-1.7-2.2-3.9-4-6.3-5.4l-0.6-0.4l-0.4-0.2
			c-16.7-9-47.6-6.6-47.9-6.6l-26.1,2.2c0,0.1,0,0.1,0,0.2l-9.9,1v11.6c0,4.9,4,8.9,8.9,8.9h86.3L376.2,167.8z"/>
		<g id="freepik--monitor-screen--inject-6">
			<g id="freepik--PC--inject-6">
				<polygon class="st2" points="365.8,143.6 306.9,142.3 311,105 370,106.4 				"/>
				<path class="st2" d="M365,146.5l-58.1-1.3c-1.5,0-2.7-1.2-2.7-2.7c0-0.1,0-0.2,0-0.3l4.1-37c0.2-1.7,1.6-2.9,3.3-2.9l58.1,1.3
					c1.5,0,2.7,1.2,2.7,2.7c0,0.1,0,0.2,0,0.3l-4.1,37C368.1,145.3,366.7,146.6,365,146.5z"/>
				<g class="st25">
					<polygon points="365.8,143.6 306.9,142.3 311,105 370,106.4 					"/>
					<polygon class="st26" points="365.8,143.6 306.9,142.3 311,105 370,106.4 					"/>
				</g>
				<polygon class="st27" points="365.7,143.8 306.8,142.4 310.9,105.1 369.8,106.5 				"/>
				<polygon class="st2" points="362.6,117 351.8,116.8 352.5,110.7 363.3,111 				"/>
				<polygon class="st2" points="361.3,129 350.5,128.8 351.1,122.7 362,122.9 				"/>
				<polygon class="st2" points="360,141 349.1,140.8 349.8,134.7 360.6,134.9 				"/>
				<polygon class="st17" points="357.1,103.2 344.6,146 348.5,146.1 360.9,103.3 				"/>
				<polygon class="st17" points="363.1,103.3 350.6,146.1 358.3,146.3 370.6,103.5 				"/>
				<polygon class="st2" points="313.6,135.3 313.6,135.6 344.8,136.3 344.8,136 				"/>
				<polygon class="st2" points="345.3,132 314.1,131.3 316.5,109.8 347.7,110.5 				"/>
				<path class="st2" d="M314.8,139.8L314.8,139.8c-0.8,0-1.4-0.7-1.4-1.4c0-0.1,0-0.1,0-0.2l0,0c0.1-0.9,0.9-1.6,1.8-1.6l0,0
					c0.8,0,1.4,0.7,1.4,1.4c0,0.1,0,0.1,0,0.2l0,0C316.4,139.1,315.7,139.8,314.8,139.8z"/>
				<polygon class="st2" points="329.4,134.3 313.8,133.9 314,132.6 329.5,132.9 				"/>
				<polygon class="st2" points="344.4,139.6 338.4,139.4 338.5,138.1 344.6,138.2 				"/>
				<polygon class="st2" points="345,134.7 343.6,134.6 343.8,133.3 345.1,133.3 				"/>
				<polygon class="st2" points="342.6,134.6 341.3,134.6 341.4,133.2 342.8,133.2 				"/>
				<polygon class="st2" points="340.3,134.6 338.9,134.5 339.1,133.1 340.5,133.2 				"/>
				<polygon class="st28" points="329.4,134.3 313.8,133.9 314,132.6 329.5,132.9 				"/>
				<polygon class="st3" points="344.8,136 313.6,135.3 313.6,135.6 344.8,136.3 				"/>
			</g>
		</g>
		<path class="st2" d="M346.5,145.8l19.6,0.7c0.2,2.3-0.8,3.1-2.1,3l-6.3-0.2l-4.2-0.2l-6.5-0.2l-29.9-0.7l-0.1-2.9L346.5,145.8z"/>
		<path class="st6" d="M346.5,145.8l19.6,0.7c0.2,2.3-0.8,3.1-2.1,3l-6.3-0.2l-4.2-0.2l-6.5-0.2l-29.9-0.7l-0.1-2.9L346.5,145.8z"/>
		<path class="st3" d="M366.1,146.5l0.1,0.8c0.1,1.1-0.8,2.1-1.9,2.2c-0.1,0-0.2,0-0.2,0l-6.3-0.2l-11.6-0.3l0.4-3.2L366.1,146.5z"
			/>
		<path class="st2" d="M284,80.2l19.1,1.7c0,0-2.1-4.9-8.9-5.4C290.4,76.1,286.6,77.5,284,80.2z"/>
		<path class="st2" d="M317.6,92.4c0-4.9-3.3-9.2-8-10.5c-1.3-0.3-2.5-0.6-3.2-0.8c-5.7-0.8-11.4-1.3-17.2-1.4
			c-2.5-0.1-5-0.1-7.1,0.1v73.4c7.5,1.4,15.3,1,22.6-1.1l13.4-3.8C317.4,134,317.5,106.2,317.6,92.4z"/>
		<path class="st2" d="M317.6,92.4c0-4.9-3.3-9.2-8-10.5c-1.3-0.3-2.5-0.6-3.2-0.8c-5.7-0.8-11.4-1.3-17.2-1.4
			c-2.5-0.1-5-0.1-7.1,0.1v73.4c7.5,1.4,15.3,1,22.6-1.1l13.4-3.8C317.4,134,317.5,106.2,317.6,92.4z"/>
		<path class="st18" d="M317.6,92.4c0-4.9-3.3-9.2-8-10.5c-1.3-0.3-2.5-0.6-3.2-0.8c-5.7-0.8-11.4-1.3-17.2-1.4
			c-2.5-0.1-5-0.1-7.1,0.1v73.4c7.5,1.4,15.3,1,22.6-1.1l13.4-3.8C317.4,134,317.5,106.2,317.6,92.4z"/>
		<path class="st3" d="M297.1,91.8c-0.5,5.2-1.3,16.4,1.5,25.8l5.5,0.1c3.8,0.1,7.7-0.5,11.3-1.7l0,0c0,0,2.9-14.1-1.4-22.7
			C310.3,86.1,297.8,83.7,297.1,91.8z"/>
		<path class="st24" d="M309.9,84.3c0.7,6.4,1.5,13,2.4,19.5c0.5,3.2,0.9,6.5,1.5,9.6s1.1,6.3,1.9,9.4c0.4,1.5,0.8,3,1.2,4.4
			c0.2,0.7,0.5,1.4,0.7,2c0.1,0.3,0.2,0.6,0.4,0.9l0.2,0.4l0.1,0.1c-0.1-0.1-0.1-0.2-0.2-0.3c-0.2-0.2-0.3-0.2-0.2-0.2
			c0.1,0.1,0.3,0.3,0.5,0.4c0.5,0.3,1,0.6,1.6,0.8c1.4,0.5,2.8,1,4.2,1.3c6,1.6,13.3,4.6,19.7,5.8l-0.2,5.7
			c-6.9,0.6-21.4-1.3-26.8-3.4c-1-0.3-2-0.6-3-1.1c-0.6-0.3-1.2-0.6-1.7-1c-1.1-0.7-2-1.6-2.6-2.6l-0.2-0.4l-0.4-0.7
			c-0.3-0.5-0.5-0.9-0.7-1.4c-0.4-0.9-0.8-1.8-1.1-2.7c-0.6-1.7-1.2-3.4-1.7-5.1c-1.8-6.6-3.2-13.3-4.3-20.1c-0.5-3.3-1-6.7-1.4-10
			v-0.1c-0.7-5.3,3.1-10.2,8.5-10.9c0.1,0,0.2,0,0.3,0L309.9,84.3z"/>
		<path class="st24" d="M340.7,142.6c0.7,2.5,9.1,2.5,9.1,2.5l-0.3-7.9l-7.6,0.9L340.7,142.6z"/>
		<polygon class="st24" points="349.5,137.2 349.9,145.1 354.9,146.1 353.9,140.5 		"/>
		<path class="st2" d="M297.5,88.7c-1.2,4.9,0.9,19.5,3.7,26.3l17.4-2.6c0,0,1.3-20-2.9-25.6C308.9,77.9,299.4,81.2,297.5,88.7z"/>
		<path class="st4" d="M297.5,88.7c-1.2,4.9,0.9,19.5,3.7,26.3l17.4-2.6c0,0,1.3-20-2.9-25.6C308.9,77.9,299.4,81.2,297.5,88.7z"/>
	</g>
	<path class="st10" d="M290.9,56.7h96.7c4.9,0,8.9,4,8.9,8.9v96.7c0,4.9-4,8.9-8.9,8.9h-96.7c-4.9,0-8.9-4-8.9-8.9V65.7
		C282,60.7,286,56.7,290.9,56.7z"/>
	<path class="st2" d="M334.1,176.1l5.5-4.4l-0.6-0.8l-5.8,4.6C333.5,175.7,333.8,175.8,334.1,176.1z"/>
	<path class="st2" d="M308.6,195l-32.6,25.8l0.6,0.8l32.5-25.8C309,195.6,308.8,195.3,308.6,195z"/>
	<path class="st2" d="M312.7,193l17.8-14.1c-0.2-0.3-0.2-0.7-0.2-1.1l-18.1,14.4C312.4,192.4,312.6,192.7,312.7,193z"/>
</g>
<g id="freepik--device-5--inject-6">
	<rect x="384.2" y="199.4" class="st2" width="32.2" height="52.2"/>
	<rect x="384.2" y="199.4" class="st6" width="32.2" height="52.2"/>
	<rect x="367.1" y="199.4" class="st2" width="29.8" height="52.2"/>
	<rect x="367.1" y="199.4" class="st18" width="29.8" height="52.2"/>
	<rect x="368.9" y="201.8" class="st2" width="26.3" height="6.6"/>
	<rect x="370.9" y="203.6" class="st22" width="0.8" height="4.1"/>
	<rect x="373.8" y="203.6" class="st22" width="0.8" height="4.1"/>
	<rect x="372.4" y="204.8" class="st22" width="0.8" height="3"/>
	<circle class="st22" cx="387.3" cy="205.3" r="1.1"/>
	<circle class="st22" cx="390.1" cy="205.3" r="1.1"/>
	<circle class="st22" cx="392.8" cy="205.3" r="1.1"/>
	<rect x="368.9" y="210.4" class="st2" width="26.3" height="6.6"/>
	<rect x="370.9" y="212.2" class="st22" width="0.8" height="4.1"/>
	<rect x="373.8" y="212.2" class="st22" width="0.8" height="4.1"/>
	<rect x="372.4" y="213.4" class="st22" width="0.8" height="3"/>
	<circle class="st22" cx="387.3" cy="213.8" r="1.1"/>
	<circle class="st22" cx="390.1" cy="213.8" r="1.1"/>
	<circle class="st22" cx="392.8" cy="213.8" r="1.1"/>
	<rect x="368.9" y="218.9" class="st2" width="26.3" height="6.6"/>
	<rect x="370.9" y="220.8" class="st22" width="0.8" height="4.1"/>
	<rect x="373.8" y="220.8" class="st22" width="0.8" height="4.1"/>
	<rect x="372.4" y="221.9" class="st22" width="0.8" height="3"/>
	<path class="st22" d="M388.4,222.4c0,0.6-0.5,1.1-1.1,1.1c-0.6,0-1.1-0.5-1.1-1.1c0-0.6,0.5-1.1,1.1-1.1l0,0
		C387.9,221.3,388.4,221.8,388.4,222.4z"/>
	<path class="st22" d="M391.2,222.4c0,0.6-0.5,1.1-1.1,1.1c-0.6,0-1.1-0.5-1.1-1.1c0-0.6,0.5-1.1,1.1-1.1l0,0
		C390.7,221.3,391.2,221.8,391.2,222.4z"/>
	<path class="st22" d="M394,222.4c0,0.6-0.5,1.1-1.1,1.1c-0.6,0-1.1-0.5-1.1-1.1c0-0.6,0.5-1.1,1.1-1.1l0,0
		C393.5,221.3,394,221.8,394,222.4C394,222.4,394,222.4,394,222.4z"/>
	<rect x="368.9" y="227.5" class="st2" width="26.3" height="6.6"/>
	<rect x="370.9" y="229.3" class="st22" width="0.8" height="4.1"/>
	<rect x="373.8" y="229.3" class="st22" width="0.8" height="4.1"/>
	<rect x="372.4" y="230.5" class="st22" width="0.8" height="3"/>
	<circle class="st22" cx="387.3" cy="231" r="1.1"/>
	<circle class="st22" cx="390.1" cy="231" r="1.1"/>
	<circle class="st22" cx="392.8" cy="231" r="1.1"/>
	<path class="st15" d="M385.8,242.6c0,2-1.6,3.5-3.6,3.5c-2,0-3.5-1.6-3.5-3.6c0-2,1.6-3.5,3.5-3.5
		C384.2,239,385.8,240.6,385.8,242.6C385.8,242.6,385.8,242.6,385.8,242.6z"/>
	<path class="st10" d="M359.1,184.1h65.3c4.9,0,8.9,4,8.9,8.9v65.3c0,4.9-4,8.9-8.9,8.9h-65.3c-4.9,0-8.9-4-8.9-8.9V193
		C350.2,188.1,354.2,184.1,359.1,184.1z"/>
	<path class="st10" d="M359.1,184.1h65.3c4.9,0,8.9,4,8.9,8.9v65.3c0,4.9-4,8.9-8.9,8.9h-65.3c-4.9,0-8.9-4-8.9-8.9V193
		C350.2,188.1,354.2,184.1,359.1,184.1z"/>
	<path class="st2" d="M303.2,248.7l-19.1,8.6l0.4,0.9l18.9-8.5C303.3,249.4,303.3,249,303.2,248.7z"/>
	<path class="st2" d="M322.5,241.1l28.1-12.7l-0.4-0.9l-27.9,12.6C322.4,240.4,322.5,240.8,322.5,241.1z"/>
	<path class="st2" d="M318.1,242l-11,5c0.2,0.2,0.4,0.5,0.5,0.9l11.1-5C318.5,242.6,318.3,242.3,318.1,242z"/>
</g>
<g id="freepik--Cloud--inject-6">
	<path class="st2" d="M292.6,257.3H292c0-38.5-31.2-69.8-69.7-69.8c-31.8,0-59.6,21.5-67.6,52.3c-31.1,2.1-54.7,29.1-52.5,60.2
		c2,29.6,26.6,52.6,56.3,52.7h134.2c26.3,0.4,48-20.7,48.4-47c0.4-26.3-20.7-48-47-48.4C293.5,257.3,293.1,257.3,292.6,257.3z"/>
	<path class="st4" d="M292.6,257.3H292c0-38.5-31.2-69.8-69.7-69.8c-31.8,0-59.6,21.5-67.6,52.3c-31.1,2.1-54.7,29.1-52.5,60.2
		c2,29.6,26.6,52.6,56.3,52.7h134.2c26.3,0.4,48-20.7,48.4-47c0.4-26.3-20.7-48-47-48.4C293.5,257.3,293.1,257.3,292.6,257.3z"/>
	<path class="st0" d="M232.6,306.4c-0.9,7.5-14.2,13.4-14.2,13.4s-13.2-5.9-14.2-13.4L204,284l14.2-4.7l14.7,4.7L232.6,306.4z"/>
	<path class="st2" d="M224,293.5v4.9c0,0.4-0.4,0.8-0.8,0.8c-0.4,0-0.8-0.4-0.8-0.8v-4.9c0-1.6-1.3-2.8-2.8-2.8h-1.7
		c-1.6,0-2.8,1.3-2.9,2.8v0v5h-1.6v-5c0-2.4,2-4.4,4.4-4.4h1.7C222,289.1,224,291,224,293.5C224,293.5,224,293.5,224,293.5z"/>
	<path class="st2" d="M224.5,298.2v9.4c0,0.6-0.5,1.1-1.1,1.1H214c-0.6,0-1.1-0.5-1.1-1.1v-9.4c0-0.4,0.2-0.7,0.5-0.9
		c0.2-0.1,0.4-0.2,0.6-0.2h9.4c0.2,0,0.4,0.1,0.6,0.1C224.3,297.4,224.5,297.8,224.5,298.2z"/>
	<g class="st29">
		<path class="st22" d="M224,293.5v4.9c0,0.4-0.4,0.8-0.8,0.8c-0.4,0-0.8-0.4-0.8-0.8v-4.9c0-1.6-1.3-2.8-2.8-2.8h-1.7
			c-1.6,0-2.8,1.3-2.9,2.8v0v5h-1.6v-5c0-2.4,2-4.4,4.4-4.4h1.7C222,289.1,224,291,224,293.5C224,293.5,224,293.5,224,293.5z"/>
		<path class="st22" d="M224.5,298.2v9.4c0,0.6-0.5,1.1-1.1,1.1H214c-0.6,0-1.1-0.5-1.1-1.1v-9.4c0-0.4,0.2-0.7,0.5-0.9
			c0.2-0.1,0.4-0.2,0.6-0.2h9.4c0.2,0,0.4,0.1,0.6,0.1C224.3,297.4,224.5,297.8,224.5,298.2z"/>
	</g>
</g>
<g id="freepik--Character--inject-6">
	<path class="st3" d="M182.4,250.2c0,0-6.2,4.6-1.2,16.7c6.8,16.3,61.4,2.3,61.4,2.3c-1.9,10.7,1,18.8,2.9,29.5l5.1,28.2l-5.4,0.6
		l2.2,7.9h5.3l0.6,6.7l0,0c-1.3,0.1-2.2,1.2-2.1,2.4c0,0,0,0.1,0,0.1l1.2,6.2l1.1,1.3l24.2-3.7l-16.9-6.3l-5.6-88.5L182.4,250.2z"/>
	<path class="st3" d="M266.4,261.1h5c0,0-1.5,3.4,0.4,18.4s8.2,34.2,8.2,34.2h-4.5l1.2,8.3h4.4v7l0,0c-1.2,0.2-2,1.1-2.1,2.3
		l-0.2,4.5l3.2,2l19.5-1.6l2.4-1.5l-10.8-5.1l-7.3-77.5l-23.7,1.8L266.4,261.1z"/>
	<g id="freepik--Character--inject-2--inject-6">
		<polygon class="st20" points="286,330.7 294.6,329.8 295.4,309.7 286.9,310.6 		"/>
		<path class="st15" d="M295.5,326.2l-9.7-0.1c-0.3,0-0.6,0.2-0.7,0.5c0,0,0,0,0,0v0.1l-0.5,7.6c0,0.8,0.7,1.5,1.5,1.5
			c3.4,0,4.8-0.2,9-0.5c2.6-0.2,8.9-0.6,12.4-1.2s2.8-4.2,1.2-4.2c-3.7-0.1-9.4-1.3-11.8-3.2C296.5,326.4,296,326.2,295.5,326.2z"/>
		<polygon class="st3" points="286.9,310.6 295.4,309.7 295,319.4 286.5,320 		"/>
		<path class="st2" d="M225.7,225.4c0,0,65.2-3.3,69.6,21c2.1,22.8,2.6,45.8,1.3,68.7l-11.7-1c0,0-9.9-38.8-8.9-59.5
			c-18-2-66.9,6.8-74.5-6.6c-6.2-10.9-5.1-17.7-5.1-17.7L225.7,225.4z"/>
		<path class="st13" d="M225.7,225.4c0,0,65.2-3.3,69.6,21c2.1,22.8,2.6,45.8,1.3,68.7l-11.7-1c0,0-9.9-38.8-8.9-59.5
			c-18-2-66.9,6.8-74.5-6.6c-6.2-10.9-5.1-17.7-5.1-17.7L225.7,225.4z"/>
		<polygon class="st2" points="280.7,317.9 299,317 300.3,310.1 280,310.9 		"/>
		<path class="st2" d="M300.1,327.3c0.3-0.3,0.4-0.7,0.3-1.1c0-0.3-0.2-0.5-0.5-0.6c-1.1-0.4-3.5,1.2-3.8,1.4c0,0-0.1,0.1-0.1,0.1
			c0,0.1,0,0.2,0.1,0.2c0,0,0,0,0,0c0.7,0.2,1.5,0.3,2.3,0.3C299.1,327.8,299.7,327.6,300.1,327.3z M299.8,326
			c0.1,0.1,0.2,0.2,0.2,0.3c0.1,0.2,0,0.5-0.1,0.7c-0.4,0.4-1.5,0.4-3.1,0.1C297.8,326.5,299.2,325.8,299.8,326L299.8,326z"/>
		<path class="st2" d="M296.4,327.3c0.9-0.5,2.2-2.3,2-3.2c-0.1-0.3-0.4-0.6-0.7-0.6c-0.3-0.1-0.7,0.1-0.9,0.3
			c-0.9,0.8-0.7,3.3-0.7,3.4c0,0.1,0,0.1,0.1,0.2h0.1L296.4,327.3z M297.5,323.9c0.3,0,0.4,0.2,0.4,0.3c0.1,0.6-0.7,2-1.5,2.6
			c0-0.8,0.1-2.2,0.6-2.7C297.1,323.9,297.3,323.9,297.5,323.9C297.5,323.9,297.5,323.9,297.5,323.9z"/>
		<polygon class="st20" points="260.3,342.2 268.6,342 268,321.8 259.7,322 		"/>
		<path class="st15" d="M268.8,339.5l-9.6,0.6c-0.3,0-0.6,0.3-0.6,0.6c0,0,0,0,0,0v7.7c0,0.8,0.8,1.5,1.6,1.4c0,0,0,0,0,0
			c3.4-0.3,4.9-0.6,9.2-0.9c2.6-0.2,7.8-0.3,11.3-1.1s2.6-4.2,1.1-4.2c-3.7,0.1-8.9-2-11.4-3.7C269.8,339.6,269.3,339.5,268.8,339.5
			z"/>
		<path class="st2" d="M273.5,340.2c0.2-0.3,0.3-0.7,0.2-1.1c-0.1-0.3-0.3-0.5-0.5-0.5c-1.1-0.4-3.4,1.5-3.7,1.7
			c0,0-0.1,0.1-0.1,0.1c0,0.1,0.1,0.2,0.2,0.2c0.8,0.1,1.5,0.2,2.3,0.1C272.5,340.8,273.1,340.6,273.5,340.2z M273.1,339
			c0.1,0,0.2,0.1,0.2,0.3c0.1,0.2,0.1,0.5-0.1,0.7c-0.3,0.4-1.5,0.5-3,0.3C271.1,339.6,272.5,338.8,273.1,339L273.1,339z"/>
		<path class="st2" d="M269.8,340.6c0.8-0.6,2-2.5,1.7-3.4c-0.1-0.3-0.4-0.6-0.8-0.5c-0.3,0-0.7,0.1-0.9,0.3
			c-0.8,0.9-0.5,3.4-0.4,3.5c0,0.1,0.1,0.1,0.1,0.1h0.1C269.7,340.7,269.8,340.7,269.8,340.6z M270.7,337.1c0.3,0,0.4,0.2,0.4,0.3
			c0.2,0.6-0.6,2-1.3,2.7c-0.1-0.8-0.1-2.2,0.4-2.7C270.3,337.2,270.4,337.1,270.7,337.1L270.7,337.1z"/>
		<polygon class="st3" points="258.9,321.9 268.2,320.3 268.3,332.9 260.2,333.9 		"/>
		<path class="st2" d="M205,228.8c0,0,64.4,4.7,65.3,23.5c4.8,30.6,1.2,70.8,1.2,70.8l-15.4,3.2c0,0-8-37.7-9.1-65.4
			c-15.8,2.6-48.2,7.6-59.3-0.3c-10.1-9.1-7.3-27.6-7.3-27.6L205,228.8z"/>
		<path class="st6" d="M205,228.8c0,0,64.4,4.7,65.3,23.5c4.8,30.6,1.2,70.8,1.2,70.8l-15.4,3.2c0,0-8-37.7-9.1-65.4
			c-15.8,2.6-48.2,7.6-59.3-0.3c-10.1-9.1-7.3-27.6-7.3-27.6L205,228.8z"/>
		<polygon class="st2" points="254.6,331.4 273.5,329.8 273.9,321.6 253.2,323.7 		"/>
		<path class="st20" d="M209.5,172.8c0.4,1.5,0.7,2.7,1.1,4.1s0.8,2.6,1.2,3.9c0.9,2.6,1.8,5.2,2.9,7.8c2.2,5.4,5,10.5,8.6,15.1
			c1,1.3,2.2,2.5,3.4,3.6c1.4,1.2,3,2.3,4.6,3.1c3.2,1.4,6.8,2,10.4,1.7c3.1-0.3,6.2-1.1,9-2.4c1.3-0.6,2.6-1.3,3.9-2
			c0.6-0.4,1.2-0.8,1.8-1.2c0.6-0.4,1.1-0.8,1.8-1.4l-3.3-5.5l-1.7,0.5l-1.7,0.5c-1.2,0.3-2.3,0.6-3.5,0.8c-2.1,0.4-4.3,0.5-6.5,0.3
			c-1.7-0.1-3.4-0.7-4.9-1.6c-0.6-0.4-1.2-0.9-1.8-1.5c-0.7-0.7-1.3-1.5-1.8-2.3c-1.3-1.9-2.4-3.9-3.4-5.9c-1-2.1-2-4.4-2.9-6.7
			s-1.7-4.7-2.5-7l-1.1-3.6c-0.4-1.2-0.8-2.4-1-3.5L209.5,172.8z"/>
		<path class="st2" d="M208.2,165.6c5.2-7.1,13.5-4.8,18.5,6c2.8,5.7,5,11.7,6.7,17.9l-19,7.4C208.9,186.7,202.9,172.9,208.2,165.6z
			"/>
		<path class="st12" d="M208.2,165.6c5.2-7.1,13.5-4.8,18.5,6c2.8,5.7,5,11.7,6.7,17.9l-19,7.4C208.9,186.7,202.9,172.9,208.2,165.6
			z"/>
		<path class="st30" d="M216.6,176.9c-1.6-1-4.7,5.3-5.9,12.8c1.1,2.5,2.4,5,3.6,7.2l11.5-4.5C223.6,185.6,220.3,179.2,216.6,176.9z
			"/>
		<path class="st20" d="M255.8,196.7l4.1-2.4l1.8,9.4c0,0-6.9,4.5-9,1l0.1-2.4C253,200,254.1,198,255.8,196.7z"/>
		<polygon class="st20" points="265.2,193.6 269.2,201 261.7,203.6 259.9,194.2 		"/>
		<path class="st2" d="M207.9,159.5l-9.9-1.1l-12.2,1.5c-3.8,0.5-6.9,3.4-7.4,7.2c-1.1,7.5-1.5,18-1.6,27.1
			c-0.1,10.2,1.5,25.2,3.6,38.8l45.4-7.6c-3.7-28.4-2.9-45.7-2.9-55.2c0-3.8-2.5-7.2-6.2-8.2L207.9,159.5z"/>
		<path class="st30" d="M182.2,163.6c8.1-1.7,8.3,16.9,5.1,30.6c-0.9,4-5.7,2.5-7.3,1.5C174.8,192.5,172.3,169.9,182.2,163.6z"/>
		<path class="st20" d="M183.8,188.6c-1.5,7.9-5,11.4-1.4,15s26.3,17.5,27.1,16.7c-1.6,1.6-3.2,3-4.8,4.6c-6.8-2.7-13.7-5.4-20.6-8
			c-5-1.9-13.1-5.2-16.4-9.4c-3-3.8-0.3-12,2.5-21.3C173.9,185,183.8,188.6,183.8,188.6z"/>
		<path class="st2" d="M179,160.4c8.3-2.7,11.7,3.9,9.6,15.5c-1.1,6.3-2.7,12.5-4.9,18.4l-17.8-5C167.3,178,170.4,163.2,179,160.4z"
			/>
		<polygon class="st15" points="205.2,173.2 205.5,213.8 211.7,219.1 215.4,213.2 207.7,173.2 		"/>
		<polygon class="st15" points="205.2,173.2 207.7,173.2 208.8,171.1 207.2,170.2 205.5,170 203.6,171.1 		"/>
		<path class="st15" d="M191.1,160c-0.2,1.8,0.4,3.6,1.4,5c1.1,1.4,2.3,2.7,3.7,3.8c1.7,1.5,3.8,3,6,2.7c2.1-0.3,3.2-1.4,4-3.9
			c1.9,2.8,2,4.2,3.9,4.3c1.3,0.1,2.3-0.9,3.2-1.8c1.5-1.7,2.2-2.6,2.4-4.8c0.4-3.6-2.7-6.9-6.1-8c-3.5-1-7.1-1.6-10.8-1.8
			C195.6,155.1,191.7,156.3,191.1,160z"/>
		<path class="st20" d="M199.2,142.4l4.6,5l6.3,6.8c-0.5,0.8-0.9,1.6-1.2,2.5c-0.8,2,0,4.3,1.9,5.3c0.9,0.4,1.6,5.2-4.5,4.9
			c-3.5,0.1-6.9-1.4-9.3-3.9c-1.2-1.5-1.5-2.3-0.4-3.9C199.7,154.4,199.7,147.7,199.2,142.4z"/>
		<path class="st3" d="M208.6,152.5l-4-4.9c-0.1,0.2-0.1,0.3-0.1,0.5c-0.2,0.7-0.3,1.4-0.3,2.2c-0.1,2.5,2.3,5.6,4.6,7l0.2-0.5
			c0.2-0.8,0.6-1.7,1.1-2.4c0,0,0.1-0.1,0.1-0.1L208.6,152.5z"/>
		<path class="st15" d="M214.1,140.8c3.7-7.2,2.9-11.2,6.4-15.1c1.9-0.8,5.2,2.7,3,8.6S214.1,140.8,214.1,140.8z"/>
		<path class="st20" d="M199.3,132.9c-0.4,8.3-1,13.2,2.7,17.8c5.6,7,16.2,4.1,19.1-4c2.6-7.3,2.8-19.6-5-23.7
			c-5.7-2.9-12.6-0.6-15.6,5C199.8,129.5,199.3,131.2,199.3,132.9L199.3,132.9z"/>
		<path class="st15" d="M198.3,140.3l4.5,2.7l0.6-7.3l3.7-2.1l4.5-6.8c0,0-9.8-2.9-12.7-3.2c-1-0.1-4.6,2.6-5.1,3.8
			c-1.4,3.3-0.8,7.2,1.6,9.9C196.2,138.4,197.2,139.4,198.3,140.3z"/>
		<path class="st20" d="M195.2,138.9c0.2,1.8,1.1,3.5,2.5,4.8c1.8,1.6,3.9-0.3,4.1-2.6c0.1-2.1-1-5.1-3.2-5.8
			S194.9,136.6,195.2,138.9z"/>
		<path class="st15" d="M211.9,137.5c-0.1,0.7,0.2,1.3,0.6,1.4s0.8-0.4,1-1.1c0.2-0.6-0.1-1.2-0.6-1.4
			C212.4,136.3,212,136.8,211.9,137.5z"/>
		<path class="st15" d="M219.6,138.9c-0.1,0.7,0.2,1.3,0.6,1.4s0.9-0.4,1-1.1s-0.2-1.3-0.6-1.4S219.7,138.2,219.6,138.9z"/>
		<path class="st31" d="M217.1,139c0.3,1.9,0.8,3.8,1.6,5.6c-0.9,0.4-2,0.3-2.8-0.2L217.1,139z"/>
		<path class="st15" d="M214.6,148.3c-1.6-0.2-3.1-1.1-4-2.5c-0.1-0.1,0-0.2,0.1-0.3c0.1-0.1,0.2,0,0.3,0.1c0,0,0,0,0,0
			c1,1.4,2.7,2.3,4.4,2.4c0.1,0,0.2,0.1,0.2,0.2c0,0.1-0.1,0.2-0.2,0.2c0,0,0,0,0,0l0,0C215.2,148.4,214.9,148.4,214.6,148.3z"/>
		<path class="st15" d="M210.8,134.8c-0.1,0-0.1-0.1-0.2-0.1c-0.2-0.2-0.2-0.4,0-0.6c0,0,0,0,0,0c0.9-0.9,2.3-1.3,3.5-1
			c0.2,0.1,0.3,0.3,0.3,0.5c0,0,0,0,0,0l0,0c-0.1,0.2-0.3,0.3-0.5,0.3c-1-0.2-2,0.1-2.8,0.8C211,134.7,210.9,134.8,210.8,134.8z"/>
		<path class="st15" d="M220.3,134.5c0-0.1,0-0.1,0-0.2c0.1-0.2,0.3-0.4,0.5-0.3c0,0,0,0,0,0c1.3,0.3,2.3,1.1,2.8,2.4
			c0.1,0.2,0,0.4-0.2,0.5c-0.2,0.1-0.4,0-0.5-0.2c-0.4-0.9-1.2-1.6-2.2-1.8C220.5,134.7,220.4,134.6,220.3,134.5z"/>
	</g>
	<path class="st2" d="M223.2,232.8l52.1-6.9c0.5-0.1,0.9-0.6,0.9-1.1l0,0c-0.1-0.5-0.6-0.9-1.1-0.9l-52.1,6.9
		c-0.5,0.1-0.9,0.6-0.9,1.1l0,0C222.2,232.5,222.7,232.9,223.2,232.8z"/>
	<path class="st13" d="M223.2,232.8l52.1-6.9c0.5-0.1,0.9-0.6,0.9-1.1l0,0c-0.1-0.5-0.6-0.9-1.1-0.9l-52.1,6.9
		c-0.5,0.1-0.9,0.6-0.9,1.1l0,0C222.2,232.5,222.7,232.9,223.2,232.8z"/>
	<path class="st2" d="M197.5,232.5l25.3,0.3c0.6,0,1-0.4,1-1l0,0c0-0.6-0.4-1-1-1l-25.3-0.3c-0.6,0-1,0.4-1,1l0,0
		C196.5,232.1,196.9,232.5,197.5,232.5z"/>
	<path class="st23" d="M197.5,232.5l25.3,0.3c0.6,0,1-0.4,1-1l0,0c0-0.6-0.4-1-1-1l-25.3-0.3c-0.6,0-1,0.4-1,1l0,0
		C196.5,232.1,196.9,232.5,197.5,232.5z"/>
	<path class="st2" d="M224.4,231.6l-27.9-0.2c0,0-0.9-0.5,0.9-0.9s26-3.6,26-3.6L224.4,231.6z"/>
	<path class="st2" d="M224.4,231.6l-27.2-0.3c0,0-0.9-0.6,0.9-0.9s25.4-3.5,25.4-3.5L224.4,231.6z"/>
	<path class="st28" d="M224.4,231.6l-27.2-0.3c0,0-0.9-0.6,0.9-0.9s25.4-3.5,25.4-3.5L224.4,231.6z"/>
	<path class="st2" d="M224.4,230.7l48.6-6.4c1.8-0.3,3-1.8,3-3.6l-1.1-24.9c0-1.6-1.3-2.8-2.9-2.8c-0.2,0-0.3,0-0.4,0l-48.6,6.4
		c-1.8,0.3-3,1.8-3,3.6l1.1,24.9c0,1.6,1.3,2.8,2.9,2.8C224.1,230.7,224.2,230.7,224.4,230.7z"/>
	<path class="st6" d="M224.4,230.7l48.6-6.4c1.8-0.3,3-1.8,3-3.6l-1.1-24.9c0-1.6-1.3-2.8-2.9-2.8c-0.2,0-0.3,0-0.4,0l-48.6,6.4
		c-1.8,0.3-3,1.8-3,3.6l1.1,24.9c0,1.6,1.3,2.8,2.9,2.8C224.1,230.7,224.2,230.7,224.4,230.7z"/>
	<path class="st2" d="M225.8,230.4l48.6-6.4c1.8-0.3,3-1.8,3-3.6l-1.1-24.9c0-1.6-1.3-2.8-2.9-2.8c-0.1,0-0.2,0-0.3,0l-48.6,6.4
		c-1.8,0.3-3,1.8-3,3.6l1.1,24.9c0.1,1.6,1.4,2.8,2.9,2.7C225.6,230.4,225.7,230.4,225.8,230.4z"/>
	<path class="st18" d="M225.8,230.4l48.6-6.4c1.8-0.3,3-1.8,3-3.6l-1.1-24.9c0-1.6-1.3-2.8-2.9-2.8c-0.1,0-0.2,0-0.3,0l-48.6,6.4
		c-1.8,0.3-3,1.8-3,3.6l1.1,24.9c0.1,1.6,1.4,2.8,2.9,2.7C225.6,230.4,225.7,230.4,225.8,230.4z"/>
	<path class="st2" d="M254.1,213.1c-0.2,2.4-2.2,4.3-4.6,4.3c-2.2,0-4-1.8-4-4c0-0.1,0-0.2,0-0.3c0.2-2.4,2.2-4.3,4.6-4.3
		c2.2,0,4,1.8,4,4C254.1,212.9,254.1,213,254.1,213.1z"/>
	<path class="st20" d="M212.4,219.8l4.1,0.5l-4.3,8.9c0,0-8.8-1.6-7.7-5.5l1.9-1.5C208.1,220.9,210.1,219.5,212.4,219.8z"/>
	<polygon class="st20" points="220.9,225.3 217.7,229.9 212.3,229.3 216.5,220.4 	"/>
	<path class="st2" d="M193.4,126.6c-0.8-1.3-1.4-2.8-1.8-4.3c-0.4-1.5,0-3.2,1-4.4c1.1-1.1,2.6-1.8,4.1-2L212,112
		c2.1-0.5,4.4-1.1,6.4-0.4c3.6,1.2,5.9,2.7,7,6.4c0.7,2.4,0.6,7.9-1.1,9.8c-1.3,1.4-3.4,1.6-5.3,1.7c-8.4,0.3-16.8-0.2-25.1-1.7
		L193.4,126.6z"/>
	<path class="st15" d="M202.3,128.9C202.2,129.5,202.4,128.4,202.3,128.9c2.4-3.3,7.8-6,10.2-6.4c4-0.6,8,0.4,11.2,2.8
		c3.2,2.4,5.1,6.2,5.1,10.2c0,0.9-0.4,2.1-1.3,2.2s-1.3-1.7-1.8-2.4c-1.7-2.3-5.2-2.2-7.7-1c-1.3,0.6-2.7,1.8-4.1,1.4
		C212.9,135.6,202.3,128.9,202.3,128.9z"/>
	<polygon class="st15" points="190,178.2 202.7,178.2 202.7,181.6 197.4,184.3 190.3,182.2 	"/>
	<polygon class="st15" points="212.3,178.2 223.1,178.2 223.1,181.6 218.6,184.3 212.6,182.2 	"/>
	<path class="st15" d="M256.2,152c-0.5,0.5-1.1,0.8-1.8,0.9c-1.5,0.1-2.9-0.5-4-1.5c-0.1,0.3-0.2,0.5-0.3,0.8l-2.6-2.4l-2.6-2.4
		c0.2-0.1,0.5-0.2,0.7-0.4c-1.4-1.4-2.5-3.6-1.1-5.4l0.2-0.3c0.1-0.1,0.2-0.1,0.3-0.1c0.2,0,0.3,0.2,0.3,0.4c0,0.1,0,0.1-0.1,0.2
		c-1.5,1.7-0.1,3.9,1.2,5.1c0.8-0.2,1.6-0.1,2.3,0.2l0,0c0.9-1.2,1.2-2.6,0-3.7c-0.4-0.4-0.9-0.7-1.5-0.9c-0.1,0-0.1-0.2,0-0.1
		c0.7,0.2,1.4,0.7,1.9,1.3c0.9,1.1,0.5,2.4-0.4,3.6l0.1,0.1c0.2-0.3,0.5-0.5,0.8-0.5v0.9l0.9-0.1c0,0.3-0.2,0.7-0.5,0.8l0.1,0.1
		c1.1-0.9,2.4-1.4,3.6-0.5c0.6,0.5,1.1,1.1,1.4,1.8c0,0.1-0.1,0.1-0.2,0.1c-0.2-0.5-0.6-1-1-1.4c-1.1-1.1-2.5-0.7-3.7,0.2l0,0
		c0.3,0.7,0.4,1.5,0.3,2.3c1.1,1,2.9,2.1,4.4,1.4c0.3-0.1,0.5-0.3,0.8-0.5C256.1,151.3,256.5,151.7,256.2,152z"/>
	<path class="st15" d="M247.5,149.7l-3.3-3.1c-0.3,0.2-0.6,0.4-0.9,0.6c-2.1-0.2-4.5,0.3-5.2,2.6c-0.1,0.4,0.5,0.5,0.6,0.1
		c0.5-1.7,2.2-2.2,3.9-2.1l-0.3,0.3c-2.4,2.5-2.7,5.9-0.7,7.8s5.4,1.3,7.8-1.1l0.3-0.4c0.2,1.7-0.2,3.5-1.9,4.1
		c-0.4,0.1-0.2,0.7,0.1,0.6c2.4-0.8,2.6-3.4,2.3-5.5c0.2-0.2,0.3-0.5,0.5-0.8L247.5,149.7z"/>
	<polygon class="st15" points="263.1,166.4 258.6,166.4 259.4,161.9 263.8,161.9 	"/>
	<path class="st15" d="M268.3,165.8c-0.1,0.5-0.3,0.9-0.7,1.2c-0.4,0.4-0.9,0.6-1.5,0.6H255c-0.4,0-0.7-0.1-1-0.4
		c-0.4-0.4-0.7-1-0.5-1.5c0,0,5.2-1.6,5.8-1.6h3.9L268.3,165.8z"/>
	<path class="st15" d="M269.5,155.5v0.2c-0.1,0.6-0.6,1-1.2,1h-11.8c-0.3,0-0.6-0.1-0.8-0.3c-0.2-0.2-0.3-0.6-0.2-0.9h3.1
		c0.9-1.8,2.6-3,4.6-3.2c1.8,0,3.4,1.4,3.6,3.2L269.5,155.5z"/>
	<path class="st15" d="M258,156.8c-0.1,0.4-0.2,0.7-0.3,1.1c-0.4,1.7,0.2,3.5,1.5,4.7c0.6,0.5,1.4,0.8,2.2,0.8
		c0.8,0,1.5-0.2,2.2-0.6c1.7-1.1,2.9-2.9,3.2-4.9c0.1-0.4,0.1-0.7,0.1-1.1H258z M264.2,158.7l-2-0.9l-2,0.9l-1.2-1.4l3.1,0.5
		l3.1-0.5L264.2,158.7z"/>
	<path class="st2" d="M244.8,141.2l-0.2,0.3l0.5-0.4C244.9,141.1,244.8,141.1,244.8,141.2z"/>
	<path class="st2" d="M256.3,134.2c-11.9,0.2-21.6,9.3-22.6,21.1c-0.7,8.6,4.3,16.7,12.4,19.8h0.1c1.2,0.5,2.5,0.8,3.8,1l0,0
		c0.4,0.1,0.8,0.1,1.2,0.2c0.7,0.1,1.4,0.1,2.2,0.1c11.8-0.2,21.6-9.3,22.6-21.1c0.9-10.7-7-20.2-17.8-21.1
		C257.6,134.2,257,134.2,256.3,134.2z M236.9,155.4c0.4-5.5,3.2-10.6,7.6-13.9l0.2-0.3c0.1-0.1,0.2-0.1,0.3-0.1
		c3.2-2.3,7.1-3.6,11.1-3.6c2.8,0,5.5,0.7,8,2l-9.1,12.7c0.3-0.1,0.5-0.3,0.8-0.5c0.3-0.3,0.8,0.1,0.5,0.4c-0.5,0.5-1.1,0.8-1.8,0.9
		l-11.8,16.5C238.6,165.9,236.4,160.7,236.9,155.4L236.9,155.4z M272.8,155.4c-0.8,10.1-9.1,17.8-19.2,18c-2.9,0-5.8-0.7-8.4-2.2
		l10.5-14.8c-0.2-0.2-0.3-0.6-0.2-0.9h0.9l10.3-14.4C270.9,144.6,273.2,149.9,272.8,155.4L272.8,155.4z"/>
	<path class="st2" d="M244.8,141.2l-0.2,0.3l0.5-0.4C244.9,141.1,244.8,141.1,244.8,141.2z"/>
	<path class="st4" d="M256.3,134.2c-11.9,0.2-21.6,9.3-22.6,21.1c-0.7,8.6,4.3,16.7,12.4,19.8h0.1c1.2,0.5,2.5,0.8,3.8,1l0,0
		c0.4,0.1,0.8,0.1,1.2,0.2c0.7,0.1,1.4,0.1,2.2,0.1c11.8-0.2,21.6-9.3,22.6-21.1c0.9-10.7-7-20.2-17.8-21.1
		C257.6,134.2,257,134.2,256.3,134.2z M236.9,155.4c0.4-5.5,3.2-10.6,7.6-13.9l0.2-0.3c0.1-0.1,0.2-0.1,0.3-0.1
		c3.2-2.3,7.1-3.6,11.1-3.6c2.8,0,5.5,0.7,8,2l-9.1,12.7c0.3-0.1,0.5-0.3,0.8-0.5c0.3-0.3,0.8,0.1,0.5,0.4c-0.5,0.5-1.1,0.8-1.8,0.9
		l-11.8,16.5C238.6,165.9,236.4,160.7,236.9,155.4L236.9,155.4z M272.8,155.4c-0.8,10.1-9.1,17.8-19.2,18c-2.9,0-5.8-0.7-8.4-2.2
		l10.5-14.8c-0.2-0.2-0.3-0.6-0.2-0.9h0.9l10.3-14.4C270.9,144.6,273.2,149.9,272.8,155.4L272.8,155.4z"/>
	<path class="st2" d="M251.6,174l-6.1,8.6l1-9.8C248.1,173.4,249.8,173.8,251.6,174z"/>
	<path class="st4" d="M251.6,174l-6.1,8.6l1-9.8C248.1,173.4,249.8,173.8,251.6,174z"/>
	<polygon class="st32" points="263.2,157.7 263.2,157.7 263.1,157.7 263.2,157.7 	"/>
</g>
</svg>
