<svg width="210" height="224" viewBox="0 0 210 224" fill="none" xmlns="http://www.w3.org/2000/svg">
<g clip-path="url(#clip0_63_1907)">
<g filter="url(#filter0_d_63_1907)">
<path d="M153.681 15H56.3187C27.4239 15 4 38.3079 4 67.0597V163.94C4 192.692 27.4239 216 56.3187 216H153.681C182.576 216 206 192.692 206 163.94V67.0597C206 38.3079 182.576 15 153.681 15Z" fill="url(#paint0_linear_63_1907)"/>
</g>
<path d="M153.681 19.2918H56.3185C29.8058 19.2918 8.31299 40.6782 8.31299 67.0597V163.94C8.31299 190.322 29.8058 211.708 56.3185 211.708H153.681C180.194 211.708 201.687 190.322 201.687 163.94V67.0597C201.687 40.6782 180.194 19.2918 153.681 19.2918Z" fill="url(#paint1_linear_63_1907)"/>
</g>
<g clip-path="url(#clip1_63_1907)" filter="url(#filter1_d_63_1907)">
<path d="M165.813 44H43.2174C39.7102 44 37 46.7241 37 50.2495V59.223C37 62.5881 39.7102 65.4725 43.2174 65.4725H101.885C105.233 65.4725 108.102 68.1966 108.102 71.7219V86.1438C108.102 89.5088 105.392 92.3932 101.885 92.3932H63.6234C60.2756 92.3932 57.406 95.1173 57.406 98.6427C57.406 102.008 60.1162 104.892 63.6234 104.892H95.8266C99.1745 104.892 102.044 107.616 102.044 111.142V124.442C102.044 127.807 99.3339 130.691 95.8266 130.691H63.6234C60.2756 130.691 57.406 133.415 57.406 136.941V138.383C57.406 141.748 60.1162 144.632 63.6234 144.632H103.798C107.146 144.632 110.015 147.356 110.015 150.882V165.303C110.015 168.669 107.305 171.553 103.798 171.553H43.2174C39.7102 170.912 37 173.796 37 177.161V186.135C37 189.5 39.7102 192.384 43.2174 192.384H165.813C169.161 192.384 172.03 189.66 172.03 186.135V50.2495C171.871 46.7241 169.161 44 165.813 44Z" fill="white"/>
<mask id="mask0_63_1907" style="mask-type:alpha" maskUnits="userSpaceOnUse" x="37" y="44" width="136" height="149">
<path d="M165.813 44H43.2174C39.7102 44 37 46.7241 37 50.2495V59.223C37 62.5881 39.7102 65.4725 43.2174 65.4725H101.885C105.233 65.4725 108.102 68.1966 108.102 71.7219V86.1438C108.102 89.5088 105.392 92.3932 101.885 92.3932H63.6234C60.2756 92.3932 57.406 95.1173 57.406 98.6427C57.406 102.008 60.1162 104.892 63.6234 104.892H95.8266C99.1745 104.892 102.044 107.616 102.044 111.142V124.442C102.044 127.807 99.3339 130.691 95.8266 130.691H63.6234C60.2756 130.691 57.406 133.415 57.406 136.941V138.383C57.406 141.748 60.1162 144.632 63.6234 144.632H103.798C107.146 144.632 110.015 147.356 110.015 150.882V165.303C110.015 168.669 107.305 171.553 103.798 171.553H43.2174C39.7102 170.912 37 173.796 37 177.161V186.135C37 189.5 39.7102 192.384 43.2174 192.384H165.813C169.161 192.384 172.03 189.66 172.03 186.135V50.2495C171.871 46.7241 169.161 44 165.813 44Z" fill="white"/>
</mask>
<g mask="url(#mask0_63_1907)">
<rect x="36" y="183.919" width="136" height="1.00966" fill="#D9D9D9"/>
<rect x="36" y="185.938" width="136" height="1.00966" fill="#D9D9D9"/>
<rect x="36" y="187.958" width="136" height="1.00966" fill="#D9D9D9"/>
<rect x="36" y="189.977" width="136" height="1.00966" fill="#D9D9D9"/>
</g>
<mask id="mask1_63_1907" style="mask-type:alpha" maskUnits="userSpaceOnUse" x="37" y="44" width="136" height="149">
<path d="M165.813 44H43.2174C39.7102 44 37 46.7241 37 50.2495V59.223C37 62.5881 39.7102 65.4725 43.2174 65.4725H101.885C105.233 65.4725 108.102 68.1966 108.102 71.7219V86.1438C108.102 89.5088 105.392 92.3932 101.885 92.3932H63.6234C60.2756 92.3932 57.406 95.1173 57.406 98.6427C57.406 102.008 60.1162 104.892 63.6234 104.892H95.8266C99.1745 104.892 102.044 107.616 102.044 111.142V124.442C102.044 127.807 99.3339 130.691 95.8266 130.691H63.6234C60.2756 130.691 57.406 133.415 57.406 136.941V138.383C57.406 141.748 60.1162 144.632 63.6234 144.632H103.798C107.146 144.632 110.015 147.356 110.015 150.882V165.303C110.015 168.669 107.305 171.553 103.798 171.553H43.2174C39.7102 170.912 37 173.796 37 177.161V186.135C37 189.5 39.7102 192.384 43.2174 192.384H165.813C169.161 192.384 172.03 189.66 172.03 186.135V50.2495C171.871 46.7241 169.161 44 165.813 44Z" fill="white"/>
</mask>
<g mask="url(#mask1_63_1907)">
<g filter="url(#filter2_i_63_1907)">
<rect x="33.4194" y="42.7949" width="144.419" height="30.1269" fill="#ADADAD"/>
</g>
</g>
<g filter="url(#filter3_i_63_1907)">
<rect x="112" y="82" width="23.8709" height="25.0645" fill="#D9D9D9"/>
</g>
<g filter="url(#filter4_i_63_1907)">
<rect x="142.032" y="82.4194" width="23.8709" height="25.0645" fill="#D9D9D9"/>
</g>
<g filter="url(#filter5_i_63_1907)">
<rect x="112.193" y="113.452" width="23.8709" height="25.0645" fill="#D9D9D9"/>
</g>
<g filter="url(#filter6_i_63_1907)">
<rect x="142" y="114" width="23.8709" height="25.0645" fill="#D9D9D9"/>
</g>
<g filter="url(#filter7_i_63_1907)">
<rect x="112.193" y="144.484" width="23.8709" height="25.0645" fill="#D9D9D9"/>
</g>
<g filter="url(#filter8_i_63_1907)">
<rect x="142.032" y="144.484" width="23.8709" height="14.3226" fill="#D9D9D9"/>
</g>
</g>
<path d="M128.5 173.5C123.3 175.1 94.3333 181.167 80.5 184H171.5V156.5C165.5 162.5 140.333 170.333 128.5 173.5Z" fill="#EEEEEE"/>
<g filter="url(#filter9_d_63_1907)">
<path d="M137.702 170.833C116.143 177.352 90.991 182.277 78.0884 183.871C100.464 179.96 120.879 170.398 137.375 152L137.702 170.833Z" fill="#FCFCFC"/>
<path d="M137.375 152C148.482 156.491 164.324 160.982 170.857 156.491C171.184 156.201 171.674 156.056 172 155.767L171.837 155.911C165.631 161.127 152.565 166.342 137.702 170.833L137.375 152Z" fill="url(#paint2_linear_63_1907)"/>
<g filter="url(#filter10_d_63_1907)">
<path d="M171.836 156.056C156.974 168.66 99.9738 181.263 78.0884 183.871C100.464 180.104 120.879 171.123 137.375 152.724C149.134 157.505 165.303 161.561 172 155.911C172 155.911 171.836 155.911 171.836 156.056Z" fill="url(#paint3_linear_63_1907)"/>
</g>
</g>
<path d="M50.8841 51.2365C50.8841 52.945 49.4562 54.359 47.7309 54.359C46.0055 54.359 44.5776 52.945 44.5776 51.2365C44.5776 49.528 46.0055 48.1141 47.7309 48.1141C49.4562 48.1141 50.8841 49.528 50.8841 51.2365Z" fill="#2D292A"/>
<path d="M56.7148 43.8722C56.8338 43.2242 56.8933 42.5761 56.8933 41.8691C56.8933 37.097 54.335 33.0319 51.2412 33.0319C48.1475 33.0319 45.5892 37.097 45.5892 41.8691C45.5892 46.4644 47.969 50.3528 50.8248 50.7063C50.9438 51.1776 50.9438 52.4148 49.9919 53.4164C45.8867 52.5916 42.793 47.8195 42.793 41.8691C42.793 35.3885 46.4817 30.263 51.2412 30.263C56.0008 30.263 59.6895 35.3885 59.6895 41.8691C59.6895 42.5761 59.63 43.2242 59.5705 43.8722H56.7148Z" fill="#DDDDDD"/>
<path d="M43.626 46.9358C44.8159 50.3528 47.1362 52.8272 50.0514 53.4164C51.0033 52.4737 51.0033 51.2365 50.8844 50.7063C49.3375 50.5295 47.9096 49.2923 46.9577 47.5249C45.8273 47.6427 44.6374 47.466 43.626 46.9358Z" fill="#999999"/>
<path d="M56.6729 41.0732C56.6729 41.0732 56.6729 41.7668 56.6729 41.9268C56.6729 42.7805 56.6729 43.6341 56.6729 44.061H59.6901C59.7591 43.4741 59.6901 42.4604 59.6901 41.8201C59.6901 41.5533 59.6901 41.2866 59.6211 41.0732C58.7246 41.3399 57.7763 41.1799 56.6729 41.0732Z" fill="#999999"/>
<path d="M45.8965 34.4402C46.8892 32.8311 49.0313 30.7225 51.3301 30.8335C53.6812 30.889 56.1368 32.1652 57.9655 37.6585C56.9728 35.3835 55.1964 30.9999 50.3374 31.6103C48.8745 31.8323 46.9414 33.1085 45.8965 34.4402Z" fill="#ADADAD"/>
<path d="M76.8841 51.2365C76.8841 52.945 75.4562 54.359 73.7309 54.359C72.0055 54.359 70.5776 52.945 70.5776 51.2365C70.5776 49.528 72.0055 48.1141 73.7309 48.1141C75.4562 48.1141 76.8841 49.528 76.8841 51.2365Z" fill="#2D292A"/>
<path d="M82.7148 43.8722C82.8338 43.2242 82.8933 42.5761 82.8933 41.8691C82.8933 37.097 80.335 33.0319 77.2412 33.0319C74.1475 33.0319 71.5892 37.097 71.5892 41.8691C71.5892 46.4644 73.969 50.3528 76.8248 50.7063C76.9438 51.1776 76.9438 52.4148 75.9919 53.4164C71.8867 52.5916 68.793 47.8195 68.793 41.8691C68.793 35.3885 72.4817 30.263 77.2412 30.263C82.0008 30.263 85.6895 35.3885 85.6895 41.8691C85.6895 42.5761 85.63 43.2242 85.5705 43.8722H82.7148Z" fill="#DDDDDD"/>
<path d="M69.626 46.9358C70.8159 50.3528 73.1362 52.8272 76.0514 53.4164C77.0033 52.4737 77.0033 51.2365 76.8844 50.7063C75.3375 50.5295 73.9096 49.2923 72.9577 47.5249C71.8273 47.6427 70.6374 47.466 69.626 46.9358Z" fill="#999999"/>
<path d="M82.6729 41.0732C82.6729 41.0732 82.6729 41.7668 82.6729 41.9268C82.6729 42.7805 82.6729 43.6341 82.6729 44.061H85.6901C85.7591 43.4741 85.6901 42.4604 85.6901 41.8201C85.6901 41.5533 85.6901 41.2866 85.6211 41.0732C84.7246 41.3399 83.7763 41.1799 82.6729 41.0732Z" fill="#999999"/>
<path d="M71.8965 34.4402C72.8892 32.8311 75.0313 30.7225 77.3301 30.8335C79.6812 30.889 82.1368 32.1652 83.9655 37.6585C82.9728 35.3835 81.1964 30.9999 76.3374 31.6103C74.8745 31.8323 72.9414 33.1085 71.8965 34.4402Z" fill="#ACACAC"/>
<path d="M102.884 51.2365C102.884 52.945 101.456 54.359 99.7309 54.359C98.0055 54.359 96.5776 52.945 96.5776 51.2365C96.5776 49.528 98.0055 48.1141 99.7309 48.1141C101.456 48.1141 102.884 49.528 102.884 51.2365Z" fill="#2D292A"/>
<path d="M108.715 43.8722C108.834 43.2242 108.893 42.5761 108.893 41.8691C108.893 37.097 106.335 33.0319 103.241 33.0319C100.148 33.0319 97.5892 37.097 97.5892 41.8691C97.5892 46.4644 99.969 50.3528 102.825 50.7063C102.944 51.1776 102.944 52.4148 101.992 53.4164C97.8867 52.5916 94.793 47.8195 94.793 41.8691C94.793 35.3885 98.4817 30.263 103.241 30.263C108.001 30.263 111.69 35.3885 111.69 41.8691C111.69 42.5761 111.63 43.2242 111.571 43.8722H108.715Z" fill="#DDDDDD"/>
<path d="M95.626 46.9358C96.8159 50.3528 99.1362 52.8272 102.051 53.4164C103.003 52.4737 103.003 51.2365 102.884 50.7063C101.337 50.5295 99.9096 49.2923 98.9577 47.5249C97.8273 47.6427 96.6374 47.466 95.626 46.9358Z" fill="#999999"/>
<path d="M108.673 41.0732C108.673 41.0732 108.673 41.7668 108.673 41.9268C108.673 42.7805 108.673 43.6341 108.673 44.061H111.69C111.759 43.4741 111.69 42.4604 111.69 41.8201C111.69 41.5533 111.69 41.2866 111.621 41.0732C110.725 41.3399 109.776 41.1799 108.673 41.0732Z" fill="#999999"/>
<path d="M97.8965 34.4402C98.8892 32.8311 101.031 30.7225 103.33 30.8335C105.681 30.889 108.137 32.1652 109.965 37.6585C108.973 35.3835 107.196 30.9999 102.337 31.6103C100.875 31.8323 98.9414 33.1085 97.8965 34.4402Z" fill="#ADADAD"/>
<path d="M128.884 51.2365C128.884 52.945 127.456 54.359 125.731 54.359C124.006 54.359 122.578 52.945 122.578 51.2365C122.578 49.528 124.006 48.1141 125.731 48.1141C127.456 48.1141 128.884 49.528 128.884 51.2365Z" fill="#2D292A"/>
<path d="M134.715 43.8722C134.834 43.2242 134.893 42.5761 134.893 41.8691C134.893 37.097 132.335 33.0319 129.241 33.0319C126.148 33.0319 123.589 37.097 123.589 41.8691C123.589 46.4644 125.969 50.3528 128.825 50.7063C128.944 51.1776 128.944 52.4148 127.992 53.4164C123.887 52.5916 120.793 47.8195 120.793 41.8691C120.793 35.3885 124.482 30.263 129.241 30.263C134.001 30.263 137.69 35.3885 137.69 41.8691C137.69 42.5761 137.63 43.2242 137.571 43.8722H134.715Z" fill="#DDDDDD"/>
<path d="M121.626 46.9358C122.816 50.3528 125.136 52.8272 128.051 53.4164C129.003 52.4737 129.003 51.2365 128.884 50.7063C127.337 50.5295 125.91 49.2923 124.958 47.5249C123.827 47.6427 122.637 47.466 121.626 46.9358Z" fill="#999999"/>
<path d="M134.673 41.0732C134.673 41.0732 134.673 41.7668 134.673 41.9268C134.673 42.7805 134.673 43.6341 134.673 44.061H137.69C137.759 43.4741 137.69 42.4604 137.69 41.8201C137.69 41.5533 137.69 41.2866 137.621 41.0732C136.725 41.3399 135.776 41.1799 134.673 41.0732Z" fill="#999999"/>
<path d="M123.896 34.4402C124.889 32.8311 127.031 30.7225 129.33 30.8335C131.681 30.889 134.137 32.1652 135.965 37.6585C134.973 35.3835 133.196 30.9999 128.337 31.6103C126.875 31.8323 124.941 33.1085 123.896 34.4402Z" fill="#ADADAD"/>
<path d="M154.884 51.2365C154.884 52.945 153.456 54.359 151.731 54.359C150.006 54.359 148.578 52.945 148.578 51.2365C148.578 49.528 150.006 48.1141 151.731 48.1141C153.456 48.1141 154.884 49.528 154.884 51.2365Z" fill="#2D292A"/>
<path d="M160.715 43.8722C160.834 43.2242 160.893 42.5761 160.893 41.8691C160.893 37.097 158.335 33.0319 155.241 33.0319C152.148 33.0319 149.589 37.097 149.589 41.8691C149.589 46.4644 151.969 50.3528 154.825 50.7063C154.944 51.1776 154.944 52.4148 153.992 53.4164C149.887 52.5916 146.793 47.8195 146.793 41.8691C146.793 35.3885 150.482 30.263 155.241 30.263C160.001 30.263 163.69 35.3885 163.69 41.8691C163.69 42.5761 163.63 43.2242 163.571 43.8722H160.715Z" fill="#DDDDDD"/>
<path d="M147.626 46.9358C148.816 50.3528 151.136 52.8272 154.051 53.4164C155.003 52.4737 155.003 51.2365 154.884 50.7063C153.337 50.5295 151.91 49.2923 150.958 47.5249C149.827 47.6427 148.637 47.466 147.626 46.9358Z" fill="#999999"/>
<path d="M160.673 41.0732C160.673 41.0732 160.673 41.7668 160.673 41.9268C160.673 42.7805 160.673 43.6341 160.673 44.061H163.69C163.759 43.4741 163.69 42.4604 163.69 41.8201C163.69 41.5533 163.69 41.2866 163.621 41.0732C162.725 41.3399 161.776 41.1799 160.673 41.0732Z" fill="#999999"/>
<path d="M149.896 34.4402C150.889 32.8311 153.031 30.7225 155.33 30.8335C157.681 30.889 160.137 32.1652 161.965 37.6585C160.973 35.3835 159.196 30.9999 154.337 31.6103C152.875 31.8323 150.941 33.1085 149.896 34.4402Z" fill="#999999"/>
<defs>
<filter id="filter0_d_63_1907" x="0" y="15" width="210" height="209" filterUnits="userSpaceOnUse" color-interpolation-filters="sRGB">
<feFlood flood-opacity="0" result="BackgroundImageFix"/>
<feColorMatrix in="SourceAlpha" type="matrix" values="0 0 0 0 0 0 0 0 0 0 0 0 0 0 0 0 0 0 127 0" result="hardAlpha"/>
<feOffset dy="4"/>
<feGaussianBlur stdDeviation="2"/>
<feComposite in2="hardAlpha" operator="out"/>
<feColorMatrix type="matrix" values="0 0 0 0 0 0 0 0 0 0 0 0 0 0 0 0 0 0 0.25 0"/>
<feBlend mode="normal" in2="BackgroundImageFix" result="effect1_dropShadow_63_1907"/>
<feBlend mode="normal" in="SourceGraphic" in2="effect1_dropShadow_63_1907" result="shape"/>
</filter>
<filter id="filter1_d_63_1907" x="33" y="0" width="144" height="223" filterUnits="userSpaceOnUse" color-interpolation-filters="sRGB">
<feFlood flood-opacity="0" result="BackgroundImageFix"/>
<feColorMatrix in="SourceAlpha" type="matrix" values="0 0 0 0 0 0 0 0 0 0 0 0 0 0 0 0 0 0 127 0" result="hardAlpha"/>
<feOffset dy="4"/>
<feGaussianBlur stdDeviation="2"/>
<feComposite in2="hardAlpha" operator="out"/>
<feColorMatrix type="matrix" values="0 0 0 0 0 0 0 0 0 0 0 0 0 0 0 0 0 0 0.25 0"/>
<feBlend mode="normal" in2="BackgroundImageFix" result="effect1_dropShadow_63_1907"/>
<feBlend mode="normal" in="SourceGraphic" in2="effect1_dropShadow_63_1907" result="shape"/>
</filter>
<filter id="filter2_i_63_1907" x="33.4194" y="42.7949" width="144.419" height="30.1269" filterUnits="userSpaceOnUse" color-interpolation-filters="sRGB">
<feFlood flood-opacity="0" result="BackgroundImageFix"/>
<feBlend mode="normal" in="SourceGraphic" in2="BackgroundImageFix" result="shape"/>
<feColorMatrix in="SourceAlpha" type="matrix" values="0 0 0 0 0 0 0 0 0 0 0 0 0 0 0 0 0 0 127 0" result="hardAlpha"/>
<feOffset/>
<feGaussianBlur stdDeviation="2"/>
<feComposite in2="hardAlpha" operator="arithmetic" k2="-1" k3="1"/>
<feColorMatrix type="matrix" values="0 0 0 0 0 0 0 0 0 0 0 0 0 0 0 0 0 0 0.25 0"/>
<feBlend mode="normal" in2="shape" result="effect1_innerShadow_63_1907"/>
</filter>
<filter id="filter3_i_63_1907" x="112" y="82" width="23.8711" height="25.0645" filterUnits="userSpaceOnUse" color-interpolation-filters="sRGB">
<feFlood flood-opacity="0" result="BackgroundImageFix"/>
<feBlend mode="normal" in="SourceGraphic" in2="BackgroundImageFix" result="shape"/>
<feColorMatrix in="SourceAlpha" type="matrix" values="0 0 0 0 0 0 0 0 0 0 0 0 0 0 0 0 0 0 127 0" result="hardAlpha"/>
<feOffset/>
<feGaussianBlur stdDeviation="2"/>
<feComposite in2="hardAlpha" operator="arithmetic" k2="-1" k3="1"/>
<feColorMatrix type="matrix" values="0 0 0 0 0 0 0 0 0 0 0 0 0 0 0 0 0 0 0.25 0"/>
<feBlend mode="normal" in2="shape" result="effect1_innerShadow_63_1907"/>
</filter>
<filter id="filter4_i_63_1907" x="142.032" y="82.4194" width="23.8711" height="25.0645" filterUnits="userSpaceOnUse" color-interpolation-filters="sRGB">
<feFlood flood-opacity="0" result="BackgroundImageFix"/>
<feBlend mode="normal" in="SourceGraphic" in2="BackgroundImageFix" result="shape"/>
<feColorMatrix in="SourceAlpha" type="matrix" values="0 0 0 0 0 0 0 0 0 0 0 0 0 0 0 0 0 0 127 0" result="hardAlpha"/>
<feOffset/>
<feGaussianBlur stdDeviation="2"/>
<feComposite in2="hardAlpha" operator="arithmetic" k2="-1" k3="1"/>
<feColorMatrix type="matrix" values="0 0 0 0 0 0 0 0 0 0 0 0 0 0 0 0 0 0 0.25 0"/>
<feBlend mode="normal" in2="shape" result="effect1_innerShadow_63_1907"/>
</filter>
<filter id="filter5_i_63_1907" x="112.193" y="113.452" width="23.8711" height="25.0645" filterUnits="userSpaceOnUse" color-interpolation-filters="sRGB">
<feFlood flood-opacity="0" result="BackgroundImageFix"/>
<feBlend mode="normal" in="SourceGraphic" in2="BackgroundImageFix" result="shape"/>
<feColorMatrix in="SourceAlpha" type="matrix" values="0 0 0 0 0 0 0 0 0 0 0 0 0 0 0 0 0 0 127 0" result="hardAlpha"/>
<feOffset/>
<feGaussianBlur stdDeviation="2"/>
<feComposite in2="hardAlpha" operator="arithmetic" k2="-1" k3="1"/>
<feColorMatrix type="matrix" values="0 0 0 0 0 0 0 0 0 0 0 0 0 0 0 0 0 0 0.25 0"/>
<feBlend mode="normal" in2="shape" result="effect1_innerShadow_63_1907"/>
</filter>
<filter id="filter6_i_63_1907" x="142" y="114" width="23.8711" height="25.0645" filterUnits="userSpaceOnUse" color-interpolation-filters="sRGB">
<feFlood flood-opacity="0" result="BackgroundImageFix"/>
<feBlend mode="normal" in="SourceGraphic" in2="BackgroundImageFix" result="shape"/>
<feColorMatrix in="SourceAlpha" type="matrix" values="0 0 0 0 0 0 0 0 0 0 0 0 0 0 0 0 0 0 127 0" result="hardAlpha"/>
<feOffset/>
<feGaussianBlur stdDeviation="2"/>
<feComposite in2="hardAlpha" operator="arithmetic" k2="-1" k3="1"/>
<feColorMatrix type="matrix" values="0 0 0 0 0 0 0 0 0 0 0 0 0 0 0 0 0 0 0.25 0"/>
<feBlend mode="normal" in2="shape" result="effect1_innerShadow_63_1907"/>
</filter>
<filter id="filter7_i_63_1907" x="112.193" y="144.484" width="23.8711" height="25.0645" filterUnits="userSpaceOnUse" color-interpolation-filters="sRGB">
<feFlood flood-opacity="0" result="BackgroundImageFix"/>
<feBlend mode="normal" in="SourceGraphic" in2="BackgroundImageFix" result="shape"/>
<feColorMatrix in="SourceAlpha" type="matrix" values="0 0 0 0 0 0 0 0 0 0 0 0 0 0 0 0 0 0 127 0" result="hardAlpha"/>
<feOffset/>
<feGaussianBlur stdDeviation="2"/>
<feComposite in2="hardAlpha" operator="arithmetic" k2="-1" k3="1"/>
<feColorMatrix type="matrix" values="0 0 0 0 0 0 0 0 0 0 0 0 0 0 0 0 0 0 0.25 0"/>
<feBlend mode="normal" in2="shape" result="effect1_innerShadow_63_1907"/>
</filter>
<filter id="filter8_i_63_1907" x="142.032" y="144.484" width="23.8711" height="14.3226" filterUnits="userSpaceOnUse" color-interpolation-filters="sRGB">
<feFlood flood-opacity="0" result="BackgroundImageFix"/>
<feBlend mode="normal" in="SourceGraphic" in2="BackgroundImageFix" result="shape"/>
<feColorMatrix in="SourceAlpha" type="matrix" values="0 0 0 0 0 0 0 0 0 0 0 0 0 0 0 0 0 0 127 0" result="hardAlpha"/>
<feOffset/>
<feGaussianBlur stdDeviation="2"/>
<feComposite in2="hardAlpha" operator="arithmetic" k2="-1" k3="1"/>
<feColorMatrix type="matrix" values="0 0 0 0 0 0 0 0 0 0 0 0 0 0 0 0 0 0 0.25 0"/>
<feBlend mode="normal" in2="shape" result="effect1_innerShadow_63_1907"/>
</filter>
<filter id="filter9_d_63_1907" x="74.0884" y="149" width="101.912" height="39.8709" filterUnits="userSpaceOnUse" color-interpolation-filters="sRGB">
<feFlood flood-opacity="0" result="BackgroundImageFix"/>
<feColorMatrix in="SourceAlpha" type="matrix" values="0 0 0 0 0 0 0 0 0 0 0 0 0 0 0 0 0 0 127 0" result="hardAlpha"/>
<feOffset dy="1"/>
<feGaussianBlur stdDeviation="2"/>
<feComposite in2="hardAlpha" operator="out"/>
<feColorMatrix type="matrix" values="0 0 0 0 0 0 0 0 0 0 0 0 0 0 0 0 0 0 0.25 0"/>
<feBlend mode="normal" in2="BackgroundImageFix" result="effect1_dropShadow_63_1907"/>
<feBlend mode="normal" in="SourceGraphic" in2="effect1_dropShadow_63_1907" result="shape"/>
</filter>
<filter id="filter10_d_63_1907" x="75.0884" y="151.724" width="97.9111" height="35.1466" filterUnits="userSpaceOnUse" color-interpolation-filters="sRGB">
<feFlood flood-opacity="0" result="BackgroundImageFix"/>
<feColorMatrix in="SourceAlpha" type="matrix" values="0 0 0 0 0 0 0 0 0 0 0 0 0 0 0 0 0 0 127 0" result="hardAlpha"/>
<feOffset dx="-1" dy="1"/>
<feGaussianBlur stdDeviation="1"/>
<feComposite in2="hardAlpha" operator="out"/>
<feColorMatrix type="matrix" values="0 0 0 0 0 0 0 0 0 0 0 0 0 0 0 0 0 0 0.1 0"/>
<feBlend mode="normal" in2="BackgroundImageFix" result="effect1_dropShadow_63_1907"/>
<feBlend mode="normal" in="SourceGraphic" in2="effect1_dropShadow_63_1907" result="shape"/>
</filter>
<linearGradient id="paint0_linear_63_1907" x1="135.207" y1="19.7067" x2="81.7771" y2="190.815" gradientUnits="userSpaceOnUse">
<stop stop-color="#686566"/>
<stop offset="0.32" stop-color="#231F20"/>
<stop offset="0.68" stop-color="#686566"/>
<stop offset="1" stop-color="#231F20"/>
</linearGradient>
<linearGradient id="paint1_linear_63_1907" x1="24.0273" y1="32.3962" x2="183.971" y2="198.196" gradientUnits="userSpaceOnUse">
<stop stop-color="#444242"/>
<stop offset="1" stop-color="#231F20"/>
</linearGradient>
<linearGradient id="paint2_linear_63_1907" x1="155.772" y1="164.595" x2="148.471" y2="147.295" gradientUnits="userSpaceOnUse">
<stop offset="0.1061" stop-color="#828282"/>
<stop offset="0.4697" stop-color="#CBCBCB"/>
<stop offset="1" stop-color="#858585"/>
</linearGradient>
<linearGradient id="paint3_linear_63_1907" x1="127.486" y1="174.187" x2="122.069" y2="157.598" gradientUnits="userSpaceOnUse">
<stop stop-color="#F7F7F7"/>
<stop offset="0.244792" stop-color="#F7F7F7"/>
<stop offset="1" stop-color="#F7F7F7"/>
</linearGradient>
<clipPath id="clip0_63_1907">
<rect width="210" height="209" fill="white" transform="translate(0 15)"/>
</clipPath>
<clipPath id="clip1_63_1907">
<rect width="136" height="215" fill="white" transform="translate(37)"/>
</clipPath>
</defs>
</svg>
