<svg width="18" height="19" viewBox="0 0 18 19" fill="none" xmlns="http://www.w3.org/2000/svg">
<path d="M17.25 3.5V8H12.75" stroke="#595F69" stroke-width="1.2" stroke-linecap="round" stroke-linejoin="round"/>
<path d="M0.75 15.5V11H5.25" stroke="#595F69" stroke-width="1.2" stroke-linecap="round" stroke-linejoin="round"/>
<path d="M2.6325 7.25C3.01288 6.17508 3.65935 5.21405 4.5116 4.45656C5.36385 3.69907 6.3941 3.16982 7.50621 2.91819C8.61833 2.66656 9.77607 2.70075 10.8714 3.01758C11.9667 3.3344 12.9639 3.92353 13.77 4.73L17.25 8M0.75 11L4.23 14.27C5.03606 15.0765 6.03328 15.6656 7.12861 15.9824C8.22393 16.2992 9.38167 16.3334 10.4938 16.0818C11.6059 15.8302 12.6361 15.3009 13.4884 14.5434C14.3407 13.7859 14.9871 12.8249 15.3675 11.75" stroke="#595F69" stroke-width="1.2" stroke-linecap="round" stroke-linejoin="round"/>
</svg>
