<svg width="51" height="50" viewBox="0 0 51 50" fill="none" xmlns="http://www.w3.org/2000/svg">
<path d="M17.1667 35.4167L25.5 43.75L33.8334 35.4167" stroke="#7167E8" stroke-width="1.2" stroke-linecap="round" stroke-linejoin="round"/>
<path d="M25.5 25V43.75" stroke="#7167E8" stroke-width="1.2" stroke-linecap="round" stroke-linejoin="round"/>
<path d="M44 37.6875C45.8112 36.4138 47.1695 34.5961 47.8777 32.4982C48.5858 30.4003 48.6071 28.1313 47.9383 26.0205C47.2695 23.9096 45.9455 22.0668 44.1585 20.7595C42.3714 19.4521 40.2142 18.7483 38 18.75H35.375C34.7484 16.3081 33.576 14.0401 31.9461 12.1168C30.3161 10.1936 28.2711 8.66511 25.965 7.64655C23.6589 6.628 21.1517 6.14587 18.6323 6.23648C16.1129 6.32708 13.6469 6.98805 11.4199 8.16962C9.19288 9.35119 7.26295 11.0226 5.77537 13.058C4.2878 15.0933 3.28134 17.4397 2.83178 19.9203C2.38221 22.4009 2.50125 24.9512 3.17994 27.3792C3.85863 29.8072 5.07927 32.0495 6.74998 33.9375" stroke="#7167E8" stroke-width="1.2" stroke-linecap="round" stroke-linejoin="round"/>
</svg>
