<svg width="81" height="80" viewBox="0 0 81 80" fill="none" xmlns="http://www.w3.org/2000/svg"><path d="M67.1666 40V73.3333H13.8333V40" stroke="#3F434A" stroke-width="1.5" stroke-linecap="round" stroke-linejoin="round"></path><path d="M73.8334 23.3333H7.16669V39.9999H73.8334V23.3333Z" stroke="#3F434A" stroke-width="1.5" stroke-linecap="round" stroke-linejoin="round"></path><path d="M40.5 73.3333V23.3333" stroke="#3F434A" stroke-width="1.5" stroke-linecap="round" stroke-linejoin="round"></path><path d="M40.5 23.3334H25.5C23.2899 23.3334 21.1703 22.4554 19.6075 20.8926C18.0447 19.3298 17.1667 17.2102 17.1667 15.0001C17.1667 12.7899 18.0447 10.6703 19.6075 9.10752C21.1703 7.54472 23.2899 6.66675 25.5 6.66675C37.1667 6.66675 40.5 23.3334 40.5 23.3334Z" stroke="#3F434A" stroke-width="1.5" stroke-linecap="round" stroke-linejoin="round"></path><path d="M40.5 23.3334H55.5C57.7101 23.3334 59.8298 22.4554 61.3926 20.8926C62.9554 19.3298 63.8333 17.2102 63.8333 15.0001C63.8333 12.7899 62.9554 10.6703 61.3926 9.10752C59.8298 7.54472 57.7101 6.66675 55.5 6.66675C43.8333 6.66675 40.5 23.3334 40.5 23.3334Z" stroke="#3F434A" stroke-width="1.5" stroke-linecap="round" stroke-linejoin="round"></path></svg>