<svg width="345" height="276" viewBox="0 0 345 276" fill="none" xmlns="http://www.w3.org/2000/svg">
<path d="M6.732 7.144C6.732 7.568 6.632 7.968 6.432 8.344C6.232 8.72 5.912 9.028 5.472 9.268C5.032 9.5 4.468 9.616 3.78 9.616H2.268V13H0.9V4.66H3.78C4.42 4.66 4.96 4.772 5.4 4.996C5.848 5.212 6.18 5.508 6.396 5.884C6.62 6.26 6.732 6.68 6.732 7.144ZM3.78 8.5C4.3 8.5 4.688 8.384 4.944 8.152C5.2 7.912 5.328 7.576 5.328 7.144C5.328 6.232 4.812 5.776 3.78 5.776H2.268V8.5H3.78ZM14.0247 6.388V13H12.6567V12.22C12.4407 12.492 12.1567 12.708 11.8047 12.868C11.4607 13.02 11.0927 13.096 10.7007 13.096C10.1807 13.096 9.71272 12.988 9.29672 12.772C8.88872 12.556 8.56472 12.236 8.32472 11.812C8.09272 11.388 7.97672 10.876 7.97672 10.276V6.388H9.33272V10.072C9.33272 10.664 9.48072 11.12 9.77672 11.44C10.0727 11.752 10.4767 11.908 10.9887 11.908C11.5007 11.908 11.9047 11.752 12.2007 11.44C12.5047 11.12 12.6567 10.664 12.6567 10.072V6.388H14.0247ZM17.1977 7.348C17.3977 7.012 17.6617 6.752 17.9897 6.568C18.3257 6.376 18.7217 6.28 19.1777 6.28V7.696H18.8297C18.2937 7.696 17.8857 7.832 17.6057 8.104C17.3337 8.376 17.1977 8.848 17.1977 9.52V13H15.8297V6.388H17.1977V7.348ZM19.9792 9.688C19.9792 9.008 20.1152 8.412 20.3872 7.9C20.6672 7.38 21.0512 6.98 21.5392 6.7C22.0272 6.42 22.5872 6.28 23.2192 6.28C24.0192 6.28 24.6792 6.472 25.1992 6.856C25.7272 7.232 26.0832 7.772 26.2672 8.476H24.7912C24.6712 8.148 24.4792 7.892 24.2152 7.708C23.9512 7.524 23.6192 7.432 23.2192 7.432C22.6592 7.432 22.2112 7.632 21.8752 8.032C21.5472 8.424 21.3832 8.976 21.3832 9.688C21.3832 10.4 21.5472 10.956 21.8752 11.356C22.2112 11.756 22.6592 11.956 23.2192 11.956C24.0112 11.956 24.5352 11.608 24.7912 10.912H26.2672C26.0752 11.584 25.7152 12.12 25.1872 12.52C24.6592 12.912 24.0032 13.108 23.2192 13.108C22.5872 13.108 22.0272 12.968 21.5392 12.688C21.0512 12.4 20.6672 12 20.3872 11.488C20.1152 10.968 19.9792 10.368 19.9792 9.688ZM31.0505 6.28C31.5545 6.28 32.0025 6.388 32.3945 6.604C32.7945 6.82 33.1065 7.14 33.3305 7.564C33.5625 7.988 33.6785 8.5 33.6785 9.1V13H32.3225V9.304C32.3225 8.712 32.1745 8.26 31.8785 7.948C31.5825 7.628 31.1785 7.468 30.6665 7.468C30.1545 7.468 29.7465 7.628 29.4425 7.948C29.1465 8.26 28.9985 8.712 28.9985 9.304V13H27.6305V4.12H28.9985V7.156C29.2305 6.876 29.5225 6.66 29.8745 6.508C30.2345 6.356 30.6265 6.28 31.0505 6.28ZM34.9674 9.664C34.9674 9 35.1034 8.412 35.3754 7.9C35.6554 7.388 36.0314 6.992 36.5034 6.712C36.9834 6.424 37.5114 6.28 38.0874 6.28C38.6074 6.28 39.0594 6.384 39.4434 6.592C39.8354 6.792 40.1474 7.044 40.3794 7.348V6.388H41.7594V13H40.3794V12.016C40.1474 12.328 39.8314 12.588 39.4314 12.796C39.0314 13.004 38.5754 13.108 38.0634 13.108C37.4954 13.108 36.9754 12.964 36.5034 12.676C36.0314 12.38 35.6554 11.972 35.3754 11.452C35.1034 10.924 34.9674 10.328 34.9674 9.664ZM40.3794 9.688C40.3794 9.232 40.2834 8.836 40.0914 8.5C39.9074 8.164 39.6634 7.908 39.3594 7.732C39.0554 7.556 38.7274 7.468 38.3754 7.468C38.0234 7.468 37.6954 7.556 37.3914 7.732C37.0874 7.9 36.8394 8.152 36.6474 8.488C36.4634 8.816 36.3714 9.208 36.3714 9.664C36.3714 10.12 36.4634 10.52 36.6474 10.864C36.8394 11.208 37.0874 11.472 37.3914 11.656C37.7034 11.832 38.0314 11.92 38.3754 11.92C38.7274 11.92 39.0554 11.832 39.3594 11.656C39.6634 11.48 39.9074 11.224 40.0914 10.888C40.2834 10.544 40.3794 10.144 40.3794 9.688ZM45.9563 13.108C45.4363 13.108 44.9683 13.016 44.5523 12.832C44.1443 12.64 43.8203 12.384 43.5803 12.064C43.3403 11.736 43.2123 11.372 43.1963 10.972H44.6123C44.6363 11.252 44.7683 11.488 45.0083 11.68C45.2563 11.864 45.5643 11.956 45.9323 11.956C46.3163 11.956 46.6123 11.884 46.8203 11.74C47.0363 11.588 47.1443 11.396 47.1443 11.164C47.1443 10.916 47.0243 10.732 46.7843 10.612C46.5523 10.492 46.1803 10.36 45.6683 10.216C45.1723 10.08 44.7683 9.948 44.4563 9.82C44.1443 9.692 43.8723 9.496 43.6403 9.232C43.4163 8.968 43.3043 8.62 43.3043 8.188C43.3043 7.836 43.4083 7.516 43.6163 7.228C43.8243 6.932 44.1203 6.7 44.5043 6.532C44.8963 6.364 45.3443 6.28 45.8483 6.28C46.6003 6.28 47.2043 6.472 47.6603 6.856C48.1243 7.232 48.3723 7.748 48.4043 8.404H47.0363C47.0123 8.108 46.8923 7.872 46.6763 7.696C46.4603 7.52 46.1683 7.432 45.8003 7.432C45.4403 7.432 45.1643 7.5 44.9723 7.636C44.7803 7.772 44.6843 7.952 44.6843 8.176C44.6843 8.352 44.7483 8.5 44.8763 8.62C45.0043 8.74 45.1603 8.836 45.3443 8.908C45.5283 8.972 45.8003 9.056 46.1603 9.16C46.6403 9.288 47.0323 9.42 47.3363 9.556C47.6483 9.684 47.9163 9.876 48.1403 10.132C48.3643 10.388 48.4803 10.728 48.4883 11.152C48.4883 11.528 48.3843 11.864 48.1763 12.16C47.9683 12.456 47.6723 12.688 47.2883 12.856C46.9123 13.024 46.4683 13.108 45.9563 13.108ZM56.0264 9.532C56.0264 9.78 56.0104 10.004 55.9784 10.204H50.9264C50.9664 10.732 51.1624 11.156 51.5144 11.476C51.8664 11.796 52.2984 11.956 52.8104 11.956C53.5464 11.956 54.0664 11.648 54.3704 11.032H55.8464C55.6464 11.64 55.2824 12.14 54.7544 12.532C54.2344 12.916 53.5864 13.108 52.8104 13.108C52.1784 13.108 51.6104 12.968 51.1064 12.688C50.6104 12.4 50.2184 12 49.9304 11.488C49.6504 10.968 49.5104 10.368 49.5104 9.688C49.5104 9.008 49.6464 8.412 49.9184 7.9C50.1984 7.38 50.5864 6.98 51.0824 6.7C51.5864 6.42 52.1624 6.28 52.8104 6.28C53.4344 6.28 53.9904 6.416 54.4784 6.688C54.9664 6.96 55.3464 7.344 55.6184 7.84C55.8904 8.328 56.0264 8.892 56.0264 9.532ZM54.5984 9.1C54.5904 8.596 54.4104 8.192 54.0584 7.888C53.7064 7.584 53.2704 7.432 52.7504 7.432C52.2784 7.432 51.8744 7.584 51.5384 7.888C51.2024 8.184 51.0024 8.588 50.9384 9.1H54.5984ZM64.2938 13.084C63.5178 13.084 62.8018 12.904 62.1458 12.544C61.4978 12.176 60.9818 11.668 60.5978 11.02C60.2218 10.364 60.0338 9.628 60.0338 8.812C60.0338 7.996 60.2218 7.264 60.5978 6.616C60.9818 5.968 61.4978 5.464 62.1458 5.104C62.8018 4.736 63.5178 4.552 64.2938 4.552C65.0778 4.552 65.7938 4.736 66.4418 5.104C67.0978 5.464 67.6138 5.968 67.9898 6.616C68.3658 7.264 68.5538 7.996 68.5538 8.812C68.5538 9.628 68.3658 10.364 67.9898 11.02C67.6138 11.668 67.0978 12.176 66.4418 12.544C65.7938 12.904 65.0778 13.084 64.2938 13.084ZM64.2938 11.896C64.8458 11.896 65.3378 11.772 65.7698 11.524C66.2018 11.268 66.5378 10.908 66.7778 10.444C67.0258 9.972 67.1498 9.428 67.1498 8.812C67.1498 8.196 67.0258 7.656 66.7778 7.192C66.5378 6.728 66.2018 6.372 65.7698 6.124C65.3378 5.876 64.8458 5.752 64.2938 5.752C63.7418 5.752 63.2498 5.876 62.8178 6.124C62.3858 6.372 62.0458 6.728 61.7978 7.192C61.5578 7.656 61.4378 8.196 61.4378 8.812C61.4378 9.428 61.5578 9.972 61.7978 10.444C62.0458 10.908 62.3858 11.268 62.8178 11.524C63.2498 11.772 63.7418 11.896 64.2938 11.896ZM71.268 7.36C71.5 7.056 71.816 6.8 72.216 6.592C72.616 6.384 73.068 6.28 73.572 6.28C74.148 6.28 74.672 6.424 75.144 6.712C75.624 6.992 76 7.388 76.272 7.9C76.544 8.412 76.68 9 76.68 9.664C76.68 10.328 76.544 10.924 76.272 11.452C76 11.972 75.624 12.38 75.144 12.676C74.672 12.964 74.148 13.108 73.572 13.108C73.068 13.108 72.62 13.008 72.228 12.808C71.836 12.6 71.516 12.344 71.268 12.04V16.144H69.9V6.388H71.268V7.36ZM75.288 9.664C75.288 9.208 75.192 8.816 75 8.488C74.816 8.152 74.568 7.9 74.256 7.732C73.952 7.556 73.624 7.468 73.272 7.468C72.928 7.468 72.6 7.556 72.288 7.732C71.984 7.908 71.736 8.164 71.544 8.5C71.36 8.836 71.268 9.232 71.268 9.688C71.268 10.144 71.36 10.544 71.544 10.888C71.736 11.224 71.984 11.48 72.288 11.656C72.6 11.832 72.928 11.92 73.272 11.92C73.624 11.92 73.952 11.832 74.256 11.656C74.568 11.472 74.816 11.208 75 10.864C75.192 10.52 75.288 10.12 75.288 9.664ZM79.6288 7.504V11.164C79.6288 11.412 79.6848 11.592 79.7968 11.704C79.9168 11.808 80.1168 11.86 80.3968 11.86H81.2368V13H80.1568C79.5408 13 79.0688 12.856 78.7408 12.568C78.4128 12.28 78.2488 11.812 78.2488 11.164V7.504H77.4688V6.388H78.2488V4.744H79.6288V6.388H81.2368V7.504H79.6288ZM83.1937 5.512C82.9457 5.512 82.7377 5.428 82.5697 5.26C82.4017 5.092 82.3177 4.884 82.3177 4.636C82.3177 4.388 82.4017 4.18 82.5697 4.012C82.7377 3.844 82.9457 3.76 83.1937 3.76C83.4337 3.76 83.6377 3.844 83.8057 4.012C83.9737 4.18 84.0577 4.388 84.0577 4.636C84.0577 4.884 83.9737 5.092 83.8057 5.26C83.6377 5.428 83.4337 5.512 83.1937 5.512ZM83.8657 6.388V13H82.4977V6.388H83.8657ZM88.5297 13.108C87.9057 13.108 87.3417 12.968 86.8377 12.688C86.3337 12.4 85.9377 12 85.6497 11.488C85.3617 10.968 85.2177 10.368 85.2177 9.688C85.2177 9.016 85.3657 8.42 85.6617 7.9C85.9577 7.38 86.3617 6.98 86.8737 6.7C87.3857 6.42 87.9577 6.28 88.5897 6.28C89.2217 6.28 89.7937 6.42 90.3057 6.7C90.8177 6.98 91.2217 7.38 91.5177 7.9C91.8137 8.42 91.9617 9.016 91.9617 9.688C91.9617 10.36 91.8097 10.956 91.5057 11.476C91.2017 11.996 90.7857 12.4 90.2577 12.688C89.7377 12.968 89.1617 13.108 88.5297 13.108ZM88.5297 11.92C88.8817 11.92 89.2097 11.836 89.5137 11.668C89.8257 11.5 90.0777 11.248 90.2697 10.912C90.4617 10.576 90.5577 10.168 90.5577 9.688C90.5577 9.208 90.4657 8.804 90.2817 8.476C90.0977 8.14 89.8537 7.888 89.5497 7.72C89.2457 7.552 88.9177 7.468 88.5657 7.468C88.2137 7.468 87.8857 7.552 87.5817 7.72C87.2857 7.888 87.0497 8.14 86.8737 8.476C86.6977 8.804 86.6097 9.208 86.6097 9.688C86.6097 10.4 86.7897 10.952 87.1497 11.344C87.5177 11.728 87.9777 11.92 88.5297 11.92ZM96.6501 6.28C97.1701 6.28 97.6341 6.388 98.0421 6.604C98.4581 6.82 98.7821 7.14 99.0141 7.564C99.2461 7.988 99.3621 8.5 99.3621 9.1V13H98.0061V9.304C98.0061 8.712 97.8581 8.26 97.5621 7.948C97.2661 7.628 96.8621 7.468 96.3501 7.468C95.8381 7.468 95.4301 7.628 95.1261 7.948C94.8301 8.26 94.6821 8.712 94.6821 9.304V13H93.3141V6.388H94.6821V7.144C94.9061 6.872 95.1901 6.66 95.5341 6.508C95.8861 6.356 96.2581 6.28 96.6501 6.28ZM103.507 13.108C102.987 13.108 102.519 13.016 102.103 12.832C101.695 12.64 101.371 12.384 101.131 12.064C100.891 11.736 100.763 11.372 100.747 10.972H102.163C102.187 11.252 102.319 11.488 102.559 11.68C102.807 11.864 103.115 11.956 103.483 11.956C103.867 11.956 104.163 11.884 104.371 11.74C104.587 11.588 104.695 11.396 104.695 11.164C104.695 10.916 104.575 10.732 104.335 10.612C104.103 10.492 103.731 10.36 103.219 10.216C102.723 10.08 102.319 9.948 102.007 9.82C101.695 9.692 101.423 9.496 101.191 9.232C100.967 8.968 100.855 8.62 100.855 8.188C100.855 7.836 100.959 7.516 101.167 7.228C101.375 6.932 101.671 6.7 102.055 6.532C102.447 6.364 102.895 6.28 103.399 6.28C104.151 6.28 104.755 6.472 105.211 6.856C105.675 7.232 105.923 7.748 105.955 8.404H104.587C104.563 8.108 104.443 7.872 104.227 7.696C104.011 7.52 103.719 7.432 103.351 7.432C102.991 7.432 102.715 7.5 102.523 7.636C102.331 7.772 102.235 7.952 102.235 8.176C102.235 8.352 102.299 8.5 102.427 8.62C102.555 8.74 102.711 8.836 102.895 8.908C103.079 8.972 103.351 9.056 103.711 9.16C104.191 9.288 104.583 9.42 104.887 9.556C105.199 9.684 105.467 9.876 105.691 10.132C105.915 10.388 106.031 10.728 106.039 11.152C106.039 11.528 105.935 11.864 105.727 12.16C105.519 12.456 105.223 12.688 104.839 12.856C104.463 13.024 104.019 13.108 103.507 13.108Z" fill="black"/>
<rect width="167.5" height="68" transform="translate(0 28)" fill="#F6F6F8"/>
<path d="M35.25 66.6666V57.3333C35.2496 56.9241 35.1416 56.5222 34.9368 56.168C34.732 55.8137 34.4377 55.5196 34.0833 55.315L25.9167 50.6483C25.562 50.4435 25.1596 50.3357 24.75 50.3357C24.3404 50.3357 23.938 50.4435 23.5833 50.6483L15.4167 55.315C15.0623 55.5196 14.768 55.8137 14.5632 56.168C14.3584 56.5222 14.2504 56.9241 14.25 57.3333V66.6666C14.2504 67.0758 14.3584 67.4777 14.5632 67.8319C14.768 68.1862 15.0623 68.4804 15.4167 68.685L23.5833 73.3516C23.938 73.5564 24.3404 73.6642 24.75 73.6642C25.1596 73.6642 25.562 73.5564 25.9167 73.3516L34.0833 68.685C34.4377 68.4804 34.732 68.1862 34.9368 67.8319C35.1416 67.4777 35.2496 67.0758 35.25 66.6666Z" stroke="#3F434A" stroke-width="1.5" stroke-linecap="round" stroke-linejoin="round"/>
<path d="M14.5649 56.1201L24.7499 62.0118L34.9349 56.1201" stroke="#3F434A" stroke-width="1.5" stroke-linecap="round" stroke-linejoin="round"/>
<path d="M24.75 73.76V62" stroke="#3F434A" stroke-width="1.5" stroke-linecap="round" stroke-linejoin="round"/>
<path d="M53.982 66L52.062 62.664H51.018V66H49.65V57.66H52.53C53.17 57.66 53.71 57.772 54.15 57.996C54.598 58.22 54.93 58.52 55.146 58.896C55.37 59.272 55.482 59.692 55.482 60.156C55.482 60.7 55.322 61.196 55.002 61.644C54.69 62.084 54.206 62.384 53.55 62.544L55.614 66H53.982ZM51.018 61.572H52.53C53.042 61.572 53.426 61.444 53.682 61.188C53.946 60.932 54.078 60.588 54.078 60.156C54.078 59.724 53.95 59.388 53.694 59.148C53.438 58.9 53.05 58.776 52.53 58.776H51.018V61.572ZM63.292 62.532C63.292 62.78 63.276 63.004 63.244 63.204H58.192C58.232 63.732 58.428 64.156 58.78 64.476C59.132 64.796 59.564 64.956 60.076 64.956C60.812 64.956 61.332 64.648 61.636 64.032H63.112C62.912 64.64 62.548 65.14 62.02 65.532C61.5 65.916 60.852 66.108 60.076 66.108C59.444 66.108 58.876 65.968 58.372 65.688C57.876 65.4 57.484 65 57.196 64.488C56.916 63.968 56.776 63.368 56.776 62.688C56.776 62.008 56.912 61.412 57.184 60.9C57.464 60.38 57.852 59.98 58.348 59.7C58.852 59.42 59.428 59.28 60.076 59.28C60.7 59.28 61.256 59.416 61.744 59.688C62.232 59.96 62.612 60.344 62.884 60.84C63.156 61.328 63.292 61.892 63.292 62.532ZM61.864 62.1C61.856 61.596 61.676 61.192 61.324 60.888C60.972 60.584 60.536 60.432 60.016 60.432C59.544 60.432 59.14 60.584 58.804 60.888C58.468 61.184 58.268 61.588 58.204 62.1H61.864ZM67.3023 59.28C67.8143 59.28 68.2663 59.384 68.6583 59.592C69.0583 59.792 69.3703 60.044 69.5943 60.348V59.388H70.9743V66.108C70.9743 66.716 70.8463 67.256 70.5903 67.728C70.3343 68.208 69.9623 68.584 69.4743 68.856C68.9943 69.128 68.4183 69.264 67.7463 69.264C66.8503 69.264 66.1063 69.052 65.5143 68.628C64.9223 68.212 64.5863 67.644 64.5063 66.924H65.8623C65.9663 67.268 66.1863 67.544 66.5223 67.752C66.8663 67.968 67.2743 68.076 67.7463 68.076C68.2983 68.076 68.7423 67.908 69.0783 67.572C69.4223 67.236 69.5943 66.748 69.5943 66.108V65.004C69.3623 65.316 69.0463 65.58 68.6463 65.796C68.2543 66.004 67.8063 66.108 67.3023 66.108C66.7263 66.108 66.1983 65.964 65.7183 65.676C65.2463 65.38 64.8703 64.972 64.5903 64.452C64.3183 63.924 64.1823 63.328 64.1823 62.664C64.1823 62 64.3183 61.412 64.5903 60.9C64.8703 60.388 65.2463 59.992 65.7183 59.712C66.1983 59.424 66.7263 59.28 67.3023 59.28ZM69.5943 62.688C69.5943 62.232 69.4983 61.836 69.3063 61.5C69.1223 61.164 68.8783 60.908 68.5743 60.732C68.2703 60.556 67.9423 60.468 67.5903 60.468C67.2383 60.468 66.9103 60.556 66.6063 60.732C66.3023 60.9 66.0543 61.152 65.8623 61.488C65.6783 61.816 65.5863 62.208 65.5863 62.664C65.5863 63.12 65.6783 63.52 65.8623 63.864C66.0543 64.208 66.3023 64.472 66.6063 64.656C66.9183 64.832 67.2463 64.92 67.5903 64.92C67.9423 64.92 68.2703 64.832 68.5743 64.656C68.8783 64.48 69.1223 64.224 69.3063 63.888C69.4983 63.544 69.5943 63.144 69.5943 62.688ZM78.7591 59.388V66H77.3911V65.22C77.1751 65.492 76.8911 65.708 76.5391 65.868C76.1951 66.02 75.8271 66.096 75.4351 66.096C74.9151 66.096 74.4471 65.988 74.0311 65.772C73.6231 65.556 73.2991 65.236 73.0591 64.812C72.8271 64.388 72.7111 63.876 72.7111 63.276V59.388H74.0671V63.072C74.0671 63.664 74.2151 64.12 74.5111 64.44C74.8071 64.752 75.2111 64.908 75.7231 64.908C76.2351 64.908 76.6391 64.752 76.9351 64.44C77.2391 64.12 77.3911 63.664 77.3911 63.072V59.388H78.7591ZM81.9321 57.12V66H80.5641V57.12H81.9321ZM83.2721 62.664C83.2721 62 83.4081 61.412 83.6801 60.9C83.9601 60.388 84.3361 59.992 84.8081 59.712C85.2881 59.424 85.8161 59.28 86.3921 59.28C86.9121 59.28 87.3641 59.384 87.7481 59.592C88.1401 59.792 88.4521 60.044 88.6841 60.348V59.388H90.0641V66H88.6841V65.016C88.4521 65.328 88.1361 65.588 87.7361 65.796C87.3361 66.004 86.8801 66.108 86.3681 66.108C85.8001 66.108 85.2801 65.964 84.8081 65.676C84.3361 65.38 83.9601 64.972 83.6801 64.452C83.4081 63.924 83.2721 63.328 83.2721 62.664ZM88.6841 62.688C88.6841 62.232 88.5881 61.836 88.3961 61.5C88.2121 61.164 87.9681 60.908 87.6641 60.732C87.3601 60.556 87.0321 60.468 86.6801 60.468C86.3281 60.468 86.0001 60.556 85.6961 60.732C85.3921 60.9 85.1441 61.152 84.9521 61.488C84.7681 61.816 84.6761 62.208 84.6761 62.664C84.6761 63.12 84.7681 63.52 84.9521 63.864C85.1441 64.208 85.3921 64.472 85.6961 64.656C86.0081 64.832 86.3361 64.92 86.6801 64.92C87.0321 64.92 87.3601 64.832 87.6641 64.656C87.9681 64.48 88.2121 64.224 88.3961 63.888C88.5881 63.544 88.6841 63.144 88.6841 62.688ZM93.2289 60.348C93.4289 60.012 93.6929 59.752 94.0209 59.568C94.3569 59.376 94.7529 59.28 95.2089 59.28V60.696H94.8609C94.3249 60.696 93.9169 60.832 93.6369 61.104C93.3649 61.376 93.2289 61.848 93.2289 62.52V66H91.8609V59.388H93.2289V60.348ZM100.952 60.36C101.184 60.056 101.5 59.8 101.9 59.592C102.3 59.384 102.752 59.28 103.256 59.28C103.832 59.28 104.356 59.424 104.828 59.712C105.308 59.992 105.684 60.388 105.956 60.9C106.228 61.412 106.364 62 106.364 62.664C106.364 63.328 106.228 63.924 105.956 64.452C105.684 64.972 105.308 65.38 104.828 65.676C104.356 65.964 103.832 66.108 103.256 66.108C102.752 66.108 102.304 66.008 101.912 65.808C101.52 65.6 101.2 65.344 100.952 65.04V69.144H99.5836V59.388H100.952V60.36ZM104.972 62.664C104.972 62.208 104.876 61.816 104.684 61.488C104.5 61.152 104.252 60.9 103.94 60.732C103.636 60.556 103.308 60.468 102.956 60.468C102.612 60.468 102.284 60.556 101.972 60.732C101.668 60.908 101.42 61.164 101.228 61.5C101.044 61.836 100.952 62.232 100.952 62.688C100.952 63.144 101.044 63.544 101.228 63.888C101.42 64.224 101.668 64.48 101.972 64.656C102.284 64.832 102.612 64.92 102.956 64.92C103.308 64.92 103.636 64.832 103.94 64.656C104.252 64.472 104.5 64.208 104.684 63.864C104.876 63.52 104.972 63.12 104.972 62.664ZM113.704 59.388V66H112.336V65.22C112.12 65.492 111.836 65.708 111.484 65.868C111.14 66.02 110.772 66.096 110.38 66.096C109.86 66.096 109.392 65.988 108.976 65.772C108.568 65.556 108.244 65.236 108.004 64.812C107.772 64.388 107.656 63.876 107.656 63.276V59.388H109.012V63.072C109.012 63.664 109.16 64.12 109.456 64.44C109.752 64.752 110.156 64.908 110.668 64.908C111.18 64.908 111.584 64.752 111.88 64.44C112.184 64.12 112.336 63.664 112.336 63.072V59.388H113.704ZM116.877 60.348C117.077 60.012 117.341 59.752 117.669 59.568C118.005 59.376 118.401 59.28 118.857 59.28V60.696H118.509C117.973 60.696 117.565 60.832 117.285 61.104C117.013 61.376 116.877 61.848 116.877 62.52V66H115.509V59.388H116.877V60.348ZM119.659 62.688C119.659 62.008 119.795 61.412 120.067 60.9C120.347 60.38 120.731 59.98 121.219 59.7C121.707 59.42 122.267 59.28 122.899 59.28C123.699 59.28 124.359 59.472 124.879 59.856C125.407 60.232 125.763 60.772 125.947 61.476H124.471C124.351 61.148 124.159 60.892 123.895 60.708C123.631 60.524 123.299 60.432 122.899 60.432C122.339 60.432 121.891 60.632 121.555 61.032C121.227 61.424 121.063 61.976 121.063 62.688C121.063 63.4 121.227 63.956 121.555 64.356C121.891 64.756 122.339 64.956 122.899 64.956C123.691 64.956 124.215 64.608 124.471 63.912H125.947C125.755 64.584 125.395 65.12 124.867 65.52C124.339 65.912 123.683 66.108 122.899 66.108C122.267 66.108 121.707 65.968 121.219 65.688C120.731 65.4 120.347 65 120.067 64.488C119.795 63.968 119.659 63.368 119.659 62.688ZM130.73 59.28C131.234 59.28 131.682 59.388 132.074 59.604C132.474 59.82 132.786 60.14 133.01 60.564C133.242 60.988 133.358 61.5 133.358 62.1V66H132.002V62.304C132.002 61.712 131.854 61.26 131.558 60.948C131.262 60.628 130.858 60.468 130.346 60.468C129.834 60.468 129.426 60.628 129.122 60.948C128.826 61.26 128.678 61.712 128.678 62.304V66H127.31V57.12H128.678V60.156C128.91 59.876 129.202 59.66 129.554 59.508C129.914 59.356 130.306 59.28 130.73 59.28ZM134.647 62.664C134.647 62 134.783 61.412 135.055 60.9C135.335 60.388 135.711 59.992 136.183 59.712C136.663 59.424 137.191 59.28 137.767 59.28C138.287 59.28 138.739 59.384 139.123 59.592C139.515 59.792 139.827 60.044 140.059 60.348V59.388H141.439V66H140.059V65.016C139.827 65.328 139.511 65.588 139.111 65.796C138.711 66.004 138.255 66.108 137.743 66.108C137.175 66.108 136.655 65.964 136.183 65.676C135.711 65.38 135.335 64.972 135.055 64.452C134.783 63.924 134.647 63.328 134.647 62.664ZM140.059 62.688C140.059 62.232 139.963 61.836 139.771 61.5C139.587 61.164 139.343 60.908 139.039 60.732C138.735 60.556 138.407 60.468 138.055 60.468C137.703 60.468 137.375 60.556 137.071 60.732C136.767 60.9 136.519 61.152 136.327 61.488C136.143 61.816 136.051 62.208 136.051 62.664C136.051 63.12 136.143 63.52 136.327 63.864C136.519 64.208 136.767 64.472 137.071 64.656C137.383 64.832 137.711 64.92 138.055 64.92C138.407 64.92 138.735 64.832 139.039 64.656C139.343 64.48 139.587 64.224 139.771 63.888C139.963 63.544 140.059 63.144 140.059 62.688ZM145.636 66.108C145.116 66.108 144.648 66.016 144.232 65.832C143.824 65.64 143.5 65.384 143.26 65.064C143.02 64.736 142.892 64.372 142.876 63.972H144.292C144.316 64.252 144.448 64.488 144.688 64.68C144.936 64.864 145.244 64.956 145.612 64.956C145.996 64.956 146.292 64.884 146.5 64.74C146.716 64.588 146.824 64.396 146.824 64.164C146.824 63.916 146.704 63.732 146.464 63.612C146.232 63.492 145.86 63.36 145.348 63.216C144.852 63.08 144.448 62.948 144.136 62.82C143.824 62.692 143.552 62.496 143.32 62.232C143.096 61.968 142.984 61.62 142.984 61.188C142.984 60.836 143.088 60.516 143.296 60.228C143.504 59.932 143.8 59.7 144.184 59.532C144.576 59.364 145.024 59.28 145.528 59.28C146.28 59.28 146.884 59.472 147.34 59.856C147.804 60.232 148.052 60.748 148.084 61.404H146.716C146.692 61.108 146.572 60.872 146.356 60.696C146.14 60.52 145.848 60.432 145.48 60.432C145.12 60.432 144.844 60.5 144.652 60.636C144.46 60.772 144.364 60.952 144.364 61.176C144.364 61.352 144.428 61.5 144.556 61.62C144.684 61.74 144.84 61.836 145.024 61.908C145.208 61.972 145.48 62.056 145.84 62.16C146.32 62.288 146.712 62.42 147.016 62.556C147.328 62.684 147.596 62.876 147.82 63.132C148.044 63.388 148.16 63.728 148.168 64.152C148.168 64.528 148.064 64.864 147.856 65.16C147.648 65.456 147.352 65.688 146.968 65.856C146.592 66.024 146.148 66.108 145.636 66.108ZM155.706 62.532C155.706 62.78 155.69 63.004 155.658 63.204H150.606C150.646 63.732 150.842 64.156 151.194 64.476C151.546 64.796 151.978 64.956 152.49 64.956C153.226 64.956 153.746 64.648 154.05 64.032H155.526C155.326 64.64 154.962 65.14 154.434 65.532C153.914 65.916 153.266 66.108 152.49 66.108C151.858 66.108 151.29 65.968 150.786 65.688C150.29 65.4 149.898 65 149.61 64.488C149.33 63.968 149.19 63.368 149.19 62.688C149.19 62.008 149.326 61.412 149.598 60.9C149.878 60.38 150.266 59.98 150.762 59.7C151.266 59.42 151.842 59.28 152.49 59.28C153.114 59.28 153.67 59.416 154.158 59.688C154.646 59.96 155.026 60.344 155.298 60.84C155.57 61.328 155.706 61.892 155.706 62.532ZM154.278 62.1C154.27 61.596 154.09 61.192 153.738 60.888C153.386 60.584 152.95 60.432 152.43 60.432C151.958 60.432 151.554 60.584 151.218 60.888C150.882 61.184 150.682 61.588 150.618 62.1H154.278Z" fill="#3F434A"/>
<rect x="178" y="28.5" width="166.5" height="67" fill="#F6F6F8"/>
<g clip-path="url(#clip0_947_1708)">
<path d="M230.417 51.5H212.917V66.6667H230.417V51.5Z" stroke="#2D292A" stroke-width="1.5" stroke-linecap="round" stroke-linejoin="round"/>
<path d="M230.417 57.3333H235.083L238.583 60.8333V66.6666H230.417V57.3333Z" stroke="#2D292A" stroke-width="1.5" stroke-linecap="round" stroke-linejoin="round"/>
<path d="M218.167 72.5001C219.777 72.5001 221.083 71.1942 221.083 69.5834C221.083 67.9726 219.777 66.6667 218.167 66.6667C216.556 66.6667 215.25 67.9726 215.25 69.5834C215.25 71.1942 216.556 72.5001 218.167 72.5001Z" stroke="#2D292A" stroke-width="1.5" stroke-linecap="round" stroke-linejoin="round"/>
<path d="M233.333 72.5001C234.944 72.5001 236.25 71.1942 236.25 69.5834C236.25 67.9726 234.944 66.6667 233.333 66.6667C231.723 66.6667 230.417 67.9726 230.417 69.5834C230.417 71.1942 231.723 72.5001 233.333 72.5001Z" stroke="#2D292A" stroke-width="1.5" stroke-linecap="round" stroke-linejoin="round"/>
</g>
<path d="M253.857 66.084C253.297 66.084 252.793 65.988 252.345 65.796C251.897 65.596 251.545 65.316 251.289 64.956C251.033 64.596 250.905 64.176 250.905 63.696H252.369C252.401 64.056 252.541 64.352 252.789 64.584C253.045 64.816 253.401 64.932 253.857 64.932C254.329 64.932 254.697 64.82 254.961 64.596C255.225 64.364 255.357 64.068 255.357 63.708C255.357 63.428 255.273 63.2 255.105 63.024C254.945 62.848 254.741 62.712 254.493 62.616C254.253 62.52 253.917 62.416 253.485 62.304C252.941 62.16 252.497 62.016 252.153 61.872C251.817 61.72 251.529 61.488 251.289 61.176C251.049 60.864 250.929 60.448 250.929 59.928C250.929 59.448 251.049 59.028 251.289 58.668C251.529 58.308 251.865 58.032 252.297 57.84C252.729 57.648 253.229 57.552 253.797 57.552C254.605 57.552 255.265 57.756 255.777 58.164C256.297 58.564 256.585 59.116 256.641 59.82H255.129C255.105 59.516 254.961 59.256 254.697 59.04C254.433 58.824 254.085 58.716 253.653 58.716C253.261 58.716 252.941 58.816 252.693 59.016C252.445 59.216 252.321 59.504 252.321 59.88C252.321 60.136 252.397 60.348 252.549 60.516C252.709 60.676 252.909 60.804 253.149 60.9C253.389 60.996 253.717 61.1 254.133 61.212C254.685 61.364 255.133 61.516 255.477 61.668C255.829 61.82 256.125 62.056 256.365 62.376C256.613 62.688 256.737 63.108 256.737 63.636C256.737 64.06 256.621 64.46 256.389 64.836C256.165 65.212 255.833 65.516 255.393 65.748C254.961 65.972 254.449 66.084 253.857 66.084ZM264.339 59.388V66H262.971V65.22C262.755 65.492 262.471 65.708 262.119 65.868C261.775 66.02 261.407 66.096 261.015 66.096C260.495 66.096 260.027 65.988 259.611 65.772C259.203 65.556 258.879 65.236 258.639 64.812C258.407 64.388 258.291 63.876 258.291 63.276V59.388H259.647V63.072C259.647 63.664 259.795 64.12 260.091 64.44C260.387 64.752 260.791 64.908 261.303 64.908C261.815 64.908 262.219 64.752 262.515 64.44C262.819 64.12 262.971 63.664 262.971 63.072V59.388H264.339ZM267.512 60.372C267.744 60.052 268.06 59.792 268.46 59.592C268.868 59.384 269.32 59.28 269.816 59.28C270.4 59.28 270.928 59.42 271.4 59.7C271.872 59.98 272.244 60.38 272.516 60.9C272.788 61.412 272.924 62 272.924 62.664C272.924 63.328 272.788 63.924 272.516 64.452C272.244 64.972 271.868 65.38 271.388 65.676C270.916 65.964 270.392 66.108 269.816 66.108C269.304 66.108 268.848 66.008 268.448 65.808C268.056 65.608 267.744 65.352 267.512 65.04V66H266.144V57.12H267.512V60.372ZM271.532 62.664C271.532 62.208 271.436 61.816 271.244 61.488C271.06 61.152 270.812 60.9 270.5 60.732C270.196 60.556 269.868 60.468 269.516 60.468C269.172 60.468 268.844 60.556 268.532 60.732C268.228 60.908 267.98 61.164 267.788 61.5C267.604 61.836 267.512 62.232 267.512 62.688C267.512 63.144 267.604 63.544 267.788 63.888C267.98 64.224 268.228 64.48 268.532 64.656C268.844 64.832 269.172 64.92 269.516 64.92C269.868 64.92 270.196 64.832 270.5 64.656C270.812 64.472 271.06 64.208 271.244 63.864C271.436 63.52 271.532 63.12 271.532 62.664ZM276.677 66.108C276.157 66.108 275.689 66.016 275.273 65.832C274.865 65.64 274.541 65.384 274.301 65.064C274.061 64.736 273.933 64.372 273.917 63.972H275.333C275.357 64.252 275.489 64.488 275.729 64.68C275.977 64.864 276.285 64.956 276.653 64.956C277.037 64.956 277.333 64.884 277.541 64.74C277.757 64.588 277.865 64.396 277.865 64.164C277.865 63.916 277.745 63.732 277.505 63.612C277.273 63.492 276.901 63.36 276.389 63.216C275.893 63.08 275.489 62.948 275.177 62.82C274.865 62.692 274.593 62.496 274.361 62.232C274.137 61.968 274.025 61.62 274.025 61.188C274.025 60.836 274.129 60.516 274.337 60.228C274.545 59.932 274.841 59.7 275.225 59.532C275.617 59.364 276.065 59.28 276.569 59.28C277.321 59.28 277.925 59.472 278.381 59.856C278.845 60.232 279.093 60.748 279.125 61.404H277.757C277.733 61.108 277.613 60.872 277.397 60.696C277.181 60.52 276.889 60.432 276.521 60.432C276.161 60.432 275.885 60.5 275.693 60.636C275.501 60.772 275.405 60.952 275.405 61.176C275.405 61.352 275.469 61.5 275.597 61.62C275.725 61.74 275.881 61.836 276.065 61.908C276.249 61.972 276.521 62.056 276.881 62.16C277.361 62.288 277.753 62.42 278.057 62.556C278.369 62.684 278.637 62.876 278.861 63.132C279.085 63.388 279.201 63.728 279.209 64.152C279.209 64.528 279.105 64.864 278.897 65.16C278.689 65.456 278.393 65.688 278.009 65.856C277.633 66.024 277.189 66.108 276.677 66.108ZM280.231 62.688C280.231 62.008 280.367 61.412 280.639 60.9C280.919 60.38 281.303 59.98 281.791 59.7C282.279 59.42 282.839 59.28 283.471 59.28C284.271 59.28 284.931 59.472 285.451 59.856C285.979 60.232 286.335 60.772 286.519 61.476H285.043C284.923 61.148 284.731 60.892 284.467 60.708C284.203 60.524 283.871 60.432 283.471 60.432C282.911 60.432 282.463 60.632 282.127 61.032C281.799 61.424 281.635 61.976 281.635 62.688C281.635 63.4 281.799 63.956 282.127 64.356C282.463 64.756 282.911 64.956 283.471 64.956C284.263 64.956 284.787 64.608 285.043 63.912H286.519C286.327 64.584 285.967 65.12 285.439 65.52C284.911 65.912 284.255 66.108 283.471 66.108C282.839 66.108 282.279 65.968 281.791 65.688C281.303 65.4 280.919 65 280.639 64.488C280.367 63.968 280.231 63.368 280.231 62.688ZM289.25 60.348C289.45 60.012 289.714 59.752 290.042 59.568C290.378 59.376 290.774 59.28 291.23 59.28V60.696H290.882C290.346 60.696 289.938 60.832 289.658 61.104C289.386 61.376 289.25 61.848 289.25 62.52V66H287.882V59.388H289.25V60.348ZM293.184 58.512C292.936 58.512 292.728 58.428 292.56 58.26C292.392 58.092 292.308 57.884 292.308 57.636C292.308 57.388 292.392 57.18 292.56 57.012C292.728 56.844 292.936 56.76 293.184 56.76C293.424 56.76 293.628 56.844 293.796 57.012C293.964 57.18 294.048 57.388 294.048 57.636C294.048 57.884 293.964 58.092 293.796 58.26C293.628 58.428 293.424 58.512 293.184 58.512ZM293.856 59.388V66H292.488V59.388H293.856ZM297.02 60.372C297.252 60.052 297.568 59.792 297.968 59.592C298.376 59.384 298.828 59.28 299.324 59.28C299.908 59.28 300.436 59.42 300.908 59.7C301.38 59.98 301.752 60.38 302.024 60.9C302.296 61.412 302.432 62 302.432 62.664C302.432 63.328 302.296 63.924 302.024 64.452C301.752 64.972 301.376 65.38 300.896 65.676C300.424 65.964 299.9 66.108 299.324 66.108C298.812 66.108 298.356 66.008 297.956 65.808C297.564 65.608 297.252 65.352 297.02 65.04V66H295.652V57.12H297.02V60.372ZM301.04 62.664C301.04 62.208 300.944 61.816 300.752 61.488C300.568 61.152 300.32 60.9 300.008 60.732C299.704 60.556 299.376 60.468 299.024 60.468C298.68 60.468 298.352 60.556 298.04 60.732C297.736 60.908 297.488 61.164 297.296 61.5C297.112 61.836 297.02 62.232 297.02 62.688C297.02 63.144 297.112 63.544 297.296 63.888C297.488 64.224 297.736 64.48 298.04 64.656C298.352 64.832 298.68 64.92 299.024 64.92C299.376 64.92 299.704 64.832 300.008 64.656C300.32 64.472 300.568 64.208 300.752 63.864C300.944 63.52 301.04 63.12 301.04 62.664ZM309.845 62.532C309.845 62.78 309.829 63.004 309.797 63.204H304.745C304.785 63.732 304.981 64.156 305.333 64.476C305.685 64.796 306.117 64.956 306.629 64.956C307.365 64.956 307.885 64.648 308.189 64.032H309.665C309.465 64.64 309.101 65.14 308.573 65.532C308.053 65.916 307.405 66.108 306.629 66.108C305.997 66.108 305.429 65.968 304.925 65.688C304.429 65.4 304.037 65 303.749 64.488C303.469 63.968 303.329 63.368 303.329 62.688C303.329 62.008 303.465 61.412 303.737 60.9C304.017 60.38 304.405 59.98 304.901 59.7C305.405 59.42 305.981 59.28 306.629 59.28C307.253 59.28 307.809 59.416 308.297 59.688C308.785 59.96 309.165 60.344 309.437 60.84C309.709 61.328 309.845 61.892 309.845 62.532ZM308.417 62.1C308.409 61.596 308.229 61.192 307.877 60.888C307.525 60.584 307.089 60.432 306.569 60.432C306.097 60.432 305.693 60.584 305.357 60.888C305.021 61.184 304.821 61.588 304.757 62.1H308.417Z" fill="#2D292A"/>
<rect x="178" y="28.5" width="166.5" height="67" stroke="#2D292A"/>
<path d="M3.624 110.66C4.512 110.66 5.288 110.832 5.952 111.176C6.624 111.512 7.14 112 7.5 112.64C7.868 113.272 8.052 114.012 8.052 114.86C8.052 115.708 7.868 116.444 7.5 117.068C7.14 117.692 6.624 118.172 5.952 118.508C5.288 118.836 4.512 119 3.624 119H0.9V110.66H3.624ZM3.624 117.884C4.6 117.884 5.348 117.62 5.868 117.092C6.388 116.564 6.648 115.82 6.648 114.86C6.648 113.892 6.388 113.136 5.868 112.592C5.348 112.048 4.6 111.776 3.624 111.776H2.268V117.884H3.624ZM15.4678 115.532C15.4678 115.78 15.4518 116.004 15.4198 116.204H10.3678C10.4078 116.732 10.6038 117.156 10.9558 117.476C11.3078 117.796 11.7398 117.956 12.2518 117.956C12.9878 117.956 13.5078 117.648 13.8118 117.032H15.2878C15.0878 117.64 14.7238 118.14 14.1958 118.532C13.6758 118.916 13.0278 119.108 12.2518 119.108C11.6198 119.108 11.0518 118.968 10.5478 118.688C10.0518 118.4 9.65981 118 9.37181 117.488C9.09181 116.968 8.95181 116.368 8.95181 115.688C8.95181 115.008 9.08781 114.412 9.35981 113.9C9.63981 113.38 10.0278 112.98 10.5238 112.7C11.0278 112.42 11.6038 112.28 12.2518 112.28C12.8758 112.28 13.4318 112.416 13.9198 112.688C14.4078 112.96 14.7878 113.344 15.0598 113.84C15.3318 114.328 15.4678 114.892 15.4678 115.532ZM14.0398 115.1C14.0318 114.596 13.8518 114.192 13.4998 113.888C13.1478 113.584 12.7118 113.432 12.1918 113.432C11.7198 113.432 11.3158 113.584 10.9798 113.888C10.6438 114.184 10.4438 114.588 10.3798 115.1H14.0398ZM18.1821 110.12V119H16.8141V110.12H18.1821ZM20.6741 111.512C20.4261 111.512 20.2181 111.428 20.0501 111.26C19.8821 111.092 19.7981 110.884 19.7981 110.636C19.7981 110.388 19.8821 110.18 20.0501 110.012C20.2181 109.844 20.4261 109.76 20.6741 109.76C20.9141 109.76 21.1181 109.844 21.2861 110.012C21.4541 110.18 21.5381 110.388 21.5381 110.636C21.5381 110.884 21.4541 111.092 21.2861 111.26C21.1181 111.428 20.9141 111.512 20.6741 111.512ZM21.3461 112.388V119H19.9781V112.388H21.3461ZM25.6982 117.776L27.5702 112.388H29.0222L26.5022 119H24.8702L22.3622 112.388H23.8262L25.6982 117.776ZM36.1163 115.532C36.1163 115.78 36.1003 116.004 36.0683 116.204H31.0163C31.0563 116.732 31.2523 117.156 31.6043 117.476C31.9563 117.796 32.3883 117.956 32.9003 117.956C33.6363 117.956 34.1563 117.648 34.4603 117.032H35.9362C35.7363 117.64 35.3723 118.14 34.8443 118.532C34.3243 118.916 33.6763 119.108 32.9003 119.108C32.2683 119.108 31.7003 118.968 31.1963 118.688C30.7003 118.4 30.3083 118 30.0203 117.488C29.7403 116.968 29.6003 116.368 29.6003 115.688C29.6003 115.008 29.7363 114.412 30.0083 113.9C30.2883 113.38 30.6763 112.98 31.1723 112.7C31.6763 112.42 32.2523 112.28 32.9003 112.28C33.5243 112.28 34.0803 112.416 34.5683 112.688C35.0563 112.96 35.4363 113.344 35.7083 113.84C35.9803 114.328 36.1163 114.892 36.1163 115.532ZM34.6883 115.1C34.6803 114.596 34.5003 114.192 34.1483 113.888C33.7963 113.584 33.3603 113.432 32.8403 113.432C32.3683 113.432 31.9643 113.584 31.6283 113.888C31.2923 114.184 31.0923 114.588 31.0283 115.1H34.6883ZM38.8305 113.348C39.0305 113.012 39.2945 112.752 39.6225 112.568C39.9585 112.376 40.3545 112.28 40.8105 112.28V113.696H40.4625C39.9265 113.696 39.5185 113.832 39.2385 114.104C38.9665 114.376 38.8305 114.848 38.8305 115.52V119H37.4625V112.388H38.8305V113.348ZM48.02 112.388L43.964 122.108H42.548L43.892 118.892L41.288 112.388H42.812L44.672 117.428L46.604 112.388H48.02ZM58.2295 115.532C58.2295 115.78 58.2135 116.004 58.1815 116.204H53.1295C53.1695 116.732 53.3655 117.156 53.7175 117.476C54.0695 117.796 54.5015 117.956 55.0135 117.956C55.7495 117.956 56.2695 117.648 56.5735 117.032H58.0495C57.8495 117.64 57.4855 118.14 56.9575 118.532C56.4375 118.916 55.7895 119.108 55.0135 119.108C54.3815 119.108 53.8135 118.968 53.3095 118.688C52.8135 118.4 52.4215 118 52.1335 117.488C51.8535 116.968 51.7135 116.368 51.7135 115.688C51.7135 115.008 51.8495 114.412 52.1215 113.9C52.4015 113.38 52.7895 112.98 53.2855 112.7C53.7895 112.42 54.3655 112.28 55.0135 112.28C55.6375 112.28 56.1935 112.416 56.6815 112.688C57.1695 112.96 57.5495 113.344 57.8215 113.84C58.0935 114.328 58.2295 114.892 58.2295 115.532ZM56.8015 115.1C56.7935 114.596 56.6135 114.192 56.2615 113.888C55.9095 113.584 55.4735 113.432 54.9535 113.432C54.4815 113.432 54.0775 113.584 53.7415 113.888C53.4055 114.184 53.2055 114.588 53.1415 115.1H56.8015ZM62.1318 117.776L64.0038 112.388H65.4558L62.9358 119H61.3038L58.7958 112.388H60.2598L62.1318 117.776ZM72.5498 115.532C72.5498 115.78 72.5338 116.004 72.5018 116.204H67.4498C67.4898 116.732 67.6858 117.156 68.0378 117.476C68.3898 117.796 68.8218 117.956 69.3338 117.956C70.0698 117.956 70.5898 117.648 70.8938 117.032H72.3698C72.1698 117.64 71.8058 118.14 71.2778 118.532C70.7578 118.916 70.1098 119.108 69.3338 119.108C68.7018 119.108 68.1338 118.968 67.6298 118.688C67.1338 118.4 66.7418 118 66.4538 117.488C66.1738 116.968 66.0338 116.368 66.0338 115.688C66.0338 115.008 66.1698 114.412 66.4418 113.9C66.7218 113.38 67.1098 112.98 67.6058 112.7C68.1098 112.42 68.6858 112.28 69.3338 112.28C69.9578 112.28 70.5138 112.416 71.0018 112.688C71.4898 112.96 71.8698 113.344 72.1418 113.84C72.4138 114.328 72.5498 114.892 72.5498 115.532ZM71.1218 115.1C71.1138 114.596 70.9338 114.192 70.5818 113.888C70.2298 113.584 69.7938 113.432 69.2738 113.432C68.8018 113.432 68.3978 113.584 68.0618 113.888C67.7258 114.184 67.5258 114.588 67.4618 115.1H71.1218ZM75.2641 113.348C75.4641 113.012 75.7281 112.752 76.0561 112.568C76.3921 112.376 76.7881 112.28 77.2441 112.28V113.696H76.8961C76.3601 113.696 75.9521 113.832 75.6721 114.104C75.4001 114.376 75.2641 114.848 75.2641 115.52V119H73.8961V112.388H75.2641V113.348ZM84.4536 112.388L80.3976 122.108H78.9816L80.3256 118.892L77.7216 112.388H79.2456L81.1056 117.428L83.0376 112.388H84.4536Z" fill="black"/>
<rect width="345" height="142" transform="translate(0 134)" fill="#F6F6F8"/>
<circle cx="27" cy="162.896" r="6.5" stroke="#2D292A"/>
<path d="M44.456 159.32V158.324H46.712V167H45.608V159.32H44.456ZM62.479 158.636L60.055 167H58.831L56.887 160.268L54.871 167L53.659 167.012L51.319 158.636H52.483L54.307 165.728L56.323 158.636H57.547L59.467 165.704L61.303 158.636H62.479ZM69.674 163.46C69.674 163.668 69.662 163.888 69.638 164.12H64.382C64.422 164.768 64.642 165.276 65.042 165.644C65.45 166.004 65.942 166.184 66.518 166.184C66.99 166.184 67.382 166.076 67.694 165.86C68.014 165.636 68.238 165.34 68.366 164.972H69.542C69.366 165.604 69.014 166.12 68.486 166.52C67.958 166.912 67.302 167.108 66.518 167.108C65.894 167.108 65.334 166.968 64.838 166.688C64.35 166.408 63.966 166.012 63.686 165.5C63.406 164.98 63.266 164.38 63.266 163.7C63.266 163.02 63.402 162.424 63.674 161.912C63.946 161.4 64.326 161.008 64.814 160.736C65.31 160.456 65.878 160.316 66.518 160.316C67.142 160.316 67.694 160.452 68.174 160.724C68.654 160.996 69.022 161.372 69.278 161.852C69.542 162.324 69.674 162.86 69.674 163.46ZM68.546 163.232C68.546 162.816 68.454 162.46 68.27 162.164C68.086 161.86 67.834 161.632 67.514 161.48C67.202 161.32 66.854 161.24 66.47 161.24C65.918 161.24 65.446 161.416 65.054 161.768C64.67 162.12 64.45 162.608 64.394 163.232H68.546ZM77.1154 163.46C77.1154 163.668 77.1034 163.888 77.0794 164.12H71.8234C71.8634 164.768 72.0834 165.276 72.4834 165.644C72.8914 166.004 73.3834 166.184 73.9594 166.184C74.4314 166.184 74.8234 166.076 75.1354 165.86C75.4554 165.636 75.6794 165.34 75.8074 164.972H76.9834C76.8074 165.604 76.4554 166.12 75.9274 166.52C75.3994 166.912 74.7434 167.108 73.9594 167.108C73.3354 167.108 72.7754 166.968 72.2794 166.688C71.7914 166.408 71.4074 166.012 71.1274 165.5C70.8474 164.98 70.7074 164.38 70.7074 163.7C70.7074 163.02 70.8434 162.424 71.1154 161.912C71.3874 161.4 71.7674 161.008 72.2554 160.736C72.7514 160.456 73.3194 160.316 73.9594 160.316C74.5834 160.316 75.1354 160.452 75.6154 160.724C76.0954 160.996 76.4634 161.372 76.7194 161.852C76.9834 162.324 77.1154 162.86 77.1154 163.46ZM75.9874 163.232C75.9874 162.816 75.8954 162.46 75.7114 162.164C75.5274 161.86 75.2754 161.632 74.9554 161.48C74.6434 161.32 74.2954 161.24 73.9114 161.24C73.3594 161.24 72.8874 161.416 72.4954 161.768C72.1114 162.12 71.8914 162.608 71.8354 163.232H75.9874ZM82.2288 167L79.6488 164.096V167H78.5568V158.12H79.6488V163.34L82.1808 160.424H83.7048L80.6088 163.7L83.7168 167H82.2288Z" fill="#3F434A"/>
<path d="M294.324 164.708C294.324 165.092 294.228 165.46 294.036 165.812C293.844 166.156 293.56 166.444 293.184 166.676C292.816 166.908 292.372 167.04 291.852 167.072V168.044H291.204V167.072C290.476 167.008 289.884 166.776 289.428 166.376C288.972 165.968 288.74 165.452 288.732 164.828H289.896C289.928 165.164 290.052 165.456 290.268 165.704C290.492 165.952 290.804 166.108 291.204 166.172V163.172C290.668 163.036 290.236 162.896 289.908 162.752C289.58 162.608 289.3 162.384 289.068 162.08C288.836 161.776 288.72 161.368 288.72 160.856C288.72 160.208 288.944 159.672 289.392 159.248C289.848 158.824 290.452 158.588 291.204 158.54V157.544H291.852V158.54C292.532 158.596 293.08 158.816 293.496 159.2C293.912 159.576 294.152 160.068 294.216 160.676H293.052C293.012 160.396 292.888 160.144 292.68 159.92C292.472 159.688 292.196 159.536 291.852 159.464V162.392C292.38 162.528 292.808 162.668 293.136 162.812C293.472 162.948 293.752 163.168 293.976 163.472C294.208 163.776 294.324 164.188 294.324 164.708ZM289.836 160.796C289.836 161.188 289.952 161.488 290.184 161.696C290.416 161.904 290.756 162.076 291.204 162.212V159.44C290.788 159.48 290.456 159.616 290.208 159.848C289.96 160.072 289.836 160.388 289.836 160.796ZM291.852 166.184C292.284 166.136 292.62 165.98 292.86 165.716C293.108 165.452 293.232 165.136 293.232 164.768C293.232 164.376 293.112 164.076 292.872 163.868C292.632 163.652 292.292 163.48 291.852 163.352V166.184ZM295.921 159.32V158.324H298.177V167H297.073V159.32H295.921ZM300.053 162.572C300.053 161.196 300.277 160.124 300.725 159.356C301.173 158.58 301.957 158.192 303.077 158.192C304.189 158.192 304.969 158.58 305.417 159.356C305.865 160.124 306.089 161.196 306.089 162.572C306.089 163.972 305.865 165.06 305.417 165.836C304.969 166.612 304.189 167 303.077 167C301.957 167 301.173 166.612 300.725 165.836C300.277 165.06 300.053 163.972 300.053 162.572ZM305.009 162.572C305.009 161.876 304.961 161.288 304.865 160.808C304.777 160.32 304.589 159.928 304.301 159.632C304.021 159.336 303.613 159.188 303.077 159.188C302.533 159.188 302.117 159.336 301.829 159.632C301.549 159.928 301.361 160.32 301.265 160.808C301.177 161.288 301.133 161.876 301.133 162.572C301.133 163.292 301.177 163.896 301.265 164.384C301.361 164.872 301.549 165.264 301.829 165.56C302.117 165.856 302.533 166.004 303.077 166.004C303.613 166.004 304.021 165.856 304.301 165.56C304.589 165.264 304.777 164.872 304.865 164.384C304.961 163.896 305.009 163.292 305.009 162.572ZM308.116 167.072C307.908 167.072 307.732 167 307.588 166.856C307.444 166.712 307.372 166.536 307.372 166.328C307.372 166.12 307.444 165.944 307.588 165.8C307.732 165.656 307.908 165.584 308.116 165.584C308.316 165.584 308.484 165.656 308.62 165.8C308.764 165.944 308.836 166.12 308.836 166.328C308.836 166.536 308.764 166.712 308.62 166.856C308.484 167 308.316 167.072 308.116 167.072ZM310.107 162.572C310.107 161.196 310.331 160.124 310.779 159.356C311.227 158.58 312.011 158.192 313.131 158.192C314.243 158.192 315.023 158.58 315.471 159.356C315.919 160.124 316.143 161.196 316.143 162.572C316.143 163.972 315.919 165.06 315.471 165.836C315.023 166.612 314.243 167 313.131 167C312.011 167 311.227 166.612 310.779 165.836C310.331 165.06 310.107 163.972 310.107 162.572ZM315.063 162.572C315.063 161.876 315.015 161.288 314.919 160.808C314.831 160.32 314.643 159.928 314.355 159.632C314.075 159.336 313.667 159.188 313.131 159.188C312.587 159.188 312.171 159.336 311.883 159.632C311.603 159.928 311.415 160.32 311.319 160.808C311.231 161.288 311.187 161.876 311.187 162.572C311.187 163.292 311.231 163.896 311.319 164.384C311.415 164.872 311.603 165.264 311.883 165.56C312.171 165.856 312.587 166.004 313.131 166.004C313.667 166.004 314.075 165.856 314.355 165.56C314.643 165.264 314.831 164.872 314.919 164.384C315.015 163.896 315.063 163.292 315.063 162.572ZM317.642 162.572C317.642 161.196 317.866 160.124 318.314 159.356C318.762 158.58 319.546 158.192 320.666 158.192C321.778 158.192 322.558 158.58 323.006 159.356C323.454 160.124 323.678 161.196 323.678 162.572C323.678 163.972 323.454 165.06 323.006 165.836C322.558 166.612 321.778 167 320.666 167C319.546 167 318.762 166.612 318.314 165.836C317.866 165.06 317.642 163.972 317.642 162.572ZM322.598 162.572C322.598 161.876 322.55 161.288 322.454 160.808C322.366 160.32 322.178 159.928 321.89 159.632C321.61 159.336 321.202 159.188 320.666 159.188C320.122 159.188 319.706 159.336 319.418 159.632C319.138 159.928 318.95 160.32 318.854 160.808C318.766 161.288 318.722 161.876 318.722 162.572C318.722 163.292 318.766 163.896 318.854 164.384C318.95 164.872 319.138 165.264 319.418 165.56C319.706 165.856 320.122 166.004 320.666 166.004C321.202 166.004 321.61 165.856 321.89 165.56C322.178 165.264 322.366 164.872 322.454 164.384C322.55 163.896 322.598 163.292 322.598 162.572Z" fill="#3F434A"/>
<circle cx="27" cy="190.896" r="6.5" stroke="#2D292A"/>
<path d="M44.612 194.124C45.628 193.308 46.424 192.64 47 192.12C47.576 191.592 48.06 191.044 48.452 190.476C48.852 189.9 49.052 189.336 49.052 188.784C49.052 188.264 48.924 187.856 48.668 187.56C48.42 187.256 48.016 187.104 47.456 187.104C46.912 187.104 46.488 187.276 46.184 187.62C45.888 187.956 45.728 188.408 45.704 188.976H44.648C44.68 188.08 44.952 187.388 45.464 186.9C45.976 186.412 46.636 186.168 47.444 186.168C48.268 186.168 48.92 186.396 49.4 186.852C49.888 187.308 50.132 187.936 50.132 188.736C50.132 189.4 49.932 190.048 49.532 190.68C49.14 191.304 48.692 191.856 48.188 192.336C47.684 192.808 47.04 193.36 46.256 193.992H50.384V194.904H44.612V194.124ZM65.5376 186.636L63.1136 195H61.8896L59.9456 188.268L57.9296 195L56.7176 195.012L54.3776 186.636H55.5416L57.3656 193.728L59.3816 186.636H60.6056L62.5256 193.704L64.3616 186.636H65.5376ZM72.7326 191.46C72.7326 191.668 72.7206 191.888 72.6966 192.12H67.4406C67.4806 192.768 67.7006 193.276 68.1006 193.644C68.5086 194.004 69.0006 194.184 69.5766 194.184C70.0486 194.184 70.4406 194.076 70.7526 193.86C71.0726 193.636 71.2966 193.34 71.4246 192.972H72.6006C72.4246 193.604 72.0726 194.12 71.5446 194.52C71.0166 194.912 70.3606 195.108 69.5766 195.108C68.9526 195.108 68.3926 194.968 67.8966 194.688C67.4086 194.408 67.0246 194.012 66.7446 193.5C66.4646 192.98 66.3246 192.38 66.3246 191.7C66.3246 191.02 66.4606 190.424 66.7326 189.912C67.0046 189.4 67.3846 189.008 67.8726 188.736C68.3686 188.456 68.9366 188.316 69.5766 188.316C70.2006 188.316 70.7526 188.452 71.2326 188.724C71.7126 188.996 72.0806 189.372 72.3366 189.852C72.6006 190.324 72.7326 190.86 72.7326 191.46ZM71.6046 191.232C71.6046 190.816 71.5126 190.46 71.3286 190.164C71.1446 189.86 70.8926 189.632 70.5726 189.48C70.2606 189.32 69.9126 189.24 69.5286 189.24C68.9766 189.24 68.5046 189.416 68.1126 189.768C67.7286 190.12 67.5086 190.608 67.4526 191.232H71.6046ZM80.174 191.46C80.174 191.668 80.162 191.888 80.138 192.12H74.882C74.922 192.768 75.142 193.276 75.542 193.644C75.95 194.004 76.442 194.184 77.018 194.184C77.49 194.184 77.882 194.076 78.194 193.86C78.514 193.636 78.738 193.34 78.866 192.972H80.042C79.866 193.604 79.514 194.12 78.986 194.52C78.458 194.912 77.802 195.108 77.018 195.108C76.394 195.108 75.834 194.968 75.338 194.688C74.85 194.408 74.466 194.012 74.186 193.5C73.906 192.98 73.766 192.38 73.766 191.7C73.766 191.02 73.902 190.424 74.174 189.912C74.446 189.4 74.826 189.008 75.314 188.736C75.81 188.456 76.378 188.316 77.018 188.316C77.642 188.316 78.194 188.452 78.674 188.724C79.154 188.996 79.522 189.372 79.778 189.852C80.042 190.324 80.174 190.86 80.174 191.46ZM79.046 191.232C79.046 190.816 78.954 190.46 78.77 190.164C78.586 189.86 78.334 189.632 78.014 189.48C77.702 189.32 77.354 189.24 76.97 189.24C76.418 189.24 75.946 189.416 75.554 189.768C75.17 190.12 74.95 190.608 74.894 191.232H79.046ZM85.2874 195L82.7074 192.096V195H81.6154V186.12H82.7074V191.34L85.2394 188.424H86.7634L83.6674 191.7L86.7754 195H85.2874Z" fill="#3F434A"/>
<path d="M294.324 192.708C294.324 193.092 294.228 193.46 294.036 193.812C293.844 194.156 293.56 194.444 293.184 194.676C292.816 194.908 292.372 195.04 291.852 195.072V196.044H291.204V195.072C290.476 195.008 289.884 194.776 289.428 194.376C288.972 193.968 288.74 193.452 288.732 192.828H289.896C289.928 193.164 290.052 193.456 290.268 193.704C290.492 193.952 290.804 194.108 291.204 194.172V191.172C290.668 191.036 290.236 190.896 289.908 190.752C289.58 190.608 289.3 190.384 289.068 190.08C288.836 189.776 288.72 189.368 288.72 188.856C288.72 188.208 288.944 187.672 289.392 187.248C289.848 186.824 290.452 186.588 291.204 186.54V185.544H291.852V186.54C292.532 186.596 293.08 186.816 293.496 187.2C293.912 187.576 294.152 188.068 294.216 188.676H293.052C293.012 188.396 292.888 188.144 292.68 187.92C292.472 187.688 292.196 187.536 291.852 187.464V190.392C292.38 190.528 292.808 190.668 293.136 190.812C293.472 190.948 293.752 191.168 293.976 191.472C294.208 191.776 294.324 192.188 294.324 192.708ZM289.836 188.796C289.836 189.188 289.952 189.488 290.184 189.696C290.416 189.904 290.756 190.076 291.204 190.212V187.44C290.788 187.48 290.456 187.616 290.208 187.848C289.96 188.072 289.836 188.388 289.836 188.796ZM291.852 194.184C292.284 194.136 292.62 193.98 292.86 193.716C293.108 193.452 293.232 193.136 293.232 192.768C293.232 192.376 293.112 192.076 292.872 191.868C292.632 191.652 292.292 191.48 291.852 191.352V194.184ZM295.921 187.32V186.324H298.177V195H297.073V187.32H295.921ZM300.053 190.572C300.053 189.196 300.277 188.124 300.725 187.356C301.173 186.58 301.957 186.192 303.077 186.192C304.189 186.192 304.969 186.58 305.417 187.356C305.865 188.124 306.089 189.196 306.089 190.572C306.089 191.972 305.865 193.06 305.417 193.836C304.969 194.612 304.189 195 303.077 195C301.957 195 301.173 194.612 300.725 193.836C300.277 193.06 300.053 191.972 300.053 190.572ZM305.009 190.572C305.009 189.876 304.961 189.288 304.865 188.808C304.777 188.32 304.589 187.928 304.301 187.632C304.021 187.336 303.613 187.188 303.077 187.188C302.533 187.188 302.117 187.336 301.829 187.632C301.549 187.928 301.361 188.32 301.265 188.808C301.177 189.288 301.133 189.876 301.133 190.572C301.133 191.292 301.177 191.896 301.265 192.384C301.361 192.872 301.549 193.264 301.829 193.56C302.117 193.856 302.533 194.004 303.077 194.004C303.613 194.004 304.021 193.856 304.301 193.56C304.589 193.264 304.777 192.872 304.865 192.384C304.961 191.896 305.009 191.292 305.009 190.572ZM308.116 195.072C307.908 195.072 307.732 195 307.588 194.856C307.444 194.712 307.372 194.536 307.372 194.328C307.372 194.12 307.444 193.944 307.588 193.8C307.732 193.656 307.908 193.584 308.116 193.584C308.316 193.584 308.484 193.656 308.62 193.8C308.764 193.944 308.836 194.12 308.836 194.328C308.836 194.536 308.764 194.712 308.62 194.856C308.484 195 308.316 195.072 308.116 195.072ZM310.107 190.572C310.107 189.196 310.331 188.124 310.779 187.356C311.227 186.58 312.011 186.192 313.131 186.192C314.243 186.192 315.023 186.58 315.471 187.356C315.919 188.124 316.143 189.196 316.143 190.572C316.143 191.972 315.919 193.06 315.471 193.836C315.023 194.612 314.243 195 313.131 195C312.011 195 311.227 194.612 310.779 193.836C310.331 193.06 310.107 191.972 310.107 190.572ZM315.063 190.572C315.063 189.876 315.015 189.288 314.919 188.808C314.831 188.32 314.643 187.928 314.355 187.632C314.075 187.336 313.667 187.188 313.131 187.188C312.587 187.188 312.171 187.336 311.883 187.632C311.603 187.928 311.415 188.32 311.319 188.808C311.231 189.288 311.187 189.876 311.187 190.572C311.187 191.292 311.231 191.896 311.319 192.384C311.415 192.872 311.603 193.264 311.883 193.56C312.171 193.856 312.587 194.004 313.131 194.004C313.667 194.004 314.075 193.856 314.355 193.56C314.643 193.264 314.831 192.872 314.919 192.384C315.015 191.896 315.063 191.292 315.063 190.572ZM317.642 190.572C317.642 189.196 317.866 188.124 318.314 187.356C318.762 186.58 319.546 186.192 320.666 186.192C321.778 186.192 322.558 186.58 323.006 187.356C323.454 188.124 323.678 189.196 323.678 190.572C323.678 191.972 323.454 193.06 323.006 193.836C322.558 194.612 321.778 195 320.666 195C319.546 195 318.762 194.612 318.314 193.836C317.866 193.06 317.642 191.972 317.642 190.572ZM322.598 190.572C322.598 189.876 322.55 189.288 322.454 188.808C322.366 188.32 322.178 187.928 321.89 187.632C321.61 187.336 321.202 187.188 320.666 187.188C320.122 187.188 319.706 187.336 319.418 187.632C319.138 187.928 318.95 188.32 318.854 188.808C318.766 189.288 318.722 189.876 318.722 190.572C318.722 191.292 318.766 191.896 318.854 192.384C318.95 192.872 319.138 193.264 319.418 193.56C319.706 193.856 320.122 194.004 320.666 194.004C321.202 194.004 321.61 193.856 321.89 193.56C322.178 193.264 322.366 192.872 322.454 192.384C322.55 191.896 322.598 191.292 322.598 190.572Z" fill="#3F434A"/>
<circle cx="27" cy="219" r="6.5" fill="white" stroke="#2D292A"/>
<circle cx="27" cy="219" r="3" fill="#2D292A"/>
<path d="M44.72 216.508C44.776 215.772 45.06 215.196 45.572 214.78C46.084 214.364 46.748 214.156 47.564 214.156C48.108 214.156 48.576 214.256 48.968 214.456C49.368 214.648 49.668 214.912 49.868 215.248C50.076 215.584 50.18 215.964 50.18 216.388C50.18 216.884 50.036 217.312 49.748 217.672C49.468 218.032 49.1 218.264 48.644 218.368V218.428C49.164 218.556 49.576 218.808 49.88 219.184C50.184 219.56 50.336 220.052 50.336 220.66C50.336 221.116 50.232 221.528 50.024 221.896C49.816 222.256 49.504 222.54 49.088 222.748C48.672 222.956 48.172 223.06 47.588 223.06C46.74 223.06 46.044 222.84 45.5 222.4C44.956 221.952 44.652 221.32 44.588 220.504H45.644C45.7 220.984 45.896 221.376 46.232 221.68C46.568 221.984 47.016 222.136 47.576 222.136C48.136 222.136 48.56 221.992 48.848 221.704C49.144 221.408 49.292 221.028 49.292 220.564C49.292 219.964 49.092 219.532 48.692 219.268C48.292 219.004 47.688 218.872 46.88 218.872H46.604V217.96H46.892C47.628 217.952 48.184 217.832 48.56 217.6C48.936 217.36 49.124 216.992 49.124 216.496C49.124 216.072 48.984 215.732 48.704 215.476C48.432 215.22 48.04 215.092 47.528 215.092C47.032 215.092 46.632 215.22 46.328 215.476C46.024 215.732 45.844 216.076 45.788 216.508H44.72ZM65.7016 214.636L63.2776 223H62.0536L60.1096 216.268L58.0936 223L56.8816 223.012L54.5416 214.636H55.7056L57.5296 221.728L59.5456 214.636H60.7696L62.6896 221.704L64.5256 214.636H65.7016ZM72.8967 219.46C72.8967 219.668 72.8847 219.888 72.8607 220.12H67.6047C67.6447 220.768 67.8647 221.276 68.2647 221.644C68.6727 222.004 69.1647 222.184 69.7407 222.184C70.2127 222.184 70.6047 222.076 70.9167 221.86C71.2367 221.636 71.4607 221.34 71.5887 220.972H72.7647C72.5887 221.604 72.2367 222.12 71.7087 222.52C71.1807 222.912 70.5247 223.108 69.7407 223.108C69.1167 223.108 68.5567 222.968 68.0607 222.688C67.5727 222.408 67.1887 222.012 66.9087 221.5C66.6287 220.98 66.4887 220.38 66.4887 219.7C66.4887 219.02 66.6247 218.424 66.8967 217.912C67.1687 217.4 67.5487 217.008 68.0367 216.736C68.5327 216.456 69.1007 216.316 69.7407 216.316C70.3647 216.316 70.9167 216.452 71.3967 216.724C71.8767 216.996 72.2447 217.372 72.5007 217.852C72.7647 218.324 72.8967 218.86 72.8967 219.46ZM71.7687 219.232C71.7687 218.816 71.6767 218.46 71.4927 218.164C71.3087 217.86 71.0567 217.632 70.7367 217.48C70.4247 217.32 70.0767 217.24 69.6927 217.24C69.1407 217.24 68.6687 217.416 68.2767 217.768C67.8927 218.12 67.6727 218.608 67.6167 219.232H71.7687ZM80.3381 219.46C80.3381 219.668 80.3261 219.888 80.3021 220.12H75.0461C75.0861 220.768 75.3061 221.276 75.7061 221.644C76.1141 222.004 76.6061 222.184 77.1821 222.184C77.6541 222.184 78.0461 222.076 78.3581 221.86C78.6781 221.636 78.9021 221.34 79.0301 220.972H80.2061C80.0301 221.604 79.6781 222.12 79.1501 222.52C78.6221 222.912 77.9661 223.108 77.1821 223.108C76.5581 223.108 75.9981 222.968 75.5021 222.688C75.0141 222.408 74.6301 222.012 74.3501 221.5C74.0701 220.98 73.9301 220.38 73.9301 219.7C73.9301 219.02 74.0661 218.424 74.3381 217.912C74.6101 217.4 74.9901 217.008 75.4781 216.736C75.9741 216.456 76.5421 216.316 77.1821 216.316C77.8061 216.316 78.3581 216.452 78.8381 216.724C79.3181 216.996 79.6861 217.372 79.9421 217.852C80.2061 218.324 80.3381 218.86 80.3381 219.46ZM79.2101 219.232C79.2101 218.816 79.1181 218.46 78.9341 218.164C78.7501 217.86 78.4981 217.632 78.1781 217.48C77.8661 217.32 77.5181 217.24 77.1341 217.24C76.5821 217.24 76.1101 217.416 75.7181 217.768C75.3341 218.12 75.1141 218.608 75.0581 219.232H79.2101ZM85.4515 223L82.8715 220.096V223H81.7795V214.12H82.8715V219.34L85.4035 216.424H86.9275L83.8315 219.7L86.9395 223H85.4515Z" fill="#3F434A"/>
<path d="M294.324 220.708C294.324 221.092 294.228 221.46 294.036 221.812C293.844 222.156 293.56 222.444 293.184 222.676C292.816 222.908 292.372 223.04 291.852 223.072V224.044H291.204V223.072C290.476 223.008 289.884 222.776 289.428 222.376C288.972 221.968 288.74 221.452 288.732 220.828H289.896C289.928 221.164 290.052 221.456 290.268 221.704C290.492 221.952 290.804 222.108 291.204 222.172V219.172C290.668 219.036 290.236 218.896 289.908 218.752C289.58 218.608 289.3 218.384 289.068 218.08C288.836 217.776 288.72 217.368 288.72 216.856C288.72 216.208 288.944 215.672 289.392 215.248C289.848 214.824 290.452 214.588 291.204 214.54V213.544H291.852V214.54C292.532 214.596 293.08 214.816 293.496 215.2C293.912 215.576 294.152 216.068 294.216 216.676H293.052C293.012 216.396 292.888 216.144 292.68 215.92C292.472 215.688 292.196 215.536 291.852 215.464V218.392C292.38 218.528 292.808 218.668 293.136 218.812C293.472 218.948 293.752 219.168 293.976 219.472C294.208 219.776 294.324 220.188 294.324 220.708ZM289.836 216.796C289.836 217.188 289.952 217.488 290.184 217.696C290.416 217.904 290.756 218.076 291.204 218.212V215.44C290.788 215.48 290.456 215.616 290.208 215.848C289.96 216.072 289.836 216.388 289.836 216.796ZM291.852 222.184C292.284 222.136 292.62 221.98 292.86 221.716C293.108 221.452 293.232 221.136 293.232 220.768C293.232 220.376 293.112 220.076 292.872 219.868C292.632 219.652 292.292 219.48 291.852 219.352V222.184ZM295.921 215.32V214.324H298.177V223H297.073V215.32H295.921ZM300.053 218.572C300.053 217.196 300.277 216.124 300.725 215.356C301.173 214.58 301.957 214.192 303.077 214.192C304.189 214.192 304.969 214.58 305.417 215.356C305.865 216.124 306.089 217.196 306.089 218.572C306.089 219.972 305.865 221.06 305.417 221.836C304.969 222.612 304.189 223 303.077 223C301.957 223 301.173 222.612 300.725 221.836C300.277 221.06 300.053 219.972 300.053 218.572ZM305.009 218.572C305.009 217.876 304.961 217.288 304.865 216.808C304.777 216.32 304.589 215.928 304.301 215.632C304.021 215.336 303.613 215.188 303.077 215.188C302.533 215.188 302.117 215.336 301.829 215.632C301.549 215.928 301.361 216.32 301.265 216.808C301.177 217.288 301.133 217.876 301.133 218.572C301.133 219.292 301.177 219.896 301.265 220.384C301.361 220.872 301.549 221.264 301.829 221.56C302.117 221.856 302.533 222.004 303.077 222.004C303.613 222.004 304.021 221.856 304.301 221.56C304.589 221.264 304.777 220.872 304.865 220.384C304.961 219.896 305.009 219.292 305.009 218.572ZM308.116 223.072C307.908 223.072 307.732 223 307.588 222.856C307.444 222.712 307.372 222.536 307.372 222.328C307.372 222.12 307.444 221.944 307.588 221.8C307.732 221.656 307.908 221.584 308.116 221.584C308.316 221.584 308.484 221.656 308.62 221.8C308.764 221.944 308.836 222.12 308.836 222.328C308.836 222.536 308.764 222.712 308.62 222.856C308.484 223 308.316 223.072 308.116 223.072ZM310.107 218.572C310.107 217.196 310.331 216.124 310.779 215.356C311.227 214.58 312.011 214.192 313.131 214.192C314.243 214.192 315.023 214.58 315.471 215.356C315.919 216.124 316.143 217.196 316.143 218.572C316.143 219.972 315.919 221.06 315.471 221.836C315.023 222.612 314.243 223 313.131 223C312.011 223 311.227 222.612 310.779 221.836C310.331 221.06 310.107 219.972 310.107 218.572ZM315.063 218.572C315.063 217.876 315.015 217.288 314.919 216.808C314.831 216.32 314.643 215.928 314.355 215.632C314.075 215.336 313.667 215.188 313.131 215.188C312.587 215.188 312.171 215.336 311.883 215.632C311.603 215.928 311.415 216.32 311.319 216.808C311.231 217.288 311.187 217.876 311.187 218.572C311.187 219.292 311.231 219.896 311.319 220.384C311.415 220.872 311.603 221.264 311.883 221.56C312.171 221.856 312.587 222.004 313.131 222.004C313.667 222.004 314.075 221.856 314.355 221.56C314.643 221.264 314.831 220.872 314.919 220.384C315.015 219.896 315.063 219.292 315.063 218.572ZM317.642 218.572C317.642 217.196 317.866 216.124 318.314 215.356C318.762 214.58 319.546 214.192 320.666 214.192C321.778 214.192 322.558 214.58 323.006 215.356C323.454 216.124 323.678 217.196 323.678 218.572C323.678 219.972 323.454 221.06 323.006 221.836C322.558 222.612 321.778 223 320.666 223C319.546 223 318.762 222.612 318.314 221.836C317.866 221.06 317.642 219.972 317.642 218.572ZM322.598 218.572C322.598 217.876 322.55 217.288 322.454 216.808C322.366 216.32 322.178 215.928 321.89 215.632C321.61 215.336 321.202 215.188 320.666 215.188C320.122 215.188 319.706 215.336 319.418 215.632C319.138 215.928 318.95 216.32 318.854 216.808C318.766 217.288 318.722 217.876 318.722 218.572C318.722 219.292 318.766 219.896 318.854 220.384C318.95 220.872 319.138 221.264 319.418 221.56C319.706 221.856 320.122 222.004 320.666 222.004C321.202 222.004 321.61 221.856 321.89 221.56C322.178 221.264 322.366 220.872 322.454 220.384C322.55 219.896 322.598 219.292 322.598 218.572Z" fill="#3F434A"/>
<circle cx="27" cy="246.896" r="6.5" stroke="#2D292A"/>
<path d="M44.48 249.068V248.24L48.692 242.408H50V248.12H51.2V249.068H50V251H48.92V249.068H44.48ZM48.968 243.548L45.74 248.12H48.968V243.548ZM66.1821 242.636L63.7581 251H62.5341L60.5901 244.268L58.5741 251L57.3621 251.012L55.0221 242.636H56.1861L58.0101 249.728L60.0261 242.636H61.2501L63.1701 249.704L65.0061 242.636H66.1821ZM73.3771 247.46C73.3771 247.668 73.3651 247.888 73.3411 248.12H68.0851C68.1251 248.768 68.3451 249.276 68.7451 249.644C69.1531 250.004 69.6451 250.184 70.2211 250.184C70.6931 250.184 71.0851 250.076 71.3971 249.86C71.7171 249.636 71.9411 249.34 72.0691 248.972H73.2451C73.0691 249.604 72.7171 250.12 72.1891 250.52C71.6611 250.912 71.0051 251.108 70.2211 251.108C69.5971 251.108 69.0371 250.968 68.5411 250.688C68.0531 250.408 67.6691 250.012 67.3891 249.5C67.1091 248.98 66.9691 248.38 66.9691 247.7C66.9691 247.02 67.1051 246.424 67.3771 245.912C67.6491 245.4 68.0291 245.008 68.5171 244.736C69.0131 244.456 69.5811 244.316 70.2211 244.316C70.8451 244.316 71.3971 244.452 71.8771 244.724C72.3571 244.996 72.7251 245.372 72.9811 245.852C73.2451 246.324 73.3771 246.86 73.3771 247.46ZM72.2491 247.232C72.2491 246.816 72.1571 246.46 71.9731 246.164C71.7891 245.86 71.5371 245.632 71.2171 245.48C70.9051 245.32 70.5571 245.24 70.1731 245.24C69.6211 245.24 69.1491 245.416 68.7571 245.768C68.3731 246.12 68.1531 246.608 68.0971 247.232H72.2491ZM80.8185 247.46C80.8185 247.668 80.8065 247.888 80.7825 248.12H75.5265C75.5665 248.768 75.7865 249.276 76.1865 249.644C76.5945 250.004 77.0865 250.184 77.6625 250.184C78.1345 250.184 78.5265 250.076 78.8385 249.86C79.1585 249.636 79.3825 249.34 79.5105 248.972H80.6865C80.5105 249.604 80.1585 250.12 79.6305 250.52C79.1025 250.912 78.4465 251.108 77.6625 251.108C77.0385 251.108 76.4785 250.968 75.9825 250.688C75.4945 250.408 75.1105 250.012 74.8305 249.5C74.5505 248.98 74.4105 248.38 74.4105 247.7C74.4105 247.02 74.5465 246.424 74.8185 245.912C75.0905 245.4 75.4705 245.008 75.9585 244.736C76.4545 244.456 77.0225 244.316 77.6625 244.316C78.2865 244.316 78.8385 244.452 79.3185 244.724C79.7985 244.996 80.1665 245.372 80.4225 245.852C80.6865 246.324 80.8185 246.86 80.8185 247.46ZM79.6905 247.232C79.6905 246.816 79.5985 246.46 79.4145 246.164C79.2305 245.86 78.9785 245.632 78.6585 245.48C78.3465 245.32 77.9985 245.24 77.6145 245.24C77.0625 245.24 76.5905 245.416 76.1985 245.768C75.8145 246.12 75.5945 246.608 75.5385 247.232H79.6905ZM85.9319 251L83.3519 248.096V251H82.2599V242.12H83.3519V247.34L85.8839 244.424H87.4079L84.3119 247.7L87.4199 251H85.9319Z" fill="#3F434A"/>
<path d="M294.324 248.708C294.324 249.092 294.228 249.46 294.036 249.812C293.844 250.156 293.56 250.444 293.184 250.676C292.816 250.908 292.372 251.04 291.852 251.072V252.044H291.204V251.072C290.476 251.008 289.884 250.776 289.428 250.376C288.972 249.968 288.74 249.452 288.732 248.828H289.896C289.928 249.164 290.052 249.456 290.268 249.704C290.492 249.952 290.804 250.108 291.204 250.172V247.172C290.668 247.036 290.236 246.896 289.908 246.752C289.58 246.608 289.3 246.384 289.068 246.08C288.836 245.776 288.72 245.368 288.72 244.856C288.72 244.208 288.944 243.672 289.392 243.248C289.848 242.824 290.452 242.588 291.204 242.54V241.544H291.852V242.54C292.532 242.596 293.08 242.816 293.496 243.2C293.912 243.576 294.152 244.068 294.216 244.676H293.052C293.012 244.396 292.888 244.144 292.68 243.92C292.472 243.688 292.196 243.536 291.852 243.464V246.392C292.38 246.528 292.808 246.668 293.136 246.812C293.472 246.948 293.752 247.168 293.976 247.472C294.208 247.776 294.324 248.188 294.324 248.708ZM289.836 244.796C289.836 245.188 289.952 245.488 290.184 245.696C290.416 245.904 290.756 246.076 291.204 246.212V243.44C290.788 243.48 290.456 243.616 290.208 243.848C289.96 244.072 289.836 244.388 289.836 244.796ZM291.852 250.184C292.284 250.136 292.62 249.98 292.86 249.716C293.108 249.452 293.232 249.136 293.232 248.768C293.232 248.376 293.112 248.076 292.872 247.868C292.632 247.652 292.292 247.48 291.852 247.352V250.184ZM295.921 243.32V242.324H298.177V251H297.073V243.32H295.921ZM300.053 246.572C300.053 245.196 300.277 244.124 300.725 243.356C301.173 242.58 301.957 242.192 303.077 242.192C304.189 242.192 304.969 242.58 305.417 243.356C305.865 244.124 306.089 245.196 306.089 246.572C306.089 247.972 305.865 249.06 305.417 249.836C304.969 250.612 304.189 251 303.077 251C301.957 251 301.173 250.612 300.725 249.836C300.277 249.06 300.053 247.972 300.053 246.572ZM305.009 246.572C305.009 245.876 304.961 245.288 304.865 244.808C304.777 244.32 304.589 243.928 304.301 243.632C304.021 243.336 303.613 243.188 303.077 243.188C302.533 243.188 302.117 243.336 301.829 243.632C301.549 243.928 301.361 244.32 301.265 244.808C301.177 245.288 301.133 245.876 301.133 246.572C301.133 247.292 301.177 247.896 301.265 248.384C301.361 248.872 301.549 249.264 301.829 249.56C302.117 249.856 302.533 250.004 303.077 250.004C303.613 250.004 304.021 249.856 304.301 249.56C304.589 249.264 304.777 248.872 304.865 248.384C304.961 247.896 305.009 247.292 305.009 246.572ZM308.116 251.072C307.908 251.072 307.732 251 307.588 250.856C307.444 250.712 307.372 250.536 307.372 250.328C307.372 250.12 307.444 249.944 307.588 249.8C307.732 249.656 307.908 249.584 308.116 249.584C308.316 249.584 308.484 249.656 308.62 249.8C308.764 249.944 308.836 250.12 308.836 250.328C308.836 250.536 308.764 250.712 308.62 250.856C308.484 251 308.316 251.072 308.116 251.072ZM310.107 246.572C310.107 245.196 310.331 244.124 310.779 243.356C311.227 242.58 312.011 242.192 313.131 242.192C314.243 242.192 315.023 242.58 315.471 243.356C315.919 244.124 316.143 245.196 316.143 246.572C316.143 247.972 315.919 249.06 315.471 249.836C315.023 250.612 314.243 251 313.131 251C312.011 251 311.227 250.612 310.779 249.836C310.331 249.06 310.107 247.972 310.107 246.572ZM315.063 246.572C315.063 245.876 315.015 245.288 314.919 244.808C314.831 244.32 314.643 243.928 314.355 243.632C314.075 243.336 313.667 243.188 313.131 243.188C312.587 243.188 312.171 243.336 311.883 243.632C311.603 243.928 311.415 244.32 311.319 244.808C311.231 245.288 311.187 245.876 311.187 246.572C311.187 247.292 311.231 247.896 311.319 248.384C311.415 248.872 311.603 249.264 311.883 249.56C312.171 249.856 312.587 250.004 313.131 250.004C313.667 250.004 314.075 249.856 314.355 249.56C314.643 249.264 314.831 248.872 314.919 248.384C315.015 247.896 315.063 247.292 315.063 246.572ZM317.642 246.572C317.642 245.196 317.866 244.124 318.314 243.356C318.762 242.58 319.546 242.192 320.666 242.192C321.778 242.192 322.558 242.58 323.006 243.356C323.454 244.124 323.678 245.196 323.678 246.572C323.678 247.972 323.454 249.06 323.006 249.836C322.558 250.612 321.778 251 320.666 251C319.546 251 318.762 250.612 318.314 249.836C317.866 249.06 317.642 247.972 317.642 246.572ZM322.598 246.572C322.598 245.876 322.55 245.288 322.454 244.808C322.366 244.32 322.178 243.928 321.89 243.632C321.61 243.336 321.202 243.188 320.666 243.188C320.122 243.188 319.706 243.336 319.418 243.632C319.138 243.928 318.95 244.32 318.854 244.808C318.766 245.288 318.722 245.876 318.722 246.572C318.722 247.292 318.766 247.896 318.854 248.384C318.95 248.872 319.138 249.264 319.418 249.56C319.706 249.856 320.122 250.004 320.666 250.004C321.202 250.004 321.61 249.856 321.89 249.56C322.178 249.264 322.366 248.872 322.454 248.384C322.55 247.896 322.598 247.292 322.598 246.572Z" fill="#3F434A"/>
<defs>
<clipPath id="clip0_947_1708">
<rect width="28" height="28" fill="white" transform="translate(211.75 48)"/>
</clipPath>
</defs>
</svg>
