<svg width="340" height="208" viewBox="0 0 340 208" fill="none" xmlns="http://www.w3.org/2000/svg">
<path d="M6.732 7.144C6.732 7.568 6.632 7.968 6.432 8.344C6.232 8.72 5.912 9.028 5.472 9.268C5.032 9.5 4.468 9.616 3.78 9.616H2.268V13H0.9V4.66H3.78C4.42 4.66 4.96 4.772 5.4 4.996C5.848 5.212 6.18 5.508 6.396 5.884C6.62 6.26 6.732 6.68 6.732 7.144ZM3.78 8.5C4.3 8.5 4.688 8.384 4.944 8.152C5.2 7.912 5.328 7.576 5.328 7.144C5.328 6.232 4.812 5.776 3.78 5.776H2.268V8.5H3.78ZM14.0247 6.388V13H12.6567V12.22C12.4407 12.492 12.1567 12.708 11.8047 12.868C11.4607 13.02 11.0927 13.096 10.7007 13.096C10.1807 13.096 9.71272 12.988 9.29672 12.772C8.88872 12.556 8.56472 12.236 8.32472 11.812C8.09272 11.388 7.97672 10.876 7.97672 10.276V6.388H9.33272V10.072C9.33272 10.664 9.48072 11.12 9.77672 11.44C10.0727 11.752 10.4767 11.908 10.9887 11.908C11.5007 11.908 11.9047 11.752 12.2007 11.44C12.5047 11.12 12.6567 10.664 12.6567 10.072V6.388H14.0247ZM17.1977 7.348C17.3977 7.012 17.6617 6.752 17.9897 6.568C18.3257 6.376 18.7217 6.28 19.1777 6.28V7.696H18.8297C18.2937 7.696 17.8857 7.832 17.6057 8.104C17.3337 8.376 17.1977 8.848 17.1977 9.52V13H15.8297V6.388H17.1977V7.348ZM19.9792 9.688C19.9792 9.008 20.1152 8.412 20.3872 7.9C20.6672 7.38 21.0512 6.98 21.5392 6.7C22.0272 6.42 22.5872 6.28 23.2192 6.28C24.0192 6.28 24.6792 6.472 25.1992 6.856C25.7272 7.232 26.0832 7.772 26.2672 8.476H24.7912C24.6712 8.148 24.4792 7.892 24.2152 7.708C23.9512 7.524 23.6192 7.432 23.2192 7.432C22.6592 7.432 22.2112 7.632 21.8752 8.032C21.5472 8.424 21.3832 8.976 21.3832 9.688C21.3832 10.4 21.5472 10.956 21.8752 11.356C22.2112 11.756 22.6592 11.956 23.2192 11.956C24.0112 11.956 24.5352 11.608 24.7912 10.912H26.2672C26.0752 11.584 25.7152 12.12 25.1872 12.52C24.6592 12.912 24.0032 13.108 23.2192 13.108C22.5872 13.108 22.0272 12.968 21.5392 12.688C21.0512 12.4 20.6672 12 20.3872 11.488C20.1152 10.968 19.9792 10.368 19.9792 9.688ZM31.0505 6.28C31.5545 6.28 32.0025 6.388 32.3945 6.604C32.7945 6.82 33.1065 7.14 33.3305 7.564C33.5625 7.988 33.6785 8.5 33.6785 9.1V13H32.3225V9.304C32.3225 8.712 32.1745 8.26 31.8785 7.948C31.5825 7.628 31.1785 7.468 30.6665 7.468C30.1545 7.468 29.7465 7.628 29.4425 7.948C29.1465 8.26 28.9985 8.712 28.9985 9.304V13H27.6305V4.12H28.9985V7.156C29.2305 6.876 29.5225 6.66 29.8745 6.508C30.2345 6.356 30.6265 6.28 31.0505 6.28ZM34.9674 9.664C34.9674 9 35.1034 8.412 35.3754 7.9C35.6554 7.388 36.0314 6.992 36.5034 6.712C36.9834 6.424 37.5114 6.28 38.0874 6.28C38.6074 6.28 39.0594 6.384 39.4434 6.592C39.8354 6.792 40.1474 7.044 40.3794 7.348V6.388H41.7594V13H40.3794V12.016C40.1474 12.328 39.8314 12.588 39.4314 12.796C39.0314 13.004 38.5754 13.108 38.0634 13.108C37.4954 13.108 36.9754 12.964 36.5034 12.676C36.0314 12.38 35.6554 11.972 35.3754 11.452C35.1034 10.924 34.9674 10.328 34.9674 9.664ZM40.3794 9.688C40.3794 9.232 40.2834 8.836 40.0914 8.5C39.9074 8.164 39.6634 7.908 39.3594 7.732C39.0554 7.556 38.7274 7.468 38.3754 7.468C38.0234 7.468 37.6954 7.556 37.3914 7.732C37.0874 7.9 36.8394 8.152 36.6474 8.488C36.4634 8.816 36.3714 9.208 36.3714 9.664C36.3714 10.12 36.4634 10.52 36.6474 10.864C36.8394 11.208 37.0874 11.472 37.3914 11.656C37.7034 11.832 38.0314 11.92 38.3754 11.92C38.7274 11.92 39.0554 11.832 39.3594 11.656C39.6634 11.48 39.9074 11.224 40.0914 10.888C40.2834 10.544 40.3794 10.144 40.3794 9.688ZM45.9563 13.108C45.4363 13.108 44.9683 13.016 44.5523 12.832C44.1443 12.64 43.8203 12.384 43.5803 12.064C43.3403 11.736 43.2123 11.372 43.1963 10.972H44.6123C44.6363 11.252 44.7683 11.488 45.0083 11.68C45.2563 11.864 45.5643 11.956 45.9323 11.956C46.3163 11.956 46.6123 11.884 46.8203 11.74C47.0363 11.588 47.1443 11.396 47.1443 11.164C47.1443 10.916 47.0243 10.732 46.7843 10.612C46.5523 10.492 46.1803 10.36 45.6683 10.216C45.1723 10.08 44.7683 9.948 44.4563 9.82C44.1443 9.692 43.8723 9.496 43.6403 9.232C43.4163 8.968 43.3043 8.62 43.3043 8.188C43.3043 7.836 43.4083 7.516 43.6163 7.228C43.8243 6.932 44.1203 6.7 44.5043 6.532C44.8963 6.364 45.3443 6.28 45.8483 6.28C46.6003 6.28 47.2043 6.472 47.6603 6.856C48.1243 7.232 48.3723 7.748 48.4043 8.404H47.0363C47.0123 8.108 46.8923 7.872 46.6763 7.696C46.4603 7.52 46.1683 7.432 45.8003 7.432C45.4403 7.432 45.1643 7.5 44.9723 7.636C44.7803 7.772 44.6843 7.952 44.6843 8.176C44.6843 8.352 44.7483 8.5 44.8763 8.62C45.0043 8.74 45.1603 8.836 45.3443 8.908C45.5283 8.972 45.8003 9.056 46.1603 9.16C46.6403 9.288 47.0323 9.42 47.3363 9.556C47.6483 9.684 47.9163 9.876 48.1403 10.132C48.3643 10.388 48.4803 10.728 48.4883 11.152C48.4883 11.528 48.3843 11.864 48.1763 12.16C47.9683 12.456 47.6723 12.688 47.2883 12.856C46.9123 13.024 46.4683 13.108 45.9563 13.108ZM56.0264 9.532C56.0264 9.78 56.0104 10.004 55.9784 10.204H50.9264C50.9664 10.732 51.1624 11.156 51.5144 11.476C51.8664 11.796 52.2984 11.956 52.8104 11.956C53.5464 11.956 54.0664 11.648 54.3704 11.032H55.8464C55.6464 11.64 55.2824 12.14 54.7544 12.532C54.2344 12.916 53.5864 13.108 52.8104 13.108C52.1784 13.108 51.6104 12.968 51.1064 12.688C50.6104 12.4 50.2184 12 49.9304 11.488C49.6504 10.968 49.5104 10.368 49.5104 9.688C49.5104 9.008 49.6464 8.412 49.9184 7.9C50.1984 7.38 50.5864 6.98 51.0824 6.7C51.5864 6.42 52.1624 6.28 52.8104 6.28C53.4344 6.28 53.9904 6.416 54.4784 6.688C54.9664 6.96 55.3464 7.344 55.6184 7.84C55.8904 8.328 56.0264 8.892 56.0264 9.532ZM54.5984 9.1C54.5904 8.596 54.4104 8.192 54.0584 7.888C53.7064 7.584 53.2704 7.432 52.7504 7.432C52.2784 7.432 51.8744 7.584 51.5384 7.888C51.2024 8.184 51.0024 8.588 50.9384 9.1H54.5984ZM64.2938 13.084C63.5178 13.084 62.8018 12.904 62.1458 12.544C61.4978 12.176 60.9818 11.668 60.5978 11.02C60.2218 10.364 60.0338 9.628 60.0338 8.812C60.0338 7.996 60.2218 7.264 60.5978 6.616C60.9818 5.968 61.4978 5.464 62.1458 5.104C62.8018 4.736 63.5178 4.552 64.2938 4.552C65.0778 4.552 65.7938 4.736 66.4418 5.104C67.0978 5.464 67.6138 5.968 67.9898 6.616C68.3658 7.264 68.5538 7.996 68.5538 8.812C68.5538 9.628 68.3658 10.364 67.9898 11.02C67.6138 11.668 67.0978 12.176 66.4418 12.544C65.7938 12.904 65.0778 13.084 64.2938 13.084ZM64.2938 11.896C64.8458 11.896 65.3378 11.772 65.7698 11.524C66.2018 11.268 66.5378 10.908 66.7778 10.444C67.0258 9.972 67.1498 9.428 67.1498 8.812C67.1498 8.196 67.0258 7.656 66.7778 7.192C66.5378 6.728 66.2018 6.372 65.7698 6.124C65.3378 5.876 64.8458 5.752 64.2938 5.752C63.7418 5.752 63.2498 5.876 62.8178 6.124C62.3858 6.372 62.0458 6.728 61.7978 7.192C61.5578 7.656 61.4378 8.196 61.4378 8.812C61.4378 9.428 61.5578 9.972 61.7978 10.444C62.0458 10.908 62.3858 11.268 62.8178 11.524C63.2498 11.772 63.7418 11.896 64.2938 11.896ZM71.268 7.36C71.5 7.056 71.816 6.8 72.216 6.592C72.616 6.384 73.068 6.28 73.572 6.28C74.148 6.28 74.672 6.424 75.144 6.712C75.624 6.992 76 7.388 76.272 7.9C76.544 8.412 76.68 9 76.68 9.664C76.68 10.328 76.544 10.924 76.272 11.452C76 11.972 75.624 12.38 75.144 12.676C74.672 12.964 74.148 13.108 73.572 13.108C73.068 13.108 72.62 13.008 72.228 12.808C71.836 12.6 71.516 12.344 71.268 12.04V16.144H69.9V6.388H71.268V7.36ZM75.288 9.664C75.288 9.208 75.192 8.816 75 8.488C74.816 8.152 74.568 7.9 74.256 7.732C73.952 7.556 73.624 7.468 73.272 7.468C72.928 7.468 72.6 7.556 72.288 7.732C71.984 7.908 71.736 8.164 71.544 8.5C71.36 8.836 71.268 9.232 71.268 9.688C71.268 10.144 71.36 10.544 71.544 10.888C71.736 11.224 71.984 11.48 72.288 11.656C72.6 11.832 72.928 11.92 73.272 11.92C73.624 11.92 73.952 11.832 74.256 11.656C74.568 11.472 74.816 11.208 75 10.864C75.192 10.52 75.288 10.12 75.288 9.664ZM79.6288 7.504V11.164C79.6288 11.412 79.6848 11.592 79.7968 11.704C79.9168 11.808 80.1168 11.86 80.3968 11.86H81.2368V13H80.1568C79.5408 13 79.0688 12.856 78.7408 12.568C78.4128 12.28 78.2488 11.812 78.2488 11.164V7.504H77.4688V6.388H78.2488V4.744H79.6288V6.388H81.2368V7.504H79.6288ZM83.1937 5.512C82.9457 5.512 82.7377 5.428 82.5697 5.26C82.4017 5.092 82.3177 4.884 82.3177 4.636C82.3177 4.388 82.4017 4.18 82.5697 4.012C82.7377 3.844 82.9457 3.76 83.1937 3.76C83.4337 3.76 83.6377 3.844 83.8057 4.012C83.9737 4.18 84.0577 4.388 84.0577 4.636C84.0577 4.884 83.9737 5.092 83.8057 5.26C83.6377 5.428 83.4337 5.512 83.1937 5.512ZM83.8657 6.388V13H82.4977V6.388H83.8657ZM88.5297 13.108C87.9057 13.108 87.3417 12.968 86.8377 12.688C86.3337 12.4 85.9377 12 85.6497 11.488C85.3617 10.968 85.2177 10.368 85.2177 9.688C85.2177 9.016 85.3657 8.42 85.6617 7.9C85.9577 7.38 86.3617 6.98 86.8737 6.7C87.3857 6.42 87.9577 6.28 88.5897 6.28C89.2217 6.28 89.7937 6.42 90.3057 6.7C90.8177 6.98 91.2217 7.38 91.5177 7.9C91.8137 8.42 91.9617 9.016 91.9617 9.688C91.9617 10.36 91.8097 10.956 91.5057 11.476C91.2017 11.996 90.7857 12.4 90.2577 12.688C89.7377 12.968 89.1617 13.108 88.5297 13.108ZM88.5297 11.92C88.8817 11.92 89.2097 11.836 89.5137 11.668C89.8257 11.5 90.0777 11.248 90.2697 10.912C90.4617 10.576 90.5577 10.168 90.5577 9.688C90.5577 9.208 90.4657 8.804 90.2817 8.476C90.0977 8.14 89.8537 7.888 89.5497 7.72C89.2457 7.552 88.9177 7.468 88.5657 7.468C88.2137 7.468 87.8857 7.552 87.5817 7.72C87.2857 7.888 87.0497 8.14 86.8737 8.476C86.6977 8.804 86.6097 9.208 86.6097 9.688C86.6097 10.4 86.7897 10.952 87.1497 11.344C87.5177 11.728 87.9777 11.92 88.5297 11.92ZM96.6501 6.28C97.1701 6.28 97.6341 6.388 98.0421 6.604C98.4581 6.82 98.7821 7.14 99.0141 7.564C99.2461 7.988 99.3621 8.5 99.3621 9.1V13H98.0061V9.304C98.0061 8.712 97.8581 8.26 97.5621 7.948C97.2661 7.628 96.8621 7.468 96.3501 7.468C95.8381 7.468 95.4301 7.628 95.1261 7.948C94.8301 8.26 94.6821 8.712 94.6821 9.304V13H93.3141V6.388H94.6821V7.144C94.9061 6.872 95.1901 6.66 95.5341 6.508C95.8861 6.356 96.2581 6.28 96.6501 6.28ZM103.507 13.108C102.987 13.108 102.519 13.016 102.103 12.832C101.695 12.64 101.371 12.384 101.131 12.064C100.891 11.736 100.763 11.372 100.747 10.972H102.163C102.187 11.252 102.319 11.488 102.559 11.68C102.807 11.864 103.115 11.956 103.483 11.956C103.867 11.956 104.163 11.884 104.371 11.74C104.587 11.588 104.695 11.396 104.695 11.164C104.695 10.916 104.575 10.732 104.335 10.612C104.103 10.492 103.731 10.36 103.219 10.216C102.723 10.08 102.319 9.948 102.007 9.82C101.695 9.692 101.423 9.496 101.191 9.232C100.967 8.968 100.855 8.62 100.855 8.188C100.855 7.836 100.959 7.516 101.167 7.228C101.375 6.932 101.671 6.7 102.055 6.532C102.447 6.364 102.895 6.28 103.399 6.28C104.151 6.28 104.755 6.472 105.211 6.856C105.675 7.232 105.923 7.748 105.955 8.404H104.587C104.563 8.108 104.443 7.872 104.227 7.696C104.011 7.52 103.719 7.432 103.351 7.432C102.991 7.432 102.715 7.5 102.523 7.636C102.331 7.772 102.235 7.952 102.235 8.176C102.235 8.352 102.299 8.5 102.427 8.62C102.555 8.74 102.711 8.836 102.895 8.908C103.079 8.972 103.351 9.056 103.711 9.16C104.191 9.288 104.583 9.42 104.887 9.556C105.199 9.684 105.467 9.876 105.691 10.132C105.915 10.388 106.031 10.728 106.039 11.152C106.039 11.528 105.935 11.864 105.727 12.16C105.519 12.456 105.223 12.688 104.839 12.856C104.463 13.024 104.019 13.108 103.507 13.108Z" fill="black"/>
<rect width="340" height="58" transform="translate(0 28)" fill="#F6F6F8"/>
<circle cx="27" cy="56.8958" r="6.5" fill="white" stroke="#2D292A"/>
<path d="M49.232 61L47.312 57.664H46.268V61H44.9V52.66H47.78C48.42 52.66 48.96 52.772 49.4 52.996C49.848 53.22 50.18 53.52 50.396 53.896C50.62 54.272 50.732 54.692 50.732 55.156C50.732 55.7 50.572 56.196 50.252 56.644C49.94 57.084 49.456 57.384 48.8 57.544L50.864 61H49.232ZM46.268 56.572H47.78C48.292 56.572 48.676 56.444 48.932 56.188C49.196 55.932 49.328 55.588 49.328 55.156C49.328 54.724 49.2 54.388 48.944 54.148C48.688 53.9 48.3 53.776 47.78 53.776H46.268V56.572ZM58.542 57.532C58.542 57.78 58.526 58.004 58.494 58.204H53.442C53.482 58.732 53.678 59.156 54.03 59.476C54.382 59.796 54.814 59.956 55.326 59.956C56.062 59.956 56.582 59.648 56.886 59.032H58.362C58.162 59.64 57.798 60.14 57.27 60.532C56.75 60.916 56.102 61.108 55.326 61.108C54.694 61.108 54.126 60.968 53.622 60.688C53.126 60.4 52.734 60 52.446 59.488C52.166 58.968 52.026 58.368 52.026 57.688C52.026 57.008 52.162 56.412 52.434 55.9C52.714 55.38 53.102 54.98 53.598 54.7C54.102 54.42 54.678 54.28 55.326 54.28C55.95 54.28 56.506 54.416 56.994 54.688C57.482 54.96 57.862 55.344 58.134 55.84C58.406 56.328 58.542 56.892 58.542 57.532ZM57.114 57.1C57.106 56.596 56.926 56.192 56.574 55.888C56.222 55.584 55.786 55.432 55.266 55.432C54.794 55.432 54.39 55.584 54.054 55.888C53.718 56.184 53.518 56.588 53.454 57.1H57.114ZM62.5523 54.28C63.0643 54.28 63.5163 54.384 63.9083 54.592C64.3083 54.792 64.6203 55.044 64.8443 55.348V54.388H66.2243V61.108C66.2243 61.716 66.0963 62.256 65.8403 62.728C65.5843 63.208 65.2123 63.584 64.7243 63.856C64.2443 64.128 63.6683 64.264 62.9963 64.264C62.1003 64.264 61.3563 64.052 60.7643 63.628C60.1723 63.212 59.8363 62.644 59.7563 61.924H61.1123C61.2163 62.268 61.4363 62.544 61.7723 62.752C62.1163 62.968 62.5243 63.076 62.9963 63.076C63.5483 63.076 63.9923 62.908 64.3283 62.572C64.6723 62.236 64.8443 61.748 64.8443 61.108V60.004C64.6123 60.316 64.2963 60.58 63.8963 60.796C63.5043 61.004 63.0563 61.108 62.5523 61.108C61.9763 61.108 61.4483 60.964 60.9683 60.676C60.4963 60.38 60.1203 59.972 59.8403 59.452C59.5683 58.924 59.4323 58.328 59.4323 57.664C59.4323 57 59.5683 56.412 59.8403 55.9C60.1203 55.388 60.4963 54.992 60.9683 54.712C61.4483 54.424 61.9763 54.28 62.5523 54.28ZM64.8443 57.688C64.8443 57.232 64.7483 56.836 64.5563 56.5C64.3723 56.164 64.1283 55.908 63.8243 55.732C63.5203 55.556 63.1923 55.468 62.8403 55.468C62.4883 55.468 62.1603 55.556 61.8563 55.732C61.5523 55.9 61.3043 56.152 61.1123 56.488C60.9283 56.816 60.8363 57.208 60.8363 57.664C60.8363 58.12 60.9283 58.52 61.1123 58.864C61.3043 59.208 61.5523 59.472 61.8563 59.656C62.1683 59.832 62.4963 59.92 62.8403 59.92C63.1923 59.92 63.5203 59.832 63.8243 59.656C64.1283 59.48 64.3723 59.224 64.5563 58.888C64.7483 58.544 64.8443 58.144 64.8443 57.688ZM74.0091 54.388V61H72.6411V60.22C72.4251 60.492 72.1411 60.708 71.7891 60.868C71.4451 61.02 71.0771 61.096 70.6851 61.096C70.1651 61.096 69.6971 60.988 69.2811 60.772C68.8731 60.556 68.5491 60.236 68.3091 59.812C68.0771 59.388 67.9611 58.876 67.9611 58.276V54.388H69.3171V58.072C69.3171 58.664 69.4651 59.12 69.7611 59.44C70.0571 59.752 70.4611 59.908 70.9731 59.908C71.4851 59.908 71.8891 59.752 72.1851 59.44C72.4891 59.12 72.6411 58.664 72.6411 58.072V54.388H74.0091ZM77.1821 52.12V61H75.8141V52.12H77.1821ZM78.5221 57.664C78.5221 57 78.6581 56.412 78.9301 55.9C79.2101 55.388 79.5861 54.992 80.0581 54.712C80.5381 54.424 81.0661 54.28 81.6421 54.28C82.1621 54.28 82.6141 54.384 82.9981 54.592C83.3901 54.792 83.7021 55.044 83.9341 55.348V54.388H85.3141V61H83.9341V60.016C83.7021 60.328 83.3861 60.588 82.9861 60.796C82.5861 61.004 82.1301 61.108 81.6181 61.108C81.0501 61.108 80.5301 60.964 80.0581 60.676C79.5861 60.38 79.2101 59.972 78.9301 59.452C78.6581 58.924 78.5221 58.328 78.5221 57.664ZM83.9341 57.688C83.9341 57.232 83.8381 56.836 83.6461 56.5C83.4621 56.164 83.2181 55.908 82.9141 55.732C82.6101 55.556 82.2821 55.468 81.9301 55.468C81.5781 55.468 81.2501 55.556 80.9461 55.732C80.6421 55.9 80.3941 56.152 80.2021 56.488C80.0181 56.816 79.9261 57.208 79.9261 57.664C79.9261 58.12 80.0181 58.52 80.2021 58.864C80.3941 59.208 80.6421 59.472 80.9461 59.656C81.2581 59.832 81.5861 59.92 81.9301 59.92C82.2821 59.92 82.6101 59.832 82.9141 59.656C83.2181 59.48 83.4621 59.224 83.6461 58.888C83.8381 58.544 83.9341 58.144 83.9341 57.688ZM88.4789 55.348C88.6789 55.012 88.9429 54.752 89.2709 54.568C89.6069 54.376 90.0029 54.28 90.4589 54.28V55.696H90.1109C89.5749 55.696 89.1669 55.832 88.8869 56.104C88.6149 56.376 88.4789 56.848 88.4789 57.52V61H87.1109V54.388H88.4789V55.348ZM96.2016 55.36C96.4336 55.056 96.7496 54.8 97.1496 54.592C97.5496 54.384 98.0016 54.28 98.5056 54.28C99.0816 54.28 99.6056 54.424 100.078 54.712C100.558 54.992 100.934 55.388 101.206 55.9C101.478 56.412 101.614 57 101.614 57.664C101.614 58.328 101.478 58.924 101.206 59.452C100.934 59.972 100.558 60.38 100.078 60.676C99.6056 60.964 99.0816 61.108 98.5056 61.108C98.0016 61.108 97.5536 61.008 97.1616 60.808C96.7696 60.6 96.4496 60.344 96.2016 60.04V64.144H94.8336V54.388H96.2016V55.36ZM100.222 57.664C100.222 57.208 100.126 56.816 99.9336 56.488C99.7496 56.152 99.5016 55.9 99.1896 55.732C98.8856 55.556 98.5576 55.468 98.2056 55.468C97.8616 55.468 97.5336 55.556 97.2216 55.732C96.9176 55.908 96.6696 56.164 96.4776 56.5C96.2936 56.836 96.2016 57.232 96.2016 57.688C96.2016 58.144 96.2936 58.544 96.4776 58.888C96.6696 59.224 96.9176 59.48 97.2216 59.656C97.5336 59.832 97.8616 59.92 98.2056 59.92C98.5576 59.92 98.8856 59.832 99.1896 59.656C99.5016 59.472 99.7496 59.208 99.9336 58.864C100.126 58.52 100.222 58.12 100.222 57.664ZM108.954 54.388V61H107.586V60.22C107.37 60.492 107.086 60.708 106.734 60.868C106.39 61.02 106.022 61.096 105.63 61.096C105.11 61.096 104.642 60.988 104.226 60.772C103.818 60.556 103.494 60.236 103.254 59.812C103.022 59.388 102.906 58.876 102.906 58.276V54.388H104.262V58.072C104.262 58.664 104.41 59.12 104.706 59.44C105.002 59.752 105.406 59.908 105.918 59.908C106.43 59.908 106.834 59.752 107.13 59.44C107.434 59.12 107.586 58.664 107.586 58.072V54.388H108.954ZM112.127 55.348C112.327 55.012 112.591 54.752 112.919 54.568C113.255 54.376 113.651 54.28 114.107 54.28V55.696H113.759C113.223 55.696 112.815 55.832 112.535 56.104C112.263 56.376 112.127 56.848 112.127 57.52V61H110.759V54.388H112.127V55.348ZM114.909 57.688C114.909 57.008 115.045 56.412 115.317 55.9C115.597 55.38 115.981 54.98 116.469 54.7C116.957 54.42 117.517 54.28 118.149 54.28C118.949 54.28 119.609 54.472 120.129 54.856C120.657 55.232 121.013 55.772 121.197 56.476H119.721C119.601 56.148 119.409 55.892 119.145 55.708C118.881 55.524 118.549 55.432 118.149 55.432C117.589 55.432 117.141 55.632 116.805 56.032C116.477 56.424 116.313 56.976 116.313 57.688C116.313 58.4 116.477 58.956 116.805 59.356C117.141 59.756 117.589 59.956 118.149 59.956C118.941 59.956 119.465 59.608 119.721 58.912H121.197C121.005 59.584 120.645 60.12 120.117 60.52C119.589 60.912 118.933 61.108 118.149 61.108C117.517 61.108 116.957 60.968 116.469 60.688C115.981 60.4 115.597 60 115.317 59.488C115.045 58.968 114.909 58.368 114.909 57.688ZM125.98 54.28C126.484 54.28 126.932 54.388 127.324 54.604C127.724 54.82 128.036 55.14 128.26 55.564C128.492 55.988 128.608 56.5 128.608 57.1V61H127.252V57.304C127.252 56.712 127.104 56.26 126.808 55.948C126.512 55.628 126.108 55.468 125.596 55.468C125.084 55.468 124.676 55.628 124.372 55.948C124.076 56.26 123.928 56.712 123.928 57.304V61H122.56V52.12H123.928V55.156C124.16 54.876 124.452 54.66 124.804 54.508C125.164 54.356 125.556 54.28 125.98 54.28ZM129.897 57.664C129.897 57 130.033 56.412 130.305 55.9C130.585 55.388 130.961 54.992 131.433 54.712C131.913 54.424 132.441 54.28 133.017 54.28C133.537 54.28 133.989 54.384 134.373 54.592C134.765 54.792 135.077 55.044 135.309 55.348V54.388H136.689V61H135.309V60.016C135.077 60.328 134.761 60.588 134.361 60.796C133.961 61.004 133.505 61.108 132.993 61.108C132.425 61.108 131.905 60.964 131.433 60.676C130.961 60.38 130.585 59.972 130.305 59.452C130.033 58.924 129.897 58.328 129.897 57.664ZM135.309 57.688C135.309 57.232 135.213 56.836 135.021 56.5C134.837 56.164 134.593 55.908 134.289 55.732C133.985 55.556 133.657 55.468 133.305 55.468C132.953 55.468 132.625 55.556 132.321 55.732C132.017 55.9 131.769 56.152 131.577 56.488C131.393 56.816 131.301 57.208 131.301 57.664C131.301 58.12 131.393 58.52 131.577 58.864C131.769 59.208 132.017 59.472 132.321 59.656C132.633 59.832 132.961 59.92 133.305 59.92C133.657 59.92 133.985 59.832 134.289 59.656C134.593 59.48 134.837 59.224 135.021 58.888C135.213 58.544 135.309 58.144 135.309 57.688ZM140.886 61.108C140.366 61.108 139.898 61.016 139.482 60.832C139.074 60.64 138.75 60.384 138.51 60.064C138.27 59.736 138.142 59.372 138.126 58.972H139.542C139.566 59.252 139.698 59.488 139.938 59.68C140.186 59.864 140.494 59.956 140.862 59.956C141.246 59.956 141.542 59.884 141.75 59.74C141.966 59.588 142.074 59.396 142.074 59.164C142.074 58.916 141.954 58.732 141.714 58.612C141.482 58.492 141.11 58.36 140.598 58.216C140.102 58.08 139.698 57.948 139.386 57.82C139.074 57.692 138.802 57.496 138.57 57.232C138.346 56.968 138.234 56.62 138.234 56.188C138.234 55.836 138.338 55.516 138.546 55.228C138.754 54.932 139.05 54.7 139.434 54.532C139.826 54.364 140.274 54.28 140.778 54.28C141.53 54.28 142.134 54.472 142.59 54.856C143.054 55.232 143.302 55.748 143.334 56.404H141.966C141.942 56.108 141.822 55.872 141.606 55.696C141.39 55.52 141.098 55.432 140.73 55.432C140.37 55.432 140.094 55.5 139.902 55.636C139.71 55.772 139.614 55.952 139.614 56.176C139.614 56.352 139.678 56.5 139.806 56.62C139.934 56.74 140.09 56.836 140.274 56.908C140.458 56.972 140.73 57.056 141.09 57.16C141.57 57.288 141.962 57.42 142.266 57.556C142.578 57.684 142.846 57.876 143.07 58.132C143.294 58.388 143.41 58.728 143.418 59.152C143.418 59.528 143.314 59.864 143.106 60.16C142.898 60.456 142.602 60.688 142.218 60.856C141.842 61.024 141.398 61.108 140.886 61.108ZM150.956 57.532C150.956 57.78 150.94 58.004 150.908 58.204H145.856C145.896 58.732 146.092 59.156 146.444 59.476C146.796 59.796 147.228 59.956 147.74 59.956C148.476 59.956 148.996 59.648 149.3 59.032H150.776C150.576 59.64 150.212 60.14 149.684 60.532C149.164 60.916 148.516 61.108 147.74 61.108C147.108 61.108 146.54 60.968 146.036 60.688C145.54 60.4 145.148 60 144.86 59.488C144.58 58.968 144.44 58.368 144.44 57.688C144.44 57.008 144.576 56.412 144.848 55.9C145.128 55.38 145.516 54.98 146.012 54.7C146.516 54.42 147.092 54.28 147.74 54.28C148.364 54.28 148.92 54.416 149.408 54.688C149.896 54.96 150.276 55.344 150.548 55.84C150.82 56.328 150.956 56.892 150.956 57.532ZM149.528 57.1C149.52 56.596 149.34 56.192 148.988 55.888C148.636 55.584 148.2 55.432 147.68 55.432C147.208 55.432 146.804 55.584 146.468 55.888C146.132 56.184 145.932 56.588 145.868 57.1H149.528Z" fill="#3F434A"/>
<path d="M289.324 58.708C289.324 59.092 289.228 59.46 289.036 59.812C288.844 60.156 288.56 60.444 288.184 60.676C287.816 60.908 287.372 61.04 286.852 61.072V62.044H286.204V61.072C285.476 61.008 284.884 60.776 284.428 60.376C283.972 59.968 283.74 59.452 283.732 58.828H284.896C284.928 59.164 285.052 59.456 285.268 59.704C285.492 59.952 285.804 60.108 286.204 60.172V57.172C285.668 57.036 285.236 56.896 284.908 56.752C284.58 56.608 284.3 56.384 284.068 56.08C283.836 55.776 283.72 55.368 283.72 54.856C283.72 54.208 283.944 53.672 284.392 53.248C284.848 52.824 285.452 52.588 286.204 52.54V51.544H286.852V52.54C287.532 52.596 288.08 52.816 288.496 53.2C288.912 53.576 289.152 54.068 289.216 54.676H288.052C288.012 54.396 287.888 54.144 287.68 53.92C287.472 53.688 287.196 53.536 286.852 53.464V56.392C287.38 56.528 287.808 56.668 288.136 56.812C288.472 56.948 288.752 57.168 288.976 57.472C289.208 57.776 289.324 58.188 289.324 58.708ZM284.836 54.796C284.836 55.188 284.952 55.488 285.184 55.696C285.416 55.904 285.756 56.076 286.204 56.212V53.44C285.788 53.48 285.456 53.616 285.208 53.848C284.96 54.072 284.836 54.388 284.836 54.796ZM286.852 60.184C287.284 60.136 287.62 59.98 287.86 59.716C288.108 59.452 288.232 59.136 288.232 58.768C288.232 58.376 288.112 58.076 287.872 57.868C287.632 57.652 287.292 57.48 286.852 57.352V60.184ZM290.921 53.32V52.324H293.177V61H292.073V53.32H290.921ZM295.053 56.572C295.053 55.196 295.277 54.124 295.725 53.356C296.173 52.58 296.957 52.192 298.077 52.192C299.189 52.192 299.969 52.58 300.417 53.356C300.865 54.124 301.089 55.196 301.089 56.572C301.089 57.972 300.865 59.06 300.417 59.836C299.969 60.612 299.189 61 298.077 61C296.957 61 296.173 60.612 295.725 59.836C295.277 59.06 295.053 57.972 295.053 56.572ZM300.009 56.572C300.009 55.876 299.961 55.288 299.865 54.808C299.777 54.32 299.589 53.928 299.301 53.632C299.021 53.336 298.613 53.188 298.077 53.188C297.533 53.188 297.117 53.336 296.829 53.632C296.549 53.928 296.361 54.32 296.265 54.808C296.177 55.288 296.133 55.876 296.133 56.572C296.133 57.292 296.177 57.896 296.265 58.384C296.361 58.872 296.549 59.264 296.829 59.56C297.117 59.856 297.533 60.004 298.077 60.004C298.613 60.004 299.021 59.856 299.301 59.56C299.589 59.264 299.777 58.872 299.865 58.384C299.961 57.896 300.009 57.292 300.009 56.572ZM303.116 61.072C302.908 61.072 302.732 61 302.588 60.856C302.444 60.712 302.372 60.536 302.372 60.328C302.372 60.12 302.444 59.944 302.588 59.8C302.732 59.656 302.908 59.584 303.116 59.584C303.316 59.584 303.484 59.656 303.62 59.8C303.764 59.944 303.836 60.12 303.836 60.328C303.836 60.536 303.764 60.712 303.62 60.856C303.484 61 303.316 61.072 303.116 61.072ZM305.107 56.572C305.107 55.196 305.331 54.124 305.779 53.356C306.227 52.58 307.011 52.192 308.131 52.192C309.243 52.192 310.023 52.58 310.471 53.356C310.919 54.124 311.143 55.196 311.143 56.572C311.143 57.972 310.919 59.06 310.471 59.836C310.023 60.612 309.243 61 308.131 61C307.011 61 306.227 60.612 305.779 59.836C305.331 59.06 305.107 57.972 305.107 56.572ZM310.063 56.572C310.063 55.876 310.015 55.288 309.919 54.808C309.831 54.32 309.643 53.928 309.355 53.632C309.075 53.336 308.667 53.188 308.131 53.188C307.587 53.188 307.171 53.336 306.883 53.632C306.603 53.928 306.415 54.32 306.319 54.808C306.231 55.288 306.187 55.876 306.187 56.572C306.187 57.292 306.231 57.896 306.319 58.384C306.415 58.872 306.603 59.264 306.883 59.56C307.171 59.856 307.587 60.004 308.131 60.004C308.667 60.004 309.075 59.856 309.355 59.56C309.643 59.264 309.831 58.872 309.919 58.384C310.015 57.896 310.063 57.292 310.063 56.572ZM312.642 56.572C312.642 55.196 312.866 54.124 313.314 53.356C313.762 52.58 314.546 52.192 315.666 52.192C316.778 52.192 317.558 52.58 318.006 53.356C318.454 54.124 318.678 55.196 318.678 56.572C318.678 57.972 318.454 59.06 318.006 59.836C317.558 60.612 316.778 61 315.666 61C314.546 61 313.762 60.612 313.314 59.836C312.866 59.06 312.642 57.972 312.642 56.572ZM317.598 56.572C317.598 55.876 317.55 55.288 317.454 54.808C317.366 54.32 317.178 53.928 316.89 53.632C316.61 53.336 316.202 53.188 315.666 53.188C315.122 53.188 314.706 53.336 314.418 53.632C314.138 53.928 313.95 54.32 313.854 54.808C313.766 55.288 313.722 55.876 313.722 56.572C313.722 57.292 313.766 57.896 313.854 58.384C313.95 58.872 314.138 59.264 314.418 59.56C314.706 59.856 315.122 60.004 315.666 60.004C316.202 60.004 316.61 59.856 316.89 59.56C317.178 59.264 317.366 58.872 317.454 58.384C317.55 57.896 317.598 57.292 317.598 56.572Z" fill="#3F434A"/>
<rect width="340" height="112" transform="translate(0 96)" fill="#F6F6F8"/>
<circle cx="27" cy="123" r="6.5" fill="white" stroke="#2D292A"/>
<circle cx="27" cy="123" r="3" fill="#2D292A"/>
<path d="M47.648 129.084C47.088 129.084 46.584 128.988 46.136 128.796C45.688 128.596 45.336 128.316 45.08 127.956C44.824 127.596 44.696 127.176 44.696 126.696H46.16C46.192 127.056 46.332 127.352 46.58 127.584C46.836 127.816 47.192 127.932 47.648 127.932C48.12 127.932 48.488 127.82 48.752 127.596C49.016 127.364 49.148 127.068 49.148 126.708C49.148 126.428 49.064 126.2 48.896 126.024C48.736 125.848 48.532 125.712 48.284 125.616C48.044 125.52 47.708 125.416 47.276 125.304C46.732 125.16 46.288 125.016 45.944 124.872C45.608 124.72 45.32 124.488 45.08 124.176C44.84 123.864 44.72 123.448 44.72 122.928C44.72 122.448 44.84 122.028 45.08 121.668C45.32 121.308 45.656 121.032 46.088 120.84C46.52 120.648 47.02 120.552 47.588 120.552C48.396 120.552 49.056 120.756 49.568 121.164C50.088 121.564 50.376 122.116 50.432 122.82H48.92C48.896 122.516 48.752 122.256 48.488 122.04C48.224 121.824 47.876 121.716 47.444 121.716C47.052 121.716 46.732 121.816 46.484 122.016C46.236 122.216 46.112 122.504 46.112 122.88C46.112 123.136 46.188 123.348 46.34 123.516C46.5 123.676 46.7 123.804 46.94 123.9C47.18 123.996 47.508 124.1 47.924 124.212C48.476 124.364 48.924 124.516 49.268 124.668C49.62 124.82 49.916 125.056 50.156 125.376C50.404 125.688 50.528 126.108 50.528 126.636C50.528 127.06 50.412 127.46 50.18 127.836C49.956 128.212 49.624 128.516 49.184 128.748C48.752 128.972 48.24 129.084 47.648 129.084ZM58.1302 122.388V129H56.7622V128.22C56.5462 128.492 56.2622 128.708 55.9102 128.868C55.5662 129.02 55.1982 129.096 54.8062 129.096C54.2862 129.096 53.8182 128.988 53.4022 128.772C52.9942 128.556 52.6702 128.236 52.4302 127.812C52.1982 127.388 52.0822 126.876 52.0822 126.276V122.388H53.4382V126.072C53.4382 126.664 53.5862 127.12 53.8822 127.44C54.1782 127.752 54.5822 127.908 55.0942 127.908C55.6062 127.908 56.0102 127.752 56.3062 127.44C56.6102 127.12 56.7622 126.664 56.7622 126.072V122.388H58.1302ZM61.3032 123.372C61.5352 123.052 61.8512 122.792 62.2512 122.592C62.6592 122.384 63.1112 122.28 63.6072 122.28C64.1912 122.28 64.7192 122.42 65.1912 122.7C65.6632 122.98 66.0352 123.38 66.3072 123.9C66.5792 124.412 66.7152 125 66.7152 125.664C66.7152 126.328 66.5792 126.924 66.3072 127.452C66.0352 127.972 65.6592 128.38 65.1792 128.676C64.7072 128.964 64.1832 129.108 63.6072 129.108C63.0952 129.108 62.6392 129.008 62.2392 128.808C61.8472 128.608 61.5352 128.352 61.3032 128.04V129H59.9352V120.12H61.3032V123.372ZM65.3232 125.664C65.3232 125.208 65.2272 124.816 65.0352 124.488C64.8512 124.152 64.6032 123.9 64.2912 123.732C63.9872 123.556 63.6592 123.468 63.3072 123.468C62.9632 123.468 62.6352 123.556 62.3232 123.732C62.0192 123.908 61.7712 124.164 61.5792 124.5C61.3952 124.836 61.3032 125.232 61.3032 125.688C61.3032 126.144 61.3952 126.544 61.5792 126.888C61.7712 127.224 62.0192 127.48 62.3232 127.656C62.6352 127.832 62.9632 127.92 63.3072 127.92C63.6592 127.92 63.9872 127.832 64.2912 127.656C64.6032 127.472 64.8512 127.208 65.0352 126.864C65.2272 126.52 65.3232 126.12 65.3232 125.664ZM70.468 129.108C69.948 129.108 69.48 129.016 69.064 128.832C68.656 128.64 68.332 128.384 68.092 128.064C67.852 127.736 67.724 127.372 67.708 126.972H69.124C69.148 127.252 69.28 127.488 69.52 127.68C69.768 127.864 70.076 127.956 70.444 127.956C70.828 127.956 71.124 127.884 71.332 127.74C71.548 127.588 71.656 127.396 71.656 127.164C71.656 126.916 71.536 126.732 71.296 126.612C71.064 126.492 70.692 126.36 70.18 126.216C69.684 126.08 69.28 125.948 68.968 125.82C68.656 125.692 68.384 125.496 68.152 125.232C67.928 124.968 67.816 124.62 67.816 124.188C67.816 123.836 67.92 123.516 68.128 123.228C68.336 122.932 68.632 122.7 69.016 122.532C69.408 122.364 69.856 122.28 70.36 122.28C71.112 122.28 71.716 122.472 72.172 122.856C72.636 123.232 72.884 123.748 72.916 124.404H71.548C71.524 124.108 71.404 123.872 71.188 123.696C70.972 123.52 70.68 123.432 70.312 123.432C69.952 123.432 69.676 123.5 69.484 123.636C69.292 123.772 69.196 123.952 69.196 124.176C69.196 124.352 69.26 124.5 69.388 124.62C69.516 124.74 69.672 124.836 69.856 124.908C70.04 124.972 70.312 125.056 70.672 125.16C71.152 125.288 71.544 125.42 71.848 125.556C72.16 125.684 72.428 125.876 72.652 126.132C72.876 126.388 72.992 126.728 73 127.152C73 127.528 72.896 127.864 72.688 128.16C72.48 128.456 72.184 128.688 71.8 128.856C71.424 129.024 70.98 129.108 70.468 129.108ZM74.0221 125.688C74.0221 125.008 74.1581 124.412 74.4301 123.9C74.7101 123.38 75.0941 122.98 75.5821 122.7C76.0701 122.42 76.6301 122.28 77.2621 122.28C78.0621 122.28 78.7221 122.472 79.2421 122.856C79.7701 123.232 80.1261 123.772 80.3101 124.476H78.8341C78.7141 124.148 78.5221 123.892 78.2581 123.708C77.9941 123.524 77.6621 123.432 77.2621 123.432C76.7021 123.432 76.2541 123.632 75.9181 124.032C75.5901 124.424 75.4261 124.976 75.4261 125.688C75.4261 126.4 75.5901 126.956 75.9181 127.356C76.2541 127.756 76.7021 127.956 77.2621 127.956C78.0541 127.956 78.5781 127.608 78.8341 126.912H80.3101C80.1181 127.584 79.7581 128.12 79.2301 128.52C78.7021 128.912 78.0461 129.108 77.2621 129.108C76.6301 129.108 76.0701 128.968 75.5821 128.688C75.0941 128.4 74.7101 128 74.4301 127.488C74.1581 126.968 74.0221 126.368 74.0221 125.688ZM83.0414 123.348C83.2414 123.012 83.5054 122.752 83.8334 122.568C84.1694 122.376 84.5654 122.28 85.0214 122.28V123.696H84.6734C84.1374 123.696 83.7294 123.832 83.4494 124.104C83.1774 124.376 83.0414 124.848 83.0414 125.52V129H81.6734V122.388H83.0414V123.348ZM86.9749 121.512C86.7269 121.512 86.5189 121.428 86.3509 121.26C86.1829 121.092 86.0989 120.884 86.0989 120.636C86.0989 120.388 86.1829 120.18 86.3509 120.012C86.5189 119.844 86.7269 119.76 86.9749 119.76C87.2149 119.76 87.4189 119.844 87.5869 120.012C87.7549 120.18 87.8389 120.388 87.8389 120.636C87.8389 120.884 87.7549 121.092 87.5869 121.26C87.4189 121.428 87.2149 121.512 86.9749 121.512ZM87.6469 122.388V129H86.2789V122.388H87.6469ZM90.811 123.372C91.043 123.052 91.359 122.792 91.759 122.592C92.167 122.384 92.619 122.28 93.115 122.28C93.699 122.28 94.227 122.42 94.699 122.7C95.171 122.98 95.543 123.38 95.815 123.9C96.087 124.412 96.223 125 96.223 125.664C96.223 126.328 96.087 126.924 95.815 127.452C95.543 127.972 95.167 128.38 94.687 128.676C94.215 128.964 93.691 129.108 93.115 129.108C92.603 129.108 92.147 129.008 91.747 128.808C91.355 128.608 91.043 128.352 90.811 128.04V129H89.443V120.12H90.811V123.372ZM94.831 125.664C94.831 125.208 94.735 124.816 94.543 124.488C94.359 124.152 94.111 123.9 93.799 123.732C93.495 123.556 93.167 123.468 92.815 123.468C92.471 123.468 92.143 123.556 91.831 123.732C91.527 123.908 91.279 124.164 91.087 124.5C90.903 124.836 90.811 125.232 90.811 125.688C90.811 126.144 90.903 126.544 91.087 126.888C91.279 127.224 91.527 127.48 91.831 127.656C92.143 127.832 92.471 127.92 92.815 127.92C93.167 127.92 93.495 127.832 93.799 127.656C94.111 127.472 94.359 127.208 94.543 126.864C94.735 126.52 94.831 126.12 94.831 125.664ZM103.636 125.532C103.636 125.78 103.62 126.004 103.588 126.204H98.5358C98.5758 126.732 98.7718 127.156 99.1238 127.476C99.4758 127.796 99.9078 127.956 100.42 127.956C101.156 127.956 101.676 127.648 101.98 127.032H103.456C103.256 127.64 102.892 128.14 102.364 128.532C101.844 128.916 101.196 129.108 100.42 129.108C99.7878 129.108 99.2198 128.968 98.7158 128.688C98.2198 128.4 97.8278 128 97.5398 127.488C97.2598 126.968 97.1198 126.368 97.1198 125.688C97.1198 125.008 97.2558 124.412 97.5278 123.9C97.8078 123.38 98.1958 122.98 98.6918 122.7C99.1958 122.42 99.7718 122.28 100.42 122.28C101.044 122.28 101.6 122.416 102.088 122.688C102.576 122.96 102.956 123.344 103.228 123.84C103.5 124.328 103.636 124.892 103.636 125.532ZM102.208 125.1C102.2 124.596 102.02 124.192 101.668 123.888C101.316 123.584 100.88 123.432 100.36 123.432C99.8878 123.432 99.4838 123.584 99.1478 123.888C98.8118 124.184 98.6118 124.588 98.5478 125.1H102.208Z" fill="#3F434A"/>
<rect x="115" y="116" width="69" height="19" rx="9.5" fill="#2D292A"/>
<path d="M129.98 129.07C129.52 129.07 129.107 128.99 128.74 128.83C128.38 128.663 128.097 128.437 127.89 128.15C127.683 127.857 127.577 127.52 127.57 127.14H128.54C128.573 127.467 128.707 127.743 128.94 127.97C129.18 128.19 129.527 128.3 129.98 128.3C130.413 128.3 130.753 128.193 131 127.98C131.253 127.76 131.38 127.48 131.38 127.14C131.38 126.873 131.307 126.657 131.16 126.49C131.013 126.323 130.83 126.197 130.61 126.11C130.39 126.023 130.093 125.93 129.72 125.83C129.26 125.71 128.89 125.59 128.61 125.47C128.337 125.35 128.1 125.163 127.9 124.91C127.707 124.65 127.61 124.303 127.61 123.87C127.61 123.49 127.707 123.153 127.9 122.86C128.093 122.567 128.363 122.34 128.71 122.18C129.063 122.02 129.467 121.94 129.92 121.94C130.573 121.94 131.107 122.103 131.52 122.43C131.94 122.757 132.177 123.19 132.23 123.73H131.23C131.197 123.463 131.057 123.23 130.81 123.03C130.563 122.823 130.237 122.72 129.83 122.72C129.45 122.72 129.14 122.82 128.9 123.02C128.66 123.213 128.54 123.487 128.54 123.84C128.54 124.093 128.61 124.3 128.75 124.46C128.897 124.62 129.073 124.743 129.28 124.83C129.493 124.91 129.79 125.003 130.17 125.11C130.63 125.237 131 125.363 131.28 125.49C131.56 125.61 131.8 125.8 132 126.06C132.2 126.313 132.3 126.66 132.3 127.1C132.3 127.44 132.21 127.76 132.03 128.06C131.85 128.36 131.583 128.603 131.23 128.79C130.877 128.977 130.46 129.07 129.98 129.07ZM133.299 126.24C133.299 125.68 133.412 125.19 133.639 124.77C133.866 124.343 134.176 124.013 134.569 123.78C134.969 123.547 135.412 123.43 135.899 123.43C136.379 123.43 136.796 123.533 137.149 123.74C137.502 123.947 137.766 124.207 137.939 124.52V123.52H138.859V129H137.939V127.98C137.759 128.3 137.489 128.567 137.129 128.78C136.776 128.987 136.362 129.09 135.889 129.09C135.402 129.09 134.962 128.97 134.569 128.73C134.176 128.49 133.866 128.153 133.639 127.72C133.412 127.287 133.299 126.793 133.299 126.24ZM137.939 126.25C137.939 125.837 137.856 125.477 137.689 125.17C137.522 124.863 137.296 124.63 137.009 124.47C136.729 124.303 136.419 124.22 136.079 124.22C135.739 124.22 135.429 124.3 135.149 124.46C134.869 124.62 134.646 124.853 134.479 125.16C134.312 125.467 134.229 125.827 134.229 126.24C134.229 126.66 134.312 127.027 134.479 127.34C134.646 127.647 134.869 127.883 135.149 128.05C135.429 128.21 135.739 128.29 136.079 128.29C136.419 128.29 136.729 128.21 137.009 128.05C137.296 127.883 137.522 127.647 137.689 127.34C137.856 127.027 137.939 126.663 137.939 126.25ZM142.437 128.16L144.137 123.52H145.107L142.957 129H141.897L139.747 123.52H140.727L142.437 128.16ZM151.002 126.05C151.002 126.223 150.992 126.407 150.972 126.6H146.592C146.626 127.14 146.809 127.563 147.142 127.87C147.482 128.17 147.892 128.32 148.372 128.32C148.766 128.32 149.092 128.23 149.352 128.05C149.619 127.863 149.806 127.617 149.912 127.31H150.892C150.746 127.837 150.452 128.267 150.012 128.6C149.572 128.927 149.026 129.09 148.372 129.09C147.852 129.09 147.386 128.973 146.972 128.74C146.566 128.507 146.246 128.177 146.012 127.75C145.779 127.317 145.662 126.817 145.662 126.25C145.662 125.683 145.776 125.187 146.002 124.76C146.229 124.333 146.546 124.007 146.952 123.78C147.366 123.547 147.839 123.43 148.372 123.43C148.892 123.43 149.352 123.543 149.752 123.77C150.152 123.997 150.459 124.31 150.672 124.71C150.892 125.103 151.002 125.55 151.002 126.05ZM150.062 125.86C150.062 125.513 149.986 125.217 149.832 124.97C149.679 124.717 149.469 124.527 149.202 124.4C148.942 124.267 148.652 124.2 148.332 124.2C147.872 124.2 147.479 124.347 147.152 124.64C146.832 124.933 146.649 125.34 146.602 125.86H150.062ZM154.48 122.6V121.77H156.36V129H155.44V122.6H154.48ZM157.923 125.31C157.923 124.163 158.109 123.27 158.483 122.63C158.856 121.983 159.509 121.66 160.443 121.66C161.369 121.66 162.019 121.983 162.393 122.63C162.766 123.27 162.953 124.163 162.953 125.31C162.953 126.477 162.766 127.383 162.393 128.03C162.019 128.677 161.369 129 160.443 129C159.509 129 158.856 128.677 158.483 128.03C158.109 127.383 157.923 126.477 157.923 125.31ZM162.053 125.31C162.053 124.73 162.013 124.24 161.933 123.84C161.859 123.433 161.703 123.107 161.463 122.86C161.229 122.613 160.889 122.49 160.443 122.49C159.989 122.49 159.643 122.613 159.403 122.86C159.169 123.107 159.013 123.433 158.933 123.84C158.859 124.24 158.823 124.73 158.823 125.31C158.823 125.91 158.859 126.413 158.933 126.82C159.013 127.227 159.169 127.553 159.403 127.8C159.643 128.047 159.989 128.17 160.443 128.17C160.889 128.17 161.229 128.047 161.463 127.8C161.703 127.553 161.859 127.227 161.933 126.82C162.013 126.413 162.053 125.91 162.053 125.31ZM164.002 123.4C164.002 122.947 164.139 122.587 164.412 122.32C164.685 122.047 165.035 121.91 165.462 121.91C165.889 121.91 166.239 122.047 166.512 122.32C166.785 122.587 166.922 122.947 166.922 123.4C166.922 123.86 166.785 124.227 166.512 124.5C166.239 124.767 165.889 124.9 165.462 124.9C165.035 124.9 164.685 124.767 164.412 124.5C164.139 124.227 164.002 123.86 164.002 123.4ZM169.842 122.02L165.792 129H164.892L168.942 122.02H169.842ZM165.462 122.47C165.235 122.47 165.055 122.55 164.922 122.71C164.795 122.863 164.732 123.093 164.732 123.4C164.732 123.707 164.795 123.94 164.922 124.1C165.055 124.26 165.235 124.34 165.462 124.34C165.689 124.34 165.869 124.26 166.002 124.1C166.135 123.933 166.202 123.7 166.202 123.4C166.202 123.093 166.135 122.863 166.002 122.71C165.869 122.55 165.689 122.47 165.462 122.47ZM167.832 127.62C167.832 127.16 167.969 126.797 168.242 126.53C168.515 126.257 168.865 126.12 169.292 126.12C169.719 126.12 170.065 126.257 170.332 126.53C170.605 126.797 170.742 127.16 170.742 127.62C170.742 128.073 170.605 128.437 170.332 128.71C170.065 128.983 169.719 129.12 169.292 129.12C168.865 129.12 168.515 128.987 168.242 128.72C167.969 128.447 167.832 128.08 167.832 127.62ZM169.282 126.69C169.055 126.69 168.875 126.77 168.742 126.93C168.609 127.083 168.542 127.313 168.542 127.62C168.542 127.92 168.609 128.15 168.742 128.31C168.875 128.463 169.055 128.54 169.282 128.54C169.509 128.54 169.689 128.463 169.822 128.31C169.955 128.15 170.022 127.92 170.022 127.62C170.022 127.313 169.955 127.083 169.822 126.93C169.689 126.77 169.509 126.69 169.282 126.69Z" fill="white"/>
<path d="M47.528 164.636C48.44 164.636 49.228 164.808 49.892 165.152C50.564 165.488 51.076 165.972 51.428 166.604C51.788 167.236 51.968 167.98 51.968 168.836C51.968 169.692 51.788 170.436 51.428 171.068C51.076 171.692 50.564 172.172 49.892 172.508C49.228 172.836 48.44 173 47.528 173H44.924V164.636H47.528ZM47.528 172.1C48.608 172.1 49.432 171.816 50 171.248C50.568 170.672 50.852 169.868 50.852 168.836C50.852 167.796 50.564 166.984 49.988 166.4C49.42 165.816 48.6 165.524 47.528 165.524H46.016V172.1H47.528ZM59.4084 169.46C59.4084 169.668 59.3964 169.888 59.3724 170.12H54.1164C54.1564 170.768 54.3764 171.276 54.7764 171.644C55.1844 172.004 55.6764 172.184 56.2524 172.184C56.7244 172.184 57.1164 172.076 57.4284 171.86C57.7484 171.636 57.9724 171.34 58.1004 170.972H59.2764C59.1004 171.604 58.7484 172.12 58.2204 172.52C57.6924 172.912 57.0364 173.108 56.2524 173.108C55.6284 173.108 55.0684 172.968 54.5724 172.688C54.0844 172.408 53.7004 172.012 53.4204 171.5C53.1404 170.98 53.0004 170.38 53.0004 169.7C53.0004 169.02 53.1364 168.424 53.4084 167.912C53.6804 167.4 54.0604 167.008 54.5484 166.736C55.0444 166.456 55.6124 166.316 56.2524 166.316C56.8764 166.316 57.4284 166.452 57.9084 166.724C58.3884 166.996 58.7564 167.372 59.0124 167.852C59.2764 168.324 59.4084 168.86 59.4084 169.46ZM58.2804 169.232C58.2804 168.816 58.1884 168.46 58.0044 168.164C57.8204 167.86 57.5684 167.632 57.2484 167.48C56.9364 167.32 56.5884 167.24 56.2044 167.24C55.6524 167.24 55.1804 167.416 54.7884 167.768C54.4044 168.12 54.1844 168.608 54.1284 169.232H58.2804ZM61.9418 164.12V173H60.8498V164.12H61.9418ZM64.3669 165.356C64.1589 165.356 63.9829 165.284 63.8389 165.14C63.6949 164.996 63.6229 164.82 63.6229 164.612C63.6229 164.404 63.6949 164.228 63.8389 164.084C63.9829 163.94 64.1589 163.868 64.3669 163.868C64.5669 163.868 64.7349 163.94 64.8709 164.084C65.0149 164.228 65.0869 164.404 65.0869 164.612C65.0869 164.82 65.0149 164.996 64.8709 165.14C64.7349 165.284 64.5669 165.356 64.3669 165.356ZM64.8949 166.424V173H63.8029V166.424H64.8949ZM69.204 171.992L71.244 166.424H72.408L69.828 173H68.556L65.976 166.424H67.152L69.204 171.992ZM79.4826 169.46C79.4826 169.668 79.4706 169.888 79.4466 170.12H74.1906C74.2306 170.768 74.4506 171.276 74.8506 171.644C75.2586 172.004 75.7506 172.184 76.3266 172.184C76.7986 172.184 77.1906 172.076 77.5026 171.86C77.8226 171.636 78.0466 171.34 78.1746 170.972H79.3506C79.1746 171.604 78.8226 172.12 78.2946 172.52C77.7666 172.912 77.1106 173.108 76.3266 173.108C75.7026 173.108 75.1426 172.968 74.6466 172.688C74.1586 172.408 73.7746 172.012 73.4946 171.5C73.2146 170.98 73.0746 170.38 73.0746 169.7C73.0746 169.02 73.2106 168.424 73.4826 167.912C73.7546 167.4 74.1346 167.008 74.6226 166.736C75.1186 166.456 75.6866 166.316 76.3266 166.316C76.9506 166.316 77.5026 166.452 77.9826 166.724C78.4626 166.996 78.8306 167.372 79.0866 167.852C79.3506 168.324 79.4826 168.86 79.4826 169.46ZM78.3546 169.232C78.3546 168.816 78.2626 168.46 78.0786 168.164C77.8946 167.86 77.6426 167.632 77.3226 167.48C77.0106 167.32 76.6626 167.24 76.2786 167.24C75.7266 167.24 75.2546 167.416 74.8626 167.768C74.4786 168.12 74.2586 168.608 74.2026 169.232H78.3546ZM82.016 167.492C82.208 167.116 82.48 166.824 82.832 166.616C83.192 166.408 83.628 166.304 84.14 166.304V167.432H83.852C82.628 167.432 82.016 168.096 82.016 169.424V173H80.924V166.424H82.016V167.492ZM94.5998 169.46C94.5998 169.668 94.5878 169.888 94.5638 170.12H89.3078C89.3478 170.768 89.5678 171.276 89.9678 171.644C90.3758 172.004 90.8678 172.184 91.4438 172.184C91.9158 172.184 92.3078 172.076 92.6198 171.86C92.9398 171.636 93.1638 171.34 93.2918 170.972H94.4678C94.2918 171.604 93.9398 172.12 93.4118 172.52C92.8838 172.912 92.2278 173.108 91.4438 173.108C90.8198 173.108 90.2598 172.968 89.7638 172.688C89.2758 172.408 88.8918 172.012 88.6118 171.5C88.3318 170.98 88.1918 170.38 88.1918 169.7C88.1918 169.02 88.3278 168.424 88.5998 167.912C88.8718 167.4 89.2518 167.008 89.7398 166.736C90.2358 166.456 90.8038 166.316 91.4438 166.316C92.0678 166.316 92.6198 166.452 93.0998 166.724C93.5798 166.996 93.9478 167.372 94.2038 167.852C94.4678 168.324 94.5998 168.86 94.5998 169.46ZM93.4718 169.232C93.4718 168.816 93.3798 168.46 93.1958 168.164C93.0118 167.86 92.7598 167.632 92.4398 167.48C92.1278 167.32 91.7798 167.24 91.3958 167.24C90.8438 167.24 90.3718 167.416 89.9798 167.768C89.5958 168.12 89.3758 168.608 89.3198 169.232H93.4718ZM98.4892 171.992L100.529 166.424H101.693L99.1132 173H97.8412L95.2612 166.424H96.4372L98.4892 171.992ZM108.768 169.46C108.768 169.668 108.756 169.888 108.732 170.12H103.476C103.516 170.768 103.736 171.276 104.136 171.644C104.544 172.004 105.036 172.184 105.612 172.184C106.084 172.184 106.476 172.076 106.788 171.86C107.108 171.636 107.332 171.34 107.46 170.972H108.636C108.46 171.604 108.108 172.12 107.58 172.52C107.052 172.912 106.396 173.108 105.612 173.108C104.988 173.108 104.428 172.968 103.932 172.688C103.444 172.408 103.06 172.012 102.78 171.5C102.5 170.98 102.36 170.38 102.36 169.7C102.36 169.02 102.496 168.424 102.768 167.912C103.04 167.4 103.42 167.008 103.908 166.736C104.404 166.456 104.972 166.316 105.612 166.316C106.236 166.316 106.788 166.452 107.268 166.724C107.748 166.996 108.116 167.372 108.372 167.852C108.636 168.324 108.768 168.86 108.768 169.46ZM107.64 169.232C107.64 168.816 107.548 168.46 107.364 168.164C107.18 167.86 106.928 167.632 106.608 167.48C106.296 167.32 105.948 167.24 105.564 167.24C105.012 167.24 104.54 167.416 104.148 167.768C103.764 168.12 103.544 168.608 103.488 169.232H107.64ZM111.301 167.492C111.493 167.116 111.765 166.824 112.117 166.616C112.477 166.408 112.913 166.304 113.425 166.304V167.432H113.137C111.913 167.432 111.301 168.096 111.301 169.424V173H110.209V166.424H111.301V167.492ZM120.35 166.424L116.39 176.096H115.262L116.558 172.928L113.906 166.424H115.118L117.182 171.752L119.222 166.424H120.35Z" fill="#595F69"/>
<rect x="131.5" y="150.5" width="97" height="37" fill="white"/>
<path d="M143.72 166.508C143.776 165.772 144.06 165.196 144.572 164.78C145.084 164.364 145.748 164.156 146.564 164.156C147.108 164.156 147.576 164.256 147.968 164.456C148.368 164.648 148.668 164.912 148.868 165.248C149.076 165.584 149.18 165.964 149.18 166.388C149.18 166.884 149.036 167.312 148.748 167.672C148.468 168.032 148.1 168.264 147.644 168.368V168.428C148.164 168.556 148.576 168.808 148.88 169.184C149.184 169.56 149.336 170.052 149.336 170.66C149.336 171.116 149.232 171.528 149.024 171.896C148.816 172.256 148.504 172.54 148.088 172.748C147.672 172.956 147.172 173.06 146.588 173.06C145.74 173.06 145.044 172.84 144.5 172.4C143.956 171.952 143.652 171.32 143.588 170.504H144.644C144.7 170.984 144.896 171.376 145.232 171.68C145.568 171.984 146.016 172.136 146.576 172.136C147.136 172.136 147.56 171.992 147.848 171.704C148.144 171.408 148.292 171.028 148.292 170.564C148.292 169.964 148.092 169.532 147.692 169.268C147.292 169.004 146.688 168.872 145.88 168.872H145.604V167.96H145.892C146.628 167.952 147.184 167.832 147.56 167.6C147.936 167.36 148.124 166.992 148.124 166.496C148.124 166.072 147.984 165.732 147.704 165.476C147.432 165.22 147.04 165.092 146.528 165.092C146.032 165.092 145.632 165.22 145.328 165.476C145.024 165.732 144.844 166.076 144.788 166.508H143.72ZM150.81 168.572C150.81 167.196 151.034 166.124 151.482 165.356C151.93 164.58 152.714 164.192 153.834 164.192C154.946 164.192 155.726 164.58 156.174 165.356C156.622 166.124 156.846 167.196 156.846 168.572C156.846 169.972 156.622 171.06 156.174 171.836C155.726 172.612 154.946 173 153.834 173C152.714 173 151.93 172.612 151.482 171.836C151.034 171.06 150.81 169.972 150.81 168.572ZM155.766 168.572C155.766 167.876 155.718 167.288 155.622 166.808C155.534 166.32 155.346 165.928 155.058 165.632C154.778 165.336 154.37 165.188 153.834 165.188C153.29 165.188 152.874 165.336 152.586 165.632C152.306 165.928 152.118 166.32 152.022 166.808C151.934 167.288 151.89 167.876 151.89 168.572C151.89 169.292 151.934 169.896 152.022 170.384C152.118 170.872 152.306 171.264 152.586 171.56C152.874 171.856 153.29 172.004 153.834 172.004C154.37 172.004 154.778 171.856 155.058 171.56C155.346 171.264 155.534 170.872 155.622 170.384C155.718 169.896 155.766 169.292 155.766 168.572ZM164.329 164.636C165.241 164.636 166.029 164.808 166.693 165.152C167.365 165.488 167.877 165.972 168.229 166.604C168.589 167.236 168.769 167.98 168.769 168.836C168.769 169.692 168.589 170.436 168.229 171.068C167.877 171.692 167.365 172.172 166.693 172.508C166.029 172.836 165.241 173 164.329 173H161.725V164.636H164.329ZM164.329 172.1C165.409 172.1 166.233 171.816 166.801 171.248C167.369 170.672 167.653 169.868 167.653 168.836C167.653 167.796 167.365 166.984 166.789 166.4C166.221 165.816 165.401 165.524 164.329 165.524H162.817V172.1H164.329ZM169.801 169.688C169.801 169.016 169.937 168.428 170.209 167.924C170.481 167.412 170.853 167.016 171.325 166.736C171.805 166.456 172.337 166.316 172.921 166.316C173.497 166.316 173.997 166.44 174.421 166.688C174.845 166.936 175.161 167.248 175.369 167.624V166.424H176.473V173H175.369V171.776C175.153 172.16 174.829 172.48 174.397 172.736C173.973 172.984 173.477 173.108 172.909 173.108C172.325 173.108 171.797 172.964 171.325 172.676C170.853 172.388 170.481 171.984 170.209 171.464C169.937 170.944 169.801 170.352 169.801 169.688ZM175.369 169.7C175.369 169.204 175.269 168.772 175.069 168.404C174.869 168.036 174.597 167.756 174.253 167.564C173.917 167.364 173.545 167.264 173.137 167.264C172.729 167.264 172.357 167.36 172.021 167.552C171.685 167.744 171.417 168.024 171.217 168.392C171.017 168.76 170.917 169.192 170.917 169.688C170.917 170.192 171.017 170.632 171.217 171.008C171.417 171.376 171.685 171.66 172.021 171.86C172.357 172.052 172.729 172.148 173.137 172.148C173.545 172.148 173.917 172.052 174.253 171.86C174.597 171.66 174.869 171.376 175.069 171.008C175.269 170.632 175.369 170.196 175.369 169.7ZM183.983 166.424L180.023 176.096H178.895L180.191 172.928L177.539 166.424H178.751L180.815 171.752L182.855 166.424H183.983ZM187.408 173.108C186.904 173.108 186.452 173.024 186.052 172.856C185.652 172.68 185.336 172.44 185.104 172.136C184.872 171.824 184.744 171.468 184.72 171.068H185.848C185.88 171.396 186.032 171.664 186.304 171.872C186.584 172.08 186.948 172.184 187.396 172.184C187.812 172.184 188.14 172.092 188.38 171.908C188.62 171.724 188.74 171.492 188.74 171.212C188.74 170.924 188.612 170.712 188.356 170.576C188.1 170.432 187.704 170.292 187.168 170.156C186.68 170.028 186.28 169.9 185.968 169.772C185.664 169.636 185.4 169.44 185.176 169.184C184.96 168.92 184.852 168.576 184.852 168.152C184.852 167.816 184.952 167.508 185.152 167.228C185.352 166.948 185.636 166.728 186.004 166.568C186.372 166.4 186.792 166.316 187.264 166.316C187.992 166.316 188.58 166.5 189.028 166.868C189.476 167.236 189.716 167.74 189.748 168.38H188.656C188.632 168.036 188.492 167.76 188.236 167.552C187.988 167.344 187.652 167.24 187.228 167.24C186.836 167.24 186.524 167.324 186.292 167.492C186.06 167.66 185.944 167.88 185.944 168.152C185.944 168.368 186.012 168.548 186.148 168.692C186.292 168.828 186.468 168.94 186.676 169.028C186.892 169.108 187.188 169.2 187.564 169.304C188.036 169.432 188.42 169.56 188.716 169.688C189.012 169.808 189.264 169.992 189.472 170.24C189.688 170.488 189.8 170.812 189.808 171.212C189.808 171.572 189.708 171.896 189.508 172.184C189.308 172.472 189.024 172.7 188.656 172.868C188.296 173.028 187.88 173.108 187.408 173.108Z" fill="#3F434A"/>
<path d="M205 167L209 171L213 167" stroke="#3F434A" stroke-linecap="round" stroke-linejoin="round"/>
<rect x="131.5" y="150.5" width="97" height="37" stroke="#E0E0E0"/>
<path d="M293.324 126.708C293.324 127.092 293.228 127.46 293.036 127.812C292.844 128.156 292.56 128.444 292.184 128.676C291.816 128.908 291.372 129.04 290.852 129.072V130.044H290.204V129.072C289.476 129.008 288.884 128.776 288.428 128.376C287.972 127.968 287.74 127.452 287.732 126.828H288.896C288.928 127.164 289.052 127.456 289.268 127.704C289.492 127.952 289.804 128.108 290.204 128.172V125.172C289.668 125.036 289.236 124.896 288.908 124.752C288.58 124.608 288.3 124.384 288.068 124.08C287.836 123.776 287.72 123.368 287.72 122.856C287.72 122.208 287.944 121.672 288.392 121.248C288.848 120.824 289.452 120.588 290.204 120.54V119.544H290.852V120.54C291.532 120.596 292.08 120.816 292.496 121.2C292.912 121.576 293.152 122.068 293.216 122.676H292.052C292.012 122.396 291.888 122.144 291.68 121.92C291.472 121.688 291.196 121.536 290.852 121.464V124.392C291.38 124.528 291.808 124.668 292.136 124.812C292.472 124.948 292.752 125.168 292.976 125.472C293.208 125.776 293.324 126.188 293.324 126.708ZM288.836 122.796C288.836 123.188 288.952 123.488 289.184 123.696C289.416 123.904 289.756 124.076 290.204 124.212V121.44C289.788 121.48 289.456 121.616 289.208 121.848C288.96 122.072 288.836 122.388 288.836 122.796ZM290.852 128.184C291.284 128.136 291.62 127.98 291.86 127.716C292.108 127.452 292.232 127.136 292.232 126.768C292.232 126.376 292.112 126.076 291.872 125.868C291.632 125.652 291.292 125.48 290.852 125.352V128.184ZM296.613 126.672C296.693 127.128 296.877 127.48 297.165 127.728C297.461 127.976 297.857 128.1 298.353 128.1C299.017 128.1 299.505 127.84 299.817 127.32C300.137 126.8 300.289 125.924 300.273 124.692C300.105 125.052 299.825 125.336 299.433 125.544C299.041 125.744 298.605 125.844 298.125 125.844C297.589 125.844 297.109 125.736 296.685 125.52C296.269 125.296 295.941 124.972 295.701 124.548C295.461 124.124 295.341 123.612 295.341 123.012C295.341 122.156 295.589 121.468 296.085 120.948C296.581 120.42 297.285 120.156 298.197 120.156C299.317 120.156 300.101 120.52 300.549 121.248C301.005 121.976 301.233 123.06 301.233 124.5C301.233 125.508 301.141 126.34 300.957 126.996C300.781 127.652 300.477 128.152 300.045 128.496C299.621 128.84 299.037 129.012 298.293 129.012C297.477 129.012 296.841 128.792 296.385 128.352C295.929 127.912 295.669 127.352 295.605 126.672H296.613ZM298.305 124.92C298.841 124.92 299.281 124.756 299.625 124.428C299.969 124.092 300.141 123.64 300.141 123.072C300.141 122.472 299.973 121.988 299.637 121.62C299.301 121.252 298.829 121.068 298.221 121.068C297.661 121.068 297.213 121.244 296.877 121.596C296.549 121.948 296.385 122.412 296.385 122.988C296.385 123.572 296.549 124.04 296.877 124.392C297.205 124.744 297.681 124.92 298.305 124.92ZM303.295 129.072C303.087 129.072 302.911 129 302.767 128.856C302.623 128.712 302.551 128.536 302.551 128.328C302.551 128.12 302.623 127.944 302.767 127.8C302.911 127.656 303.087 127.584 303.295 127.584C303.495 127.584 303.663 127.656 303.799 127.8C303.943 127.944 304.015 128.12 304.015 128.328C304.015 128.536 303.943 128.712 303.799 128.856C303.663 129 303.495 129.072 303.295 129.072ZM305.287 124.572C305.287 123.196 305.511 122.124 305.959 121.356C306.407 120.58 307.191 120.192 308.311 120.192C309.423 120.192 310.203 120.58 310.651 121.356C311.099 122.124 311.323 123.196 311.323 124.572C311.323 125.972 311.099 127.06 310.651 127.836C310.203 128.612 309.423 129 308.311 129C307.191 129 306.407 128.612 305.959 127.836C305.511 127.06 305.287 125.972 305.287 124.572ZM310.243 124.572C310.243 123.876 310.195 123.288 310.099 122.808C310.011 122.32 309.823 121.928 309.535 121.632C309.255 121.336 308.847 121.188 308.311 121.188C307.767 121.188 307.351 121.336 307.063 121.632C306.783 121.928 306.595 122.32 306.499 122.808C306.411 123.288 306.367 123.876 306.367 124.572C306.367 125.292 306.411 125.896 306.499 126.384C306.595 126.872 306.783 127.264 307.063 127.56C307.351 127.856 307.767 128.004 308.311 128.004C308.847 128.004 309.255 127.856 309.535 127.56C309.823 127.264 310.011 126.872 310.099 126.384C310.195 125.896 310.243 125.292 310.243 124.572ZM312.822 124.572C312.822 123.196 313.046 122.124 313.494 121.356C313.942 120.58 314.726 120.192 315.846 120.192C316.958 120.192 317.738 120.58 318.186 121.356C318.634 122.124 318.858 123.196 318.858 124.572C318.858 125.972 318.634 127.06 318.186 127.836C317.738 128.612 316.958 129 315.846 129C314.726 129 313.942 128.612 313.494 127.836C313.046 127.06 312.822 125.972 312.822 124.572ZM317.778 124.572C317.778 123.876 317.73 123.288 317.634 122.808C317.546 122.32 317.358 121.928 317.07 121.632C316.79 121.336 316.382 121.188 315.846 121.188C315.302 121.188 314.886 121.336 314.598 121.632C314.318 121.928 314.13 122.32 314.034 122.808C313.946 123.288 313.902 123.876 313.902 124.572C313.902 125.292 313.946 125.896 314.034 126.384C314.13 126.872 314.318 127.264 314.598 127.56C314.886 127.856 315.302 128.004 315.846 128.004C316.382 128.004 316.79 127.856 317.07 127.56C317.358 127.264 317.546 126.872 317.634 126.384C317.73 125.896 317.778 125.292 317.778 124.572Z" fill="#3F434A"/>
</svg>
