<svg width="346" height="243" viewBox="0 0 346 243" fill="none" xmlns="http://www.w3.org/2000/svg">
<path d="M26.732 27.144C26.732 27.568 26.632 27.968 26.432 28.344C26.232 28.72 25.912 29.028 25.472 29.268C25.032 29.5 24.468 29.616 23.78 29.616H22.268V33H20.9V24.66H23.78C24.42 24.66 24.96 24.772 25.4 24.996C25.848 25.212 26.18 25.508 26.396 25.884C26.62 26.26 26.732 26.68 26.732 27.144ZM23.78 28.5C24.3 28.5 24.688 28.384 24.944 28.152C25.2 27.912 25.328 27.576 25.328 27.144C25.328 26.232 24.812 25.776 23.78 25.776H22.268V28.5H23.78ZM34.0247 26.388V33H32.6567V32.22C32.4407 32.492 32.1567 32.708 31.8047 32.868C31.4607 33.02 31.0927 33.096 30.7007 33.096C30.1807 33.096 29.7127 32.988 29.2967 32.772C28.8887 32.556 28.5647 32.236 28.3247 31.812C28.0927 31.388 27.9767 30.876 27.9767 30.276V26.388H29.3327V30.072C29.3327 30.664 29.4807 31.12 29.7767 31.44C30.0727 31.752 30.4767 31.908 30.9887 31.908C31.5007 31.908 31.9047 31.752 32.2007 31.44C32.5047 31.12 32.6567 30.664 32.6567 30.072V26.388H34.0247ZM37.1977 27.348C37.3977 27.012 37.6617 26.752 37.9897 26.568C38.3257 26.376 38.7217 26.28 39.1777 26.28V27.696H38.8297C38.2937 27.696 37.8857 27.832 37.6057 28.104C37.3337 28.376 37.1977 28.848 37.1977 29.52V33H35.8297V26.388H37.1977V27.348ZM39.9792 29.688C39.9792 29.008 40.1152 28.412 40.3872 27.9C40.6672 27.38 41.0512 26.98 41.5392 26.7C42.0272 26.42 42.5872 26.28 43.2192 26.28C44.0192 26.28 44.6792 26.472 45.1992 26.856C45.7272 27.232 46.0832 27.772 46.2672 28.476H44.7912C44.6712 28.148 44.4792 27.892 44.2152 27.708C43.9512 27.524 43.6192 27.432 43.2192 27.432C42.6592 27.432 42.2112 27.632 41.8752 28.032C41.5472 28.424 41.3832 28.976 41.3832 29.688C41.3832 30.4 41.5472 30.956 41.8752 31.356C42.2112 31.756 42.6592 31.956 43.2192 31.956C44.0112 31.956 44.5352 31.608 44.7912 30.912H46.2672C46.0752 31.584 45.7152 32.12 45.1872 32.52C44.6592 32.912 44.0032 33.108 43.2192 33.108C42.5872 33.108 42.0272 32.968 41.5392 32.688C41.0512 32.4 40.6672 32 40.3872 31.488C40.1152 30.968 39.9792 30.368 39.9792 29.688ZM51.0505 26.28C51.5545 26.28 52.0025 26.388 52.3945 26.604C52.7945 26.82 53.1065 27.14 53.3305 27.564C53.5625 27.988 53.6785 28.5 53.6785 29.1V33H52.3225V29.304C52.3225 28.712 52.1745 28.26 51.8785 27.948C51.5825 27.628 51.1785 27.468 50.6665 27.468C50.1545 27.468 49.7465 27.628 49.4425 27.948C49.1465 28.26 48.9985 28.712 48.9985 29.304V33H47.6305V24.12H48.9985V27.156C49.2305 26.876 49.5225 26.66 49.8745 26.508C50.2345 26.356 50.6265 26.28 51.0505 26.28ZM54.9674 29.664C54.9674 29 55.1034 28.412 55.3754 27.9C55.6554 27.388 56.0314 26.992 56.5034 26.712C56.9834 26.424 57.5114 26.28 58.0874 26.28C58.6074 26.28 59.0594 26.384 59.4434 26.592C59.8354 26.792 60.1474 27.044 60.3794 27.348V26.388H61.7594V33H60.3794V32.016C60.1474 32.328 59.8314 32.588 59.4314 32.796C59.0314 33.004 58.5754 33.108 58.0634 33.108C57.4954 33.108 56.9754 32.964 56.5034 32.676C56.0314 32.38 55.6554 31.972 55.3754 31.452C55.1034 30.924 54.9674 30.328 54.9674 29.664ZM60.3794 29.688C60.3794 29.232 60.2834 28.836 60.0914 28.5C59.9074 28.164 59.6634 27.908 59.3594 27.732C59.0554 27.556 58.7274 27.468 58.3754 27.468C58.0234 27.468 57.6954 27.556 57.3914 27.732C57.0874 27.9 56.8394 28.152 56.6474 28.488C56.4634 28.816 56.3714 29.208 56.3714 29.664C56.3714 30.12 56.4634 30.52 56.6474 30.864C56.8394 31.208 57.0874 31.472 57.3914 31.656C57.7034 31.832 58.0314 31.92 58.3754 31.92C58.7274 31.92 59.0554 31.832 59.3594 31.656C59.6634 31.48 59.9074 31.224 60.0914 30.888C60.2834 30.544 60.3794 30.144 60.3794 29.688ZM65.9563 33.108C65.4363 33.108 64.9683 33.016 64.5523 32.832C64.1443 32.64 63.8203 32.384 63.5803 32.064C63.3403 31.736 63.2123 31.372 63.1963 30.972H64.6123C64.6363 31.252 64.7683 31.488 65.0083 31.68C65.2563 31.864 65.5643 31.956 65.9323 31.956C66.3163 31.956 66.6123 31.884 66.8203 31.74C67.0363 31.588 67.1443 31.396 67.1443 31.164C67.1443 30.916 67.0243 30.732 66.7843 30.612C66.5523 30.492 66.1803 30.36 65.6683 30.216C65.1723 30.08 64.7683 29.948 64.4563 29.82C64.1443 29.692 63.8723 29.496 63.6403 29.232C63.4163 28.968 63.3043 28.62 63.3043 28.188C63.3043 27.836 63.4083 27.516 63.6163 27.228C63.8243 26.932 64.1203 26.7 64.5043 26.532C64.8963 26.364 65.3443 26.28 65.8483 26.28C66.6003 26.28 67.2043 26.472 67.6603 26.856C68.1243 27.232 68.3723 27.748 68.4043 28.404H67.0363C67.0123 28.108 66.8923 27.872 66.6763 27.696C66.4603 27.52 66.1683 27.432 65.8003 27.432C65.4403 27.432 65.1643 27.5 64.9723 27.636C64.7803 27.772 64.6843 27.952 64.6843 28.176C64.6843 28.352 64.7483 28.5 64.8763 28.62C65.0043 28.74 65.1603 28.836 65.3443 28.908C65.5283 28.972 65.8003 29.056 66.1603 29.16C66.6403 29.288 67.0323 29.42 67.3363 29.556C67.6483 29.684 67.9163 29.876 68.1403 30.132C68.3643 30.388 68.4803 30.728 68.4883 31.152C68.4883 31.528 68.3843 31.864 68.1763 32.16C67.9683 32.456 67.6723 32.688 67.2883 32.856C66.9123 33.024 66.4683 33.108 65.9563 33.108ZM76.0264 29.532C76.0264 29.78 76.0104 30.004 75.9784 30.204H70.9264C70.9664 30.732 71.1624 31.156 71.5144 31.476C71.8664 31.796 72.2984 31.956 72.8104 31.956C73.5464 31.956 74.0664 31.648 74.3704 31.032H75.8464C75.6464 31.64 75.2824 32.14 74.7544 32.532C74.2344 32.916 73.5864 33.108 72.8104 33.108C72.1784 33.108 71.6104 32.968 71.1064 32.688C70.6104 32.4 70.2184 32 69.9304 31.488C69.6504 30.968 69.5104 30.368 69.5104 29.688C69.5104 29.008 69.6464 28.412 69.9184 27.9C70.1984 27.38 70.5864 26.98 71.0824 26.7C71.5864 26.42 72.1624 26.28 72.8104 26.28C73.4344 26.28 73.9904 26.416 74.4784 26.688C74.9664 26.96 75.3464 27.344 75.6184 27.84C75.8904 28.328 76.0264 28.892 76.0264 29.532ZM74.5984 29.1C74.5904 28.596 74.4104 28.192 74.0584 27.888C73.7064 27.584 73.2704 27.432 72.7504 27.432C72.2784 27.432 71.8744 27.584 71.5384 27.888C71.2024 28.184 71.0024 28.588 70.9384 29.1H74.5984ZM84.2938 33.084C83.5178 33.084 82.8018 32.904 82.1458 32.544C81.4978 32.176 80.9818 31.668 80.5978 31.02C80.2218 30.364 80.0338 29.628 80.0338 28.812C80.0338 27.996 80.2218 27.264 80.5978 26.616C80.9818 25.968 81.4978 25.464 82.1458 25.104C82.8018 24.736 83.5178 24.552 84.2938 24.552C85.0778 24.552 85.7938 24.736 86.4418 25.104C87.0978 25.464 87.6138 25.968 87.9898 26.616C88.3658 27.264 88.5538 27.996 88.5538 28.812C88.5538 29.628 88.3658 30.364 87.9898 31.02C87.6138 31.668 87.0978 32.176 86.4418 32.544C85.7938 32.904 85.0778 33.084 84.2938 33.084ZM84.2938 31.896C84.8458 31.896 85.3378 31.772 85.7698 31.524C86.2018 31.268 86.5378 30.908 86.7778 30.444C87.0258 29.972 87.1498 29.428 87.1498 28.812C87.1498 28.196 87.0258 27.656 86.7778 27.192C86.5378 26.728 86.2018 26.372 85.7698 26.124C85.3378 25.876 84.8458 25.752 84.2938 25.752C83.7418 25.752 83.2498 25.876 82.8178 26.124C82.3858 26.372 82.0458 26.728 81.7978 27.192C81.5578 27.656 81.4378 28.196 81.4378 28.812C81.4378 29.428 81.5578 29.972 81.7978 30.444C82.0458 30.908 82.3858 31.268 82.8178 31.524C83.2498 31.772 83.7418 31.896 84.2938 31.896ZM91.268 27.36C91.5 27.056 91.816 26.8 92.216 26.592C92.616 26.384 93.068 26.28 93.572 26.28C94.148 26.28 94.672 26.424 95.144 26.712C95.624 26.992 96 27.388 96.272 27.9C96.544 28.412 96.68 29 96.68 29.664C96.68 30.328 96.544 30.924 96.272 31.452C96 31.972 95.624 32.38 95.144 32.676C94.672 32.964 94.148 33.108 93.572 33.108C93.068 33.108 92.62 33.008 92.228 32.808C91.836 32.6 91.516 32.344 91.268 32.04V36.144H89.9V26.388H91.268V27.36ZM95.288 29.664C95.288 29.208 95.192 28.816 95 28.488C94.816 28.152 94.568 27.9 94.256 27.732C93.952 27.556 93.624 27.468 93.272 27.468C92.928 27.468 92.6 27.556 92.288 27.732C91.984 27.908 91.736 28.164 91.544 28.5C91.36 28.836 91.268 29.232 91.268 29.688C91.268 30.144 91.36 30.544 91.544 30.888C91.736 31.224 91.984 31.48 92.288 31.656C92.6 31.832 92.928 31.92 93.272 31.92C93.624 31.92 93.952 31.832 94.256 31.656C94.568 31.472 94.816 31.208 95 30.864C95.192 30.52 95.288 30.12 95.288 29.664ZM99.6288 27.504V31.164C99.6288 31.412 99.6848 31.592 99.7968 31.704C99.9168 31.808 100.117 31.86 100.397 31.86H101.237V33H100.157C99.5408 33 99.0688 32.856 98.7408 32.568C98.4128 32.28 98.2488 31.812 98.2488 31.164V27.504H97.4688V26.388H98.2488V24.744H99.6288V26.388H101.237V27.504H99.6288ZM103.194 25.512C102.946 25.512 102.738 25.428 102.57 25.26C102.402 25.092 102.318 24.884 102.318 24.636C102.318 24.388 102.402 24.18 102.57 24.012C102.738 23.844 102.946 23.76 103.194 23.76C103.434 23.76 103.638 23.844 103.806 24.012C103.974 24.18 104.058 24.388 104.058 24.636C104.058 24.884 103.974 25.092 103.806 25.26C103.638 25.428 103.434 25.512 103.194 25.512ZM103.866 26.388V33H102.498V26.388H103.866ZM108.53 33.108C107.906 33.108 107.342 32.968 106.838 32.688C106.334 32.4 105.938 32 105.65 31.488C105.362 30.968 105.218 30.368 105.218 29.688C105.218 29.016 105.366 28.42 105.662 27.9C105.958 27.38 106.362 26.98 106.874 26.7C107.386 26.42 107.958 26.28 108.59 26.28C109.222 26.28 109.794 26.42 110.306 26.7C110.818 26.98 111.222 27.38 111.518 27.9C111.814 28.42 111.962 29.016 111.962 29.688C111.962 30.36 111.81 30.956 111.506 31.476C111.202 31.996 110.786 32.4 110.258 32.688C109.738 32.968 109.162 33.108 108.53 33.108ZM108.53 31.92C108.882 31.92 109.21 31.836 109.514 31.668C109.826 31.5 110.078 31.248 110.27 30.912C110.462 30.576 110.558 30.168 110.558 29.688C110.558 29.208 110.466 28.804 110.282 28.476C110.098 28.14 109.854 27.888 109.55 27.72C109.246 27.552 108.918 27.468 108.566 27.468C108.214 27.468 107.886 27.552 107.582 27.72C107.286 27.888 107.05 28.14 106.874 28.476C106.698 28.804 106.61 29.208 106.61 29.688C106.61 30.4 106.79 30.952 107.15 31.344C107.518 31.728 107.978 31.92 108.53 31.92ZM116.65 26.28C117.17 26.28 117.634 26.388 118.042 26.604C118.458 26.82 118.782 27.14 119.014 27.564C119.246 27.988 119.362 28.5 119.362 29.1V33H118.006V29.304C118.006 28.712 117.858 28.26 117.562 27.948C117.266 27.628 116.862 27.468 116.35 27.468C115.838 27.468 115.43 27.628 115.126 27.948C114.83 28.26 114.682 28.712 114.682 29.304V33H113.314V26.388H114.682V27.144C114.906 26.872 115.19 26.66 115.534 26.508C115.886 26.356 116.258 26.28 116.65 26.28ZM123.507 33.108C122.987 33.108 122.519 33.016 122.103 32.832C121.695 32.64 121.371 32.384 121.131 32.064C120.891 31.736 120.763 31.372 120.747 30.972H122.163C122.187 31.252 122.319 31.488 122.559 31.68C122.807 31.864 123.115 31.956 123.483 31.956C123.867 31.956 124.163 31.884 124.371 31.74C124.587 31.588 124.695 31.396 124.695 31.164C124.695 30.916 124.575 30.732 124.335 30.612C124.103 30.492 123.731 30.36 123.219 30.216C122.723 30.08 122.319 29.948 122.007 29.82C121.695 29.692 121.423 29.496 121.191 29.232C120.967 28.968 120.855 28.62 120.855 28.188C120.855 27.836 120.959 27.516 121.167 27.228C121.375 26.932 121.671 26.7 122.055 26.532C122.447 26.364 122.895 26.28 123.399 26.28C124.151 26.28 124.755 26.472 125.211 26.856C125.675 27.232 125.923 27.748 125.955 28.404H124.587C124.563 28.108 124.443 27.872 124.227 27.696C124.011 27.52 123.719 27.432 123.351 27.432C122.991 27.432 122.715 27.5 122.523 27.636C122.331 27.772 122.235 27.952 122.235 28.176C122.235 28.352 122.299 28.5 122.427 28.62C122.555 28.74 122.711 28.836 122.895 28.908C123.079 28.972 123.351 29.056 123.711 29.16C124.191 29.288 124.583 29.42 124.887 29.556C125.199 29.684 125.467 29.876 125.691 30.132C125.915 30.388 126.031 30.728 126.039 31.152C126.039 31.528 125.935 31.864 125.727 32.16C125.519 32.456 125.223 32.688 124.839 32.856C124.463 33.024 124.019 33.108 123.507 33.108Z" fill="black"/>
<rect width="164" height="48" transform="translate(20 48)" fill="#F6F6F8"/>
<path d="M49 74.6667V69.3333C48.9998 69.0995 48.938 68.8699 48.821 68.6675C48.704 68.465 48.5358 68.2969 48.3333 68.18L43.6667 65.5133C43.464 65.3963 43.234 65.3347 43 65.3347C42.766 65.3347 42.536 65.3963 42.3333 65.5133L37.6667 68.18C37.4642 68.2969 37.296 68.465 37.179 68.6675C37.062 68.8699 37.0002 69.0995 37 69.3333V74.6667C37.0002 74.9005 37.062 75.1301 37.179 75.3326C37.296 75.535 37.4642 75.7031 37.6667 75.82L42.3333 78.4867C42.536 78.6037 42.766 78.6653 43 78.6653C43.234 78.6653 43.464 78.6037 43.6667 78.4867L48.3333 75.82C48.5358 75.7031 48.704 75.535 48.821 75.3326C48.938 75.1301 48.9998 74.9005 49 74.6667Z" stroke="#3F434A" stroke-linecap="round" stroke-linejoin="round"/>
<path d="M37.1801 68.6399L43.0001 72.0066L48.8201 68.6399" stroke="#3F434A" stroke-linecap="round" stroke-linejoin="round"/>
<path d="M43 78.72V72" stroke="#3F434A" stroke-linecap="round" stroke-linejoin="round"/>
<path d="M66.232 76L64.312 72.664H63.268V76H61.9V67.66H64.78C65.42 67.66 65.96 67.772 66.4 67.996C66.848 68.22 67.18 68.52 67.396 68.896C67.62 69.272 67.732 69.692 67.732 70.156C67.732 70.7 67.572 71.196 67.252 71.644C66.94 72.084 66.456 72.384 65.8 72.544L67.864 76H66.232ZM63.268 71.572H64.78C65.292 71.572 65.676 71.444 65.932 71.188C66.196 70.932 66.328 70.588 66.328 70.156C66.328 69.724 66.2 69.388 65.944 69.148C65.688 68.9 65.3 68.776 64.78 68.776H63.268V71.572ZM75.542 72.532C75.542 72.78 75.526 73.004 75.494 73.204H70.442C70.482 73.732 70.678 74.156 71.03 74.476C71.382 74.796 71.814 74.956 72.326 74.956C73.062 74.956 73.582 74.648 73.886 74.032H75.362C75.162 74.64 74.798 75.14 74.27 75.532C73.75 75.916 73.102 76.108 72.326 76.108C71.694 76.108 71.126 75.968 70.622 75.688C70.126 75.4 69.734 75 69.446 74.488C69.166 73.968 69.026 73.368 69.026 72.688C69.026 72.008 69.162 71.412 69.434 70.9C69.714 70.38 70.102 69.98 70.598 69.7C71.102 69.42 71.678 69.28 72.326 69.28C72.95 69.28 73.506 69.416 73.994 69.688C74.482 69.96 74.862 70.344 75.134 70.84C75.406 71.328 75.542 71.892 75.542 72.532ZM74.114 72.1C74.106 71.596 73.926 71.192 73.574 70.888C73.222 70.584 72.786 70.432 72.266 70.432C71.794 70.432 71.39 70.584 71.054 70.888C70.718 71.184 70.518 71.588 70.454 72.1H74.114ZM79.5523 69.28C80.0643 69.28 80.5163 69.384 80.9083 69.592C81.3083 69.792 81.6203 70.044 81.8443 70.348V69.388H83.2243V76.108C83.2243 76.716 83.0963 77.256 82.8403 77.728C82.5843 78.208 82.2123 78.584 81.7243 78.856C81.2443 79.128 80.6683 79.264 79.9963 79.264C79.1003 79.264 78.3563 79.052 77.7643 78.628C77.1723 78.212 76.8363 77.644 76.7563 76.924H78.1123C78.2163 77.268 78.4363 77.544 78.7723 77.752C79.1163 77.968 79.5243 78.076 79.9963 78.076C80.5483 78.076 80.9923 77.908 81.3283 77.572C81.6723 77.236 81.8443 76.748 81.8443 76.108V75.004C81.6123 75.316 81.2963 75.58 80.8963 75.796C80.5043 76.004 80.0563 76.108 79.5523 76.108C78.9763 76.108 78.4483 75.964 77.9683 75.676C77.4963 75.38 77.1203 74.972 76.8403 74.452C76.5683 73.924 76.4323 73.328 76.4323 72.664C76.4323 72 76.5683 71.412 76.8403 70.9C77.1203 70.388 77.4963 69.992 77.9683 69.712C78.4483 69.424 78.9763 69.28 79.5523 69.28ZM81.8443 72.688C81.8443 72.232 81.7483 71.836 81.5563 71.5C81.3723 71.164 81.1283 70.908 80.8243 70.732C80.5203 70.556 80.1923 70.468 79.8403 70.468C79.4883 70.468 79.1603 70.556 78.8563 70.732C78.5523 70.9 78.3043 71.152 78.1123 71.488C77.9283 71.816 77.8363 72.208 77.8363 72.664C77.8363 73.12 77.9283 73.52 78.1123 73.864C78.3043 74.208 78.5523 74.472 78.8563 74.656C79.1683 74.832 79.4963 74.92 79.8403 74.92C80.1923 74.92 80.5203 74.832 80.8243 74.656C81.1283 74.48 81.3723 74.224 81.5563 73.888C81.7483 73.544 81.8443 73.144 81.8443 72.688ZM91.0091 69.388V76H89.6411V75.22C89.4251 75.492 89.1411 75.708 88.7891 75.868C88.4451 76.02 88.0771 76.096 87.6851 76.096C87.1651 76.096 86.6971 75.988 86.2811 75.772C85.8731 75.556 85.5491 75.236 85.3091 74.812C85.0771 74.388 84.9611 73.876 84.9611 73.276V69.388H86.3171V73.072C86.3171 73.664 86.4651 74.12 86.7611 74.44C87.0571 74.752 87.4611 74.908 87.9731 74.908C88.4851 74.908 88.8891 74.752 89.1851 74.44C89.4891 74.12 89.6411 73.664 89.6411 73.072V69.388H91.0091ZM94.1821 67.12V76H92.8141V67.12H94.1821ZM95.5221 72.664C95.5221 72 95.6581 71.412 95.9301 70.9C96.2101 70.388 96.5861 69.992 97.0581 69.712C97.5381 69.424 98.0661 69.28 98.6421 69.28C99.1621 69.28 99.6141 69.384 99.9981 69.592C100.39 69.792 100.702 70.044 100.934 70.348V69.388H102.314V76H100.934V75.016C100.702 75.328 100.386 75.588 99.9861 75.796C99.5861 76.004 99.1301 76.108 98.6181 76.108C98.0501 76.108 97.5301 75.964 97.0581 75.676C96.5861 75.38 96.2101 74.972 95.9301 74.452C95.6581 73.924 95.5221 73.328 95.5221 72.664ZM100.934 72.688C100.934 72.232 100.838 71.836 100.646 71.5C100.462 71.164 100.218 70.908 99.9141 70.732C99.6101 70.556 99.2821 70.468 98.9301 70.468C98.5781 70.468 98.2501 70.556 97.9461 70.732C97.6421 70.9 97.3941 71.152 97.2021 71.488C97.0181 71.816 96.9261 72.208 96.9261 72.664C96.9261 73.12 97.0181 73.52 97.2021 73.864C97.3941 74.208 97.6421 74.472 97.9461 74.656C98.2581 74.832 98.5861 74.92 98.9301 74.92C99.2821 74.92 99.6101 74.832 99.9141 74.656C100.218 74.48 100.462 74.224 100.646 73.888C100.838 73.544 100.934 73.144 100.934 72.688ZM105.479 70.348C105.679 70.012 105.943 69.752 106.271 69.568C106.607 69.376 107.003 69.28 107.459 69.28V70.696H107.111C106.575 70.696 106.167 70.832 105.887 71.104C105.615 71.376 105.479 71.848 105.479 72.52V76H104.111V69.388H105.479V70.348ZM113.202 70.36C113.434 70.056 113.75 69.8 114.15 69.592C114.55 69.384 115.002 69.28 115.506 69.28C116.082 69.28 116.606 69.424 117.078 69.712C117.558 69.992 117.934 70.388 118.206 70.9C118.478 71.412 118.614 72 118.614 72.664C118.614 73.328 118.478 73.924 118.206 74.452C117.934 74.972 117.558 75.38 117.078 75.676C116.606 75.964 116.082 76.108 115.506 76.108C115.002 76.108 114.554 76.008 114.162 75.808C113.77 75.6 113.45 75.344 113.202 75.04V79.144H111.834V69.388H113.202V70.36ZM117.222 72.664C117.222 72.208 117.126 71.816 116.934 71.488C116.75 71.152 116.502 70.9 116.19 70.732C115.886 70.556 115.558 70.468 115.206 70.468C114.862 70.468 114.534 70.556 114.222 70.732C113.918 70.908 113.67 71.164 113.478 71.5C113.294 71.836 113.202 72.232 113.202 72.688C113.202 73.144 113.294 73.544 113.478 73.888C113.67 74.224 113.918 74.48 114.222 74.656C114.534 74.832 114.862 74.92 115.206 74.92C115.558 74.92 115.886 74.832 116.19 74.656C116.502 74.472 116.75 74.208 116.934 73.864C117.126 73.52 117.222 73.12 117.222 72.664ZM125.954 69.388V76H124.586V75.22C124.37 75.492 124.086 75.708 123.734 75.868C123.39 76.02 123.022 76.096 122.63 76.096C122.11 76.096 121.642 75.988 121.226 75.772C120.818 75.556 120.494 75.236 120.254 74.812C120.022 74.388 119.906 73.876 119.906 73.276V69.388H121.262V73.072C121.262 73.664 121.41 74.12 121.706 74.44C122.002 74.752 122.406 74.908 122.918 74.908C123.43 74.908 123.834 74.752 124.13 74.44C124.434 74.12 124.586 73.664 124.586 73.072V69.388H125.954ZM129.127 70.348C129.327 70.012 129.591 69.752 129.919 69.568C130.255 69.376 130.651 69.28 131.107 69.28V70.696H130.759C130.223 70.696 129.815 70.832 129.535 71.104C129.263 71.376 129.127 71.848 129.127 72.52V76H127.759V69.388H129.127V70.348ZM131.909 72.688C131.909 72.008 132.045 71.412 132.317 70.9C132.597 70.38 132.981 69.98 133.469 69.7C133.957 69.42 134.517 69.28 135.149 69.28C135.949 69.28 136.609 69.472 137.129 69.856C137.657 70.232 138.013 70.772 138.197 71.476H136.721C136.601 71.148 136.409 70.892 136.145 70.708C135.881 70.524 135.549 70.432 135.149 70.432C134.589 70.432 134.141 70.632 133.805 71.032C133.477 71.424 133.313 71.976 133.313 72.688C133.313 73.4 133.477 73.956 133.805 74.356C134.141 74.756 134.589 74.956 135.149 74.956C135.941 74.956 136.465 74.608 136.721 73.912H138.197C138.005 74.584 137.645 75.12 137.117 75.52C136.589 75.912 135.933 76.108 135.149 76.108C134.517 76.108 133.957 75.968 133.469 75.688C132.981 75.4 132.597 75 132.317 74.488C132.045 73.968 131.909 73.368 131.909 72.688ZM142.98 69.28C143.484 69.28 143.932 69.388 144.324 69.604C144.724 69.82 145.036 70.14 145.26 70.564C145.492 70.988 145.608 71.5 145.608 72.1V76H144.252V72.304C144.252 71.712 144.104 71.26 143.808 70.948C143.512 70.628 143.108 70.468 142.596 70.468C142.084 70.468 141.676 70.628 141.372 70.948C141.076 71.26 140.928 71.712 140.928 72.304V76H139.56V67.12H140.928V70.156C141.16 69.876 141.452 69.66 141.804 69.508C142.164 69.356 142.556 69.28 142.98 69.28ZM146.897 72.664C146.897 72 147.033 71.412 147.305 70.9C147.585 70.388 147.961 69.992 148.433 69.712C148.913 69.424 149.441 69.28 150.017 69.28C150.537 69.28 150.989 69.384 151.373 69.592C151.765 69.792 152.077 70.044 152.309 70.348V69.388H153.689V76H152.309V75.016C152.077 75.328 151.761 75.588 151.361 75.796C150.961 76.004 150.505 76.108 149.993 76.108C149.425 76.108 148.905 75.964 148.433 75.676C147.961 75.38 147.585 74.972 147.305 74.452C147.033 73.924 146.897 73.328 146.897 72.664ZM152.309 72.688C152.309 72.232 152.213 71.836 152.021 71.5C151.837 71.164 151.593 70.908 151.289 70.732C150.985 70.556 150.657 70.468 150.305 70.468C149.953 70.468 149.625 70.556 149.321 70.732C149.017 70.9 148.769 71.152 148.577 71.488C148.393 71.816 148.301 72.208 148.301 72.664C148.301 73.12 148.393 73.52 148.577 73.864C148.769 74.208 149.017 74.472 149.321 74.656C149.633 74.832 149.961 74.92 150.305 74.92C150.657 74.92 150.985 74.832 151.289 74.656C151.593 74.48 151.837 74.224 152.021 73.888C152.213 73.544 152.309 73.144 152.309 72.688ZM157.886 76.108C157.366 76.108 156.898 76.016 156.482 75.832C156.074 75.64 155.75 75.384 155.51 75.064C155.27 74.736 155.142 74.372 155.126 73.972H156.542C156.566 74.252 156.698 74.488 156.938 74.68C157.186 74.864 157.494 74.956 157.862 74.956C158.246 74.956 158.542 74.884 158.75 74.74C158.966 74.588 159.074 74.396 159.074 74.164C159.074 73.916 158.954 73.732 158.714 73.612C158.482 73.492 158.11 73.36 157.598 73.216C157.102 73.08 156.698 72.948 156.386 72.82C156.074 72.692 155.802 72.496 155.57 72.232C155.346 71.968 155.234 71.62 155.234 71.188C155.234 70.836 155.338 70.516 155.546 70.228C155.754 69.932 156.05 69.7 156.434 69.532C156.826 69.364 157.274 69.28 157.778 69.28C158.53 69.28 159.134 69.472 159.59 69.856C160.054 70.232 160.302 70.748 160.334 71.404H158.966C158.942 71.108 158.822 70.872 158.606 70.696C158.39 70.52 158.098 70.432 157.73 70.432C157.37 70.432 157.094 70.5 156.902 70.636C156.71 70.772 156.614 70.952 156.614 71.176C156.614 71.352 156.678 71.5 156.806 71.62C156.934 71.74 157.09 71.836 157.274 71.908C157.458 71.972 157.73 72.056 158.09 72.16C158.57 72.288 158.962 72.42 159.266 72.556C159.578 72.684 159.846 72.876 160.07 73.132C160.294 73.388 160.41 73.728 160.418 74.152C160.418 74.528 160.314 74.864 160.106 75.16C159.898 75.456 159.602 75.688 159.218 75.856C158.842 76.024 158.398 76.108 157.886 76.108ZM167.956 72.532C167.956 72.78 167.94 73.004 167.908 73.204H162.856C162.896 73.732 163.092 74.156 163.444 74.476C163.796 74.796 164.228 74.956 164.74 74.956C165.476 74.956 165.996 74.648 166.3 74.032H167.776C167.576 74.64 167.212 75.14 166.684 75.532C166.164 75.916 165.516 76.108 164.74 76.108C164.108 76.108 163.54 75.968 163.036 75.688C162.54 75.4 162.148 75 161.86 74.488C161.58 73.968 161.44 73.368 161.44 72.688C161.44 72.008 161.576 71.412 161.848 70.9C162.128 70.38 162.516 69.98 163.012 69.7C163.516 69.42 164.092 69.28 164.74 69.28C165.364 69.28 165.92 69.416 166.408 69.688C166.896 69.96 167.276 70.344 167.548 70.84C167.82 71.328 167.956 71.892 167.956 72.532ZM166.528 72.1C166.52 71.596 166.34 71.192 165.988 70.888C165.636 70.584 165.2 70.432 164.68 70.432C164.208 70.432 163.804 70.584 163.468 70.888C163.132 71.184 162.932 71.588 162.868 72.1H166.528Z" fill="#3F434A"/>
<rect x="194.5" y="48.5" width="131" height="47" fill="#E3E3E3"/>
<path d="M219.667 66H209.667V74.6667H219.667V66Z" stroke="#3F434A" stroke-linecap="round" stroke-linejoin="round"/>
<path d="M219.667 69.3333H222.333L224.333 71.3333V74.6666H219.667V69.3333Z" stroke="#3F434A" stroke-linecap="round" stroke-linejoin="round"/>
<path d="M212.667 78.0001C213.587 78.0001 214.333 77.2539 214.333 76.3334C214.333 75.4129 213.587 74.6667 212.667 74.6667C211.746 74.6667 211 75.4129 211 76.3334C211 77.2539 211.746 78.0001 212.667 78.0001Z" stroke="#3F434A" stroke-linecap="round" stroke-linejoin="round"/>
<path d="M221.333 78.0001C222.254 78.0001 223 77.2539 223 76.3334C223 75.4129 222.254 74.6667 221.333 74.6667C220.413 74.6667 219.667 75.4129 219.667 76.3334C219.667 77.2539 220.413 78.0001 221.333 78.0001Z" stroke="#3F434A" stroke-linecap="round" stroke-linejoin="round"/>
<path d="M238.773 76.084C238.213 76.084 237.709 75.988 237.261 75.796C236.813 75.596 236.461 75.316 236.205 74.956C235.949 74.596 235.821 74.176 235.821 73.696H237.285C237.317 74.056 237.457 74.352 237.705 74.584C237.961 74.816 238.317 74.932 238.773 74.932C239.245 74.932 239.613 74.82 239.877 74.596C240.141 74.364 240.273 74.068 240.273 73.708C240.273 73.428 240.189 73.2 240.021 73.024C239.861 72.848 239.657 72.712 239.409 72.616C239.169 72.52 238.833 72.416 238.401 72.304C237.857 72.16 237.413 72.016 237.069 71.872C236.733 71.72 236.445 71.488 236.205 71.176C235.965 70.864 235.845 70.448 235.845 69.928C235.845 69.448 235.965 69.028 236.205 68.668C236.445 68.308 236.781 68.032 237.213 67.84C237.645 67.648 238.145 67.552 238.713 67.552C239.521 67.552 240.181 67.756 240.693 68.164C241.213 68.564 241.501 69.116 241.557 69.82H240.045C240.021 69.516 239.877 69.256 239.613 69.04C239.349 68.824 239.001 68.716 238.569 68.716C238.177 68.716 237.857 68.816 237.609 69.016C237.361 69.216 237.237 69.504 237.237 69.88C237.237 70.136 237.313 70.348 237.465 70.516C237.625 70.676 237.825 70.804 238.065 70.9C238.305 70.996 238.633 71.1 239.049 71.212C239.601 71.364 240.049 71.516 240.393 71.668C240.745 71.82 241.041 72.056 241.281 72.376C241.529 72.688 241.653 73.108 241.653 73.636C241.653 74.06 241.537 74.46 241.305 74.836C241.081 75.212 240.749 75.516 240.309 75.748C239.877 75.972 239.365 76.084 238.773 76.084ZM249.255 69.388V76H247.887V75.22C247.671 75.492 247.387 75.708 247.035 75.868C246.691 76.02 246.323 76.096 245.931 76.096C245.411 76.096 244.943 75.988 244.527 75.772C244.119 75.556 243.795 75.236 243.555 74.812C243.323 74.388 243.207 73.876 243.207 73.276V69.388H244.563V73.072C244.563 73.664 244.711 74.12 245.007 74.44C245.303 74.752 245.707 74.908 246.219 74.908C246.731 74.908 247.135 74.752 247.431 74.44C247.735 74.12 247.887 73.664 247.887 73.072V69.388H249.255ZM252.428 70.372C252.66 70.052 252.976 69.792 253.376 69.592C253.784 69.384 254.236 69.28 254.732 69.28C255.316 69.28 255.844 69.42 256.316 69.7C256.788 69.98 257.16 70.38 257.432 70.9C257.704 71.412 257.84 72 257.84 72.664C257.84 73.328 257.704 73.924 257.432 74.452C257.16 74.972 256.784 75.38 256.304 75.676C255.832 75.964 255.308 76.108 254.732 76.108C254.22 76.108 253.764 76.008 253.364 75.808C252.972 75.608 252.66 75.352 252.428 75.04V76H251.06V67.12H252.428V70.372ZM256.448 72.664C256.448 72.208 256.352 71.816 256.16 71.488C255.976 71.152 255.728 70.9 255.416 70.732C255.112 70.556 254.784 70.468 254.432 70.468C254.088 70.468 253.76 70.556 253.448 70.732C253.144 70.908 252.896 71.164 252.704 71.5C252.52 71.836 252.428 72.232 252.428 72.688C252.428 73.144 252.52 73.544 252.704 73.888C252.896 74.224 253.144 74.48 253.448 74.656C253.76 74.832 254.088 74.92 254.432 74.92C254.784 74.92 255.112 74.832 255.416 74.656C255.728 74.472 255.976 74.208 256.16 73.864C256.352 73.52 256.448 73.12 256.448 72.664ZM261.593 76.108C261.073 76.108 260.605 76.016 260.189 75.832C259.781 75.64 259.457 75.384 259.217 75.064C258.977 74.736 258.849 74.372 258.833 73.972H260.249C260.273 74.252 260.405 74.488 260.645 74.68C260.893 74.864 261.201 74.956 261.569 74.956C261.953 74.956 262.249 74.884 262.457 74.74C262.673 74.588 262.781 74.396 262.781 74.164C262.781 73.916 262.661 73.732 262.421 73.612C262.189 73.492 261.817 73.36 261.305 73.216C260.809 73.08 260.405 72.948 260.093 72.82C259.781 72.692 259.509 72.496 259.277 72.232C259.053 71.968 258.941 71.62 258.941 71.188C258.941 70.836 259.045 70.516 259.253 70.228C259.461 69.932 259.757 69.7 260.141 69.532C260.533 69.364 260.981 69.28 261.485 69.28C262.237 69.28 262.841 69.472 263.297 69.856C263.761 70.232 264.009 70.748 264.041 71.404H262.673C262.649 71.108 262.529 70.872 262.313 70.696C262.097 70.52 261.805 70.432 261.437 70.432C261.077 70.432 260.801 70.5 260.609 70.636C260.417 70.772 260.321 70.952 260.321 71.176C260.321 71.352 260.385 71.5 260.513 71.62C260.641 71.74 260.797 71.836 260.981 71.908C261.165 71.972 261.437 72.056 261.797 72.16C262.277 72.288 262.669 72.42 262.973 72.556C263.285 72.684 263.553 72.876 263.777 73.132C264.001 73.388 264.117 73.728 264.125 74.152C264.125 74.528 264.021 74.864 263.813 75.16C263.605 75.456 263.309 75.688 262.925 75.856C262.549 76.024 262.105 76.108 261.593 76.108ZM265.147 72.688C265.147 72.008 265.283 71.412 265.555 70.9C265.835 70.38 266.219 69.98 266.707 69.7C267.195 69.42 267.755 69.28 268.387 69.28C269.187 69.28 269.847 69.472 270.367 69.856C270.895 70.232 271.251 70.772 271.435 71.476H269.959C269.839 71.148 269.647 70.892 269.383 70.708C269.119 70.524 268.787 70.432 268.387 70.432C267.827 70.432 267.379 70.632 267.043 71.032C266.715 71.424 266.551 71.976 266.551 72.688C266.551 73.4 266.715 73.956 267.043 74.356C267.379 74.756 267.827 74.956 268.387 74.956C269.179 74.956 269.703 74.608 269.959 73.912H271.435C271.243 74.584 270.883 75.12 270.355 75.52C269.827 75.912 269.171 76.108 268.387 76.108C267.755 76.108 267.195 75.968 266.707 75.688C266.219 75.4 265.835 75 265.555 74.488C265.283 73.968 265.147 73.368 265.147 72.688ZM274.166 70.348C274.366 70.012 274.63 69.752 274.958 69.568C275.294 69.376 275.69 69.28 276.146 69.28V70.696H275.798C275.262 70.696 274.854 70.832 274.574 71.104C274.302 71.376 274.166 71.848 274.166 72.52V76H272.798V69.388H274.166V70.348ZM278.1 68.512C277.852 68.512 277.644 68.428 277.476 68.26C277.308 68.092 277.224 67.884 277.224 67.636C277.224 67.388 277.308 67.18 277.476 67.012C277.644 66.844 277.852 66.76 278.1 66.76C278.34 66.76 278.544 66.844 278.712 67.012C278.88 67.18 278.964 67.388 278.964 67.636C278.964 67.884 278.88 68.092 278.712 68.26C278.544 68.428 278.34 68.512 278.1 68.512ZM278.772 69.388V76H277.404V69.388H278.772ZM281.936 70.36C282.168 70.056 282.484 69.8 282.884 69.592C283.284 69.384 283.736 69.28 284.24 69.28C284.816 69.28 285.34 69.424 285.812 69.712C286.292 69.992 286.668 70.388 286.94 70.9C287.212 71.412 287.348 72 287.348 72.664C287.348 73.328 287.212 73.924 286.94 74.452C286.668 74.972 286.292 75.38 285.812 75.676C285.34 75.964 284.816 76.108 284.24 76.108C283.736 76.108 283.288 76.008 282.896 75.808C282.504 75.6 282.184 75.344 281.936 75.04V79.144H280.568V69.388H281.936V70.36ZM285.956 72.664C285.956 72.208 285.86 71.816 285.668 71.488C285.484 71.152 285.236 70.9 284.924 70.732C284.62 70.556 284.292 70.468 283.94 70.468C283.596 70.468 283.268 70.556 282.956 70.732C282.652 70.908 282.404 71.164 282.212 71.5C282.028 71.836 281.936 72.232 281.936 72.688C281.936 73.144 282.028 73.544 282.212 73.888C282.404 74.224 282.652 74.48 282.956 74.656C283.268 74.832 283.596 74.92 283.94 74.92C284.292 74.92 284.62 74.832 284.924 74.656C285.236 74.472 285.484 74.208 285.668 73.864C285.86 73.52 285.956 73.12 285.956 72.664ZM290.297 70.504V74.164C290.297 74.412 290.353 74.592 290.465 74.704C290.585 74.808 290.785 74.86 291.065 74.86H291.905V76H290.825C290.209 76 289.737 75.856 289.409 75.568C289.081 75.28 288.917 74.812 288.917 74.164V70.504H288.137V69.388H288.917V67.744H290.297V69.388H291.905V70.504H290.297ZM293.862 68.512C293.614 68.512 293.406 68.428 293.238 68.26C293.07 68.092 292.986 67.884 292.986 67.636C292.986 67.388 293.07 67.18 293.238 67.012C293.406 66.844 293.614 66.76 293.862 66.76C294.102 66.76 294.306 66.844 294.474 67.012C294.642 67.18 294.726 67.388 294.726 67.636C294.726 67.884 294.642 68.092 294.474 68.26C294.306 68.428 294.102 68.512 293.862 68.512ZM294.534 69.388V76H293.166V69.388H294.534ZM299.198 76.108C298.574 76.108 298.01 75.968 297.506 75.688C297.002 75.4 296.606 75 296.318 74.488C296.03 73.968 295.886 73.368 295.886 72.688C295.886 72.016 296.034 71.42 296.33 70.9C296.626 70.38 297.03 69.98 297.542 69.7C298.054 69.42 298.626 69.28 299.258 69.28C299.89 69.28 300.462 69.42 300.974 69.7C301.486 69.98 301.89 70.38 302.186 70.9C302.482 71.42 302.63 72.016 302.63 72.688C302.63 73.36 302.478 73.956 302.174 74.476C301.87 74.996 301.454 75.4 300.926 75.688C300.406 75.968 299.83 76.108 299.198 76.108ZM299.198 74.92C299.55 74.92 299.878 74.836 300.182 74.668C300.494 74.5 300.746 74.248 300.938 73.912C301.13 73.576 301.226 73.168 301.226 72.688C301.226 72.208 301.134 71.804 300.95 71.476C300.766 71.14 300.522 70.888 300.218 70.72C299.914 70.552 299.586 70.468 299.234 70.468C298.882 70.468 298.554 70.552 298.25 70.72C297.954 70.888 297.718 71.14 297.542 71.476C297.366 71.804 297.278 72.208 297.278 72.688C297.278 73.4 297.458 73.952 297.818 74.344C298.186 74.728 298.646 74.92 299.198 74.92ZM307.318 69.28C307.838 69.28 308.302 69.388 308.71 69.604C309.126 69.82 309.45 70.14 309.682 70.564C309.914 70.988 310.03 71.5 310.03 72.1V76H308.674V72.304C308.674 71.712 308.526 71.26 308.23 70.948C307.934 70.628 307.53 70.468 307.018 70.468C306.506 70.468 306.098 70.628 305.794 70.948C305.498 71.26 305.35 71.712 305.35 72.304V76H303.982V69.388H305.35V70.144C305.574 69.872 305.858 69.66 306.202 69.508C306.554 69.356 306.926 69.28 307.318 69.28Z" fill="#3F434A"/>
<rect x="194.5" y="48.5" width="131" height="47" stroke="#2D292A"/>
<rect x="256.5" y="40.5" width="59" height="15" fill="#2D292A"/>
<path d="M270.384 51.056C270.016 51.056 269.685 50.992 269.392 50.864C269.104 50.7307 268.877 50.5493 268.712 50.32C268.547 50.0853 268.461 49.816 268.456 49.512H269.232C269.259 49.7733 269.365 49.9947 269.552 50.176C269.744 50.352 270.021 50.44 270.384 50.44C270.731 50.44 271.003 50.3547 271.2 50.184C271.403 50.008 271.504 49.784 271.504 49.512C271.504 49.2987 271.445 49.1253 271.328 48.992C271.211 48.8587 271.064 48.7573 270.888 48.688C270.712 48.6187 270.475 48.544 270.176 48.464C269.808 48.368 269.512 48.272 269.288 48.176C269.069 48.08 268.88 47.9307 268.72 47.728C268.565 47.52 268.488 47.2427 268.488 46.896C268.488 46.592 268.565 46.3227 268.72 46.088C268.875 45.8533 269.091 45.672 269.368 45.544C269.651 45.416 269.973 45.352 270.336 45.352C270.859 45.352 271.285 45.4827 271.616 45.744C271.952 46.0053 272.141 46.352 272.184 46.784H271.384C271.357 46.5707 271.245 46.384 271.048 46.224C270.851 46.0587 270.589 45.976 270.264 45.976C269.96 45.976 269.712 46.056 269.52 46.216C269.328 46.3707 269.232 46.5893 269.232 46.872C269.232 47.0747 269.288 47.24 269.4 47.368C269.517 47.496 269.659 47.5947 269.824 47.664C269.995 47.728 270.232 47.8027 270.536 47.888C270.904 47.9893 271.2 48.0907 271.424 48.192C271.648 48.288 271.84 48.44 272 48.648C272.16 48.8507 272.24 49.128 272.24 49.48C272.24 49.752 272.168 50.008 272.024 50.248C271.88 50.488 271.667 50.6827 271.384 50.832C271.101 50.9813 270.768 51.056 270.384 51.056ZM276.607 49.76H274.175L273.727 51H272.959L274.975 45.456H275.815L277.823 51H277.055L276.607 49.76ZM276.399 49.168L275.391 46.352L274.383 49.168H276.399ZM283.31 45.424L281.206 51H280.366L278.262 45.424H279.038L280.79 50.232L282.542 45.424H283.31ZM284.836 46.016V47.88H286.868V48.48H284.836V50.4H287.108V51H284.108V45.416H287.108V46.016H284.836ZM290.031 45.88V45.216H291.535V51H290.799V45.88H290.031ZM292.785 48.048C292.785 47.1307 292.934 46.416 293.233 45.904C293.532 45.3867 294.054 45.128 294.801 45.128C295.542 45.128 296.062 45.3867 296.361 45.904C296.66 46.416 296.809 47.1307 296.809 48.048C296.809 48.9813 296.66 49.7067 296.361 50.224C296.062 50.7413 295.542 51 294.801 51C294.054 51 293.532 50.7413 293.233 50.224C292.934 49.7067 292.785 48.9813 292.785 48.048ZM296.089 48.048C296.089 47.584 296.057 47.192 295.993 46.872C295.934 46.5467 295.809 46.2853 295.617 46.088C295.43 45.8907 295.158 45.792 294.801 45.792C294.438 45.792 294.161 45.8907 293.969 46.088C293.782 46.2853 293.657 46.5467 293.593 46.872C293.534 47.192 293.505 47.584 293.505 48.048C293.505 48.528 293.534 48.9307 293.593 49.256C293.657 49.5813 293.782 49.8427 293.969 50.04C294.161 50.2373 294.438 50.336 294.801 50.336C295.158 50.336 295.43 50.2373 295.617 50.04C295.809 49.8427 295.934 49.5813 295.993 49.256C296.057 48.9307 296.089 48.528 296.089 48.048ZM297.649 46.52C297.649 46.1573 297.758 45.8693 297.977 45.656C298.195 45.4373 298.475 45.328 298.817 45.328C299.158 45.328 299.438 45.4373 299.657 45.656C299.875 45.8693 299.985 46.1573 299.985 46.52C299.985 46.888 299.875 47.1813 299.657 47.4C299.438 47.6133 299.158 47.72 298.817 47.72C298.475 47.72 298.195 47.6133 297.977 47.4C297.758 47.1813 297.649 46.888 297.649 46.52ZM302.321 45.416L299.081 51H298.361L301.601 45.416H302.321ZM298.817 45.776C298.635 45.776 298.491 45.84 298.385 45.968C298.283 46.0907 298.233 46.2747 298.233 46.52C298.233 46.7653 298.283 46.952 298.385 47.08C298.491 47.208 298.635 47.272 298.817 47.272C298.998 47.272 299.142 47.208 299.249 47.08C299.355 46.9467 299.409 46.76 299.409 46.52C299.409 46.2747 299.355 46.0907 299.249 45.968C299.142 45.84 298.998 45.776 298.817 45.776ZM300.713 49.896C300.713 49.528 300.822 49.2373 301.041 49.024C301.259 48.8053 301.539 48.696 301.881 48.696C302.222 48.696 302.499 48.8053 302.713 49.024C302.931 49.2373 303.041 49.528 303.041 49.896C303.041 50.2587 302.931 50.5493 302.713 50.768C302.499 50.9867 302.222 51.096 301.881 51.096C301.539 51.096 301.259 50.9893 301.041 50.776C300.822 50.5573 300.713 50.264 300.713 49.896ZM301.873 49.152C301.691 49.152 301.547 49.216 301.441 49.344C301.334 49.4667 301.281 49.6507 301.281 49.896C301.281 50.136 301.334 50.32 301.441 50.448C301.547 50.5707 301.691 50.632 301.873 50.632C302.054 50.632 302.198 50.5707 302.305 50.448C302.411 50.32 302.465 50.136 302.465 49.896C302.465 49.6507 302.411 49.4667 302.305 49.344C302.198 49.216 302.054 49.152 301.873 49.152Z" fill="white"/>
<rect x="256.5" y="40.5" width="59" height="15" stroke="#2D292A"/>
<path d="M23.624 110.66C24.512 110.66 25.288 110.832 25.952 111.176C26.624 111.512 27.14 112 27.5 112.64C27.868 113.272 28.052 114.012 28.052 114.86C28.052 115.708 27.868 116.444 27.5 117.068C27.14 117.692 26.624 118.172 25.952 118.508C25.288 118.836 24.512 119 23.624 119H20.9V110.66H23.624ZM23.624 117.884C24.6 117.884 25.348 117.62 25.868 117.092C26.388 116.564 26.648 115.82 26.648 114.86C26.648 113.892 26.388 113.136 25.868 112.592C25.348 112.048 24.6 111.776 23.624 111.776H22.268V117.884H23.624ZM35.4678 115.532C35.4678 115.78 35.4518 116.004 35.4198 116.204H30.3678C30.4078 116.732 30.6038 117.156 30.9558 117.476C31.3078 117.796 31.7398 117.956 32.2518 117.956C32.9878 117.956 33.5078 117.648 33.8118 117.032H35.2878C35.0878 117.64 34.7238 118.14 34.1958 118.532C33.6758 118.916 33.0278 119.108 32.2518 119.108C31.6198 119.108 31.0518 118.968 30.5478 118.688C30.0518 118.4 29.6598 118 29.3718 117.488C29.0918 116.968 28.9518 116.368 28.9518 115.688C28.9518 115.008 29.0878 114.412 29.3598 113.9C29.6398 113.38 30.0278 112.98 30.5238 112.7C31.0278 112.42 31.6038 112.28 32.2518 112.28C32.8758 112.28 33.4318 112.416 33.9198 112.688C34.4078 112.96 34.7878 113.344 35.0598 113.84C35.3318 114.328 35.4678 114.892 35.4678 115.532ZM34.0398 115.1C34.0318 114.596 33.8518 114.192 33.4998 113.888C33.1478 113.584 32.7118 113.432 32.1918 113.432C31.7198 113.432 31.3158 113.584 30.9798 113.888C30.6438 114.184 30.4438 114.588 30.3798 115.1H34.0398ZM38.1821 110.12V119H36.8141V110.12H38.1821ZM40.6741 111.512C40.4261 111.512 40.2181 111.428 40.0501 111.26C39.8821 111.092 39.7981 110.884 39.7981 110.636C39.7981 110.388 39.8821 110.18 40.0501 110.012C40.2181 109.844 40.4261 109.76 40.6741 109.76C40.9141 109.76 41.1181 109.844 41.2861 110.012C41.4541 110.18 41.5381 110.388 41.5381 110.636C41.5381 110.884 41.4541 111.092 41.2861 111.26C41.1181 111.428 40.9141 111.512 40.6741 111.512ZM41.3461 112.388V119H39.9781V112.388H41.3461ZM45.6982 117.776L47.5702 112.388H49.0222L46.5022 119H44.8702L42.3622 112.388H43.8262L45.6982 117.776ZM56.1163 115.532C56.1163 115.78 56.1003 116.004 56.0683 116.204H51.0163C51.0563 116.732 51.2523 117.156 51.6043 117.476C51.9563 117.796 52.3883 117.956 52.9003 117.956C53.6363 117.956 54.1563 117.648 54.4603 117.032H55.9362C55.7363 117.64 55.3723 118.14 54.8443 118.532C54.3243 118.916 53.6763 119.108 52.9003 119.108C52.2683 119.108 51.7003 118.968 51.1963 118.688C50.7003 118.4 50.3083 118 50.0203 117.488C49.7403 116.968 49.6003 116.368 49.6003 115.688C49.6003 115.008 49.7363 114.412 50.0083 113.9C50.2883 113.38 50.6763 112.98 51.1723 112.7C51.6763 112.42 52.2523 112.28 52.9003 112.28C53.5243 112.28 54.0803 112.416 54.5683 112.688C55.0563 112.96 55.4363 113.344 55.7083 113.84C55.9803 114.328 56.1163 114.892 56.1163 115.532ZM54.6883 115.1C54.6803 114.596 54.5003 114.192 54.1483 113.888C53.7963 113.584 53.3603 113.432 52.8403 113.432C52.3683 113.432 51.9643 113.584 51.6283 113.888C51.2923 114.184 51.0923 114.588 51.0283 115.1H54.6883ZM58.8305 113.348C59.0305 113.012 59.2945 112.752 59.6225 112.568C59.9585 112.376 60.3545 112.28 60.8105 112.28V113.696H60.4625C59.9265 113.696 59.5185 113.832 59.2385 114.104C58.9665 114.376 58.8305 114.848 58.8305 115.52V119H57.4625V112.388H58.8305V113.348ZM68.02 112.388L63.964 122.108H62.548L63.892 118.892L61.288 112.388H62.812L64.672 117.428L66.604 112.388H68.02ZM78.2295 115.532C78.2295 115.78 78.2135 116.004 78.1815 116.204H73.1295C73.1695 116.732 73.3655 117.156 73.7175 117.476C74.0695 117.796 74.5015 117.956 75.0135 117.956C75.7495 117.956 76.2695 117.648 76.5735 117.032H78.0495C77.8495 117.64 77.4855 118.14 76.9575 118.532C76.4375 118.916 75.7895 119.108 75.0135 119.108C74.3815 119.108 73.8135 118.968 73.3095 118.688C72.8135 118.4 72.4215 118 72.1335 117.488C71.8535 116.968 71.7135 116.368 71.7135 115.688C71.7135 115.008 71.8495 114.412 72.1215 113.9C72.4015 113.38 72.7895 112.98 73.2855 112.7C73.7895 112.42 74.3655 112.28 75.0135 112.28C75.6375 112.28 76.1935 112.416 76.6815 112.688C77.1695 112.96 77.5495 113.344 77.8215 113.84C78.0935 114.328 78.2295 114.892 78.2295 115.532ZM76.8015 115.1C76.7935 114.596 76.6135 114.192 76.2615 113.888C75.9095 113.584 75.4735 113.432 74.9535 113.432C74.4815 113.432 74.0775 113.584 73.7415 113.888C73.4055 114.184 73.2055 114.588 73.1415 115.1H76.8015ZM82.1318 117.776L84.0038 112.388H85.4558L82.9358 119H81.3038L78.7958 112.388H80.2598L82.1318 117.776ZM92.5498 115.532C92.5498 115.78 92.5338 116.004 92.5018 116.204H87.4498C87.4898 116.732 87.6858 117.156 88.0378 117.476C88.3898 117.796 88.8218 117.956 89.3338 117.956C90.0698 117.956 90.5898 117.648 90.8938 117.032H92.3698C92.1698 117.64 91.8058 118.14 91.2778 118.532C90.7578 118.916 90.1098 119.108 89.3338 119.108C88.7018 119.108 88.1338 118.968 87.6298 118.688C87.1338 118.4 86.7418 118 86.4538 117.488C86.1738 116.968 86.0338 116.368 86.0338 115.688C86.0338 115.008 86.1698 114.412 86.4418 113.9C86.7218 113.38 87.1098 112.98 87.6058 112.7C88.1098 112.42 88.6858 112.28 89.3338 112.28C89.9578 112.28 90.5138 112.416 91.0018 112.688C91.4898 112.96 91.8698 113.344 92.1418 113.84C92.4138 114.328 92.5498 114.892 92.5498 115.532ZM91.1218 115.1C91.1138 114.596 90.9338 114.192 90.5818 113.888C90.2298 113.584 89.7938 113.432 89.2738 113.432C88.8018 113.432 88.3978 113.584 88.0618 113.888C87.7258 114.184 87.5258 114.588 87.4618 115.1H91.1218ZM95.2641 113.348C95.4641 113.012 95.7281 112.752 96.0561 112.568C96.3921 112.376 96.7881 112.28 97.2441 112.28V113.696H96.8961C96.3601 113.696 95.9521 113.832 95.6721 114.104C95.4001 114.376 95.2641 114.848 95.2641 115.52V119H93.8961V112.388H95.2641V113.348ZM104.454 112.388L100.398 122.108H98.9816L100.326 118.892L97.7216 112.388H99.2456L101.106 117.428L103.038 112.388H104.454Z" fill="black"/>
<rect width="64" height="25" transform="translate(25 139)" fill="#F6F6F8"/>
<path d="M41.38 148.6V147.77H43.26V155H42.34V148.6H41.38ZM56.3991 148.03L54.3791 155H53.3591L51.7391 149.39L50.0591 155L49.0491 155.01L47.0991 148.03H48.0691L49.5891 153.94L51.2691 148.03H52.2891L53.8891 153.92L55.4191 148.03H56.3991ZM58.305 148.77V151.1H60.845V151.85H58.305V154.25H61.145V155H57.395V148.02H61.145V148.77H58.305ZM63.432 148.77V151.1H65.972V151.85H63.432V154.25H66.272V155H62.522V148.02H66.272V148.77H63.432ZM71.4289 155L68.5589 151.82V155H67.6489V148.03H68.5589V151.26L71.4389 148.03H72.5889L69.4289 151.52L72.6189 155H71.4289Z" fill="#3F434A"/>
<path d="M50.072 183.784C50.072 184.339 49.928 184.861 49.64 185.352C49.3627 185.832 48.9467 186.232 48.392 186.552C47.848 186.861 47.2027 187.043 46.456 187.096V188.392H45.432V187.08C44.3653 186.984 43.5067 186.664 42.856 186.12C42.2053 185.565 41.8693 184.819 41.848 183.88H44.248C44.312 184.648 44.7067 185.112 45.432 185.272V182.216C44.664 182.024 44.0453 181.832 43.576 181.64C43.1067 181.448 42.7013 181.139 42.36 180.712C42.0187 180.285 41.848 179.704 41.848 178.968C41.848 178.04 42.1787 177.283 42.84 176.696C43.512 176.109 44.376 175.773 45.432 175.688V174.392H46.456V175.688C47.48 175.773 48.296 176.083 48.904 176.616C49.5227 177.149 49.8693 177.885 49.944 178.824H47.528C47.496 178.515 47.384 178.248 47.192 178.024C47.0107 177.789 46.7653 177.624 46.456 177.528V180.552C47.256 180.755 47.8853 180.952 48.344 181.144C48.8133 181.325 49.2187 181.629 49.56 182.056C49.9013 182.472 50.072 183.048 50.072 183.784ZM44.184 178.856C44.184 179.208 44.2907 179.496 44.504 179.72C44.7173 179.933 45.0267 180.109 45.432 180.248V177.48C45.048 177.533 44.744 177.677 44.52 177.912C44.296 178.147 44.184 178.461 44.184 178.856ZM46.456 185.304C46.8613 185.229 47.176 185.064 47.4 184.808C47.6347 184.552 47.752 184.243 47.752 183.88C47.752 183.528 47.64 183.245 47.416 183.032C47.192 182.819 46.872 182.643 46.456 182.504V185.304ZM52.2208 184.728V182.968L57.4528 175.48H60.0608V182.776H61.4688V184.728H60.0608V187H57.8208V184.728H52.2208ZM57.9648 177.88L54.6848 182.776H57.9648V177.88ZM70.7349 177.272H65.5509V180.008C65.7749 179.731 66.0949 179.507 66.5109 179.336C66.9269 179.155 67.3695 179.064 67.8389 179.064C68.6922 179.064 69.3909 179.251 69.9349 179.624C70.4789 179.997 70.8735 180.477 71.1189 181.064C71.3642 181.64 71.4869 182.259 71.4869 182.92C71.4869 184.147 71.1349 185.133 70.4309 185.88C69.7375 186.627 68.7455 187 67.4549 187C66.2389 187 65.2682 186.696 64.5429 186.088C63.8175 185.48 63.4069 184.685 63.3109 183.704H65.4869C65.5829 184.131 65.7962 184.472 66.1269 184.728C66.4682 184.984 66.9002 185.112 67.4229 185.112C68.0522 185.112 68.5269 184.915 68.8469 184.52C69.1669 184.125 69.3269 183.603 69.3269 182.952C69.3269 182.291 69.1615 181.789 68.8309 181.448C68.5109 181.096 68.0362 180.92 67.4069 180.92C66.9589 180.92 66.5855 181.032 66.2869 181.256C65.9882 181.48 65.7749 181.779 65.6469 182.152H63.5029V175.304H70.7349V177.272Z" fill="#3F434A"/>
<rect x="20.5" y="134.5" width="73" height="63" stroke="#E0E0E0"/>
<rect width="64" height="25" transform="translate(109 139)" fill="#2D292A"/>
<path d="M121.01 154.27C121.857 153.59 122.52 153.033 123 152.6C123.48 152.16 123.883 151.703 124.21 151.23C124.543 150.75 124.71 150.28 124.71 149.82C124.71 149.387 124.603 149.047 124.39 148.8C124.183 148.547 123.847 148.42 123.38 148.42C122.927 148.42 122.573 148.563 122.32 148.85C122.073 149.13 121.94 149.507 121.92 149.98H121.04C121.067 149.233 121.293 148.657 121.72 148.25C122.147 147.843 122.697 147.64 123.37 147.64C124.057 147.64 124.6 147.83 125 148.21C125.407 148.59 125.61 149.113 125.61 149.78C125.61 150.333 125.443 150.873 125.11 151.4C124.783 151.92 124.41 152.38 123.99 152.78C123.57 153.173 123.033 153.633 122.38 154.16H125.82V154.92H121.01V154.27ZM138.448 148.03L136.428 155H135.408L133.788 149.39L132.108 155L131.098 155.01L129.148 148.03H130.118L131.638 153.94L133.318 148.03H134.338L135.938 153.92L137.468 148.03H138.448ZM140.354 148.77V151.1H142.894V151.85H140.354V154.25H143.194V155H139.444V148.02H143.194V148.77H140.354ZM145.481 148.77V151.1H148.021V151.85H145.481V154.25H148.321V155H144.571V148.02H148.321V148.77H145.481ZM153.478 155L150.608 151.82V155H149.698V148.03H150.608V151.26L153.488 148.03H154.638L151.478 151.52L154.668 155H153.478ZM157.894 155.07C157.434 155.07 157.021 154.99 156.654 154.83C156.294 154.663 156.011 154.437 155.804 154.15C155.597 153.857 155.491 153.52 155.484 153.14H156.454C156.487 153.467 156.621 153.743 156.854 153.97C157.094 154.19 157.441 154.3 157.894 154.3C158.327 154.3 158.667 154.193 158.914 153.98C159.167 153.76 159.294 153.48 159.294 153.14C159.294 152.873 159.221 152.657 159.074 152.49C158.927 152.323 158.744 152.197 158.524 152.11C158.304 152.023 158.007 151.93 157.634 151.83C157.174 151.71 156.804 151.59 156.524 151.47C156.251 151.35 156.014 151.163 155.814 150.91C155.621 150.65 155.524 150.303 155.524 149.87C155.524 149.49 155.621 149.153 155.814 148.86C156.007 148.567 156.277 148.34 156.624 148.18C156.977 148.02 157.381 147.94 157.834 147.94C158.487 147.94 159.021 148.103 159.434 148.43C159.854 148.757 160.091 149.19 160.144 149.73H159.144C159.111 149.463 158.971 149.23 158.724 149.03C158.477 148.823 158.151 148.72 157.744 148.72C157.364 148.72 157.054 148.82 156.814 149.02C156.574 149.213 156.454 149.487 156.454 149.84C156.454 150.093 156.524 150.3 156.664 150.46C156.811 150.62 156.987 150.743 157.194 150.83C157.407 150.91 157.704 151.003 158.084 151.11C158.544 151.237 158.914 151.363 159.194 151.49C159.474 151.61 159.714 151.8 159.914 152.06C160.114 152.313 160.214 152.66 160.214 153.1C160.214 153.44 160.124 153.76 159.944 154.06C159.764 154.36 159.497 154.603 159.144 154.79C158.791 154.977 158.374 155.07 157.894 155.07Z" fill="white"/>
<path d="M134.072 183.784C134.072 184.339 133.928 184.861 133.64 185.352C133.363 185.832 132.947 186.232 132.392 186.552C131.848 186.861 131.203 187.043 130.456 187.096V188.392H129.432V187.08C128.365 186.984 127.507 186.664 126.856 186.12C126.205 185.565 125.869 184.819 125.848 183.88H128.248C128.312 184.648 128.707 185.112 129.432 185.272V182.216C128.664 182.024 128.045 181.832 127.576 181.64C127.107 181.448 126.701 181.139 126.36 180.712C126.019 180.285 125.848 179.704 125.848 178.968C125.848 178.04 126.179 177.283 126.84 176.696C127.512 176.109 128.376 175.773 129.432 175.688V174.392H130.456V175.688C131.48 175.773 132.296 176.083 132.904 176.616C133.523 177.149 133.869 177.885 133.944 178.824H131.528C131.496 178.515 131.384 178.248 131.192 178.024C131.011 177.789 130.765 177.624 130.456 177.528V180.552C131.256 180.755 131.885 180.952 132.344 181.144C132.813 181.325 133.219 181.629 133.56 182.056C133.901 182.472 134.072 183.048 134.072 183.784ZM128.184 178.856C128.184 179.208 128.291 179.496 128.504 179.72C128.717 179.933 129.027 180.109 129.432 180.248V177.48C129.048 177.533 128.744 177.677 128.52 177.912C128.296 178.147 128.184 178.461 128.184 178.856ZM130.456 185.304C130.861 185.229 131.176 185.064 131.4 184.808C131.635 184.552 131.752 184.243 131.752 183.88C131.752 183.528 131.64 183.245 131.416 183.032C131.192 182.819 130.872 182.643 130.456 182.504V185.304ZM136.221 184.728V182.968L141.453 175.48H144.061V182.776H145.469V184.728H144.061V187H141.821V184.728H136.221ZM141.965 177.88L138.685 182.776H141.965V177.88ZM146.895 181.016C146.895 179.171 147.226 177.725 147.887 176.68C148.559 175.635 149.668 175.112 151.215 175.112C152.762 175.112 153.866 175.635 154.527 176.68C155.199 177.725 155.535 179.171 155.535 181.016C155.535 182.872 155.199 184.328 154.527 185.384C153.866 186.44 152.762 186.968 151.215 186.968C149.668 186.968 148.559 186.44 147.887 185.384C147.226 184.328 146.895 182.872 146.895 181.016ZM153.327 181.016C153.327 180.227 153.274 179.565 153.167 179.032C153.071 178.488 152.868 178.045 152.559 177.704C152.26 177.363 151.812 177.192 151.215 177.192C150.618 177.192 150.164 177.363 149.855 177.704C149.556 178.045 149.354 178.488 149.247 179.032C149.151 179.565 149.103 180.227 149.103 181.016C149.103 181.827 149.151 182.509 149.247 183.064C149.343 183.608 149.546 184.051 149.855 184.392C150.164 184.723 150.618 184.888 151.215 184.888C151.812 184.888 152.266 184.723 152.575 184.392C152.884 184.051 153.087 183.608 153.183 183.064C153.279 182.509 153.327 181.827 153.327 181.016Z" fill="#3F434A"/>
<rect x="104.5" y="134.5" width="73" height="63" stroke="#E0E0E0"/>
<rect width="64" height="25" transform="translate(193 139)" fill="#F6F6F8"/>
<path d="M204.38 148.6V147.77H206.26V155H205.34V148.6H204.38ZM217.709 148.08V155H216.799V149.84L214.499 155H213.859L211.549 149.83V155H210.639V148.08H211.619L214.179 153.8L216.739 148.08H217.709ZM222.412 155.07C221.766 155.07 221.176 154.92 220.642 154.62C220.109 154.313 219.686 153.89 219.372 153.35C219.066 152.803 218.912 152.19 218.912 151.51C218.912 150.83 219.066 150.22 219.372 149.68C219.686 149.133 220.109 148.71 220.642 148.41C221.176 148.103 221.766 147.95 222.412 147.95C223.066 147.95 223.659 148.103 224.192 148.41C224.726 148.71 225.146 149.13 225.452 149.67C225.759 150.21 225.912 150.823 225.912 151.51C225.912 152.197 225.759 152.81 225.452 153.35C225.146 153.89 224.726 154.313 224.192 154.62C223.659 154.92 223.066 155.07 222.412 155.07ZM222.412 154.28C222.899 154.28 223.336 154.167 223.722 153.94C224.116 153.713 224.422 153.39 224.642 152.97C224.869 152.55 224.982 152.063 224.982 151.51C224.982 150.95 224.869 150.463 224.642 150.05C224.422 149.63 224.119 149.307 223.732 149.08C223.346 148.853 222.906 148.74 222.412 148.74C221.919 148.74 221.479 148.853 221.092 149.08C220.706 149.307 220.399 149.63 220.172 150.05C219.952 150.463 219.842 150.95 219.842 151.51C219.842 152.063 219.952 152.55 220.172 152.97C220.399 153.39 220.706 153.713 221.092 153.94C221.486 154.167 221.926 154.28 222.412 154.28ZM232.594 155H231.684L228.024 149.45V155H227.114V148.02H228.024L231.684 153.56V148.02H232.594V155ZM238.435 148.03V148.77H236.535V155H235.625V148.77H233.715V148.03H238.435ZM244.925 148.03V155H244.015V151.84H240.465V155H239.555V148.03H240.465V151.09H244.015V148.03H244.925Z" fill="#3F434A"/>
<path d="M218.072 183.784C218.072 184.339 217.928 184.861 217.64 185.352C217.363 185.832 216.947 186.232 216.392 186.552C215.848 186.861 215.203 187.043 214.456 187.096V188.392H213.432V187.08C212.365 186.984 211.507 186.664 210.856 186.12C210.205 185.565 209.869 184.819 209.848 183.88H212.248C212.312 184.648 212.707 185.112 213.432 185.272V182.216C212.664 182.024 212.045 181.832 211.576 181.64C211.107 181.448 210.701 181.139 210.36 180.712C210.019 180.285 209.848 179.704 209.848 178.968C209.848 178.04 210.179 177.283 210.84 176.696C211.512 176.109 212.376 175.773 213.432 175.688V174.392H214.456V175.688C215.48 175.773 216.296 176.083 216.904 176.616C217.523 177.149 217.869 177.885 217.944 178.824H215.528C215.496 178.515 215.384 178.248 215.192 178.024C215.011 177.789 214.765 177.624 214.456 177.528V180.552C215.256 180.755 215.885 180.952 216.344 181.144C216.813 181.325 217.219 181.629 217.56 182.056C217.901 182.472 218.072 183.048 218.072 183.784ZM212.184 178.856C212.184 179.208 212.291 179.496 212.504 179.72C212.717 179.933 213.027 180.109 213.432 180.248V177.48C213.048 177.533 212.744 177.677 212.52 177.912C212.296 178.147 212.184 178.461 212.184 178.856ZM214.456 185.304C214.861 185.229 215.176 185.064 215.4 184.808C215.635 184.552 215.752 184.243 215.752 183.88C215.752 183.528 215.64 183.245 215.416 183.032C215.192 182.819 214.872 182.643 214.456 182.504V185.304ZM220.221 184.728V182.968L225.453 175.48H228.061V182.776H229.469V184.728H228.061V187H225.821V184.728H220.221ZM225.965 177.88L222.685 182.776H225.965V177.88ZM230.895 181.016C230.895 179.171 231.226 177.725 231.887 176.68C232.559 175.635 233.668 175.112 235.215 175.112C236.762 175.112 237.866 175.635 238.527 176.68C239.199 177.725 239.535 179.171 239.535 181.016C239.535 182.872 239.199 184.328 238.527 185.384C237.866 186.44 236.762 186.968 235.215 186.968C233.668 186.968 232.559 186.44 231.887 185.384C231.226 184.328 230.895 182.872 230.895 181.016ZM237.327 181.016C237.327 180.227 237.274 179.565 237.167 179.032C237.071 178.488 236.868 178.045 236.559 177.704C236.26 177.363 235.812 177.192 235.215 177.192C234.618 177.192 234.164 177.363 233.855 177.704C233.556 178.045 233.354 178.488 233.247 179.032C233.151 179.565 233.103 180.227 233.103 181.016C233.103 181.827 233.151 182.509 233.247 183.064C233.343 183.608 233.546 184.051 233.855 184.392C234.164 184.723 234.618 184.888 235.215 184.888C235.812 184.888 236.266 184.723 236.575 184.392C236.884 184.051 237.087 183.608 237.183 183.064C237.279 182.509 237.327 181.827 237.327 181.016Z" fill="#3F434A"/>
<rect x="188.5" y="134.5" width="73" height="63" stroke="#E0E0E0"/>
<path d="M31.5 211.5V214.5H28.5" stroke="#595F69" stroke-linecap="round" stroke-linejoin="round"/>
<path d="M20.5 219.5V216.5H23.5" stroke="#595F69" stroke-linecap="round" stroke-linejoin="round"/>
<path d="M21.755 214C22.0086 213.283 22.4396 212.643 23.0077 212.138C23.5759 211.633 24.2627 211.28 25.0041 211.112C25.7456 210.944 26.5174 210.967 27.2476 211.178C27.9778 211.39 28.6426 211.782 29.18 212.32L31.5 214.5M20.5 216.5L22.82 218.68C23.3574 219.218 24.0222 219.61 24.7524 219.822C25.4826 220.033 26.2544 220.056 26.9959 219.888C27.7373 219.72 28.4241 219.367 28.9923 218.862C29.5604 218.357 29.9914 217.717 30.245 217" stroke="#595F69" stroke-linecap="round" stroke-linejoin="round"/>
<path d="M44.98 219.07C44.52 219.07 44.1067 218.99 43.74 218.83C43.38 218.663 43.0967 218.437 42.89 218.15C42.6833 217.857 42.5767 217.52 42.57 217.14H43.54C43.5733 217.467 43.7067 217.743 43.94 217.97C44.18 218.19 44.5267 218.3 44.98 218.3C45.4133 218.3 45.7533 218.193 46 217.98C46.2533 217.76 46.38 217.48 46.38 217.14C46.38 216.873 46.3067 216.657 46.16 216.49C46.0133 216.323 45.83 216.197 45.61 216.11C45.39 216.023 45.0933 215.93 44.72 215.83C44.26 215.71 43.89 215.59 43.61 215.47C43.3367 215.35 43.1 215.163 42.9 214.91C42.7067 214.65 42.61 214.303 42.61 213.87C42.61 213.49 42.7067 213.153 42.9 212.86C43.0933 212.567 43.3633 212.34 43.71 212.18C44.0633 212.02 44.4667 211.94 44.92 211.94C45.5733 211.94 46.1067 212.103 46.52 212.43C46.94 212.757 47.1767 213.19 47.23 213.73H46.23C46.1967 213.463 46.0567 213.23 45.81 213.03C45.5633 212.823 45.2367 212.72 44.83 212.72C44.45 212.72 44.14 212.82 43.9 213.02C43.66 213.213 43.54 213.487 43.54 213.84C43.54 214.093 43.61 214.3 43.75 214.46C43.8967 214.62 44.0733 214.743 44.28 214.83C44.4933 214.91 44.79 215.003 45.17 215.11C45.63 215.237 46 215.363 46.28 215.49C46.56 215.61 46.8 215.8 47 216.06C47.2 216.313 47.3 216.66 47.3 217.1C47.3 217.44 47.21 217.76 47.03 218.06C46.85 218.36 46.5833 218.603 46.23 218.79C45.8767 218.977 45.46 219.07 44.98 219.07ZM53.4991 213.52V219H52.5891V218.19C52.4158 218.47 52.1725 218.69 51.8591 218.85C51.5525 219.003 51.2125 219.08 50.8391 219.08C50.4125 219.08 50.0291 218.993 49.6891 218.82C49.3491 218.64 49.0791 218.373 48.8791 218.02C48.6858 217.667 48.5891 217.237 48.5891 216.73V213.52H49.4891V216.61C49.4891 217.15 49.6258 217.567 49.8991 217.86C50.1725 218.147 50.5458 218.29 51.0191 218.29C51.5058 218.29 51.8891 218.14 52.1691 217.84C52.4491 217.54 52.5891 217.103 52.5891 216.53V213.52H53.4991ZM55.9456 214.54C56.1323 214.213 56.4056 213.947 56.7656 213.74C57.1256 213.533 57.5356 213.43 57.9956 213.43C58.489 213.43 58.9323 213.547 59.3256 213.78C59.719 214.013 60.029 214.343 60.2556 214.77C60.4823 215.19 60.5956 215.68 60.5956 216.24C60.5956 216.793 60.4823 217.287 60.2556 217.72C60.029 218.153 59.7156 218.49 59.3156 218.73C58.9223 218.97 58.4823 219.09 57.9956 219.09C57.5223 219.09 57.1056 218.987 56.7456 218.78C56.3923 218.573 56.1256 218.31 55.9456 217.99V219H55.0356V211.6H55.9456V214.54ZM59.6656 216.24C59.6656 215.827 59.5823 215.467 59.4156 215.16C59.249 214.853 59.0223 214.62 58.7356 214.46C58.4556 214.3 58.1456 214.22 57.8056 214.22C57.4723 214.22 57.1623 214.303 56.8756 214.47C56.5956 214.63 56.369 214.867 56.1956 215.18C56.029 215.487 55.9456 215.843 55.9456 216.25C55.9456 216.663 56.029 217.027 56.1956 217.34C56.369 217.647 56.5956 217.883 56.8756 218.05C57.1623 218.21 57.4723 218.29 57.8056 218.29C58.1456 218.29 58.4556 218.21 58.7356 218.05C59.0223 217.883 59.249 217.647 59.4156 217.34C59.5823 217.027 59.6656 216.66 59.6656 216.24ZM63.7334 219.09C63.3134 219.09 62.9368 219.02 62.6034 218.88C62.2701 218.733 62.0068 218.533 61.8134 218.28C61.6201 218.02 61.5134 217.723 61.4934 217.39H62.4334C62.4601 217.663 62.5868 217.887 62.8134 218.06C63.0468 218.233 63.3501 218.32 63.7234 218.32C64.0701 218.32 64.3434 218.243 64.5434 218.09C64.7434 217.937 64.8434 217.743 64.8434 217.51C64.8434 217.27 64.7368 217.093 64.5234 216.98C64.3101 216.86 63.9801 216.743 63.5334 216.63C63.1268 216.523 62.7934 216.417 62.5334 216.31C62.2801 216.197 62.0601 216.033 61.8734 215.82C61.6934 215.6 61.6034 215.313 61.6034 214.96C61.6034 214.68 61.6868 214.423 61.8534 214.19C62.0201 213.957 62.2568 213.773 62.5634 213.64C62.8701 213.5 63.2201 213.43 63.6134 213.43C64.2201 213.43 64.7101 213.583 65.0834 213.89C65.4568 214.197 65.6568 214.617 65.6834 215.15H64.7734C64.7534 214.863 64.6368 214.633 64.4234 214.46C64.2168 214.287 63.9368 214.2 63.5834 214.2C63.2568 214.2 62.9968 214.27 62.8034 214.41C62.6101 214.55 62.5134 214.733 62.5134 214.96C62.5134 215.14 62.5701 215.29 62.6834 215.41C62.8034 215.523 62.9501 215.617 63.1234 215.69C63.3034 215.757 63.5501 215.833 63.8634 215.92C64.2568 216.027 64.5768 216.133 64.8234 216.24C65.0701 216.34 65.2801 216.493 65.4534 216.7C65.6334 216.907 65.7268 217.177 65.7334 217.51C65.7334 217.81 65.6501 218.08 65.4834 218.32C65.3168 218.56 65.0801 218.75 64.7734 218.89C64.4734 219.023 64.1268 219.09 63.7334 219.09ZM66.678 216.25C66.678 215.683 66.7914 215.19 67.018 214.77C67.2447 214.343 67.558 214.013 67.958 213.78C68.3647 213.547 68.828 213.43 69.348 213.43C70.0214 213.43 70.5747 213.593 71.008 213.92C71.448 214.247 71.738 214.7 71.878 215.28H70.898C70.8047 214.947 70.6214 214.683 70.348 214.49C70.0814 214.297 69.748 214.2 69.348 214.2C68.828 214.2 68.408 214.38 68.088 214.74C67.768 215.093 67.608 215.597 67.608 216.25C67.608 216.91 67.768 217.42 68.088 217.78C68.408 218.14 68.828 218.32 69.348 218.32C69.748 218.32 70.0814 218.227 70.348 218.04C70.6147 217.853 70.798 217.587 70.898 217.24H71.878C71.7314 217.8 71.438 218.25 70.998 218.59C70.558 218.923 70.008 219.09 69.348 219.09C68.828 219.09 68.3647 218.973 67.958 218.74C67.558 218.507 67.2447 218.177 67.018 217.75C66.7914 217.323 66.678 216.823 66.678 216.25ZM74.0023 214.41C74.1623 214.097 74.3889 213.853 74.6823 213.68C74.9823 213.507 75.3456 213.42 75.7723 213.42V214.36H75.5323C74.5123 214.36 74.0023 214.913 74.0023 216.02V219H73.0923V213.52H74.0023V214.41ZM77.2927 212.63C77.1194 212.63 76.9727 212.57 76.8527 212.45C76.7327 212.33 76.6727 212.183 76.6727 212.01C76.6727 211.837 76.7327 211.69 76.8527 211.57C76.9727 211.45 77.1194 211.39 77.2927 211.39C77.4594 211.39 77.5994 211.45 77.7127 211.57C77.8327 211.69 77.8927 211.837 77.8927 212.01C77.8927 212.183 77.8327 212.33 77.7127 212.45C77.5994 212.57 77.4594 212.63 77.2927 212.63ZM77.7327 213.52V219H76.8227V213.52H77.7327ZM80.1937 214.53C80.3737 214.217 80.6403 213.957 80.9937 213.75C81.3537 213.537 81.7703 213.43 82.2437 213.43C82.7303 213.43 83.1703 213.547 83.5637 213.78C83.9637 214.013 84.277 214.343 84.5037 214.77C84.7303 215.19 84.8437 215.68 84.8437 216.24C84.8437 216.793 84.7303 217.287 84.5037 217.72C84.277 218.153 83.9637 218.49 83.5637 218.73C83.1703 218.97 82.7303 219.09 82.2437 219.09C81.777 219.09 81.3637 218.987 81.0037 218.78C80.6503 218.567 80.3803 218.303 80.1937 217.99V221.6H79.2837V213.52H80.1937V214.53ZM83.9137 216.24C83.9137 215.827 83.8303 215.467 83.6637 215.16C83.497 214.853 83.2703 214.62 82.9837 214.46C82.7037 214.3 82.3937 214.22 82.0537 214.22C81.7203 214.22 81.4103 214.303 81.1237 214.47C80.8437 214.63 80.617 214.867 80.4437 215.18C80.277 215.487 80.1937 215.843 80.1937 216.25C80.1937 216.663 80.277 217.027 80.4437 217.34C80.617 217.647 80.8437 217.883 81.1237 218.05C81.4103 218.21 81.7203 218.29 82.0537 218.29C82.3937 218.29 82.7037 218.21 82.9837 218.05C83.2703 217.883 83.497 217.647 83.6637 217.34C83.8303 217.027 83.9137 216.66 83.9137 216.24ZM87.1515 214.27V217.5C87.1515 217.767 87.2082 217.957 87.3215 218.07C87.4348 218.177 87.6315 218.23 87.9115 218.23H88.5815V219H87.7615C87.2548 219 86.8748 218.883 86.6215 218.65C86.3682 218.417 86.2415 218.033 86.2415 217.5V214.27H85.5315V213.52H86.2415V212.14H87.1515V213.52H88.5815V214.27H87.1515ZM90.1541 212.63C89.9807 212.63 89.8341 212.57 89.7141 212.45C89.5941 212.33 89.5341 212.183 89.5341 212.01C89.5341 211.837 89.5941 211.69 89.7141 211.57C89.8341 211.45 89.9807 211.39 90.1541 211.39C90.3207 211.39 90.4607 211.45 90.5741 211.57C90.6941 211.69 90.7541 211.837 90.7541 212.01C90.7541 212.183 90.6941 212.33 90.5741 212.45C90.4607 212.57 90.3207 212.63 90.1541 212.63ZM90.5941 213.52V219H89.6841V213.52H90.5941ZM94.535 219.09C94.0217 219.09 93.555 218.973 93.135 218.74C92.7217 218.507 92.395 218.177 92.155 217.75C91.9217 217.317 91.805 216.817 91.805 216.25C91.805 215.69 91.925 215.197 92.165 214.77C92.4117 214.337 92.745 214.007 93.165 213.78C93.585 213.547 94.055 213.43 94.575 213.43C95.095 213.43 95.565 213.547 95.985 213.78C96.405 214.007 96.735 214.333 96.975 214.76C97.2217 215.187 97.345 215.683 97.345 216.25C97.345 216.817 97.2183 217.317 96.965 217.75C96.7183 218.177 96.3817 218.507 95.955 218.74C95.5283 218.973 95.055 219.09 94.535 219.09ZM94.535 218.29C94.8617 218.29 95.1683 218.213 95.455 218.06C95.7417 217.907 95.9717 217.677 96.145 217.37C96.325 217.063 96.415 216.69 96.415 216.25C96.415 215.81 96.3283 215.437 96.155 215.13C95.9817 214.823 95.755 214.597 95.475 214.45C95.195 214.297 94.8917 214.22 94.565 214.22C94.2317 214.22 93.925 214.297 93.645 214.45C93.3717 214.597 93.1517 214.823 92.985 215.13C92.8183 215.437 92.735 215.81 92.735 216.25C92.735 216.697 92.815 217.073 92.975 217.38C93.1417 217.687 93.3617 217.917 93.635 218.07C93.9083 218.217 94.2083 218.29 94.535 218.29ZM101.211 213.42C101.878 213.42 102.418 213.623 102.831 214.03C103.245 214.43 103.451 215.01 103.451 215.77V219H102.551V215.9C102.551 215.353 102.415 214.937 102.141 214.65C101.868 214.357 101.495 214.21 101.021 214.21C100.541 214.21 100.158 214.36 99.8715 214.66C99.5915 214.96 99.4515 215.397 99.4515 215.97V219H98.5415V213.52H99.4515V214.3C99.6315 214.02 99.8748 213.803 100.181 213.65C100.495 213.497 100.838 213.42 101.211 213.42ZM107.264 216.24C107.264 215.68 107.377 215.19 107.604 214.77C107.831 214.343 108.141 214.013 108.534 213.78C108.934 213.547 109.381 213.43 109.874 213.43C110.301 213.43 110.697 213.53 111.064 213.73C111.431 213.923 111.711 214.18 111.904 214.5V211.6H112.824V219H111.904V217.97C111.724 218.297 111.457 218.567 111.104 218.78C110.751 218.987 110.337 219.09 109.864 219.09C109.377 219.09 108.934 218.97 108.534 218.73C108.141 218.49 107.831 218.153 107.604 217.72C107.377 217.287 107.264 216.793 107.264 216.24ZM111.904 216.25C111.904 215.837 111.821 215.477 111.654 215.17C111.487 214.863 111.261 214.63 110.974 214.47C110.694 214.303 110.384 214.22 110.044 214.22C109.704 214.22 109.394 214.3 109.114 214.46C108.834 214.62 108.611 214.853 108.444 215.16C108.277 215.467 108.194 215.827 108.194 216.24C108.194 216.66 108.277 217.027 108.444 217.34C108.611 217.647 108.834 217.883 109.114 218.05C109.394 218.21 109.704 218.29 110.044 218.29C110.384 218.29 110.694 218.21 110.974 218.05C111.261 217.883 111.487 217.647 111.654 217.34C111.821 217.027 111.904 216.663 111.904 216.25ZM119.362 216.05C119.362 216.223 119.352 216.407 119.332 216.6H114.952C114.985 217.14 115.168 217.563 115.502 217.87C115.842 218.17 116.252 218.32 116.732 218.32C117.125 218.32 117.452 218.23 117.712 218.05C117.978 217.863 118.165 217.617 118.272 217.31H119.252C119.105 217.837 118.812 218.267 118.372 218.6C117.932 218.927 117.385 219.09 116.732 219.09C116.212 219.09 115.745 218.973 115.332 218.74C114.925 218.507 114.605 218.177 114.372 217.75C114.138 217.317 114.022 216.817 114.022 216.25C114.022 215.683 114.135 215.187 114.362 214.76C114.588 214.333 114.905 214.007 115.312 213.78C115.725 213.547 116.198 213.43 116.732 213.43C117.252 213.43 117.712 213.543 118.112 213.77C118.512 213.997 118.818 214.31 119.032 214.71C119.252 215.103 119.362 215.55 119.362 216.05ZM118.422 215.86C118.422 215.513 118.345 215.217 118.192 214.97C118.038 214.717 117.828 214.527 117.562 214.4C117.302 214.267 117.012 214.2 116.692 214.2C116.232 214.2 115.838 214.347 115.512 214.64C115.192 214.933 115.008 215.34 114.962 215.86H118.422ZM121.673 214.27V217.5C121.673 217.767 121.73 217.957 121.843 218.07C121.956 218.177 122.153 218.23 122.433 218.23H123.103V219H122.283C121.776 219 121.396 218.883 121.143 218.65C120.89 218.417 120.763 218.033 120.763 217.5V214.27H120.053V213.52H120.763V212.14H121.673V213.52H123.103V214.27H121.673ZM123.866 216.24C123.866 215.68 123.979 215.19 124.206 214.77C124.432 214.343 124.742 214.013 125.136 213.78C125.536 213.547 125.979 213.43 126.466 213.43C126.946 213.43 127.362 213.533 127.716 213.74C128.069 213.947 128.332 214.207 128.506 214.52V213.52H129.426V219H128.506V217.98C128.326 218.3 128.056 218.567 127.696 218.78C127.342 218.987 126.929 219.09 126.456 219.09C125.969 219.09 125.529 218.97 125.136 218.73C124.742 218.49 124.432 218.153 124.206 217.72C123.979 217.287 123.866 216.793 123.866 216.24ZM128.506 216.25C128.506 215.837 128.422 215.477 128.256 215.17C128.089 214.863 127.862 214.63 127.576 214.47C127.296 214.303 126.986 214.22 126.646 214.22C126.306 214.22 125.996 214.3 125.716 214.46C125.436 214.62 125.212 214.853 125.046 215.16C124.879 215.467 124.796 215.827 124.796 216.24C124.796 216.66 124.879 217.027 125.046 217.34C125.212 217.647 125.436 217.883 125.716 218.05C125.996 218.21 126.306 218.29 126.646 218.29C126.986 218.29 127.296 218.21 127.576 218.05C127.862 217.883 128.089 217.647 128.256 217.34C128.422 217.027 128.506 216.663 128.506 216.25ZM131.433 212.63C131.26 212.63 131.113 212.57 130.993 212.45C130.873 212.33 130.813 212.183 130.813 212.01C130.813 211.837 130.873 211.69 130.993 211.57C131.113 211.45 131.26 211.39 131.433 211.39C131.6 211.39 131.74 211.45 131.853 211.57C131.973 211.69 132.033 211.837 132.033 212.01C132.033 212.183 131.973 212.33 131.853 212.45C131.74 212.57 131.6 212.63 131.433 212.63ZM131.873 213.52V219H130.963V213.52H131.873ZM134.334 211.6V219H133.424V211.6H134.334Z" fill="#595F69"/>
<rect x="0.5" y="0.5" width="345" height="242" stroke="#E0E0E0"/>
</svg>
