<svg width="346" height="214" viewBox="0 0 346 214" fill="none" xmlns="http://www.w3.org/2000/svg">
<path d="M26.732 27.144C26.732 27.568 26.632 27.968 26.432 28.344C26.232 28.72 25.912 29.028 25.472 29.268C25.032 29.5 24.468 29.616 23.78 29.616H22.268V33H20.9V24.66H23.78C24.42 24.66 24.96 24.772 25.4 24.996C25.848 25.212 26.18 25.508 26.396 25.884C26.62 26.26 26.732 26.68 26.732 27.144ZM23.78 28.5C24.3 28.5 24.688 28.384 24.944 28.152C25.2 27.912 25.328 27.576 25.328 27.144C25.328 26.232 24.812 25.776 23.78 25.776H22.268V28.5H23.78ZM34.0247 26.388V33H32.6567V32.22C32.4407 32.492 32.1567 32.708 31.8047 32.868C31.4607 33.02 31.0927 33.096 30.7007 33.096C30.1807 33.096 29.7127 32.988 29.2967 32.772C28.8887 32.556 28.5647 32.236 28.3247 31.812C28.0927 31.388 27.9767 30.876 27.9767 30.276V26.388H29.3327V30.072C29.3327 30.664 29.4807 31.12 29.7767 31.44C30.0727 31.752 30.4767 31.908 30.9887 31.908C31.5007 31.908 31.9047 31.752 32.2007 31.44C32.5047 31.12 32.6567 30.664 32.6567 30.072V26.388H34.0247ZM37.1977 27.348C37.3977 27.012 37.6617 26.752 37.9897 26.568C38.3257 26.376 38.7217 26.28 39.1777 26.28V27.696H38.8297C38.2937 27.696 37.8857 27.832 37.6057 28.104C37.3337 28.376 37.1977 28.848 37.1977 29.52V33H35.8297V26.388H37.1977V27.348ZM39.9792 29.688C39.9792 29.008 40.1152 28.412 40.3872 27.9C40.6672 27.38 41.0512 26.98 41.5392 26.7C42.0272 26.42 42.5872 26.28 43.2192 26.28C44.0192 26.28 44.6792 26.472 45.1992 26.856C45.7272 27.232 46.0832 27.772 46.2672 28.476H44.7912C44.6712 28.148 44.4792 27.892 44.2152 27.708C43.9512 27.524 43.6192 27.432 43.2192 27.432C42.6592 27.432 42.2112 27.632 41.8752 28.032C41.5472 28.424 41.3832 28.976 41.3832 29.688C41.3832 30.4 41.5472 30.956 41.8752 31.356C42.2112 31.756 42.6592 31.956 43.2192 31.956C44.0112 31.956 44.5352 31.608 44.7912 30.912H46.2672C46.0752 31.584 45.7152 32.12 45.1872 32.52C44.6592 32.912 44.0032 33.108 43.2192 33.108C42.5872 33.108 42.0272 32.968 41.5392 32.688C41.0512 32.4 40.6672 32 40.3872 31.488C40.1152 30.968 39.9792 30.368 39.9792 29.688ZM51.0505 26.28C51.5545 26.28 52.0025 26.388 52.3945 26.604C52.7945 26.82 53.1065 27.14 53.3305 27.564C53.5625 27.988 53.6785 28.5 53.6785 29.1V33H52.3225V29.304C52.3225 28.712 52.1745 28.26 51.8785 27.948C51.5825 27.628 51.1785 27.468 50.6665 27.468C50.1545 27.468 49.7465 27.628 49.4425 27.948C49.1465 28.26 48.9985 28.712 48.9985 29.304V33H47.6305V24.12H48.9985V27.156C49.2305 26.876 49.5225 26.66 49.8745 26.508C50.2345 26.356 50.6265 26.28 51.0505 26.28ZM54.9674 29.664C54.9674 29 55.1034 28.412 55.3754 27.9C55.6554 27.388 56.0314 26.992 56.5034 26.712C56.9834 26.424 57.5114 26.28 58.0874 26.28C58.6074 26.28 59.0594 26.384 59.4434 26.592C59.8354 26.792 60.1474 27.044 60.3794 27.348V26.388H61.7594V33H60.3794V32.016C60.1474 32.328 59.8314 32.588 59.4314 32.796C59.0314 33.004 58.5754 33.108 58.0634 33.108C57.4954 33.108 56.9754 32.964 56.5034 32.676C56.0314 32.38 55.6554 31.972 55.3754 31.452C55.1034 30.924 54.9674 30.328 54.9674 29.664ZM60.3794 29.688C60.3794 29.232 60.2834 28.836 60.0914 28.5C59.9074 28.164 59.6634 27.908 59.3594 27.732C59.0554 27.556 58.7274 27.468 58.3754 27.468C58.0234 27.468 57.6954 27.556 57.3914 27.732C57.0874 27.9 56.8394 28.152 56.6474 28.488C56.4634 28.816 56.3714 29.208 56.3714 29.664C56.3714 30.12 56.4634 30.52 56.6474 30.864C56.8394 31.208 57.0874 31.472 57.3914 31.656C57.7034 31.832 58.0314 31.92 58.3754 31.92C58.7274 31.92 59.0554 31.832 59.3594 31.656C59.6634 31.48 59.9074 31.224 60.0914 30.888C60.2834 30.544 60.3794 30.144 60.3794 29.688ZM65.9563 33.108C65.4363 33.108 64.9683 33.016 64.5523 32.832C64.1443 32.64 63.8203 32.384 63.5803 32.064C63.3403 31.736 63.2123 31.372 63.1963 30.972H64.6123C64.6363 31.252 64.7683 31.488 65.0083 31.68C65.2563 31.864 65.5643 31.956 65.9323 31.956C66.3163 31.956 66.6123 31.884 66.8203 31.74C67.0363 31.588 67.1443 31.396 67.1443 31.164C67.1443 30.916 67.0243 30.732 66.7843 30.612C66.5523 30.492 66.1803 30.36 65.6683 30.216C65.1723 30.08 64.7683 29.948 64.4563 29.82C64.1443 29.692 63.8723 29.496 63.6403 29.232C63.4163 28.968 63.3043 28.62 63.3043 28.188C63.3043 27.836 63.4083 27.516 63.6163 27.228C63.8243 26.932 64.1203 26.7 64.5043 26.532C64.8963 26.364 65.3443 26.28 65.8483 26.28C66.6003 26.28 67.2043 26.472 67.6603 26.856C68.1243 27.232 68.3723 27.748 68.4043 28.404H67.0363C67.0123 28.108 66.8923 27.872 66.6763 27.696C66.4603 27.52 66.1683 27.432 65.8003 27.432C65.4403 27.432 65.1643 27.5 64.9723 27.636C64.7803 27.772 64.6843 27.952 64.6843 28.176C64.6843 28.352 64.7483 28.5 64.8763 28.62C65.0043 28.74 65.1603 28.836 65.3443 28.908C65.5283 28.972 65.8003 29.056 66.1603 29.16C66.6403 29.288 67.0323 29.42 67.3363 29.556C67.6483 29.684 67.9163 29.876 68.1403 30.132C68.3643 30.388 68.4803 30.728 68.4883 31.152C68.4883 31.528 68.3843 31.864 68.1763 32.16C67.9683 32.456 67.6723 32.688 67.2883 32.856C66.9123 33.024 66.4683 33.108 65.9563 33.108ZM76.0264 29.532C76.0264 29.78 76.0104 30.004 75.9784 30.204H70.9264C70.9664 30.732 71.1624 31.156 71.5144 31.476C71.8664 31.796 72.2984 31.956 72.8104 31.956C73.5464 31.956 74.0664 31.648 74.3704 31.032H75.8464C75.6464 31.64 75.2824 32.14 74.7544 32.532C74.2344 32.916 73.5864 33.108 72.8104 33.108C72.1784 33.108 71.6104 32.968 71.1064 32.688C70.6104 32.4 70.2184 32 69.9304 31.488C69.6504 30.968 69.5104 30.368 69.5104 29.688C69.5104 29.008 69.6464 28.412 69.9184 27.9C70.1984 27.38 70.5864 26.98 71.0824 26.7C71.5864 26.42 72.1624 26.28 72.8104 26.28C73.4344 26.28 73.9904 26.416 74.4784 26.688C74.9664 26.96 75.3464 27.344 75.6184 27.84C75.8904 28.328 76.0264 28.892 76.0264 29.532ZM74.5984 29.1C74.5904 28.596 74.4104 28.192 74.0584 27.888C73.7064 27.584 73.2704 27.432 72.7504 27.432C72.2784 27.432 71.8744 27.584 71.5384 27.888C71.2024 28.184 71.0024 28.588 70.9384 29.1H74.5984ZM84.2938 33.084C83.5178 33.084 82.8018 32.904 82.1458 32.544C81.4978 32.176 80.9818 31.668 80.5978 31.02C80.2218 30.364 80.0338 29.628 80.0338 28.812C80.0338 27.996 80.2218 27.264 80.5978 26.616C80.9818 25.968 81.4978 25.464 82.1458 25.104C82.8018 24.736 83.5178 24.552 84.2938 24.552C85.0778 24.552 85.7938 24.736 86.4418 25.104C87.0978 25.464 87.6138 25.968 87.9898 26.616C88.3658 27.264 88.5538 27.996 88.5538 28.812C88.5538 29.628 88.3658 30.364 87.9898 31.02C87.6138 31.668 87.0978 32.176 86.4418 32.544C85.7938 32.904 85.0778 33.084 84.2938 33.084ZM84.2938 31.896C84.8458 31.896 85.3378 31.772 85.7698 31.524C86.2018 31.268 86.5378 30.908 86.7778 30.444C87.0258 29.972 87.1498 29.428 87.1498 28.812C87.1498 28.196 87.0258 27.656 86.7778 27.192C86.5378 26.728 86.2018 26.372 85.7698 26.124C85.3378 25.876 84.8458 25.752 84.2938 25.752C83.7418 25.752 83.2498 25.876 82.8178 26.124C82.3858 26.372 82.0458 26.728 81.7978 27.192C81.5578 27.656 81.4378 28.196 81.4378 28.812C81.4378 29.428 81.5578 29.972 81.7978 30.444C82.0458 30.908 82.3858 31.268 82.8178 31.524C83.2498 31.772 83.7418 31.896 84.2938 31.896ZM91.268 27.36C91.5 27.056 91.816 26.8 92.216 26.592C92.616 26.384 93.068 26.28 93.572 26.28C94.148 26.28 94.672 26.424 95.144 26.712C95.624 26.992 96 27.388 96.272 27.9C96.544 28.412 96.68 29 96.68 29.664C96.68 30.328 96.544 30.924 96.272 31.452C96 31.972 95.624 32.38 95.144 32.676C94.672 32.964 94.148 33.108 93.572 33.108C93.068 33.108 92.62 33.008 92.228 32.808C91.836 32.6 91.516 32.344 91.268 32.04V36.144H89.9V26.388H91.268V27.36ZM95.288 29.664C95.288 29.208 95.192 28.816 95 28.488C94.816 28.152 94.568 27.9 94.256 27.732C93.952 27.556 93.624 27.468 93.272 27.468C92.928 27.468 92.6 27.556 92.288 27.732C91.984 27.908 91.736 28.164 91.544 28.5C91.36 28.836 91.268 29.232 91.268 29.688C91.268 30.144 91.36 30.544 91.544 30.888C91.736 31.224 91.984 31.48 92.288 31.656C92.6 31.832 92.928 31.92 93.272 31.92C93.624 31.92 93.952 31.832 94.256 31.656C94.568 31.472 94.816 31.208 95 30.864C95.192 30.52 95.288 30.12 95.288 29.664ZM99.6288 27.504V31.164C99.6288 31.412 99.6848 31.592 99.7968 31.704C99.9168 31.808 100.117 31.86 100.397 31.86H101.237V33H100.157C99.5408 33 99.0688 32.856 98.7408 32.568C98.4128 32.28 98.2488 31.812 98.2488 31.164V27.504H97.4688V26.388H98.2488V24.744H99.6288V26.388H101.237V27.504H99.6288ZM103.194 25.512C102.946 25.512 102.738 25.428 102.57 25.26C102.402 25.092 102.318 24.884 102.318 24.636C102.318 24.388 102.402 24.18 102.57 24.012C102.738 23.844 102.946 23.76 103.194 23.76C103.434 23.76 103.638 23.844 103.806 24.012C103.974 24.18 104.058 24.388 104.058 24.636C104.058 24.884 103.974 25.092 103.806 25.26C103.638 25.428 103.434 25.512 103.194 25.512ZM103.866 26.388V33H102.498V26.388H103.866ZM108.53 33.108C107.906 33.108 107.342 32.968 106.838 32.688C106.334 32.4 105.938 32 105.65 31.488C105.362 30.968 105.218 30.368 105.218 29.688C105.218 29.016 105.366 28.42 105.662 27.9C105.958 27.38 106.362 26.98 106.874 26.7C107.386 26.42 107.958 26.28 108.59 26.28C109.222 26.28 109.794 26.42 110.306 26.7C110.818 26.98 111.222 27.38 111.518 27.9C111.814 28.42 111.962 29.016 111.962 29.688C111.962 30.36 111.81 30.956 111.506 31.476C111.202 31.996 110.786 32.4 110.258 32.688C109.738 32.968 109.162 33.108 108.53 33.108ZM108.53 31.92C108.882 31.92 109.21 31.836 109.514 31.668C109.826 31.5 110.078 31.248 110.27 30.912C110.462 30.576 110.558 30.168 110.558 29.688C110.558 29.208 110.466 28.804 110.282 28.476C110.098 28.14 109.854 27.888 109.55 27.72C109.246 27.552 108.918 27.468 108.566 27.468C108.214 27.468 107.886 27.552 107.582 27.72C107.286 27.888 107.05 28.14 106.874 28.476C106.698 28.804 106.61 29.208 106.61 29.688C106.61 30.4 106.79 30.952 107.15 31.344C107.518 31.728 107.978 31.92 108.53 31.92ZM116.65 26.28C117.17 26.28 117.634 26.388 118.042 26.604C118.458 26.82 118.782 27.14 119.014 27.564C119.246 27.988 119.362 28.5 119.362 29.1V33H118.006V29.304C118.006 28.712 117.858 28.26 117.562 27.948C117.266 27.628 116.862 27.468 116.35 27.468C115.838 27.468 115.43 27.628 115.126 27.948C114.83 28.26 114.682 28.712 114.682 29.304V33H113.314V26.388H114.682V27.144C114.906 26.872 115.19 26.66 115.534 26.508C115.886 26.356 116.258 26.28 116.65 26.28ZM123.507 33.108C122.987 33.108 122.519 33.016 122.103 32.832C121.695 32.64 121.371 32.384 121.131 32.064C120.891 31.736 120.763 31.372 120.747 30.972H122.163C122.187 31.252 122.319 31.488 122.559 31.68C122.807 31.864 123.115 31.956 123.483 31.956C123.867 31.956 124.163 31.884 124.371 31.74C124.587 31.588 124.695 31.396 124.695 31.164C124.695 30.916 124.575 30.732 124.335 30.612C124.103 30.492 123.731 30.36 123.219 30.216C122.723 30.08 122.319 29.948 122.007 29.82C121.695 29.692 121.423 29.496 121.191 29.232C120.967 28.968 120.855 28.62 120.855 28.188C120.855 27.836 120.959 27.516 121.167 27.228C121.375 26.932 121.671 26.7 122.055 26.532C122.447 26.364 122.895 26.28 123.399 26.28C124.151 26.28 124.755 26.472 125.211 26.856C125.675 27.232 125.923 27.748 125.955 28.404H124.587C124.563 28.108 124.443 27.872 124.227 27.696C124.011 27.52 123.719 27.432 123.351 27.432C122.991 27.432 122.715 27.5 122.523 27.636C122.331 27.772 122.235 27.952 122.235 28.176C122.235 28.352 122.299 28.5 122.427 28.62C122.555 28.74 122.711 28.836 122.895 28.908C123.079 28.972 123.351 29.056 123.711 29.16C124.191 29.288 124.583 29.42 124.887 29.556C125.199 29.684 125.467 29.876 125.691 30.132C125.915 30.388 126.031 30.728 126.039 31.152C126.039 31.528 125.935 31.864 125.727 32.16C125.519 32.456 125.223 32.688 124.839 32.856C124.463 33.024 124.019 33.108 123.507 33.108Z" fill="black"/>
<path d="M49 74.6667V69.3333C48.9998 69.0995 48.938 68.8699 48.821 68.6675C48.704 68.465 48.5358 68.2969 48.3333 68.18L43.6667 65.5133C43.464 65.3963 43.234 65.3347 43 65.3347C42.766 65.3347 42.536 65.3963 42.3333 65.5133L37.6667 68.18C37.4642 68.2969 37.296 68.465 37.179 68.6675C37.062 68.8699 37.0002 69.0995 37 69.3333V74.6667C37.0002 74.9005 37.062 75.1301 37.179 75.3326C37.296 75.535 37.4642 75.7031 37.6667 75.82L42.3333 78.4867C42.536 78.6037 42.766 78.6653 43 78.6653C43.234 78.6653 43.464 78.6037 43.6667 78.4867L48.3333 75.82C48.5358 75.7031 48.704 75.535 48.821 75.3326C48.938 75.1301 48.9998 74.9005 49 74.6667Z" stroke="#3F434A" stroke-linecap="round" stroke-linejoin="round"/>
<path d="M37.1799 68.6399L42.9999 72.0066L48.8199 68.6399" stroke="#3F434A" stroke-linecap="round" stroke-linejoin="round"/>
<path d="M43 78.72V72" stroke="#3F434A" stroke-linecap="round" stroke-linejoin="round"/>
<path d="M66.232 76L64.312 72.664H63.268V76H61.9V67.66H64.78C65.42 67.66 65.96 67.772 66.4 67.996C66.848 68.22 67.18 68.52 67.396 68.896C67.62 69.272 67.732 69.692 67.732 70.156C67.732 70.7 67.572 71.196 67.252 71.644C66.94 72.084 66.456 72.384 65.8 72.544L67.864 76H66.232ZM63.268 71.572H64.78C65.292 71.572 65.676 71.444 65.932 71.188C66.196 70.932 66.328 70.588 66.328 70.156C66.328 69.724 66.2 69.388 65.944 69.148C65.688 68.9 65.3 68.776 64.78 68.776H63.268V71.572ZM75.542 72.532C75.542 72.78 75.526 73.004 75.494 73.204H70.442C70.482 73.732 70.678 74.156 71.03 74.476C71.382 74.796 71.814 74.956 72.326 74.956C73.062 74.956 73.582 74.648 73.886 74.032H75.362C75.162 74.64 74.798 75.14 74.27 75.532C73.75 75.916 73.102 76.108 72.326 76.108C71.694 76.108 71.126 75.968 70.622 75.688C70.126 75.4 69.734 75 69.446 74.488C69.166 73.968 69.026 73.368 69.026 72.688C69.026 72.008 69.162 71.412 69.434 70.9C69.714 70.38 70.102 69.98 70.598 69.7C71.102 69.42 71.678 69.28 72.326 69.28C72.95 69.28 73.506 69.416 73.994 69.688C74.482 69.96 74.862 70.344 75.134 70.84C75.406 71.328 75.542 71.892 75.542 72.532ZM74.114 72.1C74.106 71.596 73.926 71.192 73.574 70.888C73.222 70.584 72.786 70.432 72.266 70.432C71.794 70.432 71.39 70.584 71.054 70.888C70.718 71.184 70.518 71.588 70.454 72.1H74.114ZM79.5523 69.28C80.0643 69.28 80.5163 69.384 80.9083 69.592C81.3083 69.792 81.6203 70.044 81.8443 70.348V69.388H83.2243V76.108C83.2243 76.716 83.0963 77.256 82.8403 77.728C82.5843 78.208 82.2123 78.584 81.7243 78.856C81.2443 79.128 80.6683 79.264 79.9963 79.264C79.1003 79.264 78.3563 79.052 77.7643 78.628C77.1723 78.212 76.8363 77.644 76.7563 76.924H78.1123C78.2163 77.268 78.4363 77.544 78.7723 77.752C79.1163 77.968 79.5243 78.076 79.9963 78.076C80.5483 78.076 80.9923 77.908 81.3283 77.572C81.6723 77.236 81.8443 76.748 81.8443 76.108V75.004C81.6123 75.316 81.2963 75.58 80.8963 75.796C80.5043 76.004 80.0563 76.108 79.5523 76.108C78.9763 76.108 78.4483 75.964 77.9683 75.676C77.4963 75.38 77.1203 74.972 76.8403 74.452C76.5683 73.924 76.4323 73.328 76.4323 72.664C76.4323 72 76.5683 71.412 76.8403 70.9C77.1203 70.388 77.4963 69.992 77.9683 69.712C78.4483 69.424 78.9763 69.28 79.5523 69.28ZM81.8443 72.688C81.8443 72.232 81.7483 71.836 81.5563 71.5C81.3723 71.164 81.1283 70.908 80.8243 70.732C80.5203 70.556 80.1923 70.468 79.8403 70.468C79.4883 70.468 79.1603 70.556 78.8563 70.732C78.5523 70.9 78.3043 71.152 78.1123 71.488C77.9283 71.816 77.8363 72.208 77.8363 72.664C77.8363 73.12 77.9283 73.52 78.1123 73.864C78.3043 74.208 78.5523 74.472 78.8563 74.656C79.1683 74.832 79.4963 74.92 79.8403 74.92C80.1923 74.92 80.5203 74.832 80.8243 74.656C81.1283 74.48 81.3723 74.224 81.5563 73.888C81.7483 73.544 81.8443 73.144 81.8443 72.688ZM91.0091 69.388V76H89.6411V75.22C89.4251 75.492 89.1411 75.708 88.7891 75.868C88.4451 76.02 88.0771 76.096 87.6851 76.096C87.1651 76.096 86.6971 75.988 86.2811 75.772C85.8731 75.556 85.5491 75.236 85.3091 74.812C85.0771 74.388 84.9611 73.876 84.9611 73.276V69.388H86.3171V73.072C86.3171 73.664 86.4651 74.12 86.7611 74.44C87.0571 74.752 87.4611 74.908 87.9731 74.908C88.4851 74.908 88.8891 74.752 89.1851 74.44C89.4891 74.12 89.6411 73.664 89.6411 73.072V69.388H91.0091ZM94.1821 67.12V76H92.8141V67.12H94.1821ZM95.5221 72.664C95.5221 72 95.6581 71.412 95.9301 70.9C96.2101 70.388 96.5861 69.992 97.0581 69.712C97.5381 69.424 98.0661 69.28 98.6421 69.28C99.1621 69.28 99.6141 69.384 99.9981 69.592C100.39 69.792 100.702 70.044 100.934 70.348V69.388H102.314V76H100.934V75.016C100.702 75.328 100.386 75.588 99.9861 75.796C99.5861 76.004 99.1301 76.108 98.6181 76.108C98.0501 76.108 97.5301 75.964 97.0581 75.676C96.5861 75.38 96.2101 74.972 95.9301 74.452C95.6581 73.924 95.5221 73.328 95.5221 72.664ZM100.934 72.688C100.934 72.232 100.838 71.836 100.646 71.5C100.462 71.164 100.218 70.908 99.9141 70.732C99.6101 70.556 99.2821 70.468 98.9301 70.468C98.5781 70.468 98.2501 70.556 97.9461 70.732C97.6421 70.9 97.3941 71.152 97.2021 71.488C97.0181 71.816 96.9261 72.208 96.9261 72.664C96.9261 73.12 97.0181 73.52 97.2021 73.864C97.3941 74.208 97.6421 74.472 97.9461 74.656C98.2581 74.832 98.5861 74.92 98.9301 74.92C99.2821 74.92 99.6101 74.832 99.9141 74.656C100.218 74.48 100.462 74.224 100.646 73.888C100.838 73.544 100.934 73.144 100.934 72.688ZM105.479 70.348C105.679 70.012 105.943 69.752 106.271 69.568C106.607 69.376 107.003 69.28 107.459 69.28V70.696H107.111C106.575 70.696 106.167 70.832 105.887 71.104C105.615 71.376 105.479 71.848 105.479 72.52V76H104.111V69.388H105.479V70.348ZM113.202 70.36C113.434 70.056 113.75 69.8 114.15 69.592C114.55 69.384 115.002 69.28 115.506 69.28C116.082 69.28 116.606 69.424 117.078 69.712C117.558 69.992 117.934 70.388 118.206 70.9C118.478 71.412 118.614 72 118.614 72.664C118.614 73.328 118.478 73.924 118.206 74.452C117.934 74.972 117.558 75.38 117.078 75.676C116.606 75.964 116.082 76.108 115.506 76.108C115.002 76.108 114.554 76.008 114.162 75.808C113.77 75.6 113.45 75.344 113.202 75.04V79.144H111.834V69.388H113.202V70.36ZM117.222 72.664C117.222 72.208 117.126 71.816 116.934 71.488C116.75 71.152 116.502 70.9 116.19 70.732C115.886 70.556 115.558 70.468 115.206 70.468C114.862 70.468 114.534 70.556 114.222 70.732C113.918 70.908 113.67 71.164 113.478 71.5C113.294 71.836 113.202 72.232 113.202 72.688C113.202 73.144 113.294 73.544 113.478 73.888C113.67 74.224 113.918 74.48 114.222 74.656C114.534 74.832 114.862 74.92 115.206 74.92C115.558 74.92 115.886 74.832 116.19 74.656C116.502 74.472 116.75 74.208 116.934 73.864C117.126 73.52 117.222 73.12 117.222 72.664ZM125.954 69.388V76H124.586V75.22C124.37 75.492 124.086 75.708 123.734 75.868C123.39 76.02 123.022 76.096 122.63 76.096C122.11 76.096 121.642 75.988 121.226 75.772C120.818 75.556 120.494 75.236 120.254 74.812C120.022 74.388 119.906 73.876 119.906 73.276V69.388H121.262V73.072C121.262 73.664 121.41 74.12 121.706 74.44C122.002 74.752 122.406 74.908 122.918 74.908C123.43 74.908 123.834 74.752 124.13 74.44C124.434 74.12 124.586 73.664 124.586 73.072V69.388H125.954ZM129.127 70.348C129.327 70.012 129.591 69.752 129.919 69.568C130.255 69.376 130.651 69.28 131.107 69.28V70.696H130.759C130.223 70.696 129.815 70.832 129.535 71.104C129.263 71.376 129.127 71.848 129.127 72.52V76H127.759V69.388H129.127V70.348ZM131.909 72.688C131.909 72.008 132.045 71.412 132.317 70.9C132.597 70.38 132.981 69.98 133.469 69.7C133.957 69.42 134.517 69.28 135.149 69.28C135.949 69.28 136.609 69.472 137.129 69.856C137.657 70.232 138.013 70.772 138.197 71.476H136.721C136.601 71.148 136.409 70.892 136.145 70.708C135.881 70.524 135.549 70.432 135.149 70.432C134.589 70.432 134.141 70.632 133.805 71.032C133.477 71.424 133.313 71.976 133.313 72.688C133.313 73.4 133.477 73.956 133.805 74.356C134.141 74.756 134.589 74.956 135.149 74.956C135.941 74.956 136.465 74.608 136.721 73.912H138.197C138.005 74.584 137.645 75.12 137.117 75.52C136.589 75.912 135.933 76.108 135.149 76.108C134.517 76.108 133.957 75.968 133.469 75.688C132.981 75.4 132.597 75 132.317 74.488C132.045 73.968 131.909 73.368 131.909 72.688ZM142.98 69.28C143.484 69.28 143.932 69.388 144.324 69.604C144.724 69.82 145.036 70.14 145.26 70.564C145.492 70.988 145.608 71.5 145.608 72.1V76H144.252V72.304C144.252 71.712 144.104 71.26 143.808 70.948C143.512 70.628 143.108 70.468 142.596 70.468C142.084 70.468 141.676 70.628 141.372 70.948C141.076 71.26 140.928 71.712 140.928 72.304V76H139.56V67.12H140.928V70.156C141.16 69.876 141.452 69.66 141.804 69.508C142.164 69.356 142.556 69.28 142.98 69.28ZM146.897 72.664C146.897 72 147.033 71.412 147.305 70.9C147.585 70.388 147.961 69.992 148.433 69.712C148.913 69.424 149.441 69.28 150.017 69.28C150.537 69.28 150.989 69.384 151.373 69.592C151.765 69.792 152.077 70.044 152.309 70.348V69.388H153.689V76H152.309V75.016C152.077 75.328 151.761 75.588 151.361 75.796C150.961 76.004 150.505 76.108 149.993 76.108C149.425 76.108 148.905 75.964 148.433 75.676C147.961 75.38 147.585 74.972 147.305 74.452C147.033 73.924 146.897 73.328 146.897 72.664ZM152.309 72.688C152.309 72.232 152.213 71.836 152.021 71.5C151.837 71.164 151.593 70.908 151.289 70.732C150.985 70.556 150.657 70.468 150.305 70.468C149.953 70.468 149.625 70.556 149.321 70.732C149.017 70.9 148.769 71.152 148.577 71.488C148.393 71.816 148.301 72.208 148.301 72.664C148.301 73.12 148.393 73.52 148.577 73.864C148.769 74.208 149.017 74.472 149.321 74.656C149.633 74.832 149.961 74.92 150.305 74.92C150.657 74.92 150.985 74.832 151.289 74.656C151.593 74.48 151.837 74.224 152.021 73.888C152.213 73.544 152.309 73.144 152.309 72.688ZM157.886 76.108C157.366 76.108 156.898 76.016 156.482 75.832C156.074 75.64 155.75 75.384 155.51 75.064C155.27 74.736 155.142 74.372 155.126 73.972H156.542C156.566 74.252 156.698 74.488 156.938 74.68C157.186 74.864 157.494 74.956 157.862 74.956C158.246 74.956 158.542 74.884 158.75 74.74C158.966 74.588 159.074 74.396 159.074 74.164C159.074 73.916 158.954 73.732 158.714 73.612C158.482 73.492 158.11 73.36 157.598 73.216C157.102 73.08 156.698 72.948 156.386 72.82C156.074 72.692 155.802 72.496 155.57 72.232C155.346 71.968 155.234 71.62 155.234 71.188C155.234 70.836 155.338 70.516 155.546 70.228C155.754 69.932 156.05 69.7 156.434 69.532C156.826 69.364 157.274 69.28 157.778 69.28C158.53 69.28 159.134 69.472 159.59 69.856C160.054 70.232 160.302 70.748 160.334 71.404H158.966C158.942 71.108 158.822 70.872 158.606 70.696C158.39 70.52 158.098 70.432 157.73 70.432C157.37 70.432 157.094 70.5 156.902 70.636C156.71 70.772 156.614 70.952 156.614 71.176C156.614 71.352 156.678 71.5 156.806 71.62C156.934 71.74 157.09 71.836 157.274 71.908C157.458 71.972 157.73 72.056 158.09 72.16C158.57 72.288 158.962 72.42 159.266 72.556C159.578 72.684 159.846 72.876 160.07 73.132C160.294 73.388 160.41 73.728 160.418 74.152C160.418 74.528 160.314 74.864 160.106 75.16C159.898 75.456 159.602 75.688 159.218 75.856C158.842 76.024 158.398 76.108 157.886 76.108ZM167.956 72.532C167.956 72.78 167.94 73.004 167.908 73.204H162.856C162.896 73.732 163.092 74.156 163.444 74.476C163.796 74.796 164.228 74.956 164.74 74.956C165.476 74.956 165.996 74.648 166.3 74.032H167.776C167.576 74.64 167.212 75.14 166.684 75.532C166.164 75.916 165.516 76.108 164.74 76.108C164.108 76.108 163.54 75.968 163.036 75.688C162.54 75.4 162.148 75 161.86 74.488C161.58 73.968 161.44 73.368 161.44 72.688C161.44 72.008 161.576 71.412 161.848 70.9C162.128 70.38 162.516 69.98 163.012 69.7C163.516 69.42 164.092 69.28 164.74 69.28C165.364 69.28 165.92 69.416 166.408 69.688C166.896 69.96 167.276 70.344 167.548 70.84C167.82 71.328 167.956 71.892 167.956 72.532ZM166.528 72.1C166.52 71.596 166.34 71.192 165.988 70.888C165.636 70.584 165.2 70.432 164.68 70.432C164.208 70.432 163.804 70.584 163.468 70.888C163.132 71.184 162.932 71.588 162.868 72.1H166.528Z" fill="#3F434A"/>
<rect x="20.5" y="48.5" width="163" height="47" stroke="#E0E0E0"/>
<rect x="194.5" y="48.5" width="131" height="47" fill="#E3E3E3"/>
<path d="M219.667 66H209.667V74.6667H219.667V66Z" stroke="#3F434A" stroke-linecap="round" stroke-linejoin="round"/>
<path d="M219.667 69.3333H222.333L224.333 71.3333V74.6666H219.667V69.3333Z" stroke="#3F434A" stroke-linecap="round" stroke-linejoin="round"/>
<path d="M212.667 78.0001C213.587 78.0001 214.333 77.2539 214.333 76.3334C214.333 75.4129 213.587 74.6667 212.667 74.6667C211.746 74.6667 211 75.4129 211 76.3334C211 77.2539 211.746 78.0001 212.667 78.0001Z" stroke="#3F434A" stroke-linecap="round" stroke-linejoin="round"/>
<path d="M221.333 78.0001C222.254 78.0001 223 77.2539 223 76.3334C223 75.4129 222.254 74.6667 221.333 74.6667C220.413 74.6667 219.667 75.4129 219.667 76.3334C219.667 77.2539 220.413 78.0001 221.333 78.0001Z" stroke="#3F434A" stroke-linecap="round" stroke-linejoin="round"/>
<path d="M238.773 76.084C238.213 76.084 237.709 75.988 237.261 75.796C236.813 75.596 236.461 75.316 236.205 74.956C235.949 74.596 235.821 74.176 235.821 73.696H237.285C237.317 74.056 237.457 74.352 237.705 74.584C237.961 74.816 238.317 74.932 238.773 74.932C239.245 74.932 239.613 74.82 239.877 74.596C240.141 74.364 240.273 74.068 240.273 73.708C240.273 73.428 240.189 73.2 240.021 73.024C239.861 72.848 239.657 72.712 239.409 72.616C239.169 72.52 238.833 72.416 238.401 72.304C237.857 72.16 237.413 72.016 237.069 71.872C236.733 71.72 236.445 71.488 236.205 71.176C235.965 70.864 235.845 70.448 235.845 69.928C235.845 69.448 235.965 69.028 236.205 68.668C236.445 68.308 236.781 68.032 237.213 67.84C237.645 67.648 238.145 67.552 238.713 67.552C239.521 67.552 240.181 67.756 240.693 68.164C241.213 68.564 241.501 69.116 241.557 69.82H240.045C240.021 69.516 239.877 69.256 239.613 69.04C239.349 68.824 239.001 68.716 238.569 68.716C238.177 68.716 237.857 68.816 237.609 69.016C237.361 69.216 237.237 69.504 237.237 69.88C237.237 70.136 237.313 70.348 237.465 70.516C237.625 70.676 237.825 70.804 238.065 70.9C238.305 70.996 238.633 71.1 239.049 71.212C239.601 71.364 240.049 71.516 240.393 71.668C240.745 71.82 241.041 72.056 241.281 72.376C241.529 72.688 241.653 73.108 241.653 73.636C241.653 74.06 241.537 74.46 241.305 74.836C241.081 75.212 240.749 75.516 240.309 75.748C239.877 75.972 239.365 76.084 238.773 76.084ZM249.255 69.388V76H247.887V75.22C247.671 75.492 247.387 75.708 247.035 75.868C246.691 76.02 246.323 76.096 245.931 76.096C245.411 76.096 244.943 75.988 244.527 75.772C244.119 75.556 243.795 75.236 243.555 74.812C243.323 74.388 243.207 73.876 243.207 73.276V69.388H244.563V73.072C244.563 73.664 244.711 74.12 245.007 74.44C245.303 74.752 245.707 74.908 246.219 74.908C246.731 74.908 247.135 74.752 247.431 74.44C247.735 74.12 247.887 73.664 247.887 73.072V69.388H249.255ZM252.428 70.372C252.66 70.052 252.976 69.792 253.376 69.592C253.784 69.384 254.236 69.28 254.732 69.28C255.316 69.28 255.844 69.42 256.316 69.7C256.788 69.98 257.16 70.38 257.432 70.9C257.704 71.412 257.84 72 257.84 72.664C257.84 73.328 257.704 73.924 257.432 74.452C257.16 74.972 256.784 75.38 256.304 75.676C255.832 75.964 255.308 76.108 254.732 76.108C254.22 76.108 253.764 76.008 253.364 75.808C252.972 75.608 252.66 75.352 252.428 75.04V76H251.06V67.12H252.428V70.372ZM256.448 72.664C256.448 72.208 256.352 71.816 256.16 71.488C255.976 71.152 255.728 70.9 255.416 70.732C255.112 70.556 254.784 70.468 254.432 70.468C254.088 70.468 253.76 70.556 253.448 70.732C253.144 70.908 252.896 71.164 252.704 71.5C252.52 71.836 252.428 72.232 252.428 72.688C252.428 73.144 252.52 73.544 252.704 73.888C252.896 74.224 253.144 74.48 253.448 74.656C253.76 74.832 254.088 74.92 254.432 74.92C254.784 74.92 255.112 74.832 255.416 74.656C255.728 74.472 255.976 74.208 256.16 73.864C256.352 73.52 256.448 73.12 256.448 72.664ZM261.593 76.108C261.073 76.108 260.605 76.016 260.189 75.832C259.781 75.64 259.457 75.384 259.217 75.064C258.977 74.736 258.849 74.372 258.833 73.972H260.249C260.273 74.252 260.405 74.488 260.645 74.68C260.893 74.864 261.201 74.956 261.569 74.956C261.953 74.956 262.249 74.884 262.457 74.74C262.673 74.588 262.781 74.396 262.781 74.164C262.781 73.916 262.661 73.732 262.421 73.612C262.189 73.492 261.817 73.36 261.305 73.216C260.809 73.08 260.405 72.948 260.093 72.82C259.781 72.692 259.509 72.496 259.277 72.232C259.053 71.968 258.941 71.62 258.941 71.188C258.941 70.836 259.045 70.516 259.253 70.228C259.461 69.932 259.757 69.7 260.141 69.532C260.533 69.364 260.981 69.28 261.485 69.28C262.237 69.28 262.841 69.472 263.297 69.856C263.761 70.232 264.009 70.748 264.041 71.404H262.673C262.649 71.108 262.529 70.872 262.313 70.696C262.097 70.52 261.805 70.432 261.437 70.432C261.077 70.432 260.801 70.5 260.609 70.636C260.417 70.772 260.321 70.952 260.321 71.176C260.321 71.352 260.385 71.5 260.513 71.62C260.641 71.74 260.797 71.836 260.981 71.908C261.165 71.972 261.437 72.056 261.797 72.16C262.277 72.288 262.669 72.42 262.973 72.556C263.285 72.684 263.553 72.876 263.777 73.132C264.001 73.388 264.117 73.728 264.125 74.152C264.125 74.528 264.021 74.864 263.813 75.16C263.605 75.456 263.309 75.688 262.925 75.856C262.549 76.024 262.105 76.108 261.593 76.108ZM265.147 72.688C265.147 72.008 265.283 71.412 265.555 70.9C265.835 70.38 266.219 69.98 266.707 69.7C267.195 69.42 267.755 69.28 268.387 69.28C269.187 69.28 269.847 69.472 270.367 69.856C270.895 70.232 271.251 70.772 271.435 71.476H269.959C269.839 71.148 269.647 70.892 269.383 70.708C269.119 70.524 268.787 70.432 268.387 70.432C267.827 70.432 267.379 70.632 267.043 71.032C266.715 71.424 266.551 71.976 266.551 72.688C266.551 73.4 266.715 73.956 267.043 74.356C267.379 74.756 267.827 74.956 268.387 74.956C269.179 74.956 269.703 74.608 269.959 73.912H271.435C271.243 74.584 270.883 75.12 270.355 75.52C269.827 75.912 269.171 76.108 268.387 76.108C267.755 76.108 267.195 75.968 266.707 75.688C266.219 75.4 265.835 75 265.555 74.488C265.283 73.968 265.147 73.368 265.147 72.688ZM274.166 70.348C274.366 70.012 274.63 69.752 274.958 69.568C275.294 69.376 275.69 69.28 276.146 69.28V70.696H275.798C275.262 70.696 274.854 70.832 274.574 71.104C274.302 71.376 274.166 71.848 274.166 72.52V76H272.798V69.388H274.166V70.348ZM278.1 68.512C277.852 68.512 277.644 68.428 277.476 68.26C277.308 68.092 277.224 67.884 277.224 67.636C277.224 67.388 277.308 67.18 277.476 67.012C277.644 66.844 277.852 66.76 278.1 66.76C278.34 66.76 278.544 66.844 278.712 67.012C278.88 67.18 278.964 67.388 278.964 67.636C278.964 67.884 278.88 68.092 278.712 68.26C278.544 68.428 278.34 68.512 278.1 68.512ZM278.772 69.388V76H277.404V69.388H278.772ZM281.936 70.36C282.168 70.056 282.484 69.8 282.884 69.592C283.284 69.384 283.736 69.28 284.24 69.28C284.816 69.28 285.34 69.424 285.812 69.712C286.292 69.992 286.668 70.388 286.94 70.9C287.212 71.412 287.348 72 287.348 72.664C287.348 73.328 287.212 73.924 286.94 74.452C286.668 74.972 286.292 75.38 285.812 75.676C285.34 75.964 284.816 76.108 284.24 76.108C283.736 76.108 283.288 76.008 282.896 75.808C282.504 75.6 282.184 75.344 281.936 75.04V79.144H280.568V69.388H281.936V70.36ZM285.956 72.664C285.956 72.208 285.86 71.816 285.668 71.488C285.484 71.152 285.236 70.9 284.924 70.732C284.62 70.556 284.292 70.468 283.94 70.468C283.596 70.468 283.268 70.556 282.956 70.732C282.652 70.908 282.404 71.164 282.212 71.5C282.028 71.836 281.936 72.232 281.936 72.688C281.936 73.144 282.028 73.544 282.212 73.888C282.404 74.224 282.652 74.48 282.956 74.656C283.268 74.832 283.596 74.92 283.94 74.92C284.292 74.92 284.62 74.832 284.924 74.656C285.236 74.472 285.484 74.208 285.668 73.864C285.86 73.52 285.956 73.12 285.956 72.664ZM290.297 70.504V74.164C290.297 74.412 290.353 74.592 290.465 74.704C290.585 74.808 290.785 74.86 291.065 74.86H291.905V76H290.825C290.209 76 289.737 75.856 289.409 75.568C289.081 75.28 288.917 74.812 288.917 74.164V70.504H288.137V69.388H288.917V67.744H290.297V69.388H291.905V70.504H290.297ZM293.862 68.512C293.614 68.512 293.406 68.428 293.238 68.26C293.07 68.092 292.986 67.884 292.986 67.636C292.986 67.388 293.07 67.18 293.238 67.012C293.406 66.844 293.614 66.76 293.862 66.76C294.102 66.76 294.306 66.844 294.474 67.012C294.642 67.18 294.726 67.388 294.726 67.636C294.726 67.884 294.642 68.092 294.474 68.26C294.306 68.428 294.102 68.512 293.862 68.512ZM294.534 69.388V76H293.166V69.388H294.534ZM299.198 76.108C298.574 76.108 298.01 75.968 297.506 75.688C297.002 75.4 296.606 75 296.318 74.488C296.03 73.968 295.886 73.368 295.886 72.688C295.886 72.016 296.034 71.42 296.33 70.9C296.626 70.38 297.03 69.98 297.542 69.7C298.054 69.42 298.626 69.28 299.258 69.28C299.89 69.28 300.462 69.42 300.974 69.7C301.486 69.98 301.89 70.38 302.186 70.9C302.482 71.42 302.63 72.016 302.63 72.688C302.63 73.36 302.478 73.956 302.174 74.476C301.87 74.996 301.454 75.4 300.926 75.688C300.406 75.968 299.83 76.108 299.198 76.108ZM299.198 74.92C299.55 74.92 299.878 74.836 300.182 74.668C300.494 74.5 300.746 74.248 300.938 73.912C301.13 73.576 301.226 73.168 301.226 72.688C301.226 72.208 301.134 71.804 300.95 71.476C300.766 71.14 300.522 70.888 300.218 70.72C299.914 70.552 299.586 70.468 299.234 70.468C298.882 70.468 298.554 70.552 298.25 70.72C297.954 70.888 297.718 71.14 297.542 71.476C297.366 71.804 297.278 72.208 297.278 72.688C297.278 73.4 297.458 73.952 297.818 74.344C298.186 74.728 298.646 74.92 299.198 74.92ZM307.318 69.28C307.838 69.28 308.302 69.388 308.71 69.604C309.126 69.82 309.45 70.14 309.682 70.564C309.914 70.988 310.03 71.5 310.03 72.1V76H308.674V72.304C308.674 71.712 308.526 71.26 308.23 70.948C307.934 70.628 307.53 70.468 307.018 70.468C306.506 70.468 306.098 70.628 305.794 70.948C305.498 71.26 305.35 71.712 305.35 72.304V76H303.982V69.388H305.35V70.144C305.574 69.872 305.858 69.66 306.202 69.508C306.554 69.356 306.926 69.28 307.318 69.28Z" fill="#3F434A"/>
<rect x="194.5" y="48.5" width="131" height="47" stroke="#2D292A"/>
<rect x="256.5" y="40.5" width="59" height="15" fill="#2D292A"/>
<path d="M270.384 51.056C270.016 51.056 269.685 50.992 269.392 50.864C269.104 50.7307 268.877 50.5493 268.712 50.32C268.547 50.0853 268.461 49.816 268.456 49.512H269.232C269.259 49.7733 269.365 49.9947 269.552 50.176C269.744 50.352 270.021 50.44 270.384 50.44C270.731 50.44 271.003 50.3547 271.2 50.184C271.403 50.008 271.504 49.784 271.504 49.512C271.504 49.2987 271.445 49.1253 271.328 48.992C271.211 48.8587 271.064 48.7573 270.888 48.688C270.712 48.6187 270.475 48.544 270.176 48.464C269.808 48.368 269.512 48.272 269.288 48.176C269.069 48.08 268.88 47.9307 268.72 47.728C268.565 47.52 268.488 47.2427 268.488 46.896C268.488 46.592 268.565 46.3227 268.72 46.088C268.875 45.8533 269.091 45.672 269.368 45.544C269.651 45.416 269.973 45.352 270.336 45.352C270.859 45.352 271.285 45.4827 271.616 45.744C271.952 46.0053 272.141 46.352 272.184 46.784H271.384C271.357 46.5707 271.245 46.384 271.048 46.224C270.851 46.0587 270.589 45.976 270.264 45.976C269.96 45.976 269.712 46.056 269.52 46.216C269.328 46.3707 269.232 46.5893 269.232 46.872C269.232 47.0747 269.288 47.24 269.4 47.368C269.517 47.496 269.659 47.5947 269.824 47.664C269.995 47.728 270.232 47.8027 270.536 47.888C270.904 47.9893 271.2 48.0907 271.424 48.192C271.648 48.288 271.84 48.44 272 48.648C272.16 48.8507 272.24 49.128 272.24 49.48C272.24 49.752 272.168 50.008 272.024 50.248C271.88 50.488 271.667 50.6827 271.384 50.832C271.101 50.9813 270.768 51.056 270.384 51.056ZM276.607 49.76H274.175L273.727 51H272.959L274.975 45.456H275.815L277.823 51H277.055L276.607 49.76ZM276.399 49.168L275.391 46.352L274.383 49.168H276.399ZM283.31 45.424L281.206 51H280.366L278.262 45.424H279.038L280.79 50.232L282.542 45.424H283.31ZM284.836 46.016V47.88H286.868V48.48H284.836V50.4H287.108V51H284.108V45.416H287.108V46.016H284.836ZM290.031 45.88V45.216H291.535V51H290.799V45.88H290.031ZM292.785 48.048C292.785 47.1307 292.934 46.416 293.233 45.904C293.532 45.3867 294.054 45.128 294.801 45.128C295.542 45.128 296.062 45.3867 296.361 45.904C296.66 46.416 296.809 47.1307 296.809 48.048C296.809 48.9813 296.66 49.7067 296.361 50.224C296.062 50.7413 295.542 51 294.801 51C294.054 51 293.532 50.7413 293.233 50.224C292.934 49.7067 292.785 48.9813 292.785 48.048ZM296.089 48.048C296.089 47.584 296.057 47.192 295.993 46.872C295.934 46.5467 295.809 46.2853 295.617 46.088C295.43 45.8907 295.158 45.792 294.801 45.792C294.438 45.792 294.161 45.8907 293.969 46.088C293.782 46.2853 293.657 46.5467 293.593 46.872C293.534 47.192 293.505 47.584 293.505 48.048C293.505 48.528 293.534 48.9307 293.593 49.256C293.657 49.5813 293.782 49.8427 293.969 50.04C294.161 50.2373 294.438 50.336 294.801 50.336C295.158 50.336 295.43 50.2373 295.617 50.04C295.809 49.8427 295.934 49.5813 295.993 49.256C296.057 48.9307 296.089 48.528 296.089 48.048ZM297.649 46.52C297.649 46.1573 297.758 45.8693 297.977 45.656C298.195 45.4373 298.475 45.328 298.817 45.328C299.158 45.328 299.438 45.4373 299.657 45.656C299.875 45.8693 299.985 46.1573 299.985 46.52C299.985 46.888 299.875 47.1813 299.657 47.4C299.438 47.6133 299.158 47.72 298.817 47.72C298.475 47.72 298.195 47.6133 297.977 47.4C297.758 47.1813 297.649 46.888 297.649 46.52ZM302.321 45.416L299.081 51H298.361L301.601 45.416H302.321ZM298.817 45.776C298.635 45.776 298.491 45.84 298.385 45.968C298.283 46.0907 298.233 46.2747 298.233 46.52C298.233 46.7653 298.283 46.952 298.385 47.08C298.491 47.208 298.635 47.272 298.817 47.272C298.998 47.272 299.142 47.208 299.249 47.08C299.355 46.9467 299.409 46.76 299.409 46.52C299.409 46.2747 299.355 46.0907 299.249 45.968C299.142 45.84 298.998 45.776 298.817 45.776ZM300.713 49.896C300.713 49.528 300.822 49.2373 301.041 49.024C301.259 48.8053 301.539 48.696 301.881 48.696C302.222 48.696 302.499 48.8053 302.713 49.024C302.931 49.2373 303.041 49.528 303.041 49.896C303.041 50.2587 302.931 50.5493 302.713 50.768C302.499 50.9867 302.222 51.096 301.881 51.096C301.539 51.096 301.259 50.9893 301.041 50.776C300.822 50.5573 300.713 50.264 300.713 49.896ZM301.873 49.152C301.691 49.152 301.547 49.216 301.441 49.344C301.334 49.4667 301.281 49.6507 301.281 49.896C301.281 50.136 301.334 50.32 301.441 50.448C301.547 50.5707 301.691 50.632 301.873 50.632C302.054 50.632 302.198 50.5707 302.305 50.448C302.411 50.32 302.465 50.136 302.465 49.896C302.465 49.6507 302.411 49.4667 302.305 49.344C302.198 49.216 302.054 49.152 301.873 49.152Z" fill="white"/>
<rect x="256.5" y="40.5" width="59" height="15" stroke="#2D292A"/>
<path d="M23.624 110.66C24.512 110.66 25.288 110.832 25.952 111.176C26.624 111.512 27.14 112 27.5 112.64C27.868 113.272 28.052 114.012 28.052 114.86C28.052 115.708 27.868 116.444 27.5 117.068C27.14 117.692 26.624 118.172 25.952 118.508C25.288 118.836 24.512 119 23.624 119H20.9V110.66H23.624ZM23.624 117.884C24.6 117.884 25.348 117.62 25.868 117.092C26.388 116.564 26.648 115.82 26.648 114.86C26.648 113.892 26.388 113.136 25.868 112.592C25.348 112.048 24.6 111.776 23.624 111.776H22.268V117.884H23.624ZM35.4678 115.532C35.4678 115.78 35.4518 116.004 35.4198 116.204H30.3678C30.4078 116.732 30.6038 117.156 30.9558 117.476C31.3078 117.796 31.7398 117.956 32.2518 117.956C32.9878 117.956 33.5078 117.648 33.8118 117.032H35.2878C35.0878 117.64 34.7238 118.14 34.1958 118.532C33.6758 118.916 33.0278 119.108 32.2518 119.108C31.6198 119.108 31.0518 118.968 30.5478 118.688C30.0518 118.4 29.6598 118 29.3718 117.488C29.0918 116.968 28.9518 116.368 28.9518 115.688C28.9518 115.008 29.0878 114.412 29.3598 113.9C29.6398 113.38 30.0278 112.98 30.5238 112.7C31.0278 112.42 31.6038 112.28 32.2518 112.28C32.8758 112.28 33.4318 112.416 33.9198 112.688C34.4078 112.96 34.7878 113.344 35.0598 113.84C35.3318 114.328 35.4678 114.892 35.4678 115.532ZM34.0398 115.1C34.0318 114.596 33.8518 114.192 33.4998 113.888C33.1478 113.584 32.7118 113.432 32.1918 113.432C31.7198 113.432 31.3158 113.584 30.9798 113.888C30.6438 114.184 30.4438 114.588 30.3798 115.1H34.0398ZM38.1821 110.12V119H36.8141V110.12H38.1821ZM40.6741 111.512C40.4261 111.512 40.2181 111.428 40.0501 111.26C39.8821 111.092 39.7981 110.884 39.7981 110.636C39.7981 110.388 39.8821 110.18 40.0501 110.012C40.2181 109.844 40.4261 109.76 40.6741 109.76C40.9141 109.76 41.1181 109.844 41.2861 110.012C41.4541 110.18 41.5381 110.388 41.5381 110.636C41.5381 110.884 41.4541 111.092 41.2861 111.26C41.1181 111.428 40.9141 111.512 40.6741 111.512ZM41.3461 112.388V119H39.9781V112.388H41.3461ZM45.6982 117.776L47.5702 112.388H49.0222L46.5022 119H44.8702L42.3622 112.388H43.8262L45.6982 117.776ZM56.1163 115.532C56.1163 115.78 56.1003 116.004 56.0683 116.204H51.0163C51.0563 116.732 51.2523 117.156 51.6043 117.476C51.9563 117.796 52.3883 117.956 52.9003 117.956C53.6363 117.956 54.1563 117.648 54.4603 117.032H55.9362C55.7363 117.64 55.3723 118.14 54.8443 118.532C54.3243 118.916 53.6763 119.108 52.9003 119.108C52.2683 119.108 51.7003 118.968 51.1963 118.688C50.7003 118.4 50.3083 118 50.0203 117.488C49.7403 116.968 49.6003 116.368 49.6003 115.688C49.6003 115.008 49.7363 114.412 50.0083 113.9C50.2883 113.38 50.6763 112.98 51.1723 112.7C51.6763 112.42 52.2523 112.28 52.9003 112.28C53.5243 112.28 54.0803 112.416 54.5683 112.688C55.0563 112.96 55.4363 113.344 55.7083 113.84C55.9803 114.328 56.1163 114.892 56.1163 115.532ZM54.6883 115.1C54.6803 114.596 54.5003 114.192 54.1483 113.888C53.7963 113.584 53.3603 113.432 52.8403 113.432C52.3683 113.432 51.9643 113.584 51.6283 113.888C51.2923 114.184 51.0923 114.588 51.0283 115.1H54.6883ZM58.8305 113.348C59.0305 113.012 59.2945 112.752 59.6225 112.568C59.9585 112.376 60.3545 112.28 60.8105 112.28V113.696H60.4625C59.9265 113.696 59.5185 113.832 59.2385 114.104C58.9665 114.376 58.8305 114.848 58.8305 115.52V119H57.4625V112.388H58.8305V113.348ZM68.02 112.388L63.964 122.108H62.548L63.892 118.892L61.288 112.388H62.812L64.672 117.428L66.604 112.388H68.02ZM78.2295 115.532C78.2295 115.78 78.2135 116.004 78.1815 116.204H73.1295C73.1695 116.732 73.3655 117.156 73.7175 117.476C74.0695 117.796 74.5015 117.956 75.0135 117.956C75.7495 117.956 76.2695 117.648 76.5735 117.032H78.0495C77.8495 117.64 77.4855 118.14 76.9575 118.532C76.4375 118.916 75.7895 119.108 75.0135 119.108C74.3815 119.108 73.8135 118.968 73.3095 118.688C72.8135 118.4 72.4215 118 72.1335 117.488C71.8535 116.968 71.7135 116.368 71.7135 115.688C71.7135 115.008 71.8495 114.412 72.1215 113.9C72.4015 113.38 72.7895 112.98 73.2855 112.7C73.7895 112.42 74.3655 112.28 75.0135 112.28C75.6375 112.28 76.1935 112.416 76.6815 112.688C77.1695 112.96 77.5495 113.344 77.8215 113.84C78.0935 114.328 78.2295 114.892 78.2295 115.532ZM76.8015 115.1C76.7935 114.596 76.6135 114.192 76.2615 113.888C75.9095 113.584 75.4735 113.432 74.9535 113.432C74.4815 113.432 74.0775 113.584 73.7415 113.888C73.4055 114.184 73.2055 114.588 73.1415 115.1H76.8015ZM82.1318 117.776L84.0038 112.388H85.4558L82.9358 119H81.3038L78.7958 112.388H80.2598L82.1318 117.776ZM92.5498 115.532C92.5498 115.78 92.5338 116.004 92.5018 116.204H87.4498C87.4898 116.732 87.6858 117.156 88.0378 117.476C88.3898 117.796 88.8218 117.956 89.3338 117.956C90.0698 117.956 90.5898 117.648 90.8938 117.032H92.3698C92.1698 117.64 91.8058 118.14 91.2778 118.532C90.7578 118.916 90.1098 119.108 89.3338 119.108C88.7018 119.108 88.1338 118.968 87.6298 118.688C87.1338 118.4 86.7418 118 86.4538 117.488C86.1738 116.968 86.0338 116.368 86.0338 115.688C86.0338 115.008 86.1698 114.412 86.4418 113.9C86.7218 113.38 87.1098 112.98 87.6058 112.7C88.1098 112.42 88.6858 112.28 89.3338 112.28C89.9578 112.28 90.5138 112.416 91.0018 112.688C91.4898 112.96 91.8698 113.344 92.1418 113.84C92.4138 114.328 92.5498 114.892 92.5498 115.532ZM91.1218 115.1C91.1138 114.596 90.9338 114.192 90.5818 113.888C90.2298 113.584 89.7938 113.432 89.2738 113.432C88.8018 113.432 88.3978 113.584 88.0618 113.888C87.7258 114.184 87.5258 114.588 87.4618 115.1H91.1218ZM95.2641 113.348C95.4641 113.012 95.7281 112.752 96.0561 112.568C96.3921 112.376 96.7881 112.28 97.2441 112.28V113.696H96.8961C96.3601 113.696 95.9521 113.832 95.6721 114.104C95.4001 114.376 95.2641 114.848 95.2641 115.52V119H93.8961V112.388H95.2641V113.348ZM104.454 112.388L100.398 122.108H98.9816L100.326 118.892L97.7216 112.388H99.2456L101.106 117.428L103.038 112.388H104.454Z" fill="black"/>
<rect x="20.5" y="134.5" width="88" height="59" stroke="#D9D9D9"/>
<rect x="30" y="144" width="42" height="16" rx="8" fill="#2D292A"/>
<path d="M38.304 149.88V149.216H39.808V155H39.072V149.88H38.304ZM50.3193 149.424L48.7033 155H47.8873L46.5913 150.512L45.2473 155L44.4393 155.008L42.8793 149.424H43.6553L44.8713 154.152L46.2153 149.424H47.0313L48.3113 154.136L49.5353 149.424H50.3193ZM51.844 150.016V151.88H53.876V152.48H51.844V154.4H54.116V155H51.116V149.416H54.116V150.016H51.844ZM55.9456 150.016V151.88H57.9776V152.48H55.9456V154.4H58.2176V155H55.2176V149.416H58.2176V150.016H55.9456ZM62.3431 155L60.0471 152.456V155H59.3191V149.424H60.0471V152.008L62.3511 149.424H63.2711L60.7431 152.216L63.2951 155H62.3431Z" fill="white"/>
<path d="M39.072 179.784C39.072 180.339 38.928 180.861 38.64 181.352C38.3627 181.832 37.9467 182.232 37.392 182.552C36.848 182.861 36.2027 183.043 35.456 183.096V184.392H34.432V183.08C33.3653 182.984 32.5067 182.664 31.856 182.12C31.2053 181.565 30.8693 180.819 30.848 179.88H33.248C33.312 180.648 33.7067 181.112 34.432 181.272V178.216C33.664 178.024 33.0453 177.832 32.576 177.64C32.1067 177.448 31.7013 177.139 31.36 176.712C31.0187 176.285 30.848 175.704 30.848 174.968C30.848 174.04 31.1787 173.283 31.84 172.696C32.512 172.109 33.376 171.773 34.432 171.688V170.392H35.456V171.688C36.48 171.773 37.296 172.083 37.904 172.616C38.5227 173.149 38.8693 173.885 38.944 174.824H36.528C36.496 174.515 36.384 174.248 36.192 174.024C36.0107 173.789 35.7653 173.624 35.456 173.528V176.552C36.256 176.755 36.8853 176.952 37.344 177.144C37.8133 177.325 38.2187 177.629 38.56 178.056C38.9013 178.472 39.072 179.048 39.072 179.784ZM33.184 174.856C33.184 175.208 33.2907 175.496 33.504 175.72C33.7173 175.933 34.0267 176.109 34.432 176.248V173.48C34.048 173.533 33.744 173.677 33.52 173.912C33.296 174.147 33.184 174.461 33.184 174.856ZM35.456 181.304C35.8613 181.229 36.176 181.064 36.4 180.808C36.6347 180.552 36.752 180.243 36.752 179.88C36.752 179.528 36.64 179.245 36.416 179.032C36.192 178.819 35.872 178.643 35.456 178.504V181.304ZM41.2208 180.728V178.968L46.4528 171.48H49.0608V178.776H50.4688V180.728H49.0608V183H46.8208V180.728H41.2208ZM46.9648 173.88L43.6848 178.776H46.9648V173.88ZM59.7349 173.272H54.5509V176.008C54.7749 175.731 55.0949 175.507 55.5109 175.336C55.9269 175.155 56.3695 175.064 56.8389 175.064C57.6922 175.064 58.3909 175.251 58.9349 175.624C59.4789 175.997 59.8735 176.477 60.1189 177.064C60.3642 177.64 60.4869 178.259 60.4869 178.92C60.4869 180.147 60.1349 181.133 59.4309 181.88C58.7375 182.627 57.7455 183 56.4549 183C55.2389 183 54.2682 182.696 53.5429 182.088C52.8175 181.48 52.4069 180.685 52.3109 179.704H54.4869C54.5829 180.131 54.7962 180.472 55.1269 180.728C55.4682 180.984 55.9002 181.112 56.4229 181.112C57.0522 181.112 57.5269 180.915 57.8469 180.52C58.1669 180.125 58.3269 179.603 58.3269 178.952C58.3269 178.291 58.1615 177.789 57.8309 177.448C57.5109 177.096 57.0362 176.92 56.4069 176.92C55.9589 176.92 55.5855 177.032 55.2869 177.256C54.9882 177.48 54.7749 177.779 54.6469 178.152H52.5029V171.304H59.7349V173.272Z" fill="#3F434A"/>
<mask id="mask0_1054_1985" style="mask-type:alpha" maskUnits="userSpaceOnUse" x="74" y="164" width="38" height="42">
<path d="M101.968 179.652L83.9026 169.277" stroke="#3F434A" stroke-linecap="round" stroke-linejoin="round"/>
<path d="M111 192.846V176.853C110.999 176.152 110.813 175.463 110.461 174.856C110.109 174.249 109.602 173.745 108.993 173.395L94.9423 165.398C94.332 165.048 93.6397 164.863 92.9351 164.863C92.2304 164.863 91.5381 165.048 90.9278 165.398L76.8773 173.395C76.2677 173.745 75.7613 174.249 75.409 174.856C75.0567 175.463 74.8708 176.152 74.8701 176.853V192.846C74.8708 193.547 75.0567 194.235 75.409 194.842C75.7613 195.449 76.2677 195.953 76.8773 196.304L90.9278 204.3C91.5381 204.651 92.2304 204.836 92.9351 204.836C93.6397 204.836 94.332 204.651 94.9423 204.3L108.993 196.304C109.602 195.953 110.109 195.449 110.461 194.842C110.813 194.235 110.999 193.547 111 192.846Z" stroke="#3F434A" stroke-linecap="round" stroke-linejoin="round"/>
<path d="M75.4121 174.774L92.9351 184.869L110.458 174.774" stroke="#3F434A" stroke-linecap="round" stroke-linejoin="round"/>
<path d="M92.9351 205V184.849" stroke="#3F434A" stroke-linecap="round" stroke-linejoin="round"/>
</mask>
<g mask="url(#mask0_1054_1985)">
<rect x="21" y="135" width="87" height="58" fill="#D9D9D9"/>
</g>
<rect width="89" height="60" transform="translate(119 134)" fill="#2D292A"/>
<rect x="129" y="144" width="44" height="16" rx="8" fill="white"/>
<path d="M137.408 154.416C138.085 153.872 138.616 153.427 139 153.08C139.384 152.728 139.707 152.363 139.968 151.984C140.235 151.6 140.368 151.224 140.368 150.856C140.368 150.509 140.283 150.237 140.112 150.04C139.947 149.837 139.677 149.736 139.304 149.736C138.941 149.736 138.659 149.851 138.456 150.08C138.259 150.304 138.152 150.605 138.136 150.984H137.432C137.453 150.387 137.635 149.925 137.976 149.6C138.317 149.275 138.757 149.112 139.296 149.112C139.845 149.112 140.28 149.264 140.6 149.568C140.925 149.872 141.088 150.291 141.088 150.824C141.088 151.267 140.955 151.699 140.688 152.12C140.427 152.536 140.128 152.904 139.792 153.224C139.456 153.539 139.027 153.907 138.504 154.328H141.256V154.936H137.408V154.416ZM151.358 149.424L149.742 155H148.926L147.63 150.512L146.286 155L145.478 155.008L143.918 149.424H144.694L145.91 154.152L147.254 149.424H148.07L149.35 154.136L150.574 149.424H151.358ZM152.883 150.016V151.88H154.915V152.48H152.883V154.4H155.155V155H152.155V149.416H155.155V150.016H152.883ZM156.985 150.016V151.88H159.017V152.48H156.985V154.4H159.257V155H156.257V149.416H159.257V150.016H156.985ZM163.382 155L161.086 152.456V155H160.358V149.424H161.086V152.008L163.39 149.424H164.31L161.782 152.216L164.334 155H163.382Z" fill="#3F434A"/>
<path d="M138.072 179.784C138.072 180.339 137.928 180.861 137.64 181.352C137.363 181.832 136.947 182.232 136.392 182.552C135.848 182.861 135.203 183.043 134.456 183.096V184.392H133.432V183.08C132.365 182.984 131.507 182.664 130.856 182.12C130.205 181.565 129.869 180.819 129.848 179.88H132.248C132.312 180.648 132.707 181.112 133.432 181.272V178.216C132.664 178.024 132.045 177.832 131.576 177.64C131.107 177.448 130.701 177.139 130.36 176.712C130.019 176.285 129.848 175.704 129.848 174.968C129.848 174.04 130.179 173.283 130.84 172.696C131.512 172.109 132.376 171.773 133.432 171.688V170.392H134.456V171.688C135.48 171.773 136.296 172.083 136.904 172.616C137.523 173.149 137.869 173.885 137.944 174.824H135.528C135.496 174.515 135.384 174.248 135.192 174.024C135.011 173.789 134.765 173.624 134.456 173.528V176.552C135.256 176.755 135.885 176.952 136.344 177.144C136.813 177.325 137.219 177.629 137.56 178.056C137.901 178.472 138.072 179.048 138.072 179.784ZM132.184 174.856C132.184 175.208 132.291 175.496 132.504 175.72C132.717 175.933 133.027 176.109 133.432 176.248V173.48C133.048 173.533 132.744 173.677 132.52 173.912C132.296 174.147 132.184 174.461 132.184 174.856ZM134.456 181.304C134.861 181.229 135.176 181.064 135.4 180.808C135.635 180.552 135.752 180.243 135.752 179.88C135.752 179.528 135.64 179.245 135.416 179.032C135.192 178.819 134.872 178.643 134.456 178.504V181.304ZM140.221 180.728V178.968L145.453 171.48H148.061V178.776H149.469V180.728H148.061V183H145.821V180.728H140.221ZM145.965 173.88L142.685 178.776H145.965V173.88ZM150.895 177.016C150.895 175.171 151.226 173.725 151.887 172.68C152.559 171.635 153.668 171.112 155.215 171.112C156.762 171.112 157.866 171.635 158.527 172.68C159.199 173.725 159.535 175.171 159.535 177.016C159.535 178.872 159.199 180.328 158.527 181.384C157.866 182.44 156.762 182.968 155.215 182.968C153.668 182.968 152.559 182.44 151.887 181.384C151.226 180.328 150.895 178.872 150.895 177.016ZM157.327 177.016C157.327 176.227 157.274 175.565 157.167 175.032C157.071 174.488 156.868 174.045 156.559 173.704C156.26 173.363 155.812 173.192 155.215 173.192C154.618 173.192 154.164 173.363 153.855 173.704C153.556 174.045 153.354 174.488 153.247 175.032C153.151 175.565 153.103 176.227 153.103 177.016C153.103 177.827 153.151 178.509 153.247 179.064C153.343 179.608 153.546 180.051 153.855 180.392C154.164 180.723 154.618 180.888 155.215 180.888C155.812 180.888 156.266 180.723 156.575 180.392C156.884 180.051 157.087 179.608 157.183 179.064C157.279 178.509 157.327 177.827 157.327 177.016Z" fill="white"/>
<mask id="mask1_1054_1985" style="mask-type:alpha" maskUnits="userSpaceOnUse" x="173" y="164" width="38" height="42">
<path d="M200.968 179.652L182.903 169.277" stroke="white" stroke-linecap="round" stroke-linejoin="round"/>
<path d="M210 192.846V176.853C209.999 176.152 209.813 175.463 209.461 174.856C209.109 174.249 208.602 173.745 207.993 173.395L193.942 165.398C193.332 165.048 192.64 164.863 191.935 164.863C191.23 164.863 190.538 165.048 189.928 165.398L175.877 173.395C175.268 173.745 174.761 174.249 174.409 174.856C174.057 175.463 173.871 176.152 173.87 176.853V192.846C173.871 193.547 174.057 194.235 174.409 194.842C174.761 195.449 175.268 195.953 175.877 196.304L189.928 204.3C190.538 204.651 191.23 204.836 191.935 204.836C192.64 204.836 193.332 204.651 193.942 204.3L207.993 196.304C208.602 195.953 209.109 195.449 209.461 194.842C209.813 194.235 209.999 193.547 210 192.846Z" stroke="white" stroke-linecap="round" stroke-linejoin="round"/>
<path d="M174.412 174.774L191.935 184.869L209.458 174.774" stroke="white" stroke-linecap="round" stroke-linejoin="round"/>
<path d="M191.935 205V184.849" stroke="white" stroke-linecap="round" stroke-linejoin="round"/>
</mask>
<g mask="url(#mask1_1054_1985)">
<rect x="120" y="135" width="87" height="58" fill="white" fill-opacity="0.25"/>
</g>
<rect x="218.5" y="134.5" width="88" height="59" stroke="#D9D9D9"/>
<rect x="228" y="144" width="50" height="16" rx="8" fill="#2D292A"/>
<path d="M236.304 149.88V149.216H237.808V155H237.072V149.88H236.304ZM246.967 149.464V155H246.239V150.872L244.399 155H243.887L242.039 150.864V155H241.311V149.464H242.095L244.143 154.04L246.191 149.464H246.967ZM250.73 155.056C250.213 155.056 249.741 154.936 249.314 154.696C248.887 154.451 248.549 154.112 248.298 153.68C248.053 153.243 247.93 152.752 247.93 152.208C247.93 151.664 248.053 151.176 248.298 150.744C248.549 150.307 248.887 149.968 249.314 149.728C249.741 149.483 250.213 149.36 250.73 149.36C251.253 149.36 251.727 149.483 252.154 149.728C252.581 149.968 252.917 150.304 253.162 150.736C253.407 151.168 253.53 151.659 253.53 152.208C253.53 152.757 253.407 153.248 253.162 153.68C252.917 154.112 252.581 154.451 252.154 154.696C251.727 154.936 251.253 155.056 250.73 155.056ZM250.73 154.424C251.119 154.424 251.469 154.333 251.778 154.152C252.093 153.971 252.338 153.712 252.514 153.376C252.695 153.04 252.786 152.651 252.786 152.208C252.786 151.76 252.695 151.371 252.514 151.04C252.338 150.704 252.095 150.445 251.786 150.264C251.477 150.083 251.125 149.992 250.73 149.992C250.335 149.992 249.983 150.083 249.674 150.264C249.365 150.445 249.119 150.704 248.938 151.04C248.762 151.371 248.674 151.76 248.674 152.208C248.674 152.651 248.762 153.04 248.938 153.376C249.119 153.712 249.365 153.971 249.674 154.152C249.989 154.333 250.341 154.424 250.73 154.424ZM258.875 155H258.147L255.219 150.56V155H254.491V149.416H255.219L258.147 153.848V149.416H258.875V155ZM263.548 149.424V150.016H262.028V155H261.3V150.016H259.772V149.424H263.548ZM268.74 149.424V155H268.012V152.472H265.172V155H264.444V149.424H265.172V151.872H268.012V149.424H268.74Z" fill="white"/>
<path d="M237.072 179.784C237.072 180.339 236.928 180.861 236.64 181.352C236.363 181.832 235.947 182.232 235.392 182.552C234.848 182.861 234.203 183.043 233.456 183.096V184.392H232.432V183.08C231.365 182.984 230.507 182.664 229.856 182.12C229.205 181.565 228.869 180.819 228.848 179.88H231.248C231.312 180.648 231.707 181.112 232.432 181.272V178.216C231.664 178.024 231.045 177.832 230.576 177.64C230.107 177.448 229.701 177.139 229.36 176.712C229.019 176.285 228.848 175.704 228.848 174.968C228.848 174.04 229.179 173.283 229.84 172.696C230.512 172.109 231.376 171.773 232.432 171.688V170.392H233.456V171.688C234.48 171.773 235.296 172.083 235.904 172.616C236.523 173.149 236.869 173.885 236.944 174.824H234.528C234.496 174.515 234.384 174.248 234.192 174.024C234.011 173.789 233.765 173.624 233.456 173.528V176.552C234.256 176.755 234.885 176.952 235.344 177.144C235.813 177.325 236.219 177.629 236.56 178.056C236.901 178.472 237.072 179.048 237.072 179.784ZM231.184 174.856C231.184 175.208 231.291 175.496 231.504 175.72C231.717 175.933 232.027 176.109 232.432 176.248V173.48C232.048 173.533 231.744 173.677 231.52 173.912C231.296 174.147 231.184 174.461 231.184 174.856ZM233.456 181.304C233.861 181.229 234.176 181.064 234.4 180.808C234.635 180.552 234.752 180.243 234.752 179.88C234.752 179.528 234.64 179.245 234.416 179.032C234.192 178.819 233.872 178.643 233.456 178.504V181.304ZM239.349 174.408C239.402 173.341 239.775 172.52 240.469 171.944C241.173 171.357 242.095 171.064 243.237 171.064C244.015 171.064 244.682 171.203 245.237 171.48C245.791 171.747 246.207 172.115 246.485 172.584C246.773 173.043 246.917 173.565 246.917 174.152C246.917 174.824 246.741 175.395 246.389 175.864C246.047 176.323 245.637 176.632 245.157 176.792V176.856C245.775 177.048 246.255 177.389 246.597 177.88C246.949 178.371 247.125 179 247.125 179.768C247.125 180.408 246.975 180.979 246.677 181.48C246.389 181.981 245.957 182.376 245.381 182.664C244.815 182.941 244.133 183.08 243.333 183.08C242.127 183.08 241.146 182.776 240.389 182.168C239.631 181.56 239.231 180.664 239.189 179.48H241.365C241.386 180.003 241.562 180.424 241.893 180.744C242.234 181.053 242.698 181.208 243.285 181.208C243.829 181.208 244.245 181.059 244.533 180.76C244.831 180.451 244.981 180.056 244.981 179.576C244.981 178.936 244.778 178.477 244.373 178.2C243.967 177.923 243.338 177.784 242.485 177.784H242.021V175.944H242.485C243.999 175.944 244.757 175.437 244.757 174.424C244.757 173.965 244.618 173.608 244.341 173.352C244.074 173.096 243.685 172.968 243.173 172.968C242.671 172.968 242.282 173.107 242.005 173.384C241.738 173.651 241.583 173.992 241.541 174.408H239.349ZM256.735 173.272H251.551V176.008C251.775 175.731 252.095 175.507 252.511 175.336C252.927 175.155 253.37 175.064 253.839 175.064C254.692 175.064 255.391 175.251 255.935 175.624C256.479 175.997 256.874 176.477 257.119 177.064C257.364 177.64 257.487 178.259 257.487 178.92C257.487 180.147 257.135 181.133 256.431 181.88C255.738 182.627 254.746 183 253.455 183C252.239 183 251.268 182.696 250.543 182.088C249.818 181.48 249.407 180.685 249.311 179.704H251.487C251.583 180.131 251.796 180.472 252.127 180.728C252.468 180.984 252.9 181.112 253.423 181.112C254.052 181.112 254.527 180.915 254.847 180.52C255.167 180.125 255.327 179.603 255.327 178.952C255.327 178.291 255.162 177.789 254.831 177.448C254.511 177.096 254.036 176.92 253.407 176.92C252.959 176.92 252.586 177.032 252.287 177.256C251.988 177.48 251.775 177.779 251.647 178.152H249.503V171.304H256.735V173.272Z" fill="#3F434A"/>
<mask id="mask2_1054_1985" style="mask-type:alpha" maskUnits="userSpaceOnUse" x="272" y="164" width="38" height="42">
<path d="M299.968 179.652L281.903 169.277" stroke="#3F434A" stroke-linecap="round" stroke-linejoin="round"/>
<path d="M309 192.846V176.853C308.999 176.152 308.813 175.463 308.461 174.856C308.109 174.249 307.602 173.745 306.993 173.395L292.942 165.398C292.332 165.048 291.64 164.863 290.935 164.863C290.23 164.863 289.538 165.048 288.928 165.398L274.877 173.395C274.268 173.745 273.761 174.249 273.409 174.856C273.057 175.463 272.871 176.152 272.87 176.853V192.846C272.871 193.547 273.057 194.235 273.409 194.842C273.761 195.449 274.268 195.953 274.877 196.304L288.928 204.3C289.538 204.651 290.23 204.836 290.935 204.836C291.64 204.836 292.332 204.651 292.942 204.3L306.993 196.304C307.602 195.953 308.109 195.449 308.461 194.842C308.813 194.235 308.999 193.547 309 192.846Z" stroke="#3F434A" stroke-linecap="round" stroke-linejoin="round"/>
<path d="M273.412 174.774L290.935 184.869L308.458 174.774" stroke="#3F434A" stroke-linecap="round" stroke-linejoin="round"/>
<path d="M290.935 205V184.849" stroke="#3F434A" stroke-linecap="round" stroke-linejoin="round"/>
</mask>
<g mask="url(#mask2_1054_1985)">
<rect x="219" y="135" width="87" height="58" fill="#D9D9D9"/>
</g>
<rect x="0.5" y="0.5" width="345" height="213" stroke="#E0E0E0"/>
</svg>
